<?xml version="1.0" encoding="utf-8" standalone="no"?>
<!DOCTYPE svg PUBLIC "-//W3C//DTD SVG 1.1//EN"
  "http://www.w3.org/Graphics/SVG/1.1/DTD/svg11.dtd">
<svg xmlns:xlink="http://www.w3.org/1999/xlink" width="1080pt" height="864pt" viewBox="0 0 1080 864" xmlns="http://www.w3.org/2000/svg" version="1.1">
 <metadata>
  <rdf:RDF xmlns:dc="http://purl.org/dc/elements/1.1/" xmlns:cc="http://creativecommons.org/ns#" xmlns:rdf="http://www.w3.org/1999/02/22-rdf-syntax-ns#">
   <cc:Work>
    <dc:type rdf:resource="http://purl.org/dc/dcmitype/StillImage"/>
    <dc:date>2023-06-28T09:24:48.502216</dc:date>
    <dc:format>image/svg+xml</dc:format>
    <dc:creator>
     <cc:Agent>
      <dc:title>Matplotlib v3.6.2, https://matplotlib.org/</dc:title>
     </cc:Agent>
    </dc:creator>
   </cc:Work>
  </rdf:RDF>
 </metadata>
 <defs>
  <style type="text/css">*{stroke-linejoin: round; stroke-linecap: butt}</style>
 </defs>
 <g id="figure_1">
  <g id="patch_1">
   <path d="M 0 864 
L 1080 864 
L 1080 0 
L 0 0 
z
" style="fill: #ffffff"/>
  </g>
  <g id="axes_1">
   <g id="patch_2">
    <path d="M 135 768.96 
L 972 768.96 
L 972 103.68 
L 135 103.68 
z
" style="fill: #eaeaf2"/>
   </g>
   <g id="matplotlib.axis_1">
    <g id="xtick_1">
     <g id="line2d_1">
      <path d="M 173.045455 768.96 
L 173.045455 103.68 
" clip-path="url(#pd52cecba52)" style="fill: none; stroke: #ffffff; stroke-linecap: round"/>
     </g>
     <g id="text_1">
      <!-- 0 -->
      <g style="fill: #262626" transform="translate(169.54608 786.818281) scale(0.11 -0.11)">
       <defs>
        <path id="DejaVuSans-30" d="M 2034 4250 
Q 1547 4250 1301 3770 
Q 1056 3291 1056 2328 
Q 1056 1369 1301 889 
Q 1547 409 2034 409 
Q 2525 409 2770 889 
Q 3016 1369 3016 2328 
Q 3016 3291 2770 3770 
Q 2525 4250 2034 4250 
z
M 2034 4750 
Q 2819 4750 3233 4129 
Q 3647 3509 3647 2328 
Q 3647 1150 3233 529 
Q 2819 -91 2034 -91 
Q 1250 -91 836 529 
Q 422 1150 422 2328 
Q 422 3509 836 4129 
Q 1250 4750 2034 4750 
z
" transform="scale(0.015625)"/>
       </defs>
       <use xlink:href="#DejaVuSans-30"/>
      </g>
     </g>
    </g>
    <g id="xtick_2">
     <g id="line2d_2">
      <path d="M 268.206672 768.96 
L 268.206672 103.68 
" clip-path="url(#pd52cecba52)" style="fill: none; stroke: #ffffff; stroke-linecap: round"/>
     </g>
     <g id="text_2">
      <!-- 250 -->
      <g style="fill: #262626" transform="translate(257.708547 786.818281) scale(0.11 -0.11)">
       <defs>
        <path id="DejaVuSans-32" d="M 1228 531 
L 3431 531 
L 3431 0 
L 469 0 
L 469 531 
Q 828 903 1448 1529 
Q 2069 2156 2228 2338 
Q 2531 2678 2651 2914 
Q 2772 3150 2772 3378 
Q 2772 3750 2511 3984 
Q 2250 4219 1831 4219 
Q 1534 4219 1204 4116 
Q 875 4013 500 3803 
L 500 4441 
Q 881 4594 1212 4672 
Q 1544 4750 1819 4750 
Q 2544 4750 2975 4387 
Q 3406 4025 3406 3419 
Q 3406 3131 3298 2873 
Q 3191 2616 2906 2266 
Q 2828 2175 2409 1742 
Q 1991 1309 1228 531 
z
" transform="scale(0.015625)"/>
        <path id="DejaVuSans-35" d="M 691 4666 
L 3169 4666 
L 3169 4134 
L 1269 4134 
L 1269 2991 
Q 1406 3038 1543 3061 
Q 1681 3084 1819 3084 
Q 2600 3084 3056 2656 
Q 3513 2228 3513 1497 
Q 3513 744 3044 326 
Q 2575 -91 1722 -91 
Q 1428 -91 1123 -41 
Q 819 9 494 109 
L 494 744 
Q 775 591 1075 516 
Q 1375 441 1709 441 
Q 2250 441 2565 725 
Q 2881 1009 2881 1497 
Q 2881 1984 2565 2268 
Q 2250 2553 1709 2553 
Q 1456 2553 1204 2497 
Q 953 2441 691 2322 
L 691 4666 
z
" transform="scale(0.015625)"/>
       </defs>
       <use xlink:href="#DejaVuSans-32"/>
       <use xlink:href="#DejaVuSans-35" x="63.623047"/>
       <use xlink:href="#DejaVuSans-30" x="127.246094"/>
      </g>
     </g>
    </g>
    <g id="xtick_3">
     <g id="line2d_3">
      <path d="M 363.367888 768.96 
L 363.367888 103.68 
" clip-path="url(#pd52cecba52)" style="fill: none; stroke: #ffffff; stroke-linecap: round"/>
     </g>
     <g id="text_3">
      <!-- 500 -->
      <g style="fill: #262626" transform="translate(352.869763 786.818281) scale(0.11 -0.11)">
       <use xlink:href="#DejaVuSans-35"/>
       <use xlink:href="#DejaVuSans-30" x="63.623047"/>
       <use xlink:href="#DejaVuSans-30" x="127.246094"/>
      </g>
     </g>
    </g>
    <g id="xtick_4">
     <g id="line2d_4">
      <path d="M 458.529105 768.96 
L 458.529105 103.68 
" clip-path="url(#pd52cecba52)" style="fill: none; stroke: #ffffff; stroke-linecap: round"/>
     </g>
     <g id="text_4">
      <!-- 750 -->
      <g style="fill: #262626" transform="translate(448.03098 786.818281) scale(0.11 -0.11)">
       <defs>
        <path id="DejaVuSans-37" d="M 525 4666 
L 3525 4666 
L 3525 4397 
L 1831 0 
L 1172 0 
L 2766 4134 
L 525 4134 
L 525 4666 
z
" transform="scale(0.015625)"/>
       </defs>
       <use xlink:href="#DejaVuSans-37"/>
       <use xlink:href="#DejaVuSans-35" x="63.623047"/>
       <use xlink:href="#DejaVuSans-30" x="127.246094"/>
      </g>
     </g>
    </g>
    <g id="xtick_5">
     <g id="line2d_5">
      <path d="M 553.690322 768.96 
L 553.690322 103.68 
" clip-path="url(#pd52cecba52)" style="fill: none; stroke: #ffffff; stroke-linecap: round"/>
     </g>
     <g id="text_5">
      <!-- 1000 -->
      <g style="fill: #262626" transform="translate(539.692822 786.818281) scale(0.11 -0.11)">
       <defs>
        <path id="DejaVuSans-31" d="M 794 531 
L 1825 531 
L 1825 4091 
L 703 3866 
L 703 4441 
L 1819 4666 
L 2450 4666 
L 2450 531 
L 3481 531 
L 3481 0 
L 794 0 
L 794 531 
z
" transform="scale(0.015625)"/>
       </defs>
       <use xlink:href="#DejaVuSans-31"/>
       <use xlink:href="#DejaVuSans-30" x="63.623047"/>
       <use xlink:href="#DejaVuSans-30" x="127.246094"/>
       <use xlink:href="#DejaVuSans-30" x="190.869141"/>
      </g>
     </g>
    </g>
    <g id="xtick_6">
     <g id="line2d_6">
      <path d="M 648.851539 768.96 
L 648.851539 103.68 
" clip-path="url(#pd52cecba52)" style="fill: none; stroke: #ffffff; stroke-linecap: round"/>
     </g>
     <g id="text_6">
      <!-- 1250 -->
      <g style="fill: #262626" transform="translate(634.854039 786.818281) scale(0.11 -0.11)">
       <use xlink:href="#DejaVuSans-31"/>
       <use xlink:href="#DejaVuSans-32" x="63.623047"/>
       <use xlink:href="#DejaVuSans-35" x="127.246094"/>
       <use xlink:href="#DejaVuSans-30" x="190.869141"/>
      </g>
     </g>
    </g>
    <g id="xtick_7">
     <g id="line2d_7">
      <path d="M 744.012756 768.96 
L 744.012756 103.68 
" clip-path="url(#pd52cecba52)" style="fill: none; stroke: #ffffff; stroke-linecap: round"/>
     </g>
     <g id="text_7">
      <!-- 1500 -->
      <g style="fill: #262626" transform="translate(730.015256 786.818281) scale(0.11 -0.11)">
       <use xlink:href="#DejaVuSans-31"/>
       <use xlink:href="#DejaVuSans-35" x="63.623047"/>
       <use xlink:href="#DejaVuSans-30" x="127.246094"/>
       <use xlink:href="#DejaVuSans-30" x="190.869141"/>
      </g>
     </g>
    </g>
    <g id="xtick_8">
     <g id="line2d_8">
      <path d="M 839.173973 768.96 
L 839.173973 103.68 
" clip-path="url(#pd52cecba52)" style="fill: none; stroke: #ffffff; stroke-linecap: round"/>
     </g>
     <g id="text_8">
      <!-- 1750 -->
      <g style="fill: #262626" transform="translate(825.176473 786.818281) scale(0.11 -0.11)">
       <use xlink:href="#DejaVuSans-31"/>
       <use xlink:href="#DejaVuSans-37" x="63.623047"/>
       <use xlink:href="#DejaVuSans-35" x="127.246094"/>
       <use xlink:href="#DejaVuSans-30" x="190.869141"/>
      </g>
     </g>
    </g>
    <g id="xtick_9">
     <g id="line2d_9">
      <path d="M 934.33519 768.96 
L 934.33519 103.68 
" clip-path="url(#pd52cecba52)" style="fill: none; stroke: #ffffff; stroke-linecap: round"/>
     </g>
     <g id="text_9">
      <!-- 2000 -->
      <g style="fill: #262626" transform="translate(920.33769 786.818281) scale(0.11 -0.11)">
       <use xlink:href="#DejaVuSans-32"/>
       <use xlink:href="#DejaVuSans-30" x="63.623047"/>
       <use xlink:href="#DejaVuSans-30" x="127.246094"/>
       <use xlink:href="#DejaVuSans-30" x="190.869141"/>
      </g>
     </g>
    </g>
    <g id="text_10">
     <!-- frames -->
     <g style="fill: #262626" transform="translate(529.989375 802.224063) scale(0.12 -0.12)">
      <defs>
       <path id="DejaVuSans-Bold-66" d="M 2841 4863 
L 2841 4128 
L 2222 4128 
Q 1984 4128 1890 4042 
Q 1797 3956 1797 3744 
L 1797 3500 
L 2753 3500 
L 2753 2700 
L 1797 2700 
L 1797 0 
L 678 0 
L 678 2700 
L 122 2700 
L 122 3500 
L 678 3500 
L 678 3744 
Q 678 4316 997 4589 
Q 1316 4863 1984 4863 
L 2841 4863 
z
" transform="scale(0.015625)"/>
       <path id="DejaVuSans-Bold-72" d="M 3138 2547 
Q 2991 2616 2845 2648 
Q 2700 2681 2553 2681 
Q 2122 2681 1889 2404 
Q 1656 2128 1656 1613 
L 1656 0 
L 538 0 
L 538 3500 
L 1656 3500 
L 1656 2925 
Q 1872 3269 2151 3426 
Q 2431 3584 2822 3584 
Q 2878 3584 2943 3579 
Q 3009 3575 3134 3559 
L 3138 2547 
z
" transform="scale(0.015625)"/>
       <path id="DejaVuSans-Bold-61" d="M 2106 1575 
Q 1756 1575 1579 1456 
Q 1403 1338 1403 1106 
Q 1403 894 1545 773 
Q 1688 653 1941 653 
Q 2256 653 2472 879 
Q 2688 1106 2688 1447 
L 2688 1575 
L 2106 1575 
z
M 3816 1997 
L 3816 0 
L 2688 0 
L 2688 519 
Q 2463 200 2181 54 
Q 1900 -91 1497 -91 
Q 953 -91 614 226 
Q 275 544 275 1050 
Q 275 1666 698 1953 
Q 1122 2241 2028 2241 
L 2688 2241 
L 2688 2328 
Q 2688 2594 2478 2717 
Q 2269 2841 1825 2841 
Q 1466 2841 1156 2769 
Q 847 2697 581 2553 
L 581 3406 
Q 941 3494 1303 3539 
Q 1666 3584 2028 3584 
Q 2975 3584 3395 3211 
Q 3816 2838 3816 1997 
z
" transform="scale(0.015625)"/>
       <path id="DejaVuSans-Bold-6d" d="M 3781 2919 
Q 3994 3244 4286 3414 
Q 4578 3584 4928 3584 
Q 5531 3584 5847 3212 
Q 6163 2841 6163 2131 
L 6163 0 
L 5038 0 
L 5038 1825 
Q 5041 1866 5042 1909 
Q 5044 1953 5044 2034 
Q 5044 2406 4934 2573 
Q 4825 2741 4581 2741 
Q 4263 2741 4089 2478 
Q 3916 2216 3909 1719 
L 3909 0 
L 2784 0 
L 2784 1825 
Q 2784 2406 2684 2573 
Q 2584 2741 2328 2741 
Q 2006 2741 1831 2477 
Q 1656 2213 1656 1722 
L 1656 0 
L 531 0 
L 531 3500 
L 1656 3500 
L 1656 2988 
Q 1863 3284 2130 3434 
Q 2397 3584 2719 3584 
Q 3081 3584 3359 3409 
Q 3638 3234 3781 2919 
z
" transform="scale(0.015625)"/>
       <path id="DejaVuSans-Bold-65" d="M 4031 1759 
L 4031 1441 
L 1416 1441 
Q 1456 1047 1700 850 
Q 1944 653 2381 653 
Q 2734 653 3104 758 
Q 3475 863 3866 1075 
L 3866 213 
Q 3469 63 3072 -14 
Q 2675 -91 2278 -91 
Q 1328 -91 801 392 
Q 275 875 275 1747 
Q 275 2603 792 3093 
Q 1309 3584 2216 3584 
Q 3041 3584 3536 3087 
Q 4031 2591 4031 1759 
z
M 2881 2131 
Q 2881 2450 2695 2645 
Q 2509 2841 2209 2841 
Q 1884 2841 1681 2658 
Q 1478 2475 1428 2131 
L 2881 2131 
z
" transform="scale(0.015625)"/>
       <path id="DejaVuSans-Bold-73" d="M 3272 3391 
L 3272 2541 
Q 2913 2691 2578 2766 
Q 2244 2841 1947 2841 
Q 1628 2841 1473 2761 
Q 1319 2681 1319 2516 
Q 1319 2381 1436 2309 
Q 1553 2238 1856 2203 
L 2053 2175 
Q 2913 2066 3209 1816 
Q 3506 1566 3506 1031 
Q 3506 472 3093 190 
Q 2681 -91 1863 -91 
Q 1516 -91 1145 -36 
Q 775 19 384 128 
L 384 978 
Q 719 816 1070 734 
Q 1422 653 1784 653 
Q 2113 653 2278 743 
Q 2444 834 2444 1013 
Q 2444 1163 2330 1236 
Q 2216 1309 1875 1350 
L 1678 1375 
Q 931 1469 631 1722 
Q 331 1975 331 2491 
Q 331 3047 712 3315 
Q 1094 3584 1881 3584 
Q 2191 3584 2531 3537 
Q 2872 3491 3272 3391 
z
" transform="scale(0.015625)"/>
      </defs>
      <use xlink:href="#DejaVuSans-Bold-66"/>
      <use xlink:href="#DejaVuSans-Bold-72" x="43.505859"/>
      <use xlink:href="#DejaVuSans-Bold-61" x="92.822266"/>
      <use xlink:href="#DejaVuSans-Bold-6d" x="160.302734"/>
      <use xlink:href="#DejaVuSans-Bold-65" x="264.501953"/>
      <use xlink:href="#DejaVuSans-Bold-73" x="332.324219"/>
     </g>
    </g>
   </g>
   <g id="matplotlib.axis_2">
    <g id="ytick_1">
     <g id="line2d_10">
      <path d="M 135 738.720032 
L 972 738.720032 
" clip-path="url(#pd52cecba52)" style="fill: none; stroke: #ffffff; stroke-linecap: round"/>
     </g>
     <g id="text_11">
      <!-- 0 -->
      <g style="fill: #262626" transform="translate(118.50125 742.899173) scale(0.11 -0.11)">
       <use xlink:href="#DejaVuSans-30"/>
      </g>
     </g>
    </g>
    <g id="ytick_2">
     <g id="line2d_11">
      <path d="M 135 649.495569 
L 972 649.495569 
" clip-path="url(#pd52cecba52)" style="fill: none; stroke: #ffffff; stroke-linecap: round"/>
     </g>
     <g id="text_12">
      <!-- 2 -->
      <g style="fill: #262626" transform="translate(118.50125 653.67471) scale(0.11 -0.11)">
       <use xlink:href="#DejaVuSans-32"/>
      </g>
     </g>
    </g>
    <g id="ytick_3">
     <g id="line2d_12">
      <path d="M 135 560.271106 
L 972 560.271106 
" clip-path="url(#pd52cecba52)" style="fill: none; stroke: #ffffff; stroke-linecap: round"/>
     </g>
     <g id="text_13">
      <!-- 4 -->
      <g style="fill: #262626" transform="translate(118.50125 564.450246) scale(0.11 -0.11)">
       <defs>
        <path id="DejaVuSans-34" d="M 2419 4116 
L 825 1625 
L 2419 1625 
L 2419 4116 
z
M 2253 4666 
L 3047 4666 
L 3047 1625 
L 3713 1625 
L 3713 1100 
L 3047 1100 
L 3047 0 
L 2419 0 
L 2419 1100 
L 313 1100 
L 313 1709 
L 2253 4666 
z
" transform="scale(0.015625)"/>
       </defs>
       <use xlink:href="#DejaVuSans-34"/>
      </g>
     </g>
    </g>
    <g id="ytick_4">
     <g id="line2d_13">
      <path d="M 135 471.046642 
L 972 471.046642 
" clip-path="url(#pd52cecba52)" style="fill: none; stroke: #ffffff; stroke-linecap: round"/>
     </g>
     <g id="text_14">
      <!-- 6 -->
      <g style="fill: #262626" transform="translate(118.50125 475.225783) scale(0.11 -0.11)">
       <defs>
        <path id="DejaVuSans-36" d="M 2113 2584 
Q 1688 2584 1439 2293 
Q 1191 2003 1191 1497 
Q 1191 994 1439 701 
Q 1688 409 2113 409 
Q 2538 409 2786 701 
Q 3034 994 3034 1497 
Q 3034 2003 2786 2293 
Q 2538 2584 2113 2584 
z
M 3366 4563 
L 3366 3988 
Q 3128 4100 2886 4159 
Q 2644 4219 2406 4219 
Q 1781 4219 1451 3797 
Q 1122 3375 1075 2522 
Q 1259 2794 1537 2939 
Q 1816 3084 2150 3084 
Q 2853 3084 3261 2657 
Q 3669 2231 3669 1497 
Q 3669 778 3244 343 
Q 2819 -91 2113 -91 
Q 1303 -91 875 529 
Q 447 1150 447 2328 
Q 447 3434 972 4092 
Q 1497 4750 2381 4750 
Q 2619 4750 2861 4703 
Q 3103 4656 3366 4563 
z
" transform="scale(0.015625)"/>
       </defs>
       <use xlink:href="#DejaVuSans-36"/>
      </g>
     </g>
    </g>
    <g id="ytick_5">
     <g id="line2d_14">
      <path d="M 135 381.822179 
L 972 381.822179 
" clip-path="url(#pd52cecba52)" style="fill: none; stroke: #ffffff; stroke-linecap: round"/>
     </g>
     <g id="text_15">
      <!-- 8 -->
      <g style="fill: #262626" transform="translate(118.50125 386.001319) scale(0.11 -0.11)">
       <defs>
        <path id="DejaVuSans-38" d="M 2034 2216 
Q 1584 2216 1326 1975 
Q 1069 1734 1069 1313 
Q 1069 891 1326 650 
Q 1584 409 2034 409 
Q 2484 409 2743 651 
Q 3003 894 3003 1313 
Q 3003 1734 2745 1975 
Q 2488 2216 2034 2216 
z
M 1403 2484 
Q 997 2584 770 2862 
Q 544 3141 544 3541 
Q 544 4100 942 4425 
Q 1341 4750 2034 4750 
Q 2731 4750 3128 4425 
Q 3525 4100 3525 3541 
Q 3525 3141 3298 2862 
Q 3072 2584 2669 2484 
Q 3125 2378 3379 2068 
Q 3634 1759 3634 1313 
Q 3634 634 3220 271 
Q 2806 -91 2034 -91 
Q 1263 -91 848 271 
Q 434 634 434 1313 
Q 434 1759 690 2068 
Q 947 2378 1403 2484 
z
M 1172 3481 
Q 1172 3119 1398 2916 
Q 1625 2713 2034 2713 
Q 2441 2713 2670 2916 
Q 2900 3119 2900 3481 
Q 2900 3844 2670 4047 
Q 2441 4250 2034 4250 
Q 1625 4250 1398 4047 
Q 1172 3844 1172 3481 
z
" transform="scale(0.015625)"/>
       </defs>
       <use xlink:href="#DejaVuSans-38"/>
      </g>
     </g>
    </g>
    <g id="ytick_6">
     <g id="line2d_15">
      <path d="M 135 292.597715 
L 972 292.597715 
" clip-path="url(#pd52cecba52)" style="fill: none; stroke: #ffffff; stroke-linecap: round"/>
     </g>
     <g id="text_16">
      <!-- 10 -->
      <g style="fill: #262626" transform="translate(111.5025 296.776856) scale(0.11 -0.11)">
       <use xlink:href="#DejaVuSans-31"/>
       <use xlink:href="#DejaVuSans-30" x="63.623047"/>
      </g>
     </g>
    </g>
    <g id="ytick_7">
     <g id="line2d_16">
      <path d="M 135 203.373252 
L 972 203.373252 
" clip-path="url(#pd52cecba52)" style="fill: none; stroke: #ffffff; stroke-linecap: round"/>
     </g>
     <g id="text_17">
      <!-- 12 -->
      <g style="fill: #262626" transform="translate(111.5025 207.552393) scale(0.11 -0.11)">
       <use xlink:href="#DejaVuSans-31"/>
       <use xlink:href="#DejaVuSans-32" x="63.623047"/>
      </g>
     </g>
    </g>
    <g id="ytick_8">
     <g id="line2d_17">
      <path d="M 135 114.148789 
L 972 114.148789 
" clip-path="url(#pd52cecba52)" style="fill: none; stroke: #ffffff; stroke-linecap: round"/>
     </g>
     <g id="text_18">
      <!-- 14 -->
      <g style="fill: #262626" transform="translate(111.5025 118.327929) scale(0.11 -0.11)">
       <use xlink:href="#DejaVuSans-31"/>
       <use xlink:href="#DejaVuSans-34" x="63.623047"/>
      </g>
     </g>
    </g>
    <g id="text_19">
     <!-- RMSD (Å) -->
     <g style="fill: #262626" transform="translate(105.006875 468.429375) rotate(-90) scale(0.12 -0.12)">
      <defs>
       <path id="DejaVuSans-Bold-52" d="M 2297 2597 
Q 2675 2597 2839 2737 
Q 3003 2878 3003 3200 
Q 3003 3519 2839 3656 
Q 2675 3794 2297 3794 
L 1791 3794 
L 1791 2597 
L 2297 2597 
z
M 1791 1766 
L 1791 0 
L 588 0 
L 588 4666 
L 2425 4666 
Q 3347 4666 3776 4356 
Q 4206 4047 4206 3378 
Q 4206 2916 3982 2619 
Q 3759 2322 3309 2181 
Q 3556 2125 3751 1926 
Q 3947 1728 4147 1325 
L 4800 0 
L 3519 0 
L 2950 1159 
Q 2778 1509 2601 1637 
Q 2425 1766 2131 1766 
L 1791 1766 
z
" transform="scale(0.015625)"/>
       <path id="DejaVuSans-Bold-4d" d="M 588 4666 
L 2119 4666 
L 3181 2169 
L 4250 4666 
L 5778 4666 
L 5778 0 
L 4641 0 
L 4641 3413 
L 3566 897 
L 2803 897 
L 1728 3413 
L 1728 0 
L 588 0 
L 588 4666 
z
" transform="scale(0.015625)"/>
       <path id="DejaVuSans-Bold-53" d="M 3834 4519 
L 3834 3531 
Q 3450 3703 3084 3790 
Q 2719 3878 2394 3878 
Q 1963 3878 1756 3759 
Q 1550 3641 1550 3391 
Q 1550 3203 1689 3098 
Q 1828 2994 2194 2919 
L 2706 2816 
Q 3484 2659 3812 2340 
Q 4141 2022 4141 1434 
Q 4141 663 3683 286 
Q 3225 -91 2284 -91 
Q 1841 -91 1394 -6 
Q 947 78 500 244 
L 500 1259 
Q 947 1022 1364 901 
Q 1781 781 2169 781 
Q 2563 781 2772 912 
Q 2981 1044 2981 1288 
Q 2981 1506 2839 1625 
Q 2697 1744 2272 1838 
L 1806 1941 
Q 1106 2091 782 2419 
Q 459 2747 459 3303 
Q 459 4000 909 4375 
Q 1359 4750 2203 4750 
Q 2588 4750 2994 4692 
Q 3400 4634 3834 4519 
z
" transform="scale(0.015625)"/>
       <path id="DejaVuSans-Bold-44" d="M 1791 3756 
L 1791 909 
L 2222 909 
Q 2959 909 3348 1275 
Q 3738 1641 3738 2338 
Q 3738 3031 3350 3393 
Q 2963 3756 2222 3756 
L 1791 3756 
z
M 588 4666 
L 1856 4666 
Q 2919 4666 3439 4514 
Q 3959 4363 4331 4000 
Q 4659 3684 4818 3271 
Q 4978 2859 4978 2338 
Q 4978 1809 4818 1395 
Q 4659 981 4331 666 
Q 3956 303 3431 151 
Q 2906 0 1856 0 
L 588 0 
L 588 4666 
z
" transform="scale(0.015625)"/>
       <path id="DejaVuSans-Bold-20" transform="scale(0.015625)"/>
       <path id="DejaVuSans-Bold-28" d="M 2413 -844 
L 1484 -844 
Q 1006 -72 778 623 
Q 550 1319 550 2003 
Q 550 2688 779 3389 
Q 1009 4091 1484 4856 
L 2413 4856 
Q 2013 4116 1813 3408 
Q 1613 2700 1613 2009 
Q 1613 1319 1811 609 
Q 2009 -100 2413 -844 
z
" transform="scale(0.015625)"/>
       <path id="DejaVuSans-Bold-212b" d="M 3225 4575 
L 4922 0 
L 3713 0 
L 3419 850 
L 1538 850 
L 1241 0 
L 31 0 
L 1728 4575 
Q 1656 4681 1622 4798 
Q 1588 4916 1588 5050 
Q 1588 5416 1848 5678 
Q 2109 5941 2478 5941 
Q 2841 5941 3103 5678 
Q 3366 5416 3366 5050 
Q 3366 4903 3331 4784 
Q 3297 4666 3225 4575 
z
M 2069 5050 
Q 2069 4881 2189 4761 
Q 2309 4641 2478 4641 
Q 2647 4641 2767 4761 
Q 2888 4881 2888 5050 
Q 2888 5219 2766 5339 
Q 2644 5459 2478 5459 
Q 2309 5459 2189 5339 
Q 2069 5219 2069 5050 
z
M 1838 1716 
L 3116 1716 
L 2478 3572 
L 1838 1716 
z
" transform="scale(0.015625)"/>
       <path id="DejaVuSans-Bold-29" d="M 513 -844 
Q 913 -100 1113 609 
Q 1313 1319 1313 2009 
Q 1313 2700 1113 3408 
Q 913 4116 513 4856 
L 1441 4856 
Q 1916 4091 2145 3389 
Q 2375 2688 2375 2003 
Q 2375 1319 2147 623 
Q 1919 -72 1441 -844 
L 513 -844 
z
" transform="scale(0.015625)"/>
      </defs>
      <use xlink:href="#DejaVuSans-Bold-52"/>
      <use xlink:href="#DejaVuSans-Bold-4d" x="77.001953"/>
      <use xlink:href="#DejaVuSans-Bold-53" x="176.513672"/>
      <use xlink:href="#DejaVuSans-Bold-44" x="248.535156"/>
      <use xlink:href="#DejaVuSans-Bold-20" x="331.542969"/>
      <use xlink:href="#DejaVuSans-Bold-28" x="366.357422"/>
      <use xlink:href="#DejaVuSans-Bold-212b" x="412.060547"/>
      <use xlink:href="#DejaVuSans-Bold-29" x="489.453125"/>
     </g>
    </g>
   </g>
   <g id="PolyCollection_1"/>
   <g id="line2d_18">
    <path d="M 173.045455 292.428683 
L 173.426099 302.633586 
L 173.806744 304.869792 
L 174.187389 293.44824 
L 174.568034 292.532286 
L 174.948679 298.004843 
L 175.329324 301.441179 
L 175.709969 302.63223 
L 176.090613 307.039806 
L 176.471258 316.18405 
L 176.851903 320.118147 
L 177.232548 318.828664 
L 177.613193 314.737836 
L 177.993838 320.346936 
L 178.755128 314.605358 
L 179.135772 310.802714 
L 179.516417 305.441026 
L 180.277707 282.170721 
L 180.658352 281.706426 
L 181.038997 283.449122 
L 181.419642 274.785058 
L 181.800287 272.111361 
L 182.942221 249.947298 
L 183.322866 256.238597 
L 184.084156 262.712749 
L 185.22609 285.76859 
L 185.606735 283.011561 
L 185.98738 295.397547 
L 186.368025 292.570381 
L 186.74867 292.793302 
L 187.890604 274.511491 
L 188.271249 263.056911 
L 188.651894 255.301672 
L 189.032539 255.833853 
L 189.413184 253.224911 
L 189.793829 253.566844 
L 190.174474 258.299059 
L 190.555118 251.415954 
L 190.935763 254.546762 
L 191.697053 246.635819 
L 192.077698 256.23896 
L 192.458343 258.224164 
L 192.838988 261.558344 
L 193.600277 260.227055 
L 193.980922 264.808999 
L 194.361567 274.879699 
L 195.122857 288.494613 
L 195.884147 277.28088 
L 196.264791 283.636214 
L 196.645436 279.09695 
L 197.787371 249.027803 
L 198.168016 257.341483 
L 198.548661 259.83183 
L 198.929306 263.242727 
L 199.30995 264.642795 
L 199.690595 260.682758 
L 200.07124 251.495298 
L 200.451885 253.185709 
L 201.213175 268.626372 
L 201.59382 275.875006 
L 202.355109 264.37238 
L 202.735754 254.812952 
L 203.116399 241.020491 
L 203.497044 240.705107 
L 203.877689 245.248864 
L 204.258334 243.193227 
L 204.638979 242.278807 
L 205.019623 256.063623 
L 205.400268 254.647586 
L 206.161558 244.273733 
L 206.542203 250.306083 
L 206.922848 250.081829 
L 207.303493 252.106413 
L 207.684138 252.619442 
L 208.064782 256.570437 
L 209.206717 232.02471 
L 209.587362 229.241423 
L 209.968007 230.509812 
L 210.729296 247.474299 
L 211.109941 251.046715 
L 211.490586 256.546587 
L 211.871231 254.018778 
L 212.251876 249.835253 
L 212.632521 255.000224 
L 213.013166 256.714044 
L 213.393811 256.902002 
L 213.774455 264.369562 
L 214.1551 263.763643 
L 214.535745 260.121212 
L 214.91639 253.344274 
L 215.297035 250.858624 
L 215.67768 247.050734 
L 216.058325 265.392912 
L 216.438969 267.235253 
L 216.819614 270.564323 
L 217.200259 271.22641 
L 217.961549 281.837941 
L 218.342194 282.810455 
L 218.722839 287.857384 
L 219.103484 286.232316 
L 219.484128 290.550426 
L 219.864773 297.442782 
L 220.245418 300.117638 
L 220.626063 296.204245 
L 221.006708 301.429577 
L 221.387353 294.806273 
L 221.767998 293.926956 
L 222.148643 294.43265 
L 222.529287 296.33599 
L 223.290577 311.207044 
L 223.671222 299.670183 
L 224.051867 303.188636 
L 224.432512 302.25885 
L 224.813157 298.836106 
L 225.193801 285.236122 
L 226.335736 259.224148 
L 226.716381 254.408371 
L 227.097026 256.991271 
L 227.477671 255.593641 
L 227.858316 259.024266 
L 228.23896 259.705382 
L 228.619605 262.715751 
L 229.00025 260.869948 
L 229.380895 264.207284 
L 230.142185 276.286898 
L 230.52283 278.664614 
L 231.284119 289.63556 
L 231.664764 290.934228 
L 232.045409 294.613114 
L 232.426054 295.47586 
L 232.806699 281.612382 
L 233.187344 279.158569 
L 233.948633 269.634964 
L 234.329278 276.801012 
L 234.709923 270.949094 
L 235.090568 262.767275 
L 235.471213 260.672324 
L 235.851858 262.484043 
L 236.613147 272.970412 
L 236.993792 281.328575 
L 237.374437 277.04226 
L 237.755082 277.371056 
L 238.135727 277.314088 
L 238.516372 275.737342 
L 238.897017 276.912268 
L 239.277662 276.4765 
L 240.038951 261.942728 
L 240.419596 264.146944 
L 240.800241 274.46832 
L 241.180886 281.693172 
L 241.561531 286.174217 
L 241.942176 282.399901 
L 242.322821 291.262184 
L 243.08411 293.6444 
L 243.464755 293.004742 
L 243.8454 289.646002 
L 244.226045 289.570932 
L 244.60669 283.490998 
L 244.987335 288.929161 
L 245.367979 287.355509 
L 245.748624 288.561955 
L 246.129269 294.922988 
L 246.509914 297.668915 
L 246.890559 298.417292 
L 247.271204 305.262109 
L 247.651849 305.732022 
L 248.032494 309.478855 
L 248.413138 304.273165 
L 248.793783 304.223875 
L 249.174428 312.428671 
L 249.555073 316.825389 
L 249.935718 312.629577 
L 250.316363 302.222831 
L 250.697008 299.810791 
L 251.077652 301.014344 
L 251.838942 277.050598 
L 252.219587 273.533109 
L 252.980877 273.188899 
L 253.742167 270.315569 
L 254.122811 275.115482 
L 254.884101 299.07473 
L 255.264746 303.718571 
L 255.645391 310.671244 
L 256.026036 313.782148 
L 256.787325 294.744224 
L 257.16797 301.427146 
L 257.548615 304.830191 
L 258.69055 294.634807 
L 259.071195 287.843602 
L 259.45184 275.870177 
L 259.832484 273.07653 
L 260.213129 266.72175 
L 260.593774 268.307321 
L 260.974419 274.943802 
L 261.355064 272.573464 
L 261.735709 258.989337 
L 262.116354 262.065868 
L 262.496998 258.839767 
L 262.877643 252.509756 
L 263.258288 258.298438 
L 263.638933 250.999239 
L 264.019578 240.948586 
L 264.400223 241.63957 
L 264.780868 240.860332 
L 265.161513 246.053043 
L 265.542157 246.050966 
L 265.922802 250.20799 
L 266.303447 252.835731 
L 267.064737 243.668582 
L 267.445382 232.641703 
L 267.826027 232.757998 
L 268.206672 242.944252 
L 268.587316 238.490253 
L 268.967961 246.484915 
L 269.348606 244.221593 
L 269.729251 245.616269 
L 270.109896 242.174644 
L 270.490541 244.515234 
L 270.871186 234.481519 
L 271.25183 235.21761 
L 272.01312 241.726476 
L 272.393765 239.847178 
L 272.77441 236.873615 
L 273.155055 226.11363 
L 273.5357 226.569977 
L 273.916345 228.385781 
L 274.677634 247.349813 
L 275.058279 259.954416 
L 275.438924 263.66782 
L 275.819569 257.447935 
L 276.200214 253.184851 
L 276.961503 233.884982 
L 277.342148 228.756861 
L 278.103438 232.496549 
L 278.484083 230.985899 
L 278.864728 234.862846 
L 279.245373 230.29572 
L 280.006662 210.593792 
L 280.387307 204.756016 
L 280.767952 209.590849 
L 281.148597 215.90478 
L 281.529242 219.170669 
L 281.909887 217.855152 
L 282.290532 226.488536 
L 282.671176 241.105345 
L 283.432466 252.425289 
L 283.813111 249.476508 
L 284.193756 240.181046 
L 284.955046 216.645845 
L 285.335691 210.064846 
L 285.716335 209.647396 
L 286.09698 202.409449 
L 286.477625 200.664754 
L 286.85827 199.694006 
L 287.238915 199.498675 
L 287.61956 207.806325 
L 288.000205 207.516489 
L 288.38085 206.695502 
L 288.761494 199.539621 
L 289.142139 200.821664 
L 289.903429 192.341148 
L 290.284074 197.696186 
L 290.664719 195.92668 
L 291.045364 191.876765 
L 291.806653 213.819727 
L 292.187298 215.624004 
L 293.329233 193.972044 
L 293.709878 199.686411 
L 294.090523 196.922123 
L 294.471167 204.35811 
L 294.851812 216.877476 
L 295.232457 220.433264 
L 295.993747 221.189588 
L 296.374392 225.639027 
L 296.755037 235.552157 
L 297.516326 242.674307 
L 297.896971 236.663115 
L 298.277616 228.170104 
L 298.658261 222.530772 
L 299.038906 219.69664 
L 299.419551 221.874227 
L 299.800196 228.96072 
L 300.18084 222.093878 
L 300.94213 228.144848 
L 301.322775 225.239809 
L 301.70342 224.017248 
L 302.084065 220.93776 
L 302.46471 223.361397 
L 302.845354 230.060949 
L 303.225999 229.150951 
L 303.606644 231.114535 
L 303.987289 241.024034 
L 304.367934 246.091035 
L 305.129224 240.260243 
L 305.509869 244.049089 
L 305.890513 245.307269 
L 306.271158 239.860651 
L 306.651803 242.212712 
L 307.032448 234.847016 
L 307.413093 236.633259 
L 308.174383 215.567847 
L 308.555028 205.846277 
L 308.935672 209.28744 
L 309.316317 207.967994 
L 310.077607 215.301643 
L 310.458252 208.16117 
L 311.219542 225.422547 
L 311.980831 235.033324 
L 312.361476 233.985626 
L 312.742121 244.351744 
L 313.122766 244.697579 
L 313.503411 246.24398 
L 314.264701 237.486242 
L 314.645345 240.722019 
L 315.02599 234.006814 
L 315.406635 231.620081 
L 315.78728 223.136144 
L 316.167925 224.823547 
L 316.54857 224.262387 
L 316.929215 223.02718 
L 317.309859 231.603209 
L 317.690504 236.882157 
L 318.071149 239.51881 
L 318.451794 229.36545 
L 318.832439 224.300329 
L 319.213084 227.196809 
L 319.593729 215.883474 
L 320.355018 209.033078 
L 320.735663 195.841947 
L 321.116308 189.709999 
L 321.496953 191.173599 
L 321.877598 184.005058 
L 322.638888 156.172016 
L 323.019532 158.197138 
L 323.400177 156.598923 
L 323.780822 159.075238 
L 324.542112 143.70874 
L 325.303402 133.92 
L 325.684047 143.751506 
L 326.064691 138.009841 
L 326.445336 134.763268 
L 326.825981 134.193025 
L 327.206626 137.896206 
L 327.587271 143.09152 
L 328.729206 172.445537 
L 329.10985 170.629763 
L 329.490495 172.41381 
L 329.87114 172.498993 
L 330.63243 166.129451 
L 331.013075 167.330302 
L 331.39372 165.372501 
L 331.774364 159.153411 
L 332.155009 160.150004 
L 332.535654 154.839342 
L 332.916299 157.890484 
L 333.296944 155.672647 
L 333.677589 156.306924 
L 334.819523 161.251218 
L 335.200168 150.726166 
L 335.580813 146.568874 
L 335.961458 160.18024 
L 336.342103 158.498121 
L 336.722748 157.642844 
L 337.103393 151.826921 
L 337.484037 159.190118 
L 337.864682 158.404023 
L 338.245327 159.468679 
L 338.625972 172.095914 
L 339.006617 174.285455 
L 339.387262 173.776626 
L 339.767907 166.238383 
L 340.148552 166.0914 
L 340.529196 171.398088 
L 340.909841 178.506763 
L 341.290486 177.524271 
L 341.671131 181.905822 
L 342.051776 179.09877 
L 342.432421 180.371191 
L 342.813066 185.341976 
L 343.19371 191.998791 
L 343.574355 201.036246 
L 343.955 204.18255 
L 344.71629 199.078859 
L 345.096935 199.131119 
L 345.47758 202.133463 
L 345.858225 212.781664 
L 346.238869 210.174252 
L 346.619514 203.256805 
L 347.000159 201.008989 
L 347.380804 193.413949 
L 347.761449 190.486039 
L 348.142094 194.182639 
L 348.522739 199.888157 
L 348.903384 194.820477 
L 349.284028 192.854471 
L 349.664673 185.871671 
L 350.045318 186.561012 
L 350.425963 190.621249 
L 350.806608 199.656417 
L 351.187253 213.31616 
L 351.567898 214.956853 
L 351.948542 229.837613 
L 352.329187 229.541952 
L 352.709832 227.699384 
L 353.090477 228.273314 
L 353.471122 225.627262 
L 353.851767 218.627025 
L 354.232412 208.531397 
L 354.613057 223.990108 
L 355.754991 213.629288 
L 356.135636 206.213605 
L 356.516281 203.985754 
L 356.896926 207.484551 
L 357.277571 203.39574 
L 357.658215 200.629314 
L 358.03886 201.706057 
L 358.419505 206.600845 
L 358.80015 209.207563 
L 359.56144 220.525452 
L 360.32273 234.637331 
L 360.703374 248.133277 
L 361.084019 255.473955 
L 361.464664 249.939208 
L 361.845309 256.374437 
L 362.225954 254.950197 
L 362.606599 249.953007 
L 363.367888 233.311482 
L 363.748533 231.398391 
L 364.129178 242.810296 
L 364.509823 240.307748 
L 364.890468 242.637665 
L 365.271113 252.947889 
L 365.651758 259.950697 
L 366.032403 261.217573 
L 366.413047 263.513161 
L 366.793692 259.205215 
L 367.554982 273.319326 
L 367.935627 276.083968 
L 368.316272 273.892443 
L 368.696917 272.411373 
L 369.077562 264.355856 
L 369.458206 271.696095 
L 369.838851 286.481691 
L 370.219496 292.948892 
L 370.600141 294.288651 
L 370.980786 299.633945 
L 371.361431 290.596654 
L 371.742076 289.999273 
L 372.12272 289.976517 
L 372.503365 293.295348 
L 372.88401 292.595367 
L 373.264655 286.223924 
L 373.6453 287.301333 
L 374.025945 294.703633 
L 374.40659 286.490892 
L 374.787235 287.470582 
L 375.929169 298.373592 
L 376.309814 290.335598 
L 376.690459 289.053179 
L 377.071104 288.642641 
L 377.451749 298.890245 
L 377.832393 297.429553 
L 378.593683 290.746912 
L 378.974328 302.568886 
L 379.354973 302.899453 
L 379.735618 308.844373 
L 380.116263 306.650217 
L 380.496908 301.894361 
L 380.877552 302.764095 
L 381.258197 298.773924 
L 381.638842 287.908453 
L 382.019487 294.582071 
L 382.780777 285.017687 
L 383.161422 283.271431 
L 383.542066 285.194369 
L 383.922711 293.661926 
L 384.303356 295.933308 
L 384.684001 304.752779 
L 385.064646 296.966486 
L 385.445291 294.18459 
L 385.825936 292.288899 
L 386.206581 292.038911 
L 386.587225 292.285361 
L 386.96787 283.994033 
L 387.348515 272.390529 
L 387.72916 270.951876 
L 388.109805 268.890532 
L 388.871095 268.436248 
L 389.25174 272.603251 
L 390.013029 294.544516 
L 390.393674 296.384213 
L 390.774319 303.48327 
L 391.154964 307.309808 
L 391.535609 303.112034 
L 391.916254 303.289521 
L 392.296898 298.442724 
L 392.677543 297.978082 
L 393.058188 291.105218 
L 393.819478 299.823395 
L 394.200123 306.169399 
L 394.961413 313.625895 
L 395.342057 310.485731 
L 395.722702 305.76083 
L 396.103347 304.371167 
L 396.483992 305.71238 
L 396.864637 302.783751 
L 397.245282 309.426305 
L 397.625927 312.606774 
L 398.006571 319.950207 
L 398.387216 319.766151 
L 399.148506 342.504096 
L 399.529151 341.557361 
L 399.909796 335.43723 
L 400.290441 341.706819 
L 400.671086 341.731761 
L 401.05173 343.876841 
L 401.432375 340.026467 
L 401.81302 345.541484 
L 402.193665 348.274626 
L 402.954955 357.380142 
L 403.3356 355.569392 
L 403.716244 352.509461 
L 404.096889 356.500323 
L 404.477534 356.989296 
L 404.858179 362.900085 
L 405.238824 371.179795 
L 405.619469 364.309801 
L 406.000114 362.408491 
L 406.761403 347.823173 
L 407.522693 340.315162 
L 407.903338 336.3808 
L 408.283983 337.418171 
L 408.664628 338.04883 
L 409.045273 343.338803 
L 409.425918 343.904206 
L 410.187207 357.207417 
L 410.567852 356.243924 
L 410.948497 368.011468 
L 411.329142 369.379034 
L 412.090432 368.628026 
L 412.471076 360.189409 
L 412.851721 355.937425 
L 413.613011 351.045564 
L 413.993656 353.831613 
L 414.374301 354.961769 
L 414.754946 357.142277 
L 415.516235 352.971607 
L 416.277525 365.464398 
L 416.65817 365.687168 
L 417.038815 361.716985 
L 417.41946 367.325781 
L 417.800105 366.701296 
L 418.180749 369.255393 
L 418.561394 362.745354 
L 418.942039 365.634266 
L 419.322684 364.518009 
L 419.703329 364.644438 
L 420.845264 356.848317 
L 421.225908 350.343392 
L 421.606553 355.116049 
L 421.987198 349.526056 
L 422.367843 334.570592 
L 422.748488 334.462948 
L 423.129133 332.329347 
L 423.509778 326.944222 
L 423.890422 330.639268 
L 424.651712 340.225647 
L 425.032357 349.246224 
L 425.413002 348.84407 
L 425.793647 342.467848 
L 426.174292 345.034231 
L 426.554937 349.801096 
L 426.935581 357.510562 
L 427.316226 346.139129 
L 427.696871 340.55708 
L 428.077516 331.044555 
L 428.458161 326.218246 
L 428.838806 324.871234 
L 429.219451 316.67861 
L 429.98074 308.564933 
L 430.361385 298.18887 
L 430.74203 283.055291 
L 431.50332 288.709636 
L 431.883965 286.214347 
L 432.26461 285.651487 
L 432.645254 282.291057 
L 433.025899 284.735991 
L 433.787189 275.017413 
L 434.548479 254.46484 
L 435.309769 226.345649 
L 435.690413 212.49453 
L 436.071058 208.844857 
L 436.451703 207.852332 
L 436.832348 211.383632 
L 437.212993 212.234864 
L 437.593638 211.107954 
L 438.354927 224.349761 
L 439.116217 248.173001 
L 440.638797 295.705171 
L 441.019442 310.38951 
L 441.400086 319.806452 
L 441.780731 313.45228 
L 442.161376 310.825588 
L 442.542021 309.898566 
L 442.922666 310.016082 
L 443.303311 311.007414 
L 443.683956 306.223686 
L 444.0646 307.638436 
L 444.445245 303.669521 
L 444.82589 297.058241 
L 445.206535 296.551822 
L 445.967825 316.707424 
L 446.34847 324.060329 
L 446.729115 328.006359 
L 447.109759 326.794734 
L 447.871049 307.020838 
L 448.251694 303.53137 
L 448.632339 303.383263 
L 449.012984 309.830525 
L 449.393629 300.099104 
L 449.774274 300.157699 
L 450.154918 303.39872 
L 450.535563 310.565491 
L 450.916208 322.605155 
L 451.296853 319.352188 
L 451.677498 314.218385 
L 452.058143 313.056619 
L 452.438788 317.372678 
L 452.819432 310.268875 
L 453.200077 313.4034 
L 453.961367 299.112152 
L 454.342012 297.563036 
L 454.722657 293.280901 
L 455.103302 296.010714 
L 455.483947 303.311786 
L 455.864591 302.87539 
L 456.245236 294.883179 
L 457.006526 313.318443 
L 457.387171 328.39792 
L 457.767816 336.77093 
L 458.148461 336.826873 
L 458.529105 334.3322 
L 458.90975 328.413453 
L 459.67104 342.010924 
L 460.051685 354.623308 
L 460.43233 359.574276 
L 460.812975 358.993023 
L 461.19362 349.865683 
L 461.574264 346.023064 
L 462.335554 357.624215 
L 462.716199 356.783537 
L 463.096844 361.096413 
L 463.477489 362.636568 
L 464.238778 341.60096 
L 464.619423 337.243066 
L 465.000068 330.480552 
L 465.380713 336.562116 
L 465.761358 337.900166 
L 466.142003 346.780329 
L 466.522648 352.746135 
L 466.903293 352.461604 
L 467.283937 353.959081 
L 467.664582 350.659591 
L 468.045227 350.982979 
L 468.425872 360.697523 
L 468.806517 362.789067 
L 469.187162 361.503944 
L 469.567807 357.062097 
L 469.948451 342.301033 
L 470.329096 338.216446 
L 470.709741 341.039356 
L 471.090386 347.910093 
L 471.471031 358.857341 
L 471.851676 362.275582 
L 472.232321 359.132141 
L 472.612966 358.848485 
L 472.99361 361.984997 
L 473.374255 355.953213 
L 473.7549 360.674808 
L 474.51619 382.710343 
L 474.896835 383.862634 
L 475.27748 388.545719 
L 475.658125 386.077375 
L 476.038769 376.00956 
L 476.419414 372.058037 
L 476.800059 370.744892 
L 477.180704 374.641705 
L 477.561349 383.413609 
L 477.941994 385.200832 
L 478.322639 385.076166 
L 478.703283 380.155654 
L 479.083928 377.741645 
L 479.464573 378.45385 
L 479.845218 387.88985 
L 480.225863 394.281152 
L 480.606508 398.407653 
L 480.987153 395.39974 
L 481.367798 400.355906 
L 481.748442 400.825602 
L 482.129087 397.497292 
L 483.271022 380.326515 
L 483.651667 379.553383 
L 484.412956 393.143518 
L 485.174246 384.197906 
L 485.554891 387.496794 
L 485.935536 378.025413 
L 486.316181 372.806179 
L 486.696826 363.055919 
L 487.077471 363.23741 
L 487.458115 354.272459 
L 488.219405 345.812899 
L 488.60005 347.665092 
L 488.980695 356.290642 
L 489.36134 355.973664 
L 489.741985 363.369642 
L 490.122629 363.138688 
L 490.503274 364.147381 
L 490.883919 359.843899 
L 491.264564 366.594398 
L 491.645209 378.550774 
L 492.025854 385.253208 
L 492.406499 386.651928 
L 492.787144 369.48352 
L 493.167788 358.082082 
L 493.548433 353.102736 
L 493.929078 351.920702 
L 494.309723 353.827908 
L 494.690368 356.478647 
L 495.071013 356.69491 
L 495.451658 353.42203 
L 495.832303 367.109604 
L 496.212947 376.733809 
L 496.593592 371.103296 
L 496.974237 367.798583 
L 497.354882 375.027575 
L 498.116172 378.049826 
L 498.496817 376.225323 
L 498.877461 376.604894 
L 499.258106 365.658653 
L 499.638751 359.471498 
L 500.019396 355.995839 
L 501.92262 370.782552 
L 502.303265 369.240165 
L 502.68391 368.915772 
L 503.064555 368.889469 
L 503.825845 364.604197 
L 504.587134 377.329453 
L 504.967779 383.740753 
L 505.348424 385.985187 
L 505.729069 380.642999 
L 506.109714 372.655281 
L 506.490359 369.190652 
L 506.871004 371.064918 
L 507.251649 380.343328 
L 507.632293 379.521045 
L 508.012938 390.136871 
L 508.393583 394.112023 
L 508.774228 395.035086 
L 509.154873 393.03087 
L 509.916163 413.753151 
L 510.296807 420.72781 
L 510.677452 419.281534 
L 512.200032 381.599886 
L 512.580677 377.437302 
L 513.341966 361.292697 
L 513.722611 362.509888 
L 514.103256 359.82532 
L 514.483901 354.704733 
L 514.864546 352.229214 
L 515.245191 364.076349 
L 515.625836 384.203956 
L 516.006481 387.571935 
L 516.387125 381.474614 
L 516.76777 381.173009 
L 517.148415 378.666272 
L 517.52906 373.89414 
L 517.909705 362.863034 
L 518.29035 345.901983 
L 518.670995 341.090116 
L 519.432284 321.485776 
L 519.812929 310.086644 
L 520.193574 304.389882 
L 520.574219 309.976602 
L 520.954864 308.498936 
L 521.335509 299.848415 
L 521.716154 309.883469 
L 522.477443 338.79797 
L 522.858088 339.909247 
L 523.619378 354.310084 
L 524.000023 346.497055 
L 524.380668 334.631418 
L 524.761312 335.925957 
L 525.141957 340.098008 
L 525.522602 353.697968 
L 525.903247 354.807423 
L 526.283892 362.978394 
L 527.045182 371.145146 
L 527.425827 379.937371 
L 527.806471 376.407221 
L 528.567761 386.585599 
L 528.948406 386.932986 
L 529.709696 392.047284 
L 530.470985 405.732132 
L 530.85163 424.38329 
L 531.61292 430.560763 
L 531.993565 438.656413 
L 532.37421 440.196996 
L 532.754855 440.142812 
L 533.516144 439.52043 
L 534.277434 435.525072 
L 534.658079 437.613211 
L 535.038724 438.173835 
L 535.419369 439.370668 
L 536.180659 449.621634 
L 536.561303 445.493797 
L 536.941948 447.294984 
L 537.322593 450.194297 
L 538.083883 444.043119 
L 538.464528 439.392242 
L 538.845173 431.677316 
L 539.225817 434.073151 
L 539.606462 440.881958 
L 539.987107 436.736456 
L 540.367752 427.463166 
L 541.509687 409.480597 
L 541.890332 411.602905 
L 542.270976 425.550048 
L 543.032266 433.989961 
L 543.412911 432.670988 
L 543.793556 430.928482 
L 544.174201 424.728876 
L 544.554846 427.836983 
L 544.93549 427.664443 
L 545.316135 433.956359 
L 545.69678 447.907192 
L 546.077425 453.726717 
L 546.45807 455.026215 
L 547.21936 464.389047 
L 547.600005 467.394564 
L 547.980649 476.362679 
L 548.361294 477.797335 
L 548.741939 473.721811 
L 549.122584 474.535872 
L 549.503229 473.89744 
L 549.883874 466.964369 
L 550.264519 473.400075 
L 550.645163 477.616423 
L 551.025808 483.944659 
L 551.406453 482.757983 
L 551.787098 486.152386 
L 552.167743 486.912167 
L 552.929033 480.480028 
L 553.309678 479.165162 
L 553.690322 471.76999 
L 554.070967 468.741789 
L 554.451612 468.085505 
L 555.212902 458.342804 
L 555.974192 452.201008 
L 556.354837 457.85075 
L 557.116126 461.820425 
L 557.496771 459.680519 
L 557.877416 461.408952 
L 558.258061 454.706124 
L 558.638706 455.42004 
L 559.019351 454.880107 
L 560.161285 441.810622 
L 560.54193 439.875809 
L 560.922575 442.992175 
L 561.683865 445.855278 
L 563.206444 465.862201 
L 563.587089 466.832687 
L 563.967734 473.344228 
L 564.348379 474.046888 
L 565.490313 451.659542 
L 565.870958 452.0163 
L 566.251603 442.599607 
L 566.632248 437.692615 
L 567.012893 450.214221 
L 567.393538 454.563508 
L 567.774183 457.360562 
L 568.154827 458.787046 
L 568.535472 462.343387 
L 568.916117 455.174331 
L 569.296762 456.18325 
L 569.677407 451.987231 
L 570.058052 454.349797 
L 570.819341 475.804616 
L 571.199986 482.204307 
L 571.580631 485.107698 
L 571.961276 482.023097 
L 572.341921 487.483675 
L 572.722566 496.977988 
L 573.103211 502.957741 
L 573.483856 502.154528 
L 573.8645 499.584681 
L 574.245145 495.015572 
L 574.62579 492.482193 
L 575.006435 483.46084 
L 575.38708 478.683285 
L 575.767725 469.499057 
L 576.14837 465.596852 
L 576.529015 471.975085 
L 576.909659 469.543064 
L 577.290304 471.387396 
L 577.670949 471.532075 
L 578.051594 464.876195 
L 578.432239 464.291318 
L 578.812884 466.704181 
L 579.193529 471.182698 
L 579.954818 477.414871 
L 580.335463 469.730457 
L 580.716108 468.671081 
L 581.096753 465.061435 
L 581.477398 464.152471 
L 581.858043 460.471313 
L 582.238688 455.375743 
L 582.619332 453.405208 
L 582.999977 450.246359 
L 583.380622 444.667397 
L 583.761267 451.238227 
L 584.141912 450.925533 
L 584.522557 445.93918 
L 584.903202 445.084335 
L 585.283846 446.09203 
L 585.664491 450.830618 
L 586.045136 450.108482 
L 586.425781 436.858819 
L 586.806426 432.479095 
L 587.187071 436.626782 
L 587.567716 438.705067 
L 587.948361 434.757898 
L 588.329005 433.780574 
L 588.70965 432.240157 
L 589.47094 453.177635 
L 589.851585 458.76675 
L 590.23223 454.813588 
L 590.612875 454.072156 
L 591.754809 441.666419 
L 592.135454 442.846278 
L 592.516099 442.737773 
L 592.896744 437.433276 
L 593.277389 437.477793 
L 593.658034 443.128317 
L 594.038678 439.480991 
L 594.419323 444.056591 
L 594.799968 434.127375 
L 595.180613 433.276733 
L 595.561258 429.866845 
L 595.941903 438.332609 
L 596.322548 442.913085 
L 596.703193 443.324588 
L 597.083837 445.021133 
L 597.464482 440.04901 
L 597.845127 444.801652 
L 598.225772 442.345703 
L 598.606417 443.672605 
L 598.987062 443.117975 
L 599.367707 442.259582 
L 599.748351 447.478653 
L 600.128996 444.799336 
L 600.509641 446.538683 
L 601.270931 454.758495 
L 601.651576 463.537489 
L 602.032221 465.114789 
L 602.412866 469.712026 
L 603.174155 459.989014 
L 603.5548 467.470911 
L 604.31609 461.173615 
L 604.696735 450.750036 
L 605.07738 450.152937 
L 605.458024 453.932289 
L 605.838669 470.364558 
L 606.219314 473.534239 
L 606.599959 471.642426 
L 606.980604 468.088447 
L 607.741894 477.212395 
L 608.122539 475.68662 
L 608.883828 486.154818 
L 609.264473 484.794087 
L 609.645118 486.614071 
L 610.406408 498.826978 
L 610.787053 501.802929 
L 611.167697 498.958661 
L 611.548342 499.482558 
L 612.309632 475.4589 
L 612.690277 476.013278 
L 613.070922 481.857987 
L 613.451567 480.376989 
L 613.832212 484.463949 
L 614.212856 479.438031 
L 614.593501 469.203935 
L 614.974146 468.109618 
L 615.354791 457.482042 
L 615.735436 455.524225 
L 616.116081 458.265357 
L 616.496726 455.321962 
L 616.877371 446.995109 
L 617.258015 445.349569 
L 617.63866 437.615259 
L 618.780595 464.807663 
L 619.541885 476.911681 
L 619.922529 474.31874 
L 620.303174 473.15346 
L 620.683819 478.080817 
L 621.064464 475.732235 
L 621.445109 467.824916 
L 621.825754 473.226684 
L 622.206399 474.989587 
L 622.587044 470.236747 
L 622.967688 475.899425 
L 623.728978 497.104799 
L 624.109623 502.064188 
L 624.490268 500.826396 
L 624.870913 505.728808 
L 625.251558 507.23752 
L 626.012847 502.398865 
L 626.393492 498.900657 
L 627.154782 506.287195 
L 627.535427 505.911096 
L 627.916072 501.24068 
L 628.296717 498.289382 
L 628.677361 489.458729 
L 629.058006 488.338412 
L 629.438651 491.102562 
L 629.819296 484.598791 
L 630.580586 476.75619 
L 630.961231 477.120494 
L 631.341875 474.963831 
L 631.72252 477.608234 
L 632.103165 478.228789 
L 632.48381 480.181499 
L 632.864455 484.44601 
L 633.625745 498.592487 
L 634.00639 493.433212 
L 634.387034 483.733926 
L 634.767679 481.023047 
L 635.148324 481.401369 
L 635.528969 487.032758 
L 635.909614 495.517271 
L 636.290259 497.38449 
L 637.432193 515.097093 
L 637.812838 517.40022 
L 638.193483 513.48091 
L 638.574128 508.040288 
L 639.335418 488.464073 
L 639.716063 489.463227 
L 640.096707 483.32049 
L 640.857997 495.555057 
L 641.238642 496.826809 
L 641.619287 501.705811 
L 641.999932 505.020634 
L 642.380577 504.473874 
L 642.761222 497.34165 
L 643.141866 493.847127 
L 643.903156 480.275079 
L 644.664446 457.583621 
L 645.045091 451.956266 
L 645.425736 458.339323 
L 646.187025 463.053924 
L 646.56767 465.025867 
L 646.948315 473.986677 
L 647.709605 474.107564 
L 648.09025 468.021003 
L 648.470895 471.147954 
L 648.851539 467.697154 
L 649.232184 468.531041 
L 649.612829 474.28922 
L 649.993474 472.376377 
L 650.754764 463.606296 
L 651.135409 464.872473 
L 651.516053 465.143179 
L 651.896698 466.08983 
L 652.277343 463.268863 
L 652.657988 461.55228 
L 653.038633 466.682479 
L 653.419278 461.491782 
L 653.799923 469.204955 
L 654.180568 466.487921 
L 654.561212 462.405162 
L 654.941857 463.347305 
L 655.322502 478.16513 
L 655.703147 478.236012 
L 656.083792 483.691971 
L 656.464437 487.276612 
L 656.845082 499.386168 
L 657.225726 501.020878 
L 657.606371 507.485904 
L 657.987016 508.857412 
L 658.367661 513.417154 
L 658.748306 506.724311 
L 659.128951 493.618934 
L 659.509596 491.005144 
L 659.890241 489.684607 
L 660.65153 508.392801 
L 661.032175 509.45798 
L 661.41282 514.587512 
L 661.793465 506.804521 
L 662.17411 496.070198 
L 662.554755 491.276726 
L 662.9354 482.012424 
L 663.316044 481.172784 
L 663.696689 482.449297 
L 664.077334 480.820442 
L 664.457979 474.246623 
L 664.838624 474.95976 
L 665.219269 476.124431 
L 665.599914 488.369064 
L 665.980558 495.421247 
L 666.361203 492.693313 
L 666.741848 495.184988 
L 667.122493 499.171919 
L 667.503138 505.880465 
L 667.883783 497.374256 
L 668.264428 501.481242 
L 668.645073 501.406594 
L 669.025717 502.069448 
L 669.406362 504.828103 
L 670.548297 468.845135 
L 670.928942 467.875349 
L 671.309587 476.712128 
L 671.690231 477.607081 
L 672.070876 474.244297 
L 672.451521 476.40722 
L 672.832166 476.534052 
L 673.212811 475.496613 
L 673.974101 467.59831 
L 674.354746 469.551016 
L 674.73539 469.522392 
L 675.49668 460.28763 
L 676.25797 471.605129 
L 676.638615 473.264814 
L 677.01926 484.854569 
L 677.399904 501.480481 
L 677.780549 503.740634 
L 678.161194 503.835036 
L 678.541839 510.608607 
L 678.922484 512.659324 
L 679.303129 520.458693 
L 679.683774 512.493877 
L 680.064419 510.967179 
L 680.445063 507.542203 
L 681.586998 490.292759 
L 681.967643 490.070374 
L 682.348288 489.256275 
L 683.109578 518.028276 
L 683.490222 519.413515 
L 683.870867 533.162324 
L 684.251512 541.954431 
L 684.632157 539.634336 
L 685.012802 542.927505 
L 685.393447 538.676286 
L 685.774092 531.493265 
L 686.154736 528.657549 
L 686.535381 534.234627 
L 686.916026 526.263587 
L 687.296671 510.505911 
L 687.677316 505.931105 
L 688.057961 496.883705 
L 688.438606 498.73912 
L 688.819251 502.214432 
L 689.199895 493.054891 
L 689.58054 480.61236 
L 689.961185 484.46741 
L 690.34183 497.548949 
L 690.722475 501.471994 
L 691.10312 509.702355 
L 691.483765 520.370304 
L 691.864409 524.158437 
L 692.245054 525.877822 
L 692.625699 519.714832 
L 693.006344 519.2877 
L 693.386989 511.654806 
L 693.767634 509.628348 
L 694.148279 512.099475 
L 694.528924 521.469903 
L 694.909568 521.578332 
L 695.290213 530.809167 
L 695.670858 525.84643 
L 696.051503 526.572942 
L 696.432148 524.763288 
L 696.812793 525.721603 
L 697.193438 541.624654 
L 697.574082 545.63311 
L 697.954727 542.14029 
L 698.716017 551.360625 
L 699.096662 554.244312 
L 699.477307 544.6359 
L 699.857952 538.249745 
L 700.238597 540.851444 
L 700.619241 540.230387 
L 700.999886 544.393626 
L 701.380531 541.7984 
L 701.761176 535.463891 
L 702.141821 532.365223 
L 703.283756 548.436073 
L 703.6644 549.125019 
L 704.42569 539.292657 
L 704.806335 538.196525 
L 705.18698 535.729201 
L 705.567625 541.869601 
L 705.94827 539.563327 
L 706.709559 519.462517 
L 707.470849 526.176156 
L 707.851494 521.650009 
L 708.232139 518.888469 
L 708.612784 517.53137 
L 708.993429 515.159637 
L 709.374073 507.723444 
L 709.754718 511.364279 
L 710.135363 507.185215 
L 710.896653 480.201437 
L 711.277298 476.141535 
L 711.657943 487.30032 
L 712.038587 502.559405 
L 712.799877 508.966748 
L 713.180522 507.179793 
L 713.561167 505.955182 
L 713.941812 505.96145 
L 714.322457 501.595577 
L 714.703102 503.069582 
L 715.083746 498.504529 
L 715.464391 498.015703 
L 715.845036 495.88605 
L 716.225681 502.694596 
L 716.986971 532.605552 
L 717.367616 544.720508 
L 717.74826 551.181494 
L 718.128905 554.456806 
L 718.50955 556.751608 
L 718.890195 557.803493 
L 719.27084 559.849547 
L 719.651485 563.034604 
L 720.03213 574.382016 
L 720.412775 581.007991 
L 720.793419 577.146803 
L 721.174064 582.578347 
L 721.554709 590.356127 
L 721.935354 588.477112 
L 722.315999 587.509071 
L 722.696644 585.543418 
L 723.457934 572.257319 
L 723.838578 572.119935 
L 724.219223 572.404581 
L 724.599868 574.647019 
L 724.980513 574.914847 
L 725.361158 574.963365 
L 725.741803 567.294436 
L 726.122448 569.044523 
L 726.503092 568.550869 
L 726.883737 560.498551 
L 727.264382 560.946396 
L 727.645027 559.755633 
L 728.025672 560.474571 
L 728.406317 563.756221 
L 728.786962 565.619886 
L 729.928896 592.94575 
L 730.309541 604.696875 
L 730.690186 606.563144 
L 731.070831 612.997227 
L 731.451476 632.369117 
L 731.832121 644.608215 
L 732.212765 651.359795 
L 732.59341 661.911477 
L 733.3547 696.826027 
L 733.735345 738.72 
L 734.11599 686.79373 
L 734.87728 659.818147 
L 736.399859 631.659542 
L 736.780504 635.039817 
L 737.161149 631.582918 
L 737.541794 625.526834 
L 737.922438 616.658603 
L 738.683728 589.858683 
L 739.064373 584.199525 
L 739.445018 568.19038 
L 739.825663 557.947795 
L 740.206308 542.809579 
L 740.586953 541.2662 
L 741.348242 529.111901 
L 741.728887 527.73745 
L 742.490177 528.732076 
L 742.870822 520.680698 
L 743.251467 517.595465 
L 743.632112 518.045571 
L 744.012756 523.588665 
L 744.393401 519.567798 
L 744.774046 524.073767 
L 745.154691 526.030392 
L 745.535336 523.380737 
L 745.915981 524.850628 
L 746.296626 521.681833 
L 746.67727 525.090848 
L 747.057915 523.10859 
L 747.43856 517.46049 
L 747.819205 508.005237 
L 748.19985 503.416839 
L 748.580495 496.429141 
L 748.96114 486.989165 
L 749.341785 488.589404 
L 749.722429 493.414727 
L 750.103074 492.91167 
L 750.483719 496.615448 
L 750.864364 495.575469 
L 751.245009 498.265963 
L 751.625654 492.716349 
L 752.006299 490.861178 
L 752.767588 478.028715 
L 753.528878 493.756837 
L 753.909523 494.644568 
L 754.290168 490.571633 
L 754.670813 489.93079 
L 755.051458 500.477393 
L 755.812747 493.732593 
L 756.193392 491.128436 
L 756.574037 489.51036 
L 756.954682 487.211495 
L 757.335327 479.098685 
L 757.715972 476.96144 
L 758.096616 473.797995 
L 758.477261 475.772626 
L 758.857906 472.817345 
L 759.238551 472.806922 
L 759.999841 478.365235 
L 760.380486 472.067103 
L 760.761131 472.216604 
L 761.141775 474.265596 
L 761.52242 484.247034 
L 761.903065 488.148309 
L 763.425645 534.881231 
L 764.567579 541.445948 
L 764.948224 537.669924 
L 765.328869 529.852065 
L 765.709514 528.829574 
L 766.090159 529.26959 
L 766.470804 535.014037 
L 766.851448 536.484408 
L 767.232093 537.326896 
L 767.612738 535.538874 
L 768.374028 507.704435 
L 768.754673 505.644382 
L 769.135318 506.489902 
L 769.515963 503.27608 
L 769.896607 502.178776 
L 770.277252 505.947608 
L 770.657897 507.127835 
L 771.038542 504.602391 
L 771.419187 499.271113 
L 771.799832 497.45949 
L 772.180477 494.081045 
L 772.561121 503.366825 
L 772.941766 498.033947 
L 773.322411 489.938809 
L 774.083701 506.167397 
L 774.844991 512.448589 
L 775.225636 509.528922 
L 775.60628 509.574242 
L 775.986925 501.204277 
L 776.36757 500.820616 
L 776.748215 498.738562 
L 777.12886 494.533272 
L 778.270794 505.48768 
L 778.651439 503.495457 
L 779.412729 486.120674 
L 779.793374 474.862008 
L 780.174019 472.595698 
L 780.554664 477.808759 
L 780.935309 476.391952 
L 781.315953 478.801201 
L 782.077243 486.836013 
L 782.457888 485.961268 
L 782.838533 484.65218 
L 783.219178 475.482378 
L 783.980468 469.948423 
L 784.361112 455.261178 
L 784.741757 447.702113 
L 785.122402 448.035812 
L 786.264337 470.049717 
L 786.644982 471.289485 
L 787.025626 469.600759 
L 787.406271 471.582285 
L 787.786916 470.205456 
L 788.167561 470.48411 
L 788.548206 479.397685 
L 788.928851 475.412784 
L 789.309496 477.358543 
L 789.690141 478.042535 
L 790.070785 485.224792 
L 790.45143 482.64109 
L 790.832075 492.081562 
L 791.593365 499.094196 
L 791.97401 502.500077 
L 792.354655 504.033681 
L 792.735299 504.652684 
L 793.115944 506.109883 
L 793.496589 505.085916 
L 794.638524 533.280164 
L 795.019169 538.667195 
L 795.399814 533.885044 
L 795.780458 532.380057 
L 796.161103 520.688899 
L 796.541748 519.492316 
L 796.922393 520.300636 
L 798.064328 528.828228 
L 798.444972 525.057302 
L 798.825617 531.519697 
L 799.206262 534.813522 
L 799.586907 531.262819 
L 800.348197 519.20729 
L 801.109487 508.474714 
L 801.490131 505.438754 
L 802.632066 489.044205 
L 803.012711 495.955376 
L 803.393356 509.59271 
L 803.774001 517.416873 
L 804.53529 523.013008 
L 804.915935 528.276302 
L 805.29658 531.176748 
L 806.05787 516.532603 
L 806.438515 522.2568 
L 807.199804 517.655873 
L 807.580449 511.706429 
L 807.961094 512.223476 
L 808.341739 522.712297 
L 808.722384 525.193783 
L 809.103029 517.500914 
L 809.483674 523.09113 
L 809.864319 525.673698 
L 810.244963 526.313188 
L 810.625608 524.475369 
L 811.386898 519.072382 
L 811.767543 513.394812 
L 812.148188 503.118743 
L 812.528833 488.5655 
L 813.290122 484.241137 
L 813.670767 471.250767 
L 814.051412 467.37119 
L 814.432057 457.048033 
L 814.812702 464.993434 
L 815.193347 466.341418 
L 815.573992 458.032396 
L 815.954636 442.265181 
L 816.335281 444.934512 
L 816.715926 444.824362 
L 817.096571 443.597604 
L 817.477216 444.233433 
L 817.857861 436.313786 
L 818.238506 435.532383 
L 818.61915 436.994545 
L 818.999795 431.305744 
L 819.761085 442.669748 
L 820.14173 436.220952 
L 820.522375 442.891105 
L 820.90302 460.13083 
L 821.283665 457.112112 
L 821.664309 446.878271 
L 822.044954 444.216124 
L 822.425599 438.506225 
L 822.806244 423.271997 
L 823.186889 412.53902 
L 823.567534 416.529296 
L 823.948179 414.069042 
L 824.328824 407.261036 
L 824.709468 404.597729 
L 825.090113 408.749356 
L 825.470758 427.199686 
L 825.851403 432.775428 
L 826.232048 440.216335 
L 826.993338 445.753888 
L 827.373982 444.934353 
L 827.754627 444.617737 
L 828.515917 441.347569 
L 828.896562 445.729533 
L 829.277207 440.587542 
L 829.657852 440.769366 
L 830.038497 436.392593 
L 830.419141 438.650176 
L 831.180431 432.586302 
L 831.561076 423.575775 
L 831.941721 420.118691 
L 832.703011 426.117381 
L 833.083655 437.377954 
L 833.4643 441.974738 
L 833.844945 454.641995 
L 834.22559 454.966666 
L 834.606235 451.032457 
L 834.98688 452.825191 
L 835.367525 446.868777 
L 835.74817 458.182594 
L 836.128814 462.501523 
L 836.509459 458.540637 
L 836.890104 461.241609 
L 837.651394 473.372583 
L 838.032039 479.959017 
L 838.412684 478.338574 
L 838.793328 477.874597 
L 839.173973 478.929646 
L 839.554618 469.77933 
L 839.935263 476.231861 
L 840.315908 479.973364 
L 840.696553 476.761346 
L 841.077198 483.538433 
L 842.219132 511.924129 
L 842.599777 513.086492 
L 842.980422 509.605573 
L 843.741712 491.10887 
L 844.122357 491.355814 
L 844.503002 495.117769 
L 844.883646 499.994743 
L 845.264291 495.522704 
L 846.025581 482.931873 
L 846.786871 466.514657 
L 847.167516 451.481001 
L 847.54816 447.598771 
L 847.928805 450.753281 
L 848.30945 445.169395 
L 848.690095 443.335561 
L 849.07074 447.55124 
L 849.83203 459.295838 
L 850.212675 472.990749 
L 850.593319 469.881214 
L 850.973964 463.859182 
L 851.354609 470.488615 
L 851.735254 473.06538 
L 852.115899 471.85357 
L 852.496544 472.883036 
L 852.877189 476.872293 
L 853.257833 479.479261 
L 853.638478 480.858669 
L 854.019123 479.720155 
L 854.399768 480.235216 
L 854.780413 472.816846 
L 855.541703 448.070387 
L 855.922348 448.228407 
L 856.302992 452.136385 
L 856.683637 445.277294 
L 857.064282 442.430887 
L 857.444927 447.42176 
L 857.825572 440.408011 
L 858.206217 429.371352 
L 858.586862 413.174508 
L 858.967506 403.301718 
L 859.348151 406.45938 
L 859.728796 394.217728 
L 860.109441 397.421259 
L 860.870731 387.210833 
L 861.251376 385.973276 
L 861.632021 378.158053 
L 862.39331 388.580744 
L 862.773955 388.043285 
L 863.1546 394.781805 
L 863.535245 395.252881 
L 863.91589 392.995938 
L 864.296535 392.486124 
L 864.677179 393.43078 
L 865.057824 396.686504 
L 865.438469 397.220148 
L 865.819114 398.125809 
L 866.199759 392.861545 
L 866.580404 390.15634 
L 866.961049 384.193465 
L 867.722338 377.610188 
L 868.102983 369.88592 
L 868.483628 367.84297 
L 868.864273 382.074127 
L 869.244918 387.415614 
L 870.006208 391.747326 
L 870.386853 397.966466 
L 871.148142 415.587964 
L 871.528787 413.122436 
L 871.909432 415.153137 
L 872.290077 410.372224 
L 872.670722 409.095724 
L 873.051367 409.719417 
L 873.432011 402.855656 
L 873.812656 392.852571 
L 874.193301 400.401415 
L 874.573946 394.05158 
L 874.954591 379.799855 
L 875.335236 370.340971 
L 875.715881 369.818746 
L 876.096526 372.995644 
L 876.47717 367.875896 
L 876.857815 381.701614 
L 877.23846 384.654521 
L 877.619105 378.875887 
L 877.99975 375.512764 
L 878.380395 363.425874 
L 878.76104 368.48022 
L 879.141684 381.678592 
L 879.522329 384.037028 
L 879.902974 383.848726 
L 880.283619 379.432919 
L 880.664264 383.134785 
L 881.044909 392.901167 
L 881.425554 389.164308 
L 881.806199 381.199882 
L 882.186843 376.471195 
L 882.567488 374.426809 
L 882.948133 377.017817 
L 883.328778 385.925339 
L 883.709423 381.397875 
L 884.090068 383.753738 
L 884.470713 389.604323 
L 884.851357 383.712163 
L 885.232002 388.219033 
L 885.612647 388.598839 
L 885.993292 389.233443 
L 886.373937 389.285101 
L 886.754582 390.00642 
L 887.135227 383.975056 
L 887.896516 365.087228 
L 888.277161 362.428583 
L 888.657806 355.621234 
L 889.038451 359.489525 
L 889.419096 354.0534 
L 889.799741 340.556697 
L 890.180386 333.51079 
L 890.941675 347.059635 
L 891.702965 328.754783 
L 892.08361 322.904571 
L 892.464255 328.082247 
L 893.225545 322.960421 
L 893.606189 327.503155 
L 893.986834 328.83355 
L 894.367479 323.516923 
L 894.748124 319.952094 
L 895.128769 313.246264 
L 895.509414 313.18042 
L 895.890059 308.368015 
L 896.270704 296.656976 
L 897.031993 312.022052 
L 897.412638 311.343411 
L 897.793283 307.804912 
L 898.173928 307.031884 
L 898.554573 308.566864 
L 898.935218 314.522745 
L 899.315862 315.355294 
L 899.696507 321.358901 
L 900.077152 317.058418 
L 900.457797 308.239152 
L 900.838442 304.678063 
L 901.219087 305.79792 
L 901.599732 311.650586 
L 901.980377 311.302774 
L 902.361021 312.083885 
L 902.741666 317.884717 
L 903.122311 310.536893 
L 903.502956 299.855299 
L 903.883601 298.816815 
L 904.264246 303.786005 
L 904.644891 302.46154 
L 905.025535 301.581046 
L 905.40618 299.258139 
L 905.786825 308.440287 
L 906.16747 299.101822 
L 906.548115 301.236917 
L 906.92876 304.688501 
L 907.309405 297.365106 
L 907.69005 294.711627 
L 908.070694 289.599436 
L 908.451339 290.552683 
L 909.212629 280.439131 
L 909.973919 287.926509 
L 910.354564 284.246388 
L 910.735209 290.747893 
L 911.115853 290.425049 
L 911.496498 304.956386 
L 912.257788 313.319707 
L 912.638433 318.232993 
L 913.019078 315.026963 
L 913.780367 295.388874 
L 914.161012 299.883116 
L 914.922302 319.448272 
L 915.302947 318.904579 
L 915.683592 321.621322 
L 916.064237 317.418579 
L 916.444882 310.555402 
L 916.825526 309.177789 
L 917.206171 315.000393 
L 917.586816 307.657878 
L 917.967461 310.59412 
L 918.348106 307.088132 
L 918.728751 307.710516 
L 919.109396 314.625803 
L 919.49004 324.388185 
L 919.870685 330.769133 
L 920.25133 330.511157 
L 920.631975 326.190758 
L 921.01262 319.884978 
L 921.393265 327.050863 
L 921.77391 321.38133 
L 922.154555 319.142123 
L 922.535199 315.808198 
L 922.915844 317.600919 
L 923.296489 320.727652 
L 923.677134 320.06348 
L 924.057779 315.358607 
L 924.438424 315.669124 
L 924.819069 314.680988 
L 925.199713 316.27617 
L 925.580358 308.284595 
L 925.961003 307.725225 
L 926.341648 309.258343 
L 926.722293 301.060476 
L 927.102938 303.064323 
L 927.483583 305.861345 
L 927.864228 300.261361 
L 928.244872 301.153537 
L 928.625517 302.374113 
L 929.006162 298.018201 
L 929.767452 310.518626 
L 930.148097 305.928265 
L 930.528742 305.105807 
L 930.909387 307.235566 
L 931.290031 317.236886 
L 931.670676 318.331771 
L 932.051321 315.515001 
L 932.431966 317.247712 
L 932.812611 311.057498 
L 933.573901 325.941452 
L 933.954545 318.257661 
L 933.954545 318.257661 
" clip-path="url(#pd52cecba52)" style="fill: none; stroke: #4c72b0; stroke-width: 1.5; stroke-linecap: round"/>
   </g>
   <g id="patch_3">
    <path d="M 135 768.96 
L 135 103.68 
" style="fill: none; stroke: #ffffff; stroke-width: 1.25; stroke-linejoin: miter; stroke-linecap: square"/>
   </g>
   <g id="patch_4">
    <path d="M 972 768.96 
L 972 103.68 
" style="fill: none; stroke: #ffffff; stroke-width: 1.25; stroke-linejoin: miter; stroke-linecap: square"/>
   </g>
   <g id="patch_5">
    <path d="M 135 768.96 
L 972 768.96 
" style="fill: none; stroke: #ffffff; stroke-width: 1.25; stroke-linejoin: miter; stroke-linecap: square"/>
   </g>
   <g id="patch_6">
    <path d="M 135 103.68 
L 972 103.68 
" style="fill: none; stroke: #ffffff; stroke-width: 1.25; stroke-linejoin: miter; stroke-linecap: square"/>
   </g>
   <g id="text_20">
    <!-- Applied mask: @CA,C,O,N  Frames used: 0-2000 on 2000 frames  Simulation time: 2 ns -->
    <g style="fill: #262626" transform="translate(291.22125 97.68) scale(0.12 -0.12)">
     <defs>
      <path id="DejaVuSans-41" d="M 2188 4044 
L 1331 1722 
L 3047 1722 
L 2188 4044 
z
M 1831 4666 
L 2547 4666 
L 4325 0 
L 3669 0 
L 3244 1197 
L 1141 1197 
L 716 0 
L 50 0 
L 1831 4666 
z
" transform="scale(0.015625)"/>
      <path id="DejaVuSans-70" d="M 1159 525 
L 1159 -1331 
L 581 -1331 
L 581 3500 
L 1159 3500 
L 1159 2969 
Q 1341 3281 1617 3432 
Q 1894 3584 2278 3584 
Q 2916 3584 3314 3078 
Q 3713 2572 3713 1747 
Q 3713 922 3314 415 
Q 2916 -91 2278 -91 
Q 1894 -91 1617 61 
Q 1341 213 1159 525 
z
M 3116 1747 
Q 3116 2381 2855 2742 
Q 2594 3103 2138 3103 
Q 1681 3103 1420 2742 
Q 1159 2381 1159 1747 
Q 1159 1113 1420 752 
Q 1681 391 2138 391 
Q 2594 391 2855 752 
Q 3116 1113 3116 1747 
z
" transform="scale(0.015625)"/>
      <path id="DejaVuSans-6c" d="M 603 4863 
L 1178 4863 
L 1178 0 
L 603 0 
L 603 4863 
z
" transform="scale(0.015625)"/>
      <path id="DejaVuSans-69" d="M 603 3500 
L 1178 3500 
L 1178 0 
L 603 0 
L 603 3500 
z
M 603 4863 
L 1178 4863 
L 1178 4134 
L 603 4134 
L 603 4863 
z
" transform="scale(0.015625)"/>
      <path id="DejaVuSans-65" d="M 3597 1894 
L 3597 1613 
L 953 1613 
Q 991 1019 1311 708 
Q 1631 397 2203 397 
Q 2534 397 2845 478 
Q 3156 559 3463 722 
L 3463 178 
Q 3153 47 2828 -22 
Q 2503 -91 2169 -91 
Q 1331 -91 842 396 
Q 353 884 353 1716 
Q 353 2575 817 3079 
Q 1281 3584 2069 3584 
Q 2775 3584 3186 3129 
Q 3597 2675 3597 1894 
z
M 3022 2063 
Q 3016 2534 2758 2815 
Q 2500 3097 2075 3097 
Q 1594 3097 1305 2825 
Q 1016 2553 972 2059 
L 3022 2063 
z
" transform="scale(0.015625)"/>
      <path id="DejaVuSans-64" d="M 2906 2969 
L 2906 4863 
L 3481 4863 
L 3481 0 
L 2906 0 
L 2906 525 
Q 2725 213 2448 61 
Q 2172 -91 1784 -91 
Q 1150 -91 751 415 
Q 353 922 353 1747 
Q 353 2572 751 3078 
Q 1150 3584 1784 3584 
Q 2172 3584 2448 3432 
Q 2725 3281 2906 2969 
z
M 947 1747 
Q 947 1113 1208 752 
Q 1469 391 1925 391 
Q 2381 391 2643 752 
Q 2906 1113 2906 1747 
Q 2906 2381 2643 2742 
Q 2381 3103 1925 3103 
Q 1469 3103 1208 2742 
Q 947 2381 947 1747 
z
" transform="scale(0.015625)"/>
      <path id="DejaVuSans-20" transform="scale(0.015625)"/>
      <path id="DejaVuSans-6d" d="M 3328 2828 
Q 3544 3216 3844 3400 
Q 4144 3584 4550 3584 
Q 5097 3584 5394 3201 
Q 5691 2819 5691 2113 
L 5691 0 
L 5113 0 
L 5113 2094 
Q 5113 2597 4934 2840 
Q 4756 3084 4391 3084 
Q 3944 3084 3684 2787 
Q 3425 2491 3425 1978 
L 3425 0 
L 2847 0 
L 2847 2094 
Q 2847 2600 2669 2842 
Q 2491 3084 2119 3084 
Q 1678 3084 1418 2786 
Q 1159 2488 1159 1978 
L 1159 0 
L 581 0 
L 581 3500 
L 1159 3500 
L 1159 2956 
Q 1356 3278 1631 3431 
Q 1906 3584 2284 3584 
Q 2666 3584 2933 3390 
Q 3200 3197 3328 2828 
z
" transform="scale(0.015625)"/>
      <path id="DejaVuSans-61" d="M 2194 1759 
Q 1497 1759 1228 1600 
Q 959 1441 959 1056 
Q 959 750 1161 570 
Q 1363 391 1709 391 
Q 2188 391 2477 730 
Q 2766 1069 2766 1631 
L 2766 1759 
L 2194 1759 
z
M 3341 1997 
L 3341 0 
L 2766 0 
L 2766 531 
Q 2569 213 2275 61 
Q 1981 -91 1556 -91 
Q 1019 -91 701 211 
Q 384 513 384 1019 
Q 384 1609 779 1909 
Q 1175 2209 1959 2209 
L 2766 2209 
L 2766 2266 
Q 2766 2663 2505 2880 
Q 2244 3097 1772 3097 
Q 1472 3097 1187 3025 
Q 903 2953 641 2809 
L 641 3341 
Q 956 3463 1253 3523 
Q 1550 3584 1831 3584 
Q 2591 3584 2966 3190 
Q 3341 2797 3341 1997 
z
" transform="scale(0.015625)"/>
      <path id="DejaVuSans-73" d="M 2834 3397 
L 2834 2853 
Q 2591 2978 2328 3040 
Q 2066 3103 1784 3103 
Q 1356 3103 1142 2972 
Q 928 2841 928 2578 
Q 928 2378 1081 2264 
Q 1234 2150 1697 2047 
L 1894 2003 
Q 2506 1872 2764 1633 
Q 3022 1394 3022 966 
Q 3022 478 2636 193 
Q 2250 -91 1575 -91 
Q 1294 -91 989 -36 
Q 684 19 347 128 
L 347 722 
Q 666 556 975 473 
Q 1284 391 1588 391 
Q 1994 391 2212 530 
Q 2431 669 2431 922 
Q 2431 1156 2273 1281 
Q 2116 1406 1581 1522 
L 1381 1569 
Q 847 1681 609 1914 
Q 372 2147 372 2553 
Q 372 3047 722 3315 
Q 1072 3584 1716 3584 
Q 2034 3584 2315 3537 
Q 2597 3491 2834 3397 
z
" transform="scale(0.015625)"/>
      <path id="DejaVuSans-6b" d="M 581 4863 
L 1159 4863 
L 1159 1991 
L 2875 3500 
L 3609 3500 
L 1753 1863 
L 3688 0 
L 2938 0 
L 1159 1709 
L 1159 0 
L 581 0 
L 581 4863 
z
" transform="scale(0.015625)"/>
      <path id="DejaVuSans-3a" d="M 750 794 
L 1409 794 
L 1409 0 
L 750 0 
L 750 794 
z
M 750 3309 
L 1409 3309 
L 1409 2516 
L 750 2516 
L 750 3309 
z
" transform="scale(0.015625)"/>
      <path id="DejaVuSans-40" d="M 2381 1678 
Q 2381 1231 2603 976 
Q 2825 722 3213 722 
Q 3597 722 3817 978 
Q 4038 1234 4038 1678 
Q 4038 2116 3813 2373 
Q 3588 2631 3206 2631 
Q 2828 2631 2604 2375 
Q 2381 2119 2381 1678 
z
M 4084 744 
Q 3897 503 3655 389 
Q 3413 275 3091 275 
Q 2553 275 2217 664 
Q 1881 1053 1881 1678 
Q 1881 2303 2218 2693 
Q 2556 3084 3091 3084 
Q 3413 3084 3656 2967 
Q 3900 2850 4084 2613 
L 4084 3022 
L 4531 3022 
L 4531 722 
Q 4988 791 5245 1139 
Q 5503 1488 5503 2041 
Q 5503 2375 5404 2669 
Q 5306 2963 5106 3213 
Q 4781 3622 4314 3839 
Q 3847 4056 3297 4056 
Q 2913 4056 2559 3954 
Q 2206 3853 1906 3653 
Q 1416 3334 1139 2817 
Q 863 2300 863 1697 
Q 863 1200 1042 765 
Q 1222 331 1563 0 
Q 1891 -325 2322 -495 
Q 2753 -666 3244 -666 
Q 3647 -666 4036 -530 
Q 4425 -394 4750 -141 
L 5031 -488 
Q 4641 -791 4180 -952 
Q 3719 -1113 3244 -1113 
Q 2666 -1113 2153 -908 
Q 1641 -703 1241 -313 
Q 841 78 631 592 
Q 422 1106 422 1697 
Q 422 2266 634 2781 
Q 847 3297 1241 3688 
Q 1644 4084 2172 4295 
Q 2700 4506 3291 4506 
Q 3953 4506 4520 4234 
Q 5088 3963 5472 3463 
Q 5706 3156 5829 2797 
Q 5953 2438 5953 2053 
Q 5953 1231 5456 756 
Q 4959 281 4084 263 
L 4084 744 
z
" transform="scale(0.015625)"/>
      <path id="DejaVuSans-43" d="M 4122 4306 
L 4122 3641 
Q 3803 3938 3442 4084 
Q 3081 4231 2675 4231 
Q 1875 4231 1450 3742 
Q 1025 3253 1025 2328 
Q 1025 1406 1450 917 
Q 1875 428 2675 428 
Q 3081 428 3442 575 
Q 3803 722 4122 1019 
L 4122 359 
Q 3791 134 3420 21 
Q 3050 -91 2638 -91 
Q 1578 -91 968 557 
Q 359 1206 359 2328 
Q 359 3453 968 4101 
Q 1578 4750 2638 4750 
Q 3056 4750 3426 4639 
Q 3797 4528 4122 4306 
z
" transform="scale(0.015625)"/>
      <path id="DejaVuSans-2c" d="M 750 794 
L 1409 794 
L 1409 256 
L 897 -744 
L 494 -744 
L 750 256 
L 750 794 
z
" transform="scale(0.015625)"/>
      <path id="DejaVuSans-4f" d="M 2522 4238 
Q 1834 4238 1429 3725 
Q 1025 3213 1025 2328 
Q 1025 1447 1429 934 
Q 1834 422 2522 422 
Q 3209 422 3611 934 
Q 4013 1447 4013 2328 
Q 4013 3213 3611 3725 
Q 3209 4238 2522 4238 
z
M 2522 4750 
Q 3503 4750 4090 4092 
Q 4678 3434 4678 2328 
Q 4678 1225 4090 567 
Q 3503 -91 2522 -91 
Q 1538 -91 948 565 
Q 359 1222 359 2328 
Q 359 3434 948 4092 
Q 1538 4750 2522 4750 
z
" transform="scale(0.015625)"/>
      <path id="DejaVuSans-4e" d="M 628 4666 
L 1478 4666 
L 3547 763 
L 3547 4666 
L 4159 4666 
L 4159 0 
L 3309 0 
L 1241 3903 
L 1241 0 
L 628 0 
L 628 4666 
z
" transform="scale(0.015625)"/>
      <path id="DejaVuSans-46" d="M 628 4666 
L 3309 4666 
L 3309 4134 
L 1259 4134 
L 1259 2759 
L 3109 2759 
L 3109 2228 
L 1259 2228 
L 1259 0 
L 628 0 
L 628 4666 
z
" transform="scale(0.015625)"/>
      <path id="DejaVuSans-72" d="M 2631 2963 
Q 2534 3019 2420 3045 
Q 2306 3072 2169 3072 
Q 1681 3072 1420 2755 
Q 1159 2438 1159 1844 
L 1159 0 
L 581 0 
L 581 3500 
L 1159 3500 
L 1159 2956 
Q 1341 3275 1631 3429 
Q 1922 3584 2338 3584 
Q 2397 3584 2469 3576 
Q 2541 3569 2628 3553 
L 2631 2963 
z
" transform="scale(0.015625)"/>
      <path id="DejaVuSans-75" d="M 544 1381 
L 544 3500 
L 1119 3500 
L 1119 1403 
Q 1119 906 1312 657 
Q 1506 409 1894 409 
Q 2359 409 2629 706 
Q 2900 1003 2900 1516 
L 2900 3500 
L 3475 3500 
L 3475 0 
L 2900 0 
L 2900 538 
Q 2691 219 2414 64 
Q 2138 -91 1772 -91 
Q 1169 -91 856 284 
Q 544 659 544 1381 
z
M 1991 3584 
L 1991 3584 
z
" transform="scale(0.015625)"/>
      <path id="DejaVuSans-2d" d="M 313 2009 
L 1997 2009 
L 1997 1497 
L 313 1497 
L 313 2009 
z
" transform="scale(0.015625)"/>
      <path id="DejaVuSans-6f" d="M 1959 3097 
Q 1497 3097 1228 2736 
Q 959 2375 959 1747 
Q 959 1119 1226 758 
Q 1494 397 1959 397 
Q 2419 397 2687 759 
Q 2956 1122 2956 1747 
Q 2956 2369 2687 2733 
Q 2419 3097 1959 3097 
z
M 1959 3584 
Q 2709 3584 3137 3096 
Q 3566 2609 3566 1747 
Q 3566 888 3137 398 
Q 2709 -91 1959 -91 
Q 1206 -91 779 398 
Q 353 888 353 1747 
Q 353 2609 779 3096 
Q 1206 3584 1959 3584 
z
" transform="scale(0.015625)"/>
      <path id="DejaVuSans-6e" d="M 3513 2113 
L 3513 0 
L 2938 0 
L 2938 2094 
Q 2938 2591 2744 2837 
Q 2550 3084 2163 3084 
Q 1697 3084 1428 2787 
Q 1159 2491 1159 1978 
L 1159 0 
L 581 0 
L 581 3500 
L 1159 3500 
L 1159 2956 
Q 1366 3272 1645 3428 
Q 1925 3584 2291 3584 
Q 2894 3584 3203 3211 
Q 3513 2838 3513 2113 
z
" transform="scale(0.015625)"/>
      <path id="DejaVuSans-66" d="M 2375 4863 
L 2375 4384 
L 1825 4384 
Q 1516 4384 1395 4259 
Q 1275 4134 1275 3809 
L 1275 3500 
L 2222 3500 
L 2222 3053 
L 1275 3053 
L 1275 0 
L 697 0 
L 697 3053 
L 147 3053 
L 147 3500 
L 697 3500 
L 697 3744 
Q 697 4328 969 4595 
Q 1241 4863 1831 4863 
L 2375 4863 
z
" transform="scale(0.015625)"/>
      <path id="DejaVuSans-53" d="M 3425 4513 
L 3425 3897 
Q 3066 4069 2747 4153 
Q 2428 4238 2131 4238 
Q 1616 4238 1336 4038 
Q 1056 3838 1056 3469 
Q 1056 3159 1242 3001 
Q 1428 2844 1947 2747 
L 2328 2669 
Q 3034 2534 3370 2195 
Q 3706 1856 3706 1288 
Q 3706 609 3251 259 
Q 2797 -91 1919 -91 
Q 1588 -91 1214 -16 
Q 841 59 441 206 
L 441 856 
Q 825 641 1194 531 
Q 1563 422 1919 422 
Q 2459 422 2753 634 
Q 3047 847 3047 1241 
Q 3047 1584 2836 1778 
Q 2625 1972 2144 2069 
L 1759 2144 
Q 1053 2284 737 2584 
Q 422 2884 422 3419 
Q 422 4038 858 4394 
Q 1294 4750 2059 4750 
Q 2388 4750 2728 4690 
Q 3069 4631 3425 4513 
z
" transform="scale(0.015625)"/>
      <path id="DejaVuSans-74" d="M 1172 4494 
L 1172 3500 
L 2356 3500 
L 2356 3053 
L 1172 3053 
L 1172 1153 
Q 1172 725 1289 603 
Q 1406 481 1766 481 
L 2356 481 
L 2356 0 
L 1766 0 
Q 1100 0 847 248 
Q 594 497 594 1153 
L 594 3053 
L 172 3053 
L 172 3500 
L 594 3500 
L 594 4494 
L 1172 4494 
z
" transform="scale(0.015625)"/>
     </defs>
     <use xlink:href="#DejaVuSans-41"/>
     <use xlink:href="#DejaVuSans-70" x="68.408203"/>
     <use xlink:href="#DejaVuSans-70" x="131.884766"/>
     <use xlink:href="#DejaVuSans-6c" x="195.361328"/>
     <use xlink:href="#DejaVuSans-69" x="223.144531"/>
     <use xlink:href="#DejaVuSans-65" x="250.927734"/>
     <use xlink:href="#DejaVuSans-64" x="312.451172"/>
     <use xlink:href="#DejaVuSans-20" x="375.927734"/>
     <use xlink:href="#DejaVuSans-6d" x="407.714844"/>
     <use xlink:href="#DejaVuSans-61" x="505.126953"/>
     <use xlink:href="#DejaVuSans-73" x="566.40625"/>
     <use xlink:href="#DejaVuSans-6b" x="618.505859"/>
     <use xlink:href="#DejaVuSans-3a" x="676.416016"/>
     <use xlink:href="#DejaVuSans-20" x="710.107422"/>
     <use xlink:href="#DejaVuSans-40" x="741.894531"/>
     <use xlink:href="#DejaVuSans-43" x="841.894531"/>
     <use xlink:href="#DejaVuSans-41" x="911.71875"/>
     <use xlink:href="#DejaVuSans-2c" x="980.126953"/>
     <use xlink:href="#DejaVuSans-43" x="1011.914062"/>
     <use xlink:href="#DejaVuSans-2c" x="1081.738281"/>
     <use xlink:href="#DejaVuSans-4f" x="1113.525391"/>
     <use xlink:href="#DejaVuSans-2c" x="1192.236328"/>
     <use xlink:href="#DejaVuSans-4e" x="1224.023438"/>
     <use xlink:href="#DejaVuSans-20" x="1298.828125"/>
     <use xlink:href="#DejaVuSans-20" x="1330.615234"/>
     <use xlink:href="#DejaVuSans-46" x="1362.402344"/>
     <use xlink:href="#DejaVuSans-72" x="1412.671875"/>
     <use xlink:href="#DejaVuSans-61" x="1453.785156"/>
     <use xlink:href="#DejaVuSans-6d" x="1515.064453"/>
     <use xlink:href="#DejaVuSans-65" x="1612.476562"/>
     <use xlink:href="#DejaVuSans-73" x="1674"/>
     <use xlink:href="#DejaVuSans-20" x="1726.099609"/>
     <use xlink:href="#DejaVuSans-75" x="1757.886719"/>
     <use xlink:href="#DejaVuSans-73" x="1821.265625"/>
     <use xlink:href="#DejaVuSans-65" x="1873.365234"/>
     <use xlink:href="#DejaVuSans-64" x="1934.888672"/>
     <use xlink:href="#DejaVuSans-3a" x="1998.365234"/>
     <use xlink:href="#DejaVuSans-20" x="2032.056641"/>
     <use xlink:href="#DejaVuSans-30" x="2063.84375"/>
     <use xlink:href="#DejaVuSans-2d" x="2127.466797"/>
     <use xlink:href="#DejaVuSans-32" x="2163.550781"/>
     <use xlink:href="#DejaVuSans-30" x="2227.173828"/>
     <use xlink:href="#DejaVuSans-30" x="2290.796875"/>
     <use xlink:href="#DejaVuSans-30" x="2354.419922"/>
     <use xlink:href="#DejaVuSans-20" x="2418.042969"/>
     <use xlink:href="#DejaVuSans-6f" x="2449.830078"/>
     <use xlink:href="#DejaVuSans-6e" x="2511.011719"/>
     <use xlink:href="#DejaVuSans-20" x="2574.390625"/>
     <use xlink:href="#DejaVuSans-32" x="2606.177734"/>
     <use xlink:href="#DejaVuSans-30" x="2669.800781"/>
     <use xlink:href="#DejaVuSans-30" x="2733.423828"/>
     <use xlink:href="#DejaVuSans-30" x="2797.046875"/>
     <use xlink:href="#DejaVuSans-20" x="2860.669922"/>
     <use xlink:href="#DejaVuSans-66" x="2892.457031"/>
     <use xlink:href="#DejaVuSans-72" x="2927.662109"/>
     <use xlink:href="#DejaVuSans-61" x="2968.775391"/>
     <use xlink:href="#DejaVuSans-6d" x="3030.054688"/>
     <use xlink:href="#DejaVuSans-65" x="3127.466797"/>
     <use xlink:href="#DejaVuSans-73" x="3188.990234"/>
     <use xlink:href="#DejaVuSans-20" x="3241.089844"/>
     <use xlink:href="#DejaVuSans-20" x="3272.876953"/>
     <use xlink:href="#DejaVuSans-53" x="3304.664062"/>
     <use xlink:href="#DejaVuSans-69" x="3368.140625"/>
     <use xlink:href="#DejaVuSans-6d" x="3395.923828"/>
     <use xlink:href="#DejaVuSans-75" x="3493.335938"/>
     <use xlink:href="#DejaVuSans-6c" x="3556.714844"/>
     <use xlink:href="#DejaVuSans-61" x="3584.498047"/>
     <use xlink:href="#DejaVuSans-74" x="3645.777344"/>
     <use xlink:href="#DejaVuSans-69" x="3684.986328"/>
     <use xlink:href="#DejaVuSans-6f" x="3712.769531"/>
     <use xlink:href="#DejaVuSans-6e" x="3773.951172"/>
     <use xlink:href="#DejaVuSans-20" x="3837.330078"/>
     <use xlink:href="#DejaVuSans-74" x="3869.117188"/>
     <use xlink:href="#DejaVuSans-69" x="3908.326172"/>
     <use xlink:href="#DejaVuSans-6d" x="3936.109375"/>
     <use xlink:href="#DejaVuSans-65" x="4033.521484"/>
     <use xlink:href="#DejaVuSans-3a" x="4095.044922"/>
     <use xlink:href="#DejaVuSans-20" x="4128.736328"/>
     <use xlink:href="#DejaVuSans-32" x="4160.523438"/>
     <use xlink:href="#DejaVuSans-20" x="4224.146484"/>
     <use xlink:href="#DejaVuSans-6e" x="4255.933594"/>
     <use xlink:href="#DejaVuSans-73" x="4319.3125"/>
    </g>
   </g>
  </g>
  <g id="text_21">
   <!-- Root Mean Square Deviation: MD data test -->
   <g style="fill: #262626" transform="translate(366.0435 28.22175) scale(0.144 -0.144)">
    <defs>
     <path id="DejaVuSans-Bold-6f" d="M 2203 2784 
Q 1831 2784 1636 2517 
Q 1441 2250 1441 1747 
Q 1441 1244 1636 976 
Q 1831 709 2203 709 
Q 2569 709 2762 976 
Q 2956 1244 2956 1747 
Q 2956 2250 2762 2517 
Q 2569 2784 2203 2784 
z
M 2203 3584 
Q 3106 3584 3614 3096 
Q 4122 2609 4122 1747 
Q 4122 884 3614 396 
Q 3106 -91 2203 -91 
Q 1297 -91 786 396 
Q 275 884 275 1747 
Q 275 2609 786 3096 
Q 1297 3584 2203 3584 
z
" transform="scale(0.015625)"/>
     <path id="DejaVuSans-Bold-74" d="M 1759 4494 
L 1759 3500 
L 2913 3500 
L 2913 2700 
L 1759 2700 
L 1759 1216 
Q 1759 972 1856 886 
Q 1953 800 2241 800 
L 2816 800 
L 2816 0 
L 1856 0 
Q 1194 0 917 276 
Q 641 553 641 1216 
L 641 2700 
L 84 2700 
L 84 3500 
L 641 3500 
L 641 4494 
L 1759 4494 
z
" transform="scale(0.015625)"/>
     <path id="DejaVuSans-Bold-6e" d="M 4056 2131 
L 4056 0 
L 2931 0 
L 2931 347 
L 2931 1631 
Q 2931 2084 2911 2256 
Q 2891 2428 2841 2509 
Q 2775 2619 2662 2680 
Q 2550 2741 2406 2741 
Q 2056 2741 1856 2470 
Q 1656 2200 1656 1722 
L 1656 0 
L 538 0 
L 538 3500 
L 1656 3500 
L 1656 2988 
Q 1909 3294 2193 3439 
Q 2478 3584 2822 3584 
Q 3428 3584 3742 3212 
Q 4056 2841 4056 2131 
z
" transform="scale(0.015625)"/>
     <path id="DejaVuSans-Bold-71" d="M 2181 2772 
Q 1825 2772 1636 2509 
Q 1447 2247 1447 1747 
Q 1447 1247 1636 984 
Q 1825 722 2181 722 
Q 2541 722 2730 984 
Q 2919 1247 2919 1747 
Q 2919 2247 2730 2509 
Q 2541 2772 2181 2772 
z
M 2919 506 
Q 2688 197 2409 53 
Q 2131 -91 1766 -91 
Q 1119 -91 703 423 
Q 288 938 288 1747 
Q 288 2556 703 3067 
Q 1119 3578 1766 3578 
Q 2131 3578 2409 3434 
Q 2688 3291 2919 2981 
L 2919 3500 
L 4044 3500 
L 4044 -1331 
L 2919 -1331 
L 2919 506 
z
" transform="scale(0.015625)"/>
     <path id="DejaVuSans-Bold-75" d="M 500 1363 
L 500 3500 
L 1625 3500 
L 1625 3150 
Q 1625 2866 1622 2436 
Q 1619 2006 1619 1863 
Q 1619 1441 1641 1255 
Q 1663 1069 1716 984 
Q 1784 875 1895 815 
Q 2006 756 2150 756 
Q 2500 756 2700 1025 
Q 2900 1294 2900 1772 
L 2900 3500 
L 4019 3500 
L 4019 0 
L 2900 0 
L 2900 506 
Q 2647 200 2364 54 
Q 2081 -91 1741 -91 
Q 1134 -91 817 281 
Q 500 653 500 1363 
z
" transform="scale(0.015625)"/>
     <path id="DejaVuSans-Bold-76" d="M 97 3500 
L 1216 3500 
L 2088 1081 
L 2956 3500 
L 4078 3500 
L 2700 0 
L 1472 0 
L 97 3500 
z
" transform="scale(0.015625)"/>
     <path id="DejaVuSans-Bold-69" d="M 538 3500 
L 1656 3500 
L 1656 0 
L 538 0 
L 538 3500 
z
M 538 4863 
L 1656 4863 
L 1656 3950 
L 538 3950 
L 538 4863 
z
" transform="scale(0.015625)"/>
     <path id="DejaVuSans-Bold-3a" d="M 716 3500 
L 1844 3500 
L 1844 2291 
L 716 2291 
L 716 3500 
z
M 716 1209 
L 1844 1209 
L 1844 0 
L 716 0 
L 716 1209 
z
" transform="scale(0.015625)"/>
     <path id="DejaVuSans-Bold-64" d="M 2919 2988 
L 2919 4863 
L 4044 4863 
L 4044 0 
L 2919 0 
L 2919 506 
Q 2688 197 2409 53 
Q 2131 -91 1766 -91 
Q 1119 -91 703 423 
Q 288 938 288 1747 
Q 288 2556 703 3070 
Q 1119 3584 1766 3584 
Q 2128 3584 2408 3439 
Q 2688 3294 2919 2988 
z
M 2181 722 
Q 2541 722 2730 984 
Q 2919 1247 2919 1747 
Q 2919 2247 2730 2509 
Q 2541 2772 2181 2772 
Q 1825 2772 1636 2509 
Q 1447 2247 1447 1747 
Q 1447 1247 1636 984 
Q 1825 722 2181 722 
z
" transform="scale(0.015625)"/>
    </defs>
    <use xlink:href="#DejaVuSans-Bold-52"/>
    <use xlink:href="#DejaVuSans-Bold-6f" x="77.001953"/>
    <use xlink:href="#DejaVuSans-Bold-6f" x="145.703125"/>
    <use xlink:href="#DejaVuSans-Bold-74" x="214.404297"/>
    <use xlink:href="#DejaVuSans-Bold-20" x="262.207031"/>
    <use xlink:href="#DejaVuSans-Bold-4d" x="297.021484"/>
    <use xlink:href="#DejaVuSans-Bold-65" x="396.533203"/>
    <use xlink:href="#DejaVuSans-Bold-61" x="464.355469"/>
    <use xlink:href="#DejaVuSans-Bold-6e" x="531.835938"/>
    <use xlink:href="#DejaVuSans-Bold-20" x="603.027344"/>
    <use xlink:href="#DejaVuSans-Bold-53" x="637.841797"/>
    <use xlink:href="#DejaVuSans-Bold-71" x="709.863281"/>
    <use xlink:href="#DejaVuSans-Bold-75" x="781.445312"/>
    <use xlink:href="#DejaVuSans-Bold-61" x="852.636719"/>
    <use xlink:href="#DejaVuSans-Bold-72" x="920.117188"/>
    <use xlink:href="#DejaVuSans-Bold-65" x="969.433594"/>
    <use xlink:href="#DejaVuSans-Bold-20" x="1037.255859"/>
    <use xlink:href="#DejaVuSans-Bold-44" x="1072.070312"/>
    <use xlink:href="#DejaVuSans-Bold-65" x="1155.078125"/>
    <use xlink:href="#DejaVuSans-Bold-76" x="1222.900391"/>
    <use xlink:href="#DejaVuSans-Bold-69" x="1288.085938"/>
    <use xlink:href="#DejaVuSans-Bold-61" x="1322.363281"/>
    <use xlink:href="#DejaVuSans-Bold-74" x="1389.84375"/>
    <use xlink:href="#DejaVuSans-Bold-69" x="1437.646484"/>
    <use xlink:href="#DejaVuSans-Bold-6f" x="1471.923828"/>
    <use xlink:href="#DejaVuSans-Bold-6e" x="1540.625"/>
    <use xlink:href="#DejaVuSans-Bold-3a" x="1611.816406"/>
    <use xlink:href="#DejaVuSans-Bold-20" x="1651.806641"/>
    <use xlink:href="#DejaVuSans-Bold-4d" x="1686.621094"/>
    <use xlink:href="#DejaVuSans-Bold-44" x="1786.132812"/>
    <use xlink:href="#DejaVuSans-Bold-20" x="1869.140625"/>
    <use xlink:href="#DejaVuSans-Bold-64" x="1903.955078"/>
    <use xlink:href="#DejaVuSans-Bold-61" x="1975.537109"/>
    <use xlink:href="#DejaVuSans-Bold-74" x="2043.017578"/>
    <use xlink:href="#DejaVuSans-Bold-61" x="2090.820312"/>
    <use xlink:href="#DejaVuSans-Bold-20" x="2158.300781"/>
    <use xlink:href="#DejaVuSans-Bold-74" x="2193.115234"/>
    <use xlink:href="#DejaVuSans-Bold-65" x="2240.917969"/>
    <use xlink:href="#DejaVuSans-Bold-73" x="2308.740234"/>
    <use xlink:href="#DejaVuSans-Bold-74" x="2368.261719"/>
   </g>
  </g>
 </g>
 <defs>
  <clipPath id="pd52cecba52">
   <rect x="135" y="103.68" width="837" height="665.28"/>
  </clipPath>
 </defs>
</svg>
