<?xml version="1.0" encoding="utf-8" standalone="no"?>
<!DOCTYPE svg PUBLIC "-//W3C//DTD SVG 1.1//EN"
  "http://www.w3.org/Graphics/SVG/1.1/DTD/svg11.dtd">
<svg xmlns:xlink="http://www.w3.org/1999/xlink" width="1080pt" height="864pt" viewBox="0 0 1080 864" xmlns="http://www.w3.org/2000/svg" version="1.1">
 <metadata>
  <rdf:RDF xmlns:dc="http://purl.org/dc/elements/1.1/" xmlns:cc="http://creativecommons.org/ns#" xmlns:rdf="http://www.w3.org/1999/02/22-rdf-syntax-ns#">
   <cc:Work>
    <dc:type rdf:resource="http://purl.org/dc/dcmitype/StillImage"/>
    <dc:date>2024-04-24T16:51:59.752489</dc:date>
    <dc:format>image/svg+xml</dc:format>
    <dc:creator>
     <cc:Agent>
      <dc:title>Matplotlib v3.6.2, https://matplotlib.org/</dc:title>
     </cc:Agent>
    </dc:creator>
   </cc:Work>
  </rdf:RDF>
 </metadata>
 <defs>
  <style type="text/css">*{stroke-linejoin: round; stroke-linecap: butt}</style>
 </defs>
 <g id="figure_1">
  <g id="patch_1">
   <path d="M 0 864 
L 1080 864 
L 1080 0 
L 0 0 
z
" style="fill: #ffffff"/>
  </g>
  <g id="axes_1">
   <g id="patch_2">
    <path d="M 135 768.96 
L 972 768.96 
L 972 103.68 
L 135 103.68 
z
" style="fill: #eaeaf2"/>
   </g>
   <g id="matplotlib.axis_1">
    <g id="xtick_1">
     <g id="line2d_1">
      <path d="M 173.045455 768.96 
L 173.045455 103.68 
" clip-path="url(#pbfe0950d3f)" style="fill: none; stroke: #ffffff; stroke-linecap: round"/>
     </g>
     <g id="text_1">
      <!-- 0 -->
      <g style="fill: #262626" transform="translate(169.54608 786.818281) scale(0.11 -0.11)">
       <defs>
        <path id="DejaVuSans-30" d="M 2034 4250 
Q 1547 4250 1301 3770 
Q 1056 3291 1056 2328 
Q 1056 1369 1301 889 
Q 1547 409 2034 409 
Q 2525 409 2770 889 
Q 3016 1369 3016 2328 
Q 3016 3291 2770 3770 
Q 2525 4250 2034 4250 
z
M 2034 4750 
Q 2819 4750 3233 4129 
Q 3647 3509 3647 2328 
Q 3647 1150 3233 529 
Q 2819 -91 2034 -91 
Q 1250 -91 836 529 
Q 422 1150 422 2328 
Q 422 3509 836 4129 
Q 1250 4750 2034 4750 
z
" transform="scale(0.015625)"/>
       </defs>
       <use xlink:href="#DejaVuSans-30"/>
      </g>
     </g>
    </g>
    <g id="xtick_2">
     <g id="line2d_2">
      <path d="M 268.206672 768.96 
L 268.206672 103.68 
" clip-path="url(#pbfe0950d3f)" style="fill: none; stroke: #ffffff; stroke-linecap: round"/>
     </g>
     <g id="text_2">
      <!-- 250 -->
      <g style="fill: #262626" transform="translate(257.708547 786.818281) scale(0.11 -0.11)">
       <defs>
        <path id="DejaVuSans-32" d="M 1228 531 
L 3431 531 
L 3431 0 
L 469 0 
L 469 531 
Q 828 903 1448 1529 
Q 2069 2156 2228 2338 
Q 2531 2678 2651 2914 
Q 2772 3150 2772 3378 
Q 2772 3750 2511 3984 
Q 2250 4219 1831 4219 
Q 1534 4219 1204 4116 
Q 875 4013 500 3803 
L 500 4441 
Q 881 4594 1212 4672 
Q 1544 4750 1819 4750 
Q 2544 4750 2975 4387 
Q 3406 4025 3406 3419 
Q 3406 3131 3298 2873 
Q 3191 2616 2906 2266 
Q 2828 2175 2409 1742 
Q 1991 1309 1228 531 
z
" transform="scale(0.015625)"/>
        <path id="DejaVuSans-35" d="M 691 4666 
L 3169 4666 
L 3169 4134 
L 1269 4134 
L 1269 2991 
Q 1406 3038 1543 3061 
Q 1681 3084 1819 3084 
Q 2600 3084 3056 2656 
Q 3513 2228 3513 1497 
Q 3513 744 3044 326 
Q 2575 -91 1722 -91 
Q 1428 -91 1123 -41 
Q 819 9 494 109 
L 494 744 
Q 775 591 1075 516 
Q 1375 441 1709 441 
Q 2250 441 2565 725 
Q 2881 1009 2881 1497 
Q 2881 1984 2565 2268 
Q 2250 2553 1709 2553 
Q 1456 2553 1204 2497 
Q 953 2441 691 2322 
L 691 4666 
z
" transform="scale(0.015625)"/>
       </defs>
       <use xlink:href="#DejaVuSans-32"/>
       <use xlink:href="#DejaVuSans-35" x="63.623047"/>
       <use xlink:href="#DejaVuSans-30" x="127.246094"/>
      </g>
     </g>
    </g>
    <g id="xtick_3">
     <g id="line2d_3">
      <path d="M 363.367888 768.96 
L 363.367888 103.68 
" clip-path="url(#pbfe0950d3f)" style="fill: none; stroke: #ffffff; stroke-linecap: round"/>
     </g>
     <g id="text_3">
      <!-- 500 -->
      <g style="fill: #262626" transform="translate(352.869763 786.818281) scale(0.11 -0.11)">
       <use xlink:href="#DejaVuSans-35"/>
       <use xlink:href="#DejaVuSans-30" x="63.623047"/>
       <use xlink:href="#DejaVuSans-30" x="127.246094"/>
      </g>
     </g>
    </g>
    <g id="xtick_4">
     <g id="line2d_4">
      <path d="M 458.529105 768.96 
L 458.529105 103.68 
" clip-path="url(#pbfe0950d3f)" style="fill: none; stroke: #ffffff; stroke-linecap: round"/>
     </g>
     <g id="text_4">
      <!-- 750 -->
      <g style="fill: #262626" transform="translate(448.03098 786.818281) scale(0.11 -0.11)">
       <defs>
        <path id="DejaVuSans-37" d="M 525 4666 
L 3525 4666 
L 3525 4397 
L 1831 0 
L 1172 0 
L 2766 4134 
L 525 4134 
L 525 4666 
z
" transform="scale(0.015625)"/>
       </defs>
       <use xlink:href="#DejaVuSans-37"/>
       <use xlink:href="#DejaVuSans-35" x="63.623047"/>
       <use xlink:href="#DejaVuSans-30" x="127.246094"/>
      </g>
     </g>
    </g>
    <g id="xtick_5">
     <g id="line2d_5">
      <path d="M 553.690322 768.96 
L 553.690322 103.68 
" clip-path="url(#pbfe0950d3f)" style="fill: none; stroke: #ffffff; stroke-linecap: round"/>
     </g>
     <g id="text_5">
      <!-- 1000 -->
      <g style="fill: #262626" transform="translate(539.692822 786.818281) scale(0.11 -0.11)">
       <defs>
        <path id="DejaVuSans-31" d="M 794 531 
L 1825 531 
L 1825 4091 
L 703 3866 
L 703 4441 
L 1819 4666 
L 2450 4666 
L 2450 531 
L 3481 531 
L 3481 0 
L 794 0 
L 794 531 
z
" transform="scale(0.015625)"/>
       </defs>
       <use xlink:href="#DejaVuSans-31"/>
       <use xlink:href="#DejaVuSans-30" x="63.623047"/>
       <use xlink:href="#DejaVuSans-30" x="127.246094"/>
       <use xlink:href="#DejaVuSans-30" x="190.869141"/>
      </g>
     </g>
    </g>
    <g id="xtick_6">
     <g id="line2d_6">
      <path d="M 648.851539 768.96 
L 648.851539 103.68 
" clip-path="url(#pbfe0950d3f)" style="fill: none; stroke: #ffffff; stroke-linecap: round"/>
     </g>
     <g id="text_6">
      <!-- 1250 -->
      <g style="fill: #262626" transform="translate(634.854039 786.818281) scale(0.11 -0.11)">
       <use xlink:href="#DejaVuSans-31"/>
       <use xlink:href="#DejaVuSans-32" x="63.623047"/>
       <use xlink:href="#DejaVuSans-35" x="127.246094"/>
       <use xlink:href="#DejaVuSans-30" x="190.869141"/>
      </g>
     </g>
    </g>
    <g id="xtick_7">
     <g id="line2d_7">
      <path d="M 744.012756 768.96 
L 744.012756 103.68 
" clip-path="url(#pbfe0950d3f)" style="fill: none; stroke: #ffffff; stroke-linecap: round"/>
     </g>
     <g id="text_7">
      <!-- 1500 -->
      <g style="fill: #262626" transform="translate(730.015256 786.818281) scale(0.11 -0.11)">
       <use xlink:href="#DejaVuSans-31"/>
       <use xlink:href="#DejaVuSans-35" x="63.623047"/>
       <use xlink:href="#DejaVuSans-30" x="127.246094"/>
       <use xlink:href="#DejaVuSans-30" x="190.869141"/>
      </g>
     </g>
    </g>
    <g id="xtick_8">
     <g id="line2d_8">
      <path d="M 839.173973 768.96 
L 839.173973 103.68 
" clip-path="url(#pbfe0950d3f)" style="fill: none; stroke: #ffffff; stroke-linecap: round"/>
     </g>
     <g id="text_8">
      <!-- 1750 -->
      <g style="fill: #262626" transform="translate(825.176473 786.818281) scale(0.11 -0.11)">
       <use xlink:href="#DejaVuSans-31"/>
       <use xlink:href="#DejaVuSans-37" x="63.623047"/>
       <use xlink:href="#DejaVuSans-35" x="127.246094"/>
       <use xlink:href="#DejaVuSans-30" x="190.869141"/>
      </g>
     </g>
    </g>
    <g id="xtick_9">
     <g id="line2d_9">
      <path d="M 934.33519 768.96 
L 934.33519 103.68 
" clip-path="url(#pbfe0950d3f)" style="fill: none; stroke: #ffffff; stroke-linecap: round"/>
     </g>
     <g id="text_9">
      <!-- 2000 -->
      <g style="fill: #262626" transform="translate(920.33769 786.818281) scale(0.11 -0.11)">
       <use xlink:href="#DejaVuSans-32"/>
       <use xlink:href="#DejaVuSans-30" x="63.623047"/>
       <use xlink:href="#DejaVuSans-30" x="127.246094"/>
       <use xlink:href="#DejaVuSans-30" x="190.869141"/>
      </g>
     </g>
    </g>
    <g id="text_10">
     <!-- frames -->
     <g style="fill: #262626" transform="translate(529.989375 802.224063) scale(0.12 -0.12)">
      <defs>
       <path id="DejaVuSans-Bold-66" d="M 2841 4863 
L 2841 4128 
L 2222 4128 
Q 1984 4128 1890 4042 
Q 1797 3956 1797 3744 
L 1797 3500 
L 2753 3500 
L 2753 2700 
L 1797 2700 
L 1797 0 
L 678 0 
L 678 2700 
L 122 2700 
L 122 3500 
L 678 3500 
L 678 3744 
Q 678 4316 997 4589 
Q 1316 4863 1984 4863 
L 2841 4863 
z
" transform="scale(0.015625)"/>
       <path id="DejaVuSans-Bold-72" d="M 3138 2547 
Q 2991 2616 2845 2648 
Q 2700 2681 2553 2681 
Q 2122 2681 1889 2404 
Q 1656 2128 1656 1613 
L 1656 0 
L 538 0 
L 538 3500 
L 1656 3500 
L 1656 2925 
Q 1872 3269 2151 3426 
Q 2431 3584 2822 3584 
Q 2878 3584 2943 3579 
Q 3009 3575 3134 3559 
L 3138 2547 
z
" transform="scale(0.015625)"/>
       <path id="DejaVuSans-Bold-61" d="M 2106 1575 
Q 1756 1575 1579 1456 
Q 1403 1338 1403 1106 
Q 1403 894 1545 773 
Q 1688 653 1941 653 
Q 2256 653 2472 879 
Q 2688 1106 2688 1447 
L 2688 1575 
L 2106 1575 
z
M 3816 1997 
L 3816 0 
L 2688 0 
L 2688 519 
Q 2463 200 2181 54 
Q 1900 -91 1497 -91 
Q 953 -91 614 226 
Q 275 544 275 1050 
Q 275 1666 698 1953 
Q 1122 2241 2028 2241 
L 2688 2241 
L 2688 2328 
Q 2688 2594 2478 2717 
Q 2269 2841 1825 2841 
Q 1466 2841 1156 2769 
Q 847 2697 581 2553 
L 581 3406 
Q 941 3494 1303 3539 
Q 1666 3584 2028 3584 
Q 2975 3584 3395 3211 
Q 3816 2838 3816 1997 
z
" transform="scale(0.015625)"/>
       <path id="DejaVuSans-Bold-6d" d="M 3781 2919 
Q 3994 3244 4286 3414 
Q 4578 3584 4928 3584 
Q 5531 3584 5847 3212 
Q 6163 2841 6163 2131 
L 6163 0 
L 5038 0 
L 5038 1825 
Q 5041 1866 5042 1909 
Q 5044 1953 5044 2034 
Q 5044 2406 4934 2573 
Q 4825 2741 4581 2741 
Q 4263 2741 4089 2478 
Q 3916 2216 3909 1719 
L 3909 0 
L 2784 0 
L 2784 1825 
Q 2784 2406 2684 2573 
Q 2584 2741 2328 2741 
Q 2006 2741 1831 2477 
Q 1656 2213 1656 1722 
L 1656 0 
L 531 0 
L 531 3500 
L 1656 3500 
L 1656 2988 
Q 1863 3284 2130 3434 
Q 2397 3584 2719 3584 
Q 3081 3584 3359 3409 
Q 3638 3234 3781 2919 
z
" transform="scale(0.015625)"/>
       <path id="DejaVuSans-Bold-65" d="M 4031 1759 
L 4031 1441 
L 1416 1441 
Q 1456 1047 1700 850 
Q 1944 653 2381 653 
Q 2734 653 3104 758 
Q 3475 863 3866 1075 
L 3866 213 
Q 3469 63 3072 -14 
Q 2675 -91 2278 -91 
Q 1328 -91 801 392 
Q 275 875 275 1747 
Q 275 2603 792 3093 
Q 1309 3584 2216 3584 
Q 3041 3584 3536 3087 
Q 4031 2591 4031 1759 
z
M 2881 2131 
Q 2881 2450 2695 2645 
Q 2509 2841 2209 2841 
Q 1884 2841 1681 2658 
Q 1478 2475 1428 2131 
L 2881 2131 
z
" transform="scale(0.015625)"/>
       <path id="DejaVuSans-Bold-73" d="M 3272 3391 
L 3272 2541 
Q 2913 2691 2578 2766 
Q 2244 2841 1947 2841 
Q 1628 2841 1473 2761 
Q 1319 2681 1319 2516 
Q 1319 2381 1436 2309 
Q 1553 2238 1856 2203 
L 2053 2175 
Q 2913 2066 3209 1816 
Q 3506 1566 3506 1031 
Q 3506 472 3093 190 
Q 2681 -91 1863 -91 
Q 1516 -91 1145 -36 
Q 775 19 384 128 
L 384 978 
Q 719 816 1070 734 
Q 1422 653 1784 653 
Q 2113 653 2278 743 
Q 2444 834 2444 1013 
Q 2444 1163 2330 1236 
Q 2216 1309 1875 1350 
L 1678 1375 
Q 931 1469 631 1722 
Q 331 1975 331 2491 
Q 331 3047 712 3315 
Q 1094 3584 1881 3584 
Q 2191 3584 2531 3537 
Q 2872 3491 3272 3391 
z
" transform="scale(0.015625)"/>
      </defs>
      <use xlink:href="#DejaVuSans-Bold-66"/>
      <use xlink:href="#DejaVuSans-Bold-72" x="43.505859"/>
      <use xlink:href="#DejaVuSans-Bold-61" x="92.822266"/>
      <use xlink:href="#DejaVuSans-Bold-6d" x="160.302734"/>
      <use xlink:href="#DejaVuSans-Bold-65" x="264.501953"/>
      <use xlink:href="#DejaVuSans-Bold-73" x="332.324219"/>
     </g>
    </g>
   </g>
   <g id="matplotlib.axis_2">
    <g id="ytick_1">
     <g id="line2d_10">
      <path d="M 135 738.720005 
L 972 738.720005 
" clip-path="url(#pbfe0950d3f)" style="fill: none; stroke: #ffffff; stroke-linecap: round"/>
     </g>
     <g id="text_11">
      <!-- 0 -->
      <g style="fill: #262626" transform="translate(118.50125 742.899145) scale(0.11 -0.11)">
       <use xlink:href="#DejaVuSans-30"/>
      </g>
     </g>
    </g>
    <g id="ytick_2">
     <g id="line2d_11">
      <path d="M 135 623.515812 
L 972 623.515812 
" clip-path="url(#pbfe0950d3f)" style="fill: none; stroke: #ffffff; stroke-linecap: round"/>
     </g>
     <g id="text_12">
      <!-- 2 -->
      <g style="fill: #262626" transform="translate(118.50125 627.694953) scale(0.11 -0.11)">
       <use xlink:href="#DejaVuSans-32"/>
      </g>
     </g>
    </g>
    <g id="ytick_3">
     <g id="line2d_12">
      <path d="M 135 508.311619 
L 972 508.311619 
" clip-path="url(#pbfe0950d3f)" style="fill: none; stroke: #ffffff; stroke-linecap: round"/>
     </g>
     <g id="text_13">
      <!-- 4 -->
      <g style="fill: #262626" transform="translate(118.50125 512.49076) scale(0.11 -0.11)">
       <defs>
        <path id="DejaVuSans-34" d="M 2419 4116 
L 825 1625 
L 2419 1625 
L 2419 4116 
z
M 2253 4666 
L 3047 4666 
L 3047 1625 
L 3713 1625 
L 3713 1100 
L 3047 1100 
L 3047 0 
L 2419 0 
L 2419 1100 
L 313 1100 
L 313 1709 
L 2253 4666 
z
" transform="scale(0.015625)"/>
       </defs>
       <use xlink:href="#DejaVuSans-34"/>
      </g>
     </g>
    </g>
    <g id="ytick_4">
     <g id="line2d_13">
      <path d="M 135 393.107427 
L 972 393.107427 
" clip-path="url(#pbfe0950d3f)" style="fill: none; stroke: #ffffff; stroke-linecap: round"/>
     </g>
     <g id="text_14">
      <!-- 6 -->
      <g style="fill: #262626" transform="translate(118.50125 397.286567) scale(0.11 -0.11)">
       <defs>
        <path id="DejaVuSans-36" d="M 2113 2584 
Q 1688 2584 1439 2293 
Q 1191 2003 1191 1497 
Q 1191 994 1439 701 
Q 1688 409 2113 409 
Q 2538 409 2786 701 
Q 3034 994 3034 1497 
Q 3034 2003 2786 2293 
Q 2538 2584 2113 2584 
z
M 3366 4563 
L 3366 3988 
Q 3128 4100 2886 4159 
Q 2644 4219 2406 4219 
Q 1781 4219 1451 3797 
Q 1122 3375 1075 2522 
Q 1259 2794 1537 2939 
Q 1816 3084 2150 3084 
Q 2853 3084 3261 2657 
Q 3669 2231 3669 1497 
Q 3669 778 3244 343 
Q 2819 -91 2113 -91 
Q 1303 -91 875 529 
Q 447 1150 447 2328 
Q 447 3434 972 4092 
Q 1497 4750 2381 4750 
Q 2619 4750 2861 4703 
Q 3103 4656 3366 4563 
z
" transform="scale(0.015625)"/>
       </defs>
       <use xlink:href="#DejaVuSans-36"/>
      </g>
     </g>
    </g>
    <g id="ytick_5">
     <g id="line2d_14">
      <path d="M 135 277.903234 
L 972 277.903234 
" clip-path="url(#pbfe0950d3f)" style="fill: none; stroke: #ffffff; stroke-linecap: round"/>
     </g>
     <g id="text_15">
      <!-- 8 -->
      <g style="fill: #262626" transform="translate(118.50125 282.082375) scale(0.11 -0.11)">
       <defs>
        <path id="DejaVuSans-38" d="M 2034 2216 
Q 1584 2216 1326 1975 
Q 1069 1734 1069 1313 
Q 1069 891 1326 650 
Q 1584 409 2034 409 
Q 2484 409 2743 651 
Q 3003 894 3003 1313 
Q 3003 1734 2745 1975 
Q 2488 2216 2034 2216 
z
M 1403 2484 
Q 997 2584 770 2862 
Q 544 3141 544 3541 
Q 544 4100 942 4425 
Q 1341 4750 2034 4750 
Q 2731 4750 3128 4425 
Q 3525 4100 3525 3541 
Q 3525 3141 3298 2862 
Q 3072 2584 2669 2484 
Q 3125 2378 3379 2068 
Q 3634 1759 3634 1313 
Q 3634 634 3220 271 
Q 2806 -91 2034 -91 
Q 1263 -91 848 271 
Q 434 634 434 1313 
Q 434 1759 690 2068 
Q 947 2378 1403 2484 
z
M 1172 3481 
Q 1172 3119 1398 2916 
Q 1625 2713 2034 2713 
Q 2441 2713 2670 2916 
Q 2900 3119 2900 3481 
Q 2900 3844 2670 4047 
Q 2441 4250 2034 4250 
Q 1625 4250 1398 4047 
Q 1172 3844 1172 3481 
z
" transform="scale(0.015625)"/>
       </defs>
       <use xlink:href="#DejaVuSans-38"/>
      </g>
     </g>
    </g>
    <g id="ytick_6">
     <g id="line2d_15">
      <path d="M 135 162.699042 
L 972 162.699042 
" clip-path="url(#pbfe0950d3f)" style="fill: none; stroke: #ffffff; stroke-linecap: round"/>
     </g>
     <g id="text_16">
      <!-- 10 -->
      <g style="fill: #262626" transform="translate(111.5025 166.878182) scale(0.11 -0.11)">
       <use xlink:href="#DejaVuSans-31"/>
       <use xlink:href="#DejaVuSans-30" x="63.623047"/>
      </g>
     </g>
    </g>
    <g id="text_17">
     <!-- RMSD (Å) -->
     <g style="fill: #262626" transform="translate(105.006875 468.429375) rotate(-90) scale(0.12 -0.12)">
      <defs>
       <path id="DejaVuSans-Bold-52" d="M 2297 2597 
Q 2675 2597 2839 2737 
Q 3003 2878 3003 3200 
Q 3003 3519 2839 3656 
Q 2675 3794 2297 3794 
L 1791 3794 
L 1791 2597 
L 2297 2597 
z
M 1791 1766 
L 1791 0 
L 588 0 
L 588 4666 
L 2425 4666 
Q 3347 4666 3776 4356 
Q 4206 4047 4206 3378 
Q 4206 2916 3982 2619 
Q 3759 2322 3309 2181 
Q 3556 2125 3751 1926 
Q 3947 1728 4147 1325 
L 4800 0 
L 3519 0 
L 2950 1159 
Q 2778 1509 2601 1637 
Q 2425 1766 2131 1766 
L 1791 1766 
z
" transform="scale(0.015625)"/>
       <path id="DejaVuSans-Bold-4d" d="M 588 4666 
L 2119 4666 
L 3181 2169 
L 4250 4666 
L 5778 4666 
L 5778 0 
L 4641 0 
L 4641 3413 
L 3566 897 
L 2803 897 
L 1728 3413 
L 1728 0 
L 588 0 
L 588 4666 
z
" transform="scale(0.015625)"/>
       <path id="DejaVuSans-Bold-53" d="M 3834 4519 
L 3834 3531 
Q 3450 3703 3084 3790 
Q 2719 3878 2394 3878 
Q 1963 3878 1756 3759 
Q 1550 3641 1550 3391 
Q 1550 3203 1689 3098 
Q 1828 2994 2194 2919 
L 2706 2816 
Q 3484 2659 3812 2340 
Q 4141 2022 4141 1434 
Q 4141 663 3683 286 
Q 3225 -91 2284 -91 
Q 1841 -91 1394 -6 
Q 947 78 500 244 
L 500 1259 
Q 947 1022 1364 901 
Q 1781 781 2169 781 
Q 2563 781 2772 912 
Q 2981 1044 2981 1288 
Q 2981 1506 2839 1625 
Q 2697 1744 2272 1838 
L 1806 1941 
Q 1106 2091 782 2419 
Q 459 2747 459 3303 
Q 459 4000 909 4375 
Q 1359 4750 2203 4750 
Q 2588 4750 2994 4692 
Q 3400 4634 3834 4519 
z
" transform="scale(0.015625)"/>
       <path id="DejaVuSans-Bold-44" d="M 1791 3756 
L 1791 909 
L 2222 909 
Q 2959 909 3348 1275 
Q 3738 1641 3738 2338 
Q 3738 3031 3350 3393 
Q 2963 3756 2222 3756 
L 1791 3756 
z
M 588 4666 
L 1856 4666 
Q 2919 4666 3439 4514 
Q 3959 4363 4331 4000 
Q 4659 3684 4818 3271 
Q 4978 2859 4978 2338 
Q 4978 1809 4818 1395 
Q 4659 981 4331 666 
Q 3956 303 3431 151 
Q 2906 0 1856 0 
L 588 0 
L 588 4666 
z
" transform="scale(0.015625)"/>
       <path id="DejaVuSans-Bold-20" transform="scale(0.015625)"/>
       <path id="DejaVuSans-Bold-28" d="M 2413 -844 
L 1484 -844 
Q 1006 -72 778 623 
Q 550 1319 550 2003 
Q 550 2688 779 3389 
Q 1009 4091 1484 4856 
L 2413 4856 
Q 2013 4116 1813 3408 
Q 1613 2700 1613 2009 
Q 1613 1319 1811 609 
Q 2009 -100 2413 -844 
z
" transform="scale(0.015625)"/>
       <path id="DejaVuSans-Bold-212b" d="M 3225 4575 
L 4922 0 
L 3713 0 
L 3419 850 
L 1538 850 
L 1241 0 
L 31 0 
L 1728 4575 
Q 1656 4681 1622 4798 
Q 1588 4916 1588 5050 
Q 1588 5416 1848 5678 
Q 2109 5941 2478 5941 
Q 2841 5941 3103 5678 
Q 3366 5416 3366 5050 
Q 3366 4903 3331 4784 
Q 3297 4666 3225 4575 
z
M 2069 5050 
Q 2069 4881 2189 4761 
Q 2309 4641 2478 4641 
Q 2647 4641 2767 4761 
Q 2888 4881 2888 5050 
Q 2888 5219 2766 5339 
Q 2644 5459 2478 5459 
Q 2309 5459 2189 5339 
Q 2069 5219 2069 5050 
z
M 1838 1716 
L 3116 1716 
L 2478 3572 
L 1838 1716 
z
" transform="scale(0.015625)"/>
       <path id="DejaVuSans-Bold-29" d="M 513 -844 
Q 913 -100 1113 609 
Q 1313 1319 1313 2009 
Q 1313 2700 1113 3408 
Q 913 4116 513 4856 
L 1441 4856 
Q 1916 4091 2145 3389 
Q 2375 2688 2375 2003 
Q 2375 1319 2147 623 
Q 1919 -72 1441 -844 
L 513 -844 
z
" transform="scale(0.015625)"/>
      </defs>
      <use xlink:href="#DejaVuSans-Bold-52"/>
      <use xlink:href="#DejaVuSans-Bold-4d" x="77.001953"/>
      <use xlink:href="#DejaVuSans-Bold-53" x="176.513672"/>
      <use xlink:href="#DejaVuSans-Bold-44" x="248.535156"/>
      <use xlink:href="#DejaVuSans-Bold-20" x="331.542969"/>
      <use xlink:href="#DejaVuSans-Bold-28" x="366.357422"/>
      <use xlink:href="#DejaVuSans-Bold-212b" x="412.060547"/>
      <use xlink:href="#DejaVuSans-Bold-29" x="489.453125"/>
     </g>
    </g>
   </g>
   <g id="PolyCollection_1"/>
   <g id="line2d_16">
    <path d="M 173.045455 320.561523 
L 173.426099 314.714335 
L 173.806744 315.540808 
L 174.187389 304.12247 
L 174.568034 307.361292 
L 174.948679 296.19473 
L 175.329324 307.646132 
L 175.709969 288.11 
L 176.090613 280.300116 
L 176.471258 286.243007 
L 176.851903 303.618042 
L 177.232548 300.484367 
L 177.613193 270.453355 
L 177.993838 267.7428 
L 178.374483 259.376829 
L 178.755128 243.494449 
L 179.135772 243.023585 
L 179.516417 251.737919 
L 179.897062 255.321294 
L 180.277707 244.178755 
L 180.658352 248.367805 
L 181.038997 256.752948 
L 181.419642 247.895014 
L 181.800287 253.333885 
L 182.180931 267.042115 
L 182.561576 270.876649 
L 182.942221 266.368109 
L 183.322866 263.287391 
L 183.703511 264.495569 
L 184.084156 276.149935 
L 184.464801 278.122875 
L 184.845445 268.051706 
L 185.22609 274.828439 
L 185.606735 249.168314 
L 185.98738 252.504243 
L 186.74867 278.508991 
L 187.129315 296.395975 
L 187.50996 292.523122 
L 187.890604 260.409736 
L 188.271249 239.431745 
L 188.651894 228.51161 
L 189.032539 230.76964 
L 189.413184 244.340949 
L 189.793829 247.517968 
L 190.174474 244.285608 
L 190.555118 243.075343 
L 190.935763 248.41294 
L 191.697053 232.135901 
L 192.077698 256.76204 
L 192.458343 290.000762 
L 192.838988 295.634814 
L 193.219633 288.751403 
L 193.600277 289.407878 
L 193.980922 285.068784 
L 194.361567 301.135786 
L 194.742212 298.110162 
L 195.122857 285.165968 
L 195.503502 276.458977 
L 195.884147 270.583107 
L 196.264791 287.778623 
L 197.026081 271.854864 
L 197.787371 240.971292 
L 198.168016 247.09439 
L 198.548661 245.284141 
L 198.929306 244.68531 
L 199.30995 240.142551 
L 200.07124 235.404919 
L 200.451885 215.725687 
L 200.83253 222.700543 
L 201.213175 223.034992 
L 201.59382 236.637011 
L 201.974465 231.306604 
L 202.355109 237.898409 
L 203.116399 226.771767 
L 203.497044 229.168355 
L 204.258334 239.195044 
L 204.638979 237.100581 
L 205.400268 263.193174 
L 205.780913 260.863638 
L 206.542203 248.882361 
L 206.922848 242.200579 
L 207.303493 252.896351 
L 207.684138 242.82312 
L 208.064782 263.177661 
L 208.445427 266.749664 
L 208.826072 253.379412 
L 209.206717 261.213968 
L 209.587362 271.98391 
L 209.968007 264.512118 
L 210.348652 263.102009 
L 210.729296 281.905268 
L 211.109941 277.691443 
L 211.490586 280.189137 
L 211.871231 279.269275 
L 212.251876 284.28431 
L 213.013166 289.443406 
L 213.393811 299.029363 
L 213.774455 294.914223 
L 214.1551 303.532138 
L 214.535745 299.907056 
L 214.91639 297.364436 
L 215.67768 277.516401 
L 216.438969 296.194446 
L 216.819614 291.316776 
L 217.200259 276.351388 
L 217.580904 282.090938 
L 217.961549 299.632916 
L 218.342194 299.707926 
L 218.722839 303.587231 
L 219.103484 313.142265 
L 219.484128 304.104188 
L 219.864773 319.847071 
L 220.626063 297.873646 
L 221.387353 252.206296 
L 221.767998 267.427922 
L 222.148643 263.668495 
L 222.529287 279.116423 
L 222.909932 303.117481 
L 223.290577 309.273516 
L 223.671222 292.2239 
L 224.051867 301.53003 
L 224.432512 302.075853 
L 224.813157 293.311896 
L 225.193801 289.361117 
L 225.574446 274.545039 
L 225.955091 272.713133 
L 226.335736 273.680519 
L 226.716381 266.107619 
L 227.477671 286.663902 
L 228.23896 332.248838 
L 228.619605 336.30713 
L 229.00025 352.249276 
L 229.380895 355.626478 
L 230.142185 378.493513 
L 230.52283 377.366444 
L 231.284119 383.284103 
L 231.664764 367.406248 
L 232.045409 362.807294 
L 232.426054 363.520686 
L 232.806699 348.858494 
L 233.187344 342.622938 
L 233.948633 353.426387 
L 234.329278 354.369544 
L 234.709923 330.933453 
L 235.090568 319.064728 
L 235.471213 318.706555 
L 235.851858 319.779314 
L 236.232503 307.265612 
L 236.613147 308.631554 
L 237.374437 278.639337 
L 237.755082 292.629212 
L 238.135727 289.573882 
L 238.516372 288.466896 
L 238.897017 280.584403 
L 239.277662 281.055699 
L 239.658306 270.607423 
L 240.038951 275.292102 
L 240.419596 272.35931 
L 241.561531 319.843029 
L 241.942176 300.948666 
L 242.322821 326.089131 
L 242.703465 323.573068 
L 243.08411 324.246821 
L 243.464755 325.963162 
L 243.8454 312.621846 
L 244.226045 316.027845 
L 244.60669 312.660891 
L 244.987335 304.185581 
L 245.367979 300.523552 
L 245.748624 295.175499 
L 246.129269 295.611909 
L 246.509914 292.067699 
L 246.890559 283.245677 
L 247.651849 327.14409 
L 248.032494 333.501234 
L 248.413138 320.613008 
L 248.793783 327.199383 
L 249.174428 318.483527 
L 249.555073 298.956046 
L 249.935718 300.247704 
L 250.316363 295.589402 
L 250.697008 306.745988 
L 251.077652 304.042307 
L 251.458297 293.213224 
L 251.838942 289.47887 
L 252.219587 280.36301 
L 252.600232 277.361773 
L 252.980877 275.478816 
L 253.361522 290.701923 
L 253.742167 289.671511 
L 254.122811 289.405055 
L 254.503456 306.538757 
L 254.884101 311.195598 
L 255.264746 308.026392 
L 255.645391 303.279616 
L 256.026036 321.557249 
L 256.406681 326.347855 
L 256.787325 315.352604 
L 257.16797 308.202133 
L 257.548615 306.58096 
L 257.92926 306.512143 
L 258.69055 330.208878 
L 259.071195 320.808129 
L 259.45184 314.687941 
L 259.832484 323.039533 
L 260.213129 318.707067 
L 260.593774 301.512885 
L 260.974419 294.747858 
L 261.355064 291.279906 
L 261.735709 291.349079 
L 262.116354 303.804738 
L 262.496998 294.908228 
L 262.877643 297.755493 
L 263.258288 287.862933 
L 263.638933 291.228914 
L 264.019578 299.313924 
L 264.400223 298.641091 
L 264.780868 317.433356 
L 265.542157 336.957119 
L 265.922802 329.921163 
L 266.303447 327.062729 
L 266.684092 351.024024 
L 267.064737 330.438699 
L 267.445382 320.078363 
L 267.826027 294.301605 
L 268.206672 320.455398 
L 268.587316 317.234461 
L 268.967961 324.19284 
L 269.348606 315.541695 
L 269.729251 318.664407 
L 270.109896 316.201011 
L 270.490541 320.655184 
L 270.871186 301.250933 
L 271.25183 294.70399 
L 271.632475 278.801538 
L 272.01312 295.058821 
L 272.393765 281.404409 
L 272.77441 289.947719 
L 273.155055 303.20147 
L 273.5357 288.695177 
L 273.916345 294.427104 
L 274.296989 292.623407 
L 274.677634 294.660566 
L 275.058279 295.246371 
L 275.438924 283.174238 
L 275.819569 278.724297 
L 276.200214 275.909199 
L 276.580859 285.492714 
L 276.961503 289.85791 
L 277.342148 282.354798 
L 278.103438 298.736857 
L 278.484083 294.555053 
L 278.864728 305.748696 
L 279.245373 311.735086 
L 279.626018 292.976172 
L 280.006662 290.468151 
L 280.387307 295.352264 
L 280.767952 295.858969 
L 281.148597 294.923341 
L 281.529242 286.806493 
L 281.909887 274.288257 
L 282.290532 277.629602 
L 282.671176 274.601285 
L 283.051821 270.327029 
L 283.432466 280.474235 
L 283.813111 284.310167 
L 284.193756 286.015798 
L 284.574401 291.078136 
L 284.955046 290.619248 
L 285.335691 279.916618 
L 285.716335 281.405807 
L 286.09698 277.938937 
L 286.477625 290.265817 
L 286.85827 287.522502 
L 287.238915 289.05997 
L 287.61956 296.618042 
L 288.000205 301.697424 
L 288.38085 289.185384 
L 288.761494 292.067458 
L 289.142139 306.145271 
L 289.522784 290.997424 
L 289.903429 287.41872 
L 290.284074 282.778241 
L 290.664719 286.959837 
L 291.045364 287.922469 
L 291.426008 290.046263 
L 291.806653 312.223419 
L 292.187298 324.765655 
L 292.567943 328.96692 
L 292.948588 326.550361 
L 293.329233 326.885876 
L 293.709878 325.53985 
L 294.090523 314.21053 
L 294.471167 313.853802 
L 294.851812 315.45724 
L 295.232457 306.778024 
L 295.613102 294.075226 
L 295.993747 301.62636 
L 296.374392 299.333818 
L 297.135681 312.985287 
L 297.516326 304.942898 
L 298.277616 271.904726 
L 298.658261 280.196094 
L 299.038906 273.882117 
L 299.800196 284.304639 
L 300.18084 263.594777 
L 300.561485 276.21359 
L 300.94213 307.147702 
L 301.70342 293.851972 
L 302.46471 272.33496 
L 302.845354 278.665449 
L 303.606644 261.214556 
L 304.367934 282.408301 
L 304.748579 284.018887 
L 305.129224 287.345007 
L 305.509869 300.4327 
L 305.890513 309.434829 
L 306.271158 295.173164 
L 306.651803 310.454492 
L 307.032448 298.160445 
L 307.413093 309.106077 
L 307.793738 306.5722 
L 308.174383 309.271827 
L 308.935672 288.340155 
L 309.316317 287.220513 
L 309.696962 280.511452 
L 310.077607 280.923866 
L 310.458252 265.514909 
L 310.838897 277.637506 
L 311.219542 276.923755 
L 311.600186 285.683397 
L 311.980831 287.340645 
L 312.361476 286.788583 
L 312.742121 285.372513 
L 313.122766 279.634037 
L 313.503411 305.342351 
L 313.884056 297.124067 
L 314.264701 284.894622 
L 315.02599 299.823421 
L 315.406635 299.346048 
L 315.78728 298.690053 
L 316.167925 306.566471 
L 316.54857 298.69424 
L 316.929215 294.043923 
L 317.309859 297.567323 
L 317.690504 287.359241 
L 318.071149 297.825836 
L 318.451794 289.621429 
L 318.832439 292.249599 
L 319.213084 318.091241 
L 319.593729 326.90315 
L 319.974374 332.194165 
L 321.116308 312.225885 
L 321.496953 288.204925 
L 321.877598 282.309685 
L 322.258243 273.87898 
L 322.638888 269.669047 
L 323.019532 291.927748 
L 323.400177 302.532517 
L 323.780822 296.522215 
L 324.542112 276.537121 
L 324.922757 289.373547 
L 325.303402 285.428897 
L 325.684047 295.120511 
L 326.064691 292.174717 
L 326.445336 291.996508 
L 326.825981 280.879509 
L 327.206626 292.002953 
L 327.587271 281.16935 
L 327.967916 281.477297 
L 328.348561 277.691452 
L 328.729206 295.40942 
L 329.10985 298.86054 
L 329.490495 274.5723 
L 329.87114 267.894162 
L 330.251785 277.416214 
L 331.013075 259.657679 
L 331.39372 260.601789 
L 331.774364 250.76602 
L 332.155009 261.855595 
L 332.535654 267.039514 
L 332.916299 267.886699 
L 333.296944 280.337163 
L 333.677589 276.19907 
L 334.058234 281.09264 
L 334.438879 292.406954 
L 335.200168 275.780672 
L 335.580813 248.884071 
L 335.961458 263.534767 
L 336.342103 260.58457 
L 336.722748 258.72252 
L 337.103393 259.43699 
L 338.245327 271.569218 
L 338.625972 264.540906 
L 339.006617 260.581883 
L 339.387262 260.707475 
L 339.767907 246.164702 
L 340.148552 243.176118 
L 340.909841 248.165626 
L 341.290486 240.135105 
L 341.671131 252.22222 
L 342.051776 252.582495 
L 342.432421 241.496952 
L 342.813066 247.496606 
L 343.19371 247.775133 
L 343.574355 232.594298 
L 343.955 233.816231 
L 344.335645 234.135407 
L 344.71629 222.47003 
L 345.096935 230.682896 
L 345.858225 260.284216 
L 346.238869 248.40954 
L 346.619514 232.380322 
L 347.000159 229.526109 
L 347.380804 251.152427 
L 347.761449 259.423302 
L 348.142094 294.140013 
L 348.522739 291.005394 
L 348.903384 280.321102 
L 349.284028 280.719741 
L 349.664673 272.666142 
L 350.045318 283.368475 
L 350.425963 302.681998 
L 350.806608 280.345025 
L 351.187253 275.917917 
L 351.567898 248.008142 
L 351.948542 260.246262 
L 352.329187 256.755997 
L 352.709832 247.806345 
L 353.090477 244.431964 
L 353.471122 252.592346 
L 353.851767 253.370579 
L 354.232412 248.674504 
L 354.613057 269.174637 
L 355.374346 246.8765 
L 355.754991 243.134139 
L 356.135636 243.874217 
L 356.516281 242.505608 
L 356.896926 255.797214 
L 357.658215 265.717152 
L 358.03886 259.741383 
L 358.419505 266.465091 
L 358.80015 270.862516 
L 359.180795 264.625991 
L 359.56144 271.54029 
L 359.942085 251.105325 
L 360.32273 247.496661 
L 360.703374 263.227349 
L 361.084019 266.77783 
L 361.464664 262.156235 
L 361.845309 260.234169 
L 362.225954 271.493296 
L 362.606599 266.565351 
L 362.987244 256.299214 
L 363.367888 255.802384 
L 363.748533 240.78589 
L 364.129178 237.099357 
L 364.509823 224.661208 
L 364.890468 226.588153 
L 365.271113 251.97331 
L 365.651758 252.967682 
L 366.032403 262.717383 
L 366.413047 248.107515 
L 367.174337 249.484428 
L 367.554982 252.608715 
L 367.935627 250.440432 
L 368.316272 258.92587 
L 368.696917 258.005849 
L 369.077562 244.398921 
L 369.458206 240.030395 
L 369.838851 266.036183 
L 370.219496 271.025734 
L 370.600141 270.039973 
L 370.980786 265.611081 
L 371.361431 253.955723 
L 371.742076 251.505306 
L 372.12272 258.605054 
L 372.503365 256.296626 
L 372.88401 266.976173 
L 373.264655 256.816359 
L 373.6453 253.814761 
L 374.025945 259.385067 
L 374.40659 259.197042 
L 374.787235 258.463292 
L 375.167879 274.872485 
L 375.929169 292.261238 
L 376.690459 282.611608 
L 377.071104 274.521078 
L 377.451749 271.978353 
L 377.832393 237.698198 
L 378.213038 220.377105 
L 378.593683 217.235806 
L 378.974328 220.712746 
L 379.354973 215.907319 
L 379.735618 221.719902 
L 380.116263 216.107184 
L 380.496908 216.682486 
L 380.877552 205.653878 
L 381.258197 199.087622 
L 381.638842 201.660929 
L 382.019487 224.225682 
L 382.400132 230.430896 
L 382.780777 215.759485 
L 383.161422 229.582835 
L 383.542066 231.653379 
L 383.922711 250.233082 
L 384.303356 240.443062 
L 384.684001 240.120247 
L 385.064646 251.729404 
L 385.825936 228.62386 
L 386.206581 238.344396 
L 386.587225 242.918473 
L 386.96787 232.250398 
L 387.348515 230.159411 
L 387.72916 246.53754 
L 388.109805 239.41621 
L 388.49045 246.14482 
L 388.871095 237.050459 
L 389.25174 239.892672 
L 389.632384 246.926164 
L 390.393674 285.387007 
L 390.774319 294.67598 
L 391.154964 298.769921 
L 391.535609 297.665617 
L 392.296898 276.135189 
L 392.677543 272.793756 
L 393.058188 267.246044 
L 393.438833 273.591186 
L 393.819478 274.242954 
L 394.200123 279.815968 
L 394.580768 293.302151 
L 394.961413 294.271431 
L 395.342057 305.592195 
L 395.722702 282.137178 
L 396.103347 270.272167 
L 396.483992 270.341395 
L 396.864637 240.282799 
L 397.625927 248.654906 
L 398.006571 257.901155 
L 398.387216 257.639297 
L 398.767861 258.448189 
L 399.148506 266.841012 
L 399.529151 267.43982 
L 399.909796 264.391759 
L 400.290441 257.470057 
L 400.671086 239.280265 
L 401.05173 231.565621 
L 401.432375 236.809961 
L 402.193665 241.703567 
L 402.57431 237.677507 
L 402.954955 248.364311 
L 403.3356 253.350698 
L 403.716244 250.59337 
L 404.096889 252.128954 
L 404.477534 245.503145 
L 404.858179 244.8229 
L 405.238824 263.127838 
L 406.000114 255.55155 
L 406.380759 240.714554 
L 406.761403 210.051939 
L 407.142048 224.580209 
L 407.522693 228.660042 
L 407.903338 216.989382 
L 408.664628 217.009299 
L 409.045273 225.835856 
L 409.425918 220.525341 
L 409.806562 232.378857 
L 410.187207 230.67217 
L 410.567852 214.023506 
L 410.948497 232.512746 
L 411.329142 243.469645 
L 412.090432 226.430871 
L 412.471076 228.142557 
L 412.851721 224.207961 
L 413.232366 226.55491 
L 413.613011 225.115704 
L 413.993656 233.245874 
L 414.374301 221.144355 
L 414.754946 237.87055 
L 415.135591 248.762183 
L 415.516235 240.753976 
L 415.89688 251.370679 
L 416.277525 247.018546 
L 416.65817 232.500563 
L 417.038815 226.453417 
L 417.41946 234.743559 
L 417.800105 232.960781 
L 418.180749 239.903995 
L 418.561394 238.745252 
L 418.942039 234.455743 
L 419.322684 249.594673 
L 419.703329 248.934338 
L 420.083974 252.10354 
L 420.464619 258.032972 
L 420.845264 240.965932 
L 421.225908 230.279076 
L 421.606553 240.608009 
L 421.987198 239.526208 
L 422.367843 207.548693 
L 422.748488 203.158384 
L 423.129133 201.389435 
L 423.509778 209.610456 
L 423.890422 210.656205 
L 424.271067 221.956052 
L 424.651712 224.544482 
L 425.413002 253.617119 
L 425.793647 254.450381 
L 426.174292 259.190678 
L 426.935581 282.134025 
L 427.316226 261.001789 
L 427.696871 285.396834 
L 428.077516 278.291193 
L 428.458161 284.053614 
L 428.838806 301.753149 
L 429.219451 300.606543 
L 429.600096 319.961925 
L 429.98074 332.071856 
L 430.74203 346.598891 
L 431.122675 346.134489 
L 431.50332 364.177599 
L 431.883965 364.193258 
L 432.26461 361.515516 
L 432.645254 377.582707 
L 433.025899 410.403906 
L 433.787189 453.49064 
L 434.167834 455.588206 
L 434.548479 451.12314 
L 434.929124 452.484023 
L 435.309769 438.461404 
L 435.690413 413.5568 
L 436.071058 406.330935 
L 436.451703 414.501673 
L 436.832348 417.536375 
L 437.212993 406.68761 
L 437.593638 412.400981 
L 437.974283 414.229917 
L 438.354927 417.030987 
L 439.116217 448.504627 
L 439.496862 453.442399 
L 439.877507 441.775341 
L 440.258152 447.37085 
L 440.638797 448.684768 
L 441.019442 462.00235 
L 441.400086 464.260404 
L 441.780731 454.182867 
L 442.161376 452.813981 
L 442.542021 422.504643 
L 443.303311 390.388889 
L 443.683956 376.719126 
L 444.0646 374.808377 
L 444.445245 380.114765 
L 444.82589 389.691258 
L 445.206535 404.985617 
L 445.58718 434.5927 
L 445.967825 421.472462 
L 446.34847 431.541504 
L 446.729115 433.600346 
L 447.109759 430.745927 
L 447.871049 365.573798 
L 448.251694 372.256917 
L 448.632339 392.681599 
L 449.012984 404.485566 
L 449.774274 373.763774 
L 450.154918 365.960587 
L 450.535563 364.564773 
L 450.916208 355.545062 
L 451.296853 341.453558 
L 451.677498 350.661827 
L 452.058143 367.258207 
L 452.438788 395.472483 
L 452.819432 392.606684 
L 453.200077 418.832656 
L 453.580722 407.72382 
L 453.961367 403.808445 
L 454.722657 416.690442 
L 455.103302 414.238121 
L 455.483947 422.236407 
L 456.245236 367.5805 
L 456.625881 371.94857 
L 457.387171 340.52221 
L 457.767816 354.376794 
L 458.148461 372.664278 
L 458.529105 376.90132 
L 459.290395 413.830825 
L 459.67104 426.056015 
L 460.051685 417.717991 
L 460.43233 393.656613 
L 460.812975 388.133882 
L 461.19362 371.644524 
L 461.574264 346.873894 
L 461.954909 343.719955 
L 462.335554 360.135717 
L 462.716199 352.693797 
L 463.096844 380.891188 
L 463.477489 371.163494 
L 463.858134 341.578904 
L 464.238778 330.340904 
L 465.000068 360.357255 
L 465.380713 370.535435 
L 465.761358 371.386298 
L 466.522648 383.715803 
L 466.903293 383.031053 
L 467.283937 393.056573 
L 467.664582 389.411277 
L 468.425872 405.011831 
L 468.806517 405.773309 
L 469.187162 411.291839 
L 469.567807 422.280926 
L 469.948451 418.035833 
L 470.329096 417.826442 
L 470.709741 415.906069 
L 471.090386 429.979081 
L 471.471031 416.298203 
L 471.851676 413.783523 
L 472.232321 417.799354 
L 472.612966 438.064924 
L 472.99361 450.726999 
L 473.374255 452.186781 
L 473.7549 461.338891 
L 474.135545 459.106807 
L 474.51619 454.332626 
L 474.896835 443.623501 
L 475.27748 446.816279 
L 476.038769 487.536002 
L 476.419414 476.932543 
L 476.800059 474.839715 
L 477.180704 484.532106 
L 477.561349 501.967812 
L 478.322639 511.665137 
L 478.703283 534.835477 
L 479.083928 519.737404 
L 479.464573 499.899768 
L 479.845218 488.794617 
L 480.225863 492.449113 
L 480.606508 498.575367 
L 481.367798 493.217372 
L 481.748442 493.698862 
L 482.129087 515.425743 
L 482.509732 528.7876 
L 482.890377 536.039324 
L 483.271022 537.04494 
L 483.651667 539.156258 
L 484.032312 547.846227 
L 484.412956 547.005059 
L 484.793601 537.055859 
L 485.174246 519.98879 
L 485.554891 530.730021 
L 485.935536 529.176577 
L 486.696826 519.169533 
L 487.077471 524.945597 
L 487.83876 504.188394 
L 488.219405 509.698118 
L 488.60005 507.343063 
L 489.36134 487.998315 
L 489.741985 496.515695 
L 490.122629 492.182727 
L 490.503274 498.485641 
L 490.883919 494.359602 
L 491.264564 494.681982 
L 491.645209 510.892963 
L 492.025854 495.761709 
L 493.167788 527.745765 
L 493.548433 517.814541 
L 493.929078 518.782145 
L 494.309723 521.711835 
L 494.690368 515.222084 
L 495.832303 556.655308 
L 496.212947 564.476726 
L 496.593592 556.097147 
L 496.974237 564.658111 
L 497.354882 577.37808 
L 498.116172 551.470465 
L 498.496817 560.68113 
L 498.877461 563.83029 
L 499.258106 555.303299 
L 500.019396 580.071327 
L 500.400041 568.800507 
L 501.161331 586.308885 
L 501.541976 555.200226 
L 501.92262 539.775733 
L 502.303265 531.668426 
L 502.68391 526.399103 
L 503.4452 548.448767 
L 503.825845 542.370795 
L 504.967779 581.574276 
L 505.348424 586.921647 
L 505.729069 580.264784 
L 506.490359 523.120332 
L 506.871004 523.680918 
L 507.251649 522.610169 
L 507.632293 510.080774 
L 508.012938 504.362219 
L 508.393583 487.968473 
L 508.774228 495.817169 
L 509.154873 516.24393 
L 509.535518 522.337752 
L 509.916163 520.066277 
L 510.296807 520.316634 
L 511.058097 493.306733 
L 511.438742 475.082098 
L 511.819387 489.030192 
L 512.200032 485.209705 
L 512.580677 485.367474 
L 513.341966 493.498063 
L 513.722611 504.26641 
L 514.103256 509.809002 
L 515.245191 539.165798 
L 515.625836 546.151901 
L 516.006481 561.105966 
L 516.387125 570.547961 
L 516.76777 560.096187 
L 517.148415 539.694601 
L 517.52906 533.59669 
L 517.909705 536.682957 
L 518.29035 534.723677 
L 518.670995 552.173659 
L 519.051639 548.29422 
L 519.432284 550.398676 
L 519.812929 551.814441 
L 520.193574 544.572001 
L 520.574219 552.639842 
L 520.954864 554.973891 
L 521.335509 575.023512 
L 521.716154 582.163251 
L 522.096798 569.723506 
L 522.477443 570.559966 
L 522.858088 582.809602 
L 523.238733 583.920695 
L 523.619378 575.072247 
L 524.000023 562.793097 
L 524.380668 560.628308 
L 524.761312 562.224905 
L 525.141957 558.316235 
L 525.522602 555.929019 
L 525.903247 557.093838 
L 526.283892 566.331517 
L 526.664537 564.094262 
L 527.045182 557.393198 
L 527.425827 558.810035 
L 528.187116 497.681935 
L 528.567761 496.555038 
L 528.948406 501.74398 
L 529.329051 528.012585 
L 529.709696 541.954169 
L 530.090341 537.060585 
L 530.470985 525.793124 
L 531.232275 565.548291 
L 531.61292 549.364879 
L 532.37421 574.166404 
L 532.754855 564.660175 
L 533.1355 548.709489 
L 533.896789 541.033484 
L 534.658079 556.375408 
L 535.038724 558.179336 
L 535.419369 541.815532 
L 535.800014 533.139251 
L 536.180659 533.097277 
L 536.561303 541.063386 
L 536.941948 572.722119 
L 537.322593 589.82105 
L 537.703238 571.132655 
L 538.083883 566.690293 
L 538.464528 564.174965 
L 538.845173 560.054149 
L 540.367752 577.039938 
L 540.748397 576.464358 
L 541.129042 585.563686 
L 541.509687 597.731146 
L 542.270976 563.800025 
L 542.651621 573.481244 
L 543.032266 564.979968 
L 543.412911 584.735279 
L 543.793556 589.585377 
L 544.174201 570.907897 
L 544.554846 562.00291 
L 544.93549 576.25734 
L 545.69678 583.412215 
L 546.45807 575.546626 
L 546.838715 577.685738 
L 547.21936 564.137178 
L 547.600005 560.15513 
L 547.980649 571.064813 
L 548.361294 565.585518 
L 548.741939 564.890831 
L 549.122584 581.027371 
L 549.503229 590.550121 
L 549.883874 590.730061 
L 550.264519 602.359477 
L 550.645163 600.753722 
L 551.025808 608.287827 
L 551.406453 612.871537 
L 552.167743 595.37333 
L 552.548388 594.125067 
L 552.929033 601.224804 
L 553.309678 599.53093 
L 554.070967 606.76982 
L 554.451612 597.229664 
L 554.832257 576.23571 
L 555.212902 580.769624 
L 555.593547 588.19244 
L 556.354837 594.948005 
L 556.735481 598.092261 
L 557.116126 586.453283 
L 557.496771 593.966627 
L 557.877416 587.952362 
L 558.258061 568.687701 
L 558.638706 564.577037 
L 559.019351 563.321323 
L 559.399995 573.792594 
L 559.78064 573.986424 
L 560.161285 577.240298 
L 560.54193 567.051727 
L 560.922575 569.46103 
L 561.30322 566.596947 
L 561.683865 562.278259 
L 562.06451 571.931111 
L 562.445154 565.441973 
L 562.825799 564.204476 
L 563.206444 571.68145 
L 563.587089 568.913597 
L 563.967734 588.274103 
L 564.348379 598.652364 
L 564.729024 594.765563 
L 565.109668 598.916486 
L 565.490313 591.35504 
L 565.870958 605.33995 
L 566.251603 603.865831 
L 566.632248 585.283766 
L 567.012893 585.106162 
L 567.393538 577.510357 
L 567.774183 560.406417 
L 568.154827 567.333704 
L 568.535472 567.649999 
L 568.916117 549.891054 
L 569.296762 550.051806 
L 569.677407 551.431785 
L 570.438697 573.201718 
L 570.819341 576.75641 
L 571.199986 572.113583 
L 571.580631 574.787563 
L 571.961276 562.396268 
L 572.341921 555.986365 
L 572.722566 556.171427 
L 573.103211 561.500799 
L 573.483856 589.57401 
L 573.8645 588.30372 
L 574.245145 578.350197 
L 575.38708 610.800971 
L 575.767725 618.705186 
L 576.14837 623.30455 
L 576.529015 656.623228 
L 576.909659 657.323482 
L 577.290304 628.344717 
L 577.670949 624.143018 
L 578.051594 626.182434 
L 578.432239 625.90098 
L 578.812884 626.275256 
L 579.574173 660.851606 
L 579.954818 659.461188 
L 580.335463 653.315147 
L 580.716108 658.794293 
L 581.858043 596.484349 
L 582.238688 593.338049 
L 582.619332 591.476649 
L 583.380622 596.637351 
L 583.761267 597.1625 
L 584.141912 579.368054 
L 584.522557 601.497885 
L 584.903202 601.860677 
L 585.283846 606.233056 
L 585.664491 604.570132 
L 586.045136 593.93718 
L 586.425781 606.001944 
L 586.806426 606.113948 
L 587.187071 593.353282 
L 587.567716 607.616987 
L 587.948361 604.833088 
L 588.70965 643.672754 
L 589.090295 671.301351 
L 589.47094 662.957693 
L 590.23223 617.45594 
L 591.374164 530.045152 
L 591.754809 492.88386 
L 592.135454 488.794352 
L 592.896744 511.139196 
L 593.277389 532.55191 
L 593.658034 563.274185 
L 594.038678 554.312387 
L 594.419323 556.687598 
L 594.799968 531.36768 
L 595.180613 539.312269 
L 595.561258 537.767727 
L 595.941903 547.094628 
L 596.322548 566.781778 
L 596.703193 559.549543 
L 597.083837 582.926372 
L 597.464482 582.603639 
L 597.845127 589.850825 
L 598.225772 590.20625 
L 598.606417 593.744635 
L 598.987062 587.680751 
L 599.367707 586.703331 
L 600.128996 634.512383 
L 600.509641 634.100415 
L 600.890286 623.856644 
L 601.270931 621.455672 
L 601.651576 624.452471 
L 602.412866 612.63164 
L 602.79351 598.571721 
L 603.174155 596.364985 
L 603.5548 620.758431 
L 603.935445 633.063145 
L 604.31609 652.34036 
L 604.696735 655.124597 
L 605.07738 664.913805 
L 605.458024 664.937735 
L 605.838669 679.774817 
L 606.219314 681.77382 
L 606.599959 738.72 
L 606.980604 673.718836 
L 607.361249 672.333162 
L 608.122539 650.641316 
L 608.503183 645.798319 
L 608.883828 675.188492 
L 609.264473 674.683576 
L 609.645118 665.835555 
L 610.025763 641.063141 
L 610.406408 645.204538 
L 610.787053 623.342925 
L 611.548342 615.463002 
L 611.928987 612.682703 
L 612.309632 613.588905 
L 612.690277 610.523974 
L 613.070922 642.656518 
L 613.451567 639.12113 
L 613.832212 633.12083 
L 614.212856 645.075139 
L 614.593501 631.400363 
L 614.974146 654.750323 
L 615.354791 635.242684 
L 615.735436 637.056706 
L 616.116081 633.20426 
L 616.496726 635.476342 
L 616.877371 652.193391 
L 617.258015 655.567245 
L 617.63866 647.840977 
L 618.39995 626.629054 
L 618.780595 625.010429 
L 619.16124 621.17497 
L 619.922529 589.121723 
L 620.303174 594.015387 
L 620.683819 582.032794 
L 621.064464 577.324141 
L 621.445109 576.512818 
L 621.825754 575.081381 
L 622.206399 583.473341 
L 622.587044 569.666394 
L 622.967688 571.254916 
L 623.348333 564.479612 
L 623.728978 545.424527 
L 624.109623 532.130435 
L 624.490268 526.61631 
L 624.870913 527.856382 
L 625.251558 539.437052 
L 625.632202 559.327476 
L 626.012847 542.13268 
L 626.393492 539.550033 
L 626.774137 538.367161 
L 627.154782 525.935581 
L 627.535427 525.94642 
L 627.916072 529.001308 
L 628.296717 534.571038 
L 628.677361 531.704888 
L 629.438651 574.784551 
L 630.580586 602.318625 
L 630.961231 583.275864 
L 631.341875 588.805227 
L 631.72252 576.619495 
L 632.103165 579.408242 
L 632.48381 587.088088 
L 632.864455 584.515267 
L 633.2451 586.821205 
L 633.625745 600.321556 
L 634.00639 596.41783 
L 634.387034 583.004808 
L 634.767679 581.127346 
L 635.148324 580.405873 
L 635.528969 564.67309 
L 635.909614 573.300644 
L 636.290259 576.138234 
L 636.670904 572.195171 
L 637.051549 581.449669 
L 637.432193 584.594671 
L 637.812838 585.397529 
L 638.574128 559.005774 
L 638.954773 545.751067 
L 639.335418 561.458977 
L 639.716063 564.938698 
L 640.096707 554.201463 
L 640.477352 569.170238 
L 640.857997 595.675069 
L 641.238642 606.005918 
L 641.619287 609.647472 
L 641.999932 605.68328 
L 642.761222 583.307831 
L 643.141866 594.151742 
L 643.522511 590.908001 
L 644.283801 574.431942 
L 645.045091 541.931692 
L 645.425736 541.591697 
L 645.80638 563.539731 
L 646.187025 572.857215 
L 646.56767 587.453679 
L 646.948315 597.590493 
L 647.32896 587.837536 
L 647.709605 601.844268 
L 648.470895 586.438805 
L 648.851539 588.723038 
L 649.612829 559.692713 
L 649.993474 566.718744 
L 650.754764 590.712147 
L 651.135409 595.925615 
L 651.516053 617.455465 
L 651.896698 627.857874 
L 652.277343 623.578054 
L 652.657988 630.627954 
L 653.419278 605.150255 
L 654.180568 594.124341 
L 654.561212 599.923045 
L 654.941857 598.100004 
L 655.322502 604.858376 
L 655.703147 605.126046 
L 656.083792 638.899746 
L 656.464437 641.456087 
L 656.845082 642.176597 
L 657.225726 642.010284 
L 657.606371 630.254401 
L 657.987016 626.582777 
L 658.367661 649.103229 
L 658.748306 658.076472 
L 659.509596 663.797273 
L 659.890241 656.654943 
L 660.270885 644.448724 
L 660.65153 646.506267 
L 661.032175 633.905298 
L 661.41282 637.396492 
L 661.793465 623.665818 
L 662.17411 619.740452 
L 662.554755 610.443765 
L 662.9354 589.473305 
L 663.316044 586.97732 
L 664.077334 610.327383 
L 664.457979 594.254411 
L 664.838624 569.352861 
L 665.219269 561.419832 
L 665.599914 574.574291 
L 665.980558 578.660019 
L 666.361203 601.241342 
L 666.741848 595.255366 
L 667.122493 595.454665 
L 667.883783 574.995165 
L 668.264428 534.048677 
L 669.025717 509.821943 
L 669.406362 507.677261 
L 669.787007 499.198401 
L 670.167652 482.246726 
L 670.548297 478.363308 
L 671.309587 506.234428 
L 671.690231 492.59006 
L 672.070876 471.116808 
L 672.451521 476.529946 
L 672.832166 487.821375 
L 673.212811 519.026223 
L 673.593456 505.111846 
L 673.974101 495.730455 
L 674.73539 503.820487 
L 675.116035 486.575295 
L 675.49668 484.652445 
L 675.877325 495.794127 
L 676.25797 498.539495 
L 676.638615 498.207307 
L 677.01926 506.549579 
L 677.399904 499.482664 
L 677.780549 483.341656 
L 678.161194 493.249395 
L 678.541839 487.388007 
L 678.922484 467.451988 
L 679.303129 469.688583 
L 679.683774 460.555211 
L 680.064419 465.270252 
L 680.445063 467.664988 
L 680.825708 466.832817 
L 681.206353 458.960437 
L 681.586998 456.746059 
L 681.967643 443.638798 
L 682.348288 439.716738 
L 682.728933 437.14741 
L 683.109578 431.903213 
L 683.490222 424.262509 
L 683.870867 431.02608 
L 684.251512 441.917188 
L 684.632157 443.449487 
L 685.012802 443.583577 
L 685.393447 441.449592 
L 685.774092 457.215026 
L 686.154736 465.807137 
L 686.535381 465.563074 
L 687.296671 446.244983 
L 688.057961 429.181971 
L 688.819251 453.339514 
L 689.199895 437.780891 
L 689.58054 435.996816 
L 689.961185 443.50895 
L 690.34183 462.124983 
L 690.722475 460.267035 
L 691.10312 468.919371 
L 691.483765 465.203628 
L 691.864409 472.505113 
L 692.245054 465.525841 
L 693.006344 506.821396 
L 693.386989 517.52364 
L 693.767634 516.557678 
L 694.148279 489.794633 
L 694.528924 475.801493 
L 694.909568 472.981089 
L 695.290213 480.197247 
L 695.670858 477.874107 
L 696.051503 468.795418 
L 696.432148 473.691679 
L 696.812793 476.210506 
L 697.193438 470.637284 
L 697.574082 472.532161 
L 697.954727 467.598475 
L 698.335372 481.939915 
L 698.716017 487.197738 
L 699.096662 490.211791 
L 699.477307 486.001532 
L 699.857952 480.290315 
L 700.238597 477.563559 
L 700.619241 478.831755 
L 700.999886 473.592695 
L 701.380531 462.385917 
L 701.761176 459.157365 
L 702.141821 451.753301 
L 702.522466 451.72398 
L 702.903111 453.941524 
L 703.283756 455.235881 
L 703.6644 459.177846 
L 704.045045 459.312038 
L 704.42569 440.858085 
L 704.806335 441.216147 
L 705.18698 448.156834 
L 705.567625 450.152863 
L 706.328914 430.404059 
L 706.709559 438.094313 
L 707.090204 441.814114 
L 707.470849 457.218565 
L 707.851494 467.449647 
L 708.232139 442.388571 
L 708.612784 446.363047 
L 708.993429 448.32939 
L 709.374073 431.074947 
L 710.135363 444.959169 
L 710.516008 432.722322 
L 710.896653 406.088903 
L 711.277298 410.966604 
L 712.038587 443.197458 
L 712.799877 455.266764 
L 713.180522 453.578601 
L 713.941812 431.988737 
L 714.322457 436.436991 
L 714.703102 432.167574 
L 715.083746 431.573023 
L 715.464391 444.693345 
L 715.845036 448.621268 
L 716.606326 485.574016 
L 716.986971 506.237874 
L 717.367616 503.082372 
L 717.74826 507.813864 
L 718.128905 507.991213 
L 718.50955 515.617623 
L 718.890195 514.723337 
L 719.27084 522.325182 
L 719.651485 533.435923 
L 720.03213 533.744994 
L 720.412775 537.786053 
L 720.793419 545.709238 
L 721.174064 544.943042 
L 721.554709 547.160485 
L 721.935354 541.961998 
L 722.315999 510.569504 
L 722.696644 517.480184 
L 723.077289 528.772619 
L 723.457934 530.524587 
L 723.838578 531.349329 
L 724.219223 534.103104 
L 724.599868 534.487324 
L 725.361158 548.815465 
L 725.741803 545.069245 
L 726.122448 532.292015 
L 726.503092 536.4051 
L 726.883737 530.453624 
L 727.264382 550.029835 
L 727.645027 545.491012 
L 728.025672 523.587007 
L 728.406317 516.430038 
L 728.786962 517.027899 
L 729.167607 508.115767 
L 729.548251 512.025842 
L 729.928896 524.984035 
L 730.690186 560.727772 
L 731.070831 554.117326 
L 731.451476 544.586215 
L 731.832121 553.92344 
L 732.212765 546.928439 
L 732.59341 535.274112 
L 732.974055 542.015217 
L 733.3547 534.517567 
L 733.735345 537.497071 
L 734.11599 523.211587 
L 734.496635 529.396593 
L 735.257924 525.153524 
L 735.638569 528.30232 
L 736.019214 545.914065 
L 736.399859 540.786398 
L 736.780504 528.90225 
L 737.161149 524.703153 
L 737.541794 529.482374 
L 737.922438 542.309128 
L 738.303083 533.617683 
L 738.683728 533.203503 
L 739.064373 540.46694 
L 739.445018 537.668785 
L 739.825663 531.057286 
L 740.206308 512.470356 
L 740.586953 514.027531 
L 740.967597 504.184562 
L 741.348242 526.850391 
L 741.728887 531.083455 
L 742.109532 514.350756 
L 742.490177 517.875768 
L 742.870822 508.468652 
L 743.251467 509.748817 
L 743.632112 490.652128 
L 744.012756 490.503241 
L 744.393401 482.315735 
L 744.774046 479.02926 
L 745.154691 493.935674 
L 745.535336 494.163556 
L 745.915981 500.732522 
L 746.296626 494.914047 
L 746.67727 507.697353 
L 747.057915 504.947858 
L 747.43856 475.006067 
L 748.19985 455.562176 
L 748.96114 468.356569 
L 749.722429 425.208321 
L 750.103074 426.439778 
L 750.864364 454.37297 
L 751.245009 453.195658 
L 751.625654 467.275495 
L 752.006299 487.852257 
L 752.386943 495.120202 
L 752.767588 474.575875 
L 753.148233 482.569673 
L 753.528878 484.570897 
L 753.909523 457.147898 
L 754.290168 472.073747 
L 755.051458 490.571611 
L 755.432102 480.3595 
L 755.812747 477.625621 
L 756.193392 480.496394 
L 756.574037 477.947828 
L 756.954682 481.812976 
L 757.715972 466.152596 
L 758.096616 469.447466 
L 758.477261 446.830087 
L 758.857906 448.300643 
L 759.238551 430.281472 
L 760.380486 471.487903 
L 760.761131 497.843555 
L 761.52242 530.0304 
L 761.903065 545.329269 
L 762.28371 574.188301 
L 762.664355 582.390115 
L 763.045 573.65238 
L 763.425645 552.11243 
L 763.80629 546.994824 
L 764.186934 559.405821 
L 764.567579 551.589207 
L 764.948224 526.173228 
L 765.709514 508.071584 
L 766.090159 514.342849 
L 766.470804 511.360753 
L 767.232093 487.94077 
L 767.612738 506.370118 
L 767.993383 503.739882 
L 768.374028 495.877581 
L 768.754673 514.542066 
L 769.135318 542.753166 
L 769.515963 547.045295 
L 770.277252 533.229808 
L 770.657897 531.416194 
L 771.419187 512.714643 
L 771.799832 507.630983 
L 772.180477 509.629135 
L 772.941766 538.20477 
L 773.322411 537.943336 
L 773.703056 532.798069 
L 774.083701 548.991878 
L 774.844991 525.673838 
L 775.225636 531.688496 
L 775.60628 541.366547 
L 775.986925 537.600858 
L 776.36757 539.480267 
L 776.748215 522.501407 
L 777.509505 555.092148 
L 777.89015 561.072656 
L 778.270794 544.167098 
L 778.651439 545.523947 
L 779.032084 539.632188 
L 779.412729 541.674033 
L 779.793374 513.206025 
L 780.174019 530.391028 
L 780.935309 549.025763 
L 781.315953 542.794258 
L 781.696598 533.968378 
L 782.077243 515.779539 
L 782.457888 528.582606 
L 782.838533 556.471591 
L 783.219178 552.427907 
L 783.980468 498.856928 
L 784.361112 493.638391 
L 784.741757 497.460148 
L 785.122402 491.370828 
L 785.503047 489.344057 
L 785.883692 521.466046 
L 786.644982 549.91699 
L 787.025626 551.162693 
L 787.406271 552.93145 
L 787.786916 558.043311 
L 788.167561 542.206278 
L 788.548206 539.546885 
L 788.928851 548.719234 
L 789.309496 550.704645 
L 789.690141 567.844758 
L 790.070785 559.813316 
L 790.45143 542.309759 
L 791.21272 555.266945 
L 791.593365 569.091545 
L 791.97401 556.934455 
L 792.354655 573.371388 
L 792.735299 575.282282 
L 793.115944 561.876812 
L 793.496589 564.62375 
L 793.877234 576.503413 
L 794.638524 521.62712 
L 795.019169 532.204565 
L 795.399814 533.85437 
L 795.780458 532.093737 
L 796.161103 520.332351 
L 796.541748 534.764277 
L 796.922393 513.261586 
L 797.303038 513.15373 
L 797.683683 517.159292 
L 798.064328 526.946742 
L 798.825617 532.066056 
L 799.206262 540.209225 
L 799.967552 546.595227 
L 800.348197 552.003387 
L 800.728842 571.979118 
L 801.109487 574.95149 
L 801.490131 566.115414 
L 801.870776 569.909384 
L 802.251421 575.317911 
L 802.632066 551.747916 
L 803.012711 520.585149 
L 803.393356 505.929596 
L 803.774001 501.291167 
L 804.154646 513.535665 
L 804.53529 515.396775 
L 804.915935 494.534441 
L 805.29658 499.536783 
L 805.677225 500.474251 
L 806.438515 536.553752 
L 807.199804 516.01658 
L 807.580449 511.737268 
L 807.961094 536.483072 
L 808.341739 544.339644 
L 808.722384 558.558203 
L 809.103029 586.007124 
L 810.244963 534.444866 
L 810.625608 533.588634 
L 811.006253 529.933786 
L 811.386898 524.188769 
L 811.767543 537.372477 
L 812.148188 544.143258 
L 812.528833 547.445043 
L 812.909477 562.298069 
L 813.290122 568.494724 
L 813.670767 556.914442 
L 814.051412 562.252883 
L 814.432057 542.832014 
L 814.812702 547.489118 
L 815.193347 544.693155 
L 815.573992 529.516266 
L 816.335281 556.376643 
L 816.715926 547.248891 
L 817.096571 526.401478 
L 817.477216 539.588155 
L 817.857861 563.129199 
L 818.238506 564.971097 
L 818.999795 544.400197 
L 819.38044 516.779268 
L 820.14173 491.464836 
L 820.522375 486.789391 
L 820.90302 485.12331 
L 821.283665 466.003588 
L 821.664309 460.183327 
L 822.425599 478.916014 
L 823.186889 441.713303 
L 823.567534 413.970341 
L 823.948179 411.62798 
L 824.328824 400.599643 
L 825.090113 410.677898 
L 825.470758 416.281094 
L 825.851403 435.058542 
L 826.232048 441.525422 
L 826.612693 442.882604 
L 826.993338 440.148333 
L 827.373982 432.089708 
L 827.754627 427.584729 
L 828.135272 439.278446 
L 828.896562 422.555544 
L 829.277207 393.910339 
L 830.038497 412.356746 
L 830.419141 434.686705 
L 830.799786 422.78598 
L 831.180431 434.858112 
L 831.561076 441.360725 
L 831.941721 434.453171 
L 832.703011 414.971266 
L 833.083655 436.391017 
L 833.4643 437.989066 
L 833.844945 446.326306 
L 834.22559 439.886099 
L 834.606235 402.291486 
L 834.98688 406.800177 
L 835.367525 390.268499 
L 835.74817 394.761435 
L 836.509459 422.492537 
L 836.890104 418.619372 
L 837.270749 413.607218 
L 837.651394 412.843185 
L 838.032039 427.349282 
L 838.793328 429.035217 
L 839.173973 435.384848 
L 839.554618 429.518634 
L 839.935263 420.393992 
L 840.315908 414.113201 
L 840.696553 427.631081 
L 841.077198 428.870762 
L 841.457843 437.46376 
L 842.219132 477.875095 
L 842.980422 461.072119 
L 844.122357 434.199124 
L 844.503002 440.077275 
L 844.883646 450.670747 
L 845.264291 469.730394 
L 845.644936 449.284807 
L 846.025581 435.089687 
L 846.406226 426.86592 
L 846.786871 448.555252 
L 847.167516 432.60756 
L 847.54816 423.009123 
L 847.928805 416.438562 
L 848.30945 405.678701 
L 848.690095 410.044375 
L 849.07074 418.48518 
L 849.451385 432.477447 
L 849.83203 423.363797 
L 850.212675 424.557503 
L 850.973964 448.172603 
L 851.354609 432.947397 
L 852.115899 382.570117 
L 852.496544 374.667871 
L 852.877189 400.631293 
L 853.257833 410.25614 
L 853.638478 409.943693 
L 854.399768 422.701337 
L 854.780413 419.322134 
L 855.161058 414.104382 
L 855.541703 429.992014 
L 855.922348 423.787652 
L 856.302992 421.447331 
L 856.683637 420.705155 
L 857.064282 415.355412 
L 857.444927 419.170626 
L 857.825572 389.652542 
L 858.967506 349.494682 
L 859.348151 372.185836 
L 859.728796 386.548341 
L 860.109441 385.551295 
L 860.490086 378.080056 
L 860.870731 363.915824 
L 861.251376 369.428409 
L 861.632021 371.170093 
L 862.012665 375.201933 
L 862.39331 376.444909 
L 862.773955 364.222236 
L 863.1546 347.402257 
L 863.535245 350.057517 
L 863.91589 347.41821 
L 864.296535 347.881102 
L 864.677179 344.715094 
L 865.057824 345.968691 
L 865.438469 332.327136 
L 865.819114 337.240182 
L 866.961049 302.606293 
L 867.341694 306.084419 
L 867.722338 293.440956 
L 868.102983 293.905205 
L 868.483628 300.636755 
L 868.864273 295.236854 
L 869.244918 301.731464 
L 869.625563 302.304804 
L 870.006208 312.527639 
L 870.386853 307.634904 
L 870.767497 306.684945 
L 871.528787 317.155598 
L 871.909432 344.034656 
L 872.670722 336.204401 
L 873.051367 335.493117 
L 873.432011 339.96765 
L 873.812656 336.659315 
L 874.193301 328.922723 
L 874.954591 301.67296 
L 875.335236 301.226356 
L 875.715881 306.316813 
L 876.096526 318.56839 
L 876.47717 307.390347 
L 876.857815 311.293861 
L 877.23846 313.59642 
L 877.619105 317.961205 
L 877.99975 309.55526 
L 878.380395 297.942206 
L 878.76104 298.781419 
L 879.141684 295.890113 
L 879.522329 284.250538 
L 879.902974 281.842874 
L 880.283619 294.155243 
L 880.664264 298.499058 
L 881.044909 298.695119 
L 881.806199 316.294813 
L 882.186843 305.182667 
L 882.567488 286.415838 
L 882.948133 275.315139 
L 883.328778 268.957093 
L 883.709423 259.264345 
L 884.090068 274.927888 
L 884.470713 278.010269 
L 884.851357 280.16332 
L 885.232002 263.02824 
L 885.612647 234.580503 
L 885.993292 232.13838 
L 886.373937 235.89766 
L 886.754582 247.901898 
L 887.135227 243.092038 
L 887.515872 245.483129 
L 887.896516 234.623783 
L 888.277161 238.021718 
L 888.657806 251.392881 
L 889.038451 269.591021 
L 889.419096 261.019659 
L 889.799741 245.667074 
L 890.180386 248.240769 
L 890.561031 253.130588 
L 891.32232 236.352301 
L 891.702965 244.482753 
L 892.08361 235.418968 
L 892.464255 240.506356 
L 892.8449 255.146727 
L 893.225545 255.144578 
L 893.606189 251.916357 
L 893.986834 251.057055 
L 894.367479 256.707235 
L 894.748124 254.759064 
L 895.128769 245.73143 
L 895.890059 237.190136 
L 896.651348 221.804513 
L 897.031993 232.533838 
L 897.412638 222.765652 
L 897.793283 256.195803 
L 898.173928 269.313249 
L 898.554573 258.164886 
L 898.935218 253.605229 
L 899.315862 245.206787 
L 899.696507 258.974346 
L 900.077152 251.956807 
L 900.457797 221.91512 
L 900.838442 221.784682 
L 901.219087 221.227535 
L 901.599732 224.974482 
L 902.361021 251.708786 
L 902.741666 254.803762 
L 903.122311 241.933501 
L 903.502956 223.143779 
L 903.883601 246.978029 
L 904.264246 261.558667 
L 904.644891 250.640423 
L 905.40618 212.786134 
L 905.786825 219.869922 
L 906.548115 197.350792 
L 906.92876 202.066264 
L 907.69005 177.560881 
L 908.070694 182.670009 
L 908.451339 185.539148 
L 908.831984 192.02621 
L 909.212629 195.821791 
L 909.593274 197.907812 
L 909.973919 204.090326 
L 910.354564 204.502301 
L 910.735209 213.970962 
L 911.115853 210.277883 
L 911.496498 209.055225 
L 911.877143 198.205744 
L 912.257788 203.040248 
L 912.638433 194.155001 
L 913.019078 199.974952 
L 913.780367 180.306006 
L 914.161012 193.206462 
L 914.541657 216.151575 
L 914.922302 216.482194 
L 915.302947 210.115016 
L 915.683592 209.647114 
L 916.064237 197.115055 
L 916.444882 191.495173 
L 916.825526 167.330686 
L 917.206171 155.302725 
L 917.586816 133.92 
L 917.967461 158.315635 
L 918.348106 160.577485 
L 918.728751 164.81339 
L 919.109396 174.464413 
L 919.49004 177.206768 
L 919.870685 181.105296 
L 920.25133 176.553786 
L 920.631975 165.263298 
L 921.01262 160.437012 
L 921.393265 170.246475 
L 921.77391 164.197946 
L 922.154555 165.406124 
L 922.535199 160.243147 
L 922.915844 165.999305 
L 923.296489 168.986369 
L 923.677134 157.551951 
L 924.057779 154.274443 
L 924.438424 160.730197 
L 924.819069 158.017751 
L 925.199713 159.743168 
L 925.580358 155.569512 
L 925.961003 158.257954 
L 926.722293 153.059688 
L 927.102938 168.848699 
L 927.483583 175.596666 
L 927.864228 173.821887 
L 928.244872 176.391265 
L 928.625517 185.843284 
L 929.006162 163.031086 
L 929.386807 167.877481 
L 929.767452 170.494765 
L 930.148097 174.189712 
L 930.528742 166.300117 
L 931.290031 158.66362 
L 931.670676 158.717638 
L 932.051321 163.171603 
L 932.431966 163.60915 
L 932.812611 160.423446 
L 933.193256 163.731815 
L 933.573901 168.876638 
L 933.954545 148.756192 
L 933.954545 148.756192 
" clip-path="url(#pbfe0950d3f)" style="fill: none; stroke: #4c72b0; stroke-width: 1.5; stroke-linecap: round"/>
   </g>
   <g id="patch_3">
    <path d="M 135 768.96 
L 135 103.68 
" style="fill: none; stroke: #ffffff; stroke-width: 1.25; stroke-linejoin: miter; stroke-linecap: square"/>
   </g>
   <g id="patch_4">
    <path d="M 972 768.96 
L 972 103.68 
" style="fill: none; stroke: #ffffff; stroke-width: 1.25; stroke-linejoin: miter; stroke-linecap: square"/>
   </g>
   <g id="patch_5">
    <path d="M 135 768.96 
L 972 768.96 
" style="fill: none; stroke: #ffffff; stroke-width: 1.25; stroke-linejoin: miter; stroke-linecap: square"/>
   </g>
   <g id="patch_6">
    <path d="M 135 103.68 
L 972 103.68 
" style="fill: none; stroke: #ffffff; stroke-width: 1.25; stroke-linejoin: miter; stroke-linecap: square"/>
   </g>
   <g id="text_18">
    <!-- Applied mask: :29-54@CA,C,O,N    Frames used: 0-2000    Reference frame: 1139    Simulation time: 2 ns -->
    <g style="fill: #262626" transform="translate(236.783437 64.416) scale(0.12 -0.12)">
     <defs>
      <path id="DejaVuSans-41" d="M 2188 4044 
L 1331 1722 
L 3047 1722 
L 2188 4044 
z
M 1831 4666 
L 2547 4666 
L 4325 0 
L 3669 0 
L 3244 1197 
L 1141 1197 
L 716 0 
L 50 0 
L 1831 4666 
z
" transform="scale(0.015625)"/>
      <path id="DejaVuSans-70" d="M 1159 525 
L 1159 -1331 
L 581 -1331 
L 581 3500 
L 1159 3500 
L 1159 2969 
Q 1341 3281 1617 3432 
Q 1894 3584 2278 3584 
Q 2916 3584 3314 3078 
Q 3713 2572 3713 1747 
Q 3713 922 3314 415 
Q 2916 -91 2278 -91 
Q 1894 -91 1617 61 
Q 1341 213 1159 525 
z
M 3116 1747 
Q 3116 2381 2855 2742 
Q 2594 3103 2138 3103 
Q 1681 3103 1420 2742 
Q 1159 2381 1159 1747 
Q 1159 1113 1420 752 
Q 1681 391 2138 391 
Q 2594 391 2855 752 
Q 3116 1113 3116 1747 
z
" transform="scale(0.015625)"/>
      <path id="DejaVuSans-6c" d="M 603 4863 
L 1178 4863 
L 1178 0 
L 603 0 
L 603 4863 
z
" transform="scale(0.015625)"/>
      <path id="DejaVuSans-69" d="M 603 3500 
L 1178 3500 
L 1178 0 
L 603 0 
L 603 3500 
z
M 603 4863 
L 1178 4863 
L 1178 4134 
L 603 4134 
L 603 4863 
z
" transform="scale(0.015625)"/>
      <path id="DejaVuSans-65" d="M 3597 1894 
L 3597 1613 
L 953 1613 
Q 991 1019 1311 708 
Q 1631 397 2203 397 
Q 2534 397 2845 478 
Q 3156 559 3463 722 
L 3463 178 
Q 3153 47 2828 -22 
Q 2503 -91 2169 -91 
Q 1331 -91 842 396 
Q 353 884 353 1716 
Q 353 2575 817 3079 
Q 1281 3584 2069 3584 
Q 2775 3584 3186 3129 
Q 3597 2675 3597 1894 
z
M 3022 2063 
Q 3016 2534 2758 2815 
Q 2500 3097 2075 3097 
Q 1594 3097 1305 2825 
Q 1016 2553 972 2059 
L 3022 2063 
z
" transform="scale(0.015625)"/>
      <path id="DejaVuSans-64" d="M 2906 2969 
L 2906 4863 
L 3481 4863 
L 3481 0 
L 2906 0 
L 2906 525 
Q 2725 213 2448 61 
Q 2172 -91 1784 -91 
Q 1150 -91 751 415 
Q 353 922 353 1747 
Q 353 2572 751 3078 
Q 1150 3584 1784 3584 
Q 2172 3584 2448 3432 
Q 2725 3281 2906 2969 
z
M 947 1747 
Q 947 1113 1208 752 
Q 1469 391 1925 391 
Q 2381 391 2643 752 
Q 2906 1113 2906 1747 
Q 2906 2381 2643 2742 
Q 2381 3103 1925 3103 
Q 1469 3103 1208 2742 
Q 947 2381 947 1747 
z
" transform="scale(0.015625)"/>
      <path id="DejaVuSans-20" transform="scale(0.015625)"/>
      <path id="DejaVuSans-6d" d="M 3328 2828 
Q 3544 3216 3844 3400 
Q 4144 3584 4550 3584 
Q 5097 3584 5394 3201 
Q 5691 2819 5691 2113 
L 5691 0 
L 5113 0 
L 5113 2094 
Q 5113 2597 4934 2840 
Q 4756 3084 4391 3084 
Q 3944 3084 3684 2787 
Q 3425 2491 3425 1978 
L 3425 0 
L 2847 0 
L 2847 2094 
Q 2847 2600 2669 2842 
Q 2491 3084 2119 3084 
Q 1678 3084 1418 2786 
Q 1159 2488 1159 1978 
L 1159 0 
L 581 0 
L 581 3500 
L 1159 3500 
L 1159 2956 
Q 1356 3278 1631 3431 
Q 1906 3584 2284 3584 
Q 2666 3584 2933 3390 
Q 3200 3197 3328 2828 
z
" transform="scale(0.015625)"/>
      <path id="DejaVuSans-61" d="M 2194 1759 
Q 1497 1759 1228 1600 
Q 959 1441 959 1056 
Q 959 750 1161 570 
Q 1363 391 1709 391 
Q 2188 391 2477 730 
Q 2766 1069 2766 1631 
L 2766 1759 
L 2194 1759 
z
M 3341 1997 
L 3341 0 
L 2766 0 
L 2766 531 
Q 2569 213 2275 61 
Q 1981 -91 1556 -91 
Q 1019 -91 701 211 
Q 384 513 384 1019 
Q 384 1609 779 1909 
Q 1175 2209 1959 2209 
L 2766 2209 
L 2766 2266 
Q 2766 2663 2505 2880 
Q 2244 3097 1772 3097 
Q 1472 3097 1187 3025 
Q 903 2953 641 2809 
L 641 3341 
Q 956 3463 1253 3523 
Q 1550 3584 1831 3584 
Q 2591 3584 2966 3190 
Q 3341 2797 3341 1997 
z
" transform="scale(0.015625)"/>
      <path id="DejaVuSans-73" d="M 2834 3397 
L 2834 2853 
Q 2591 2978 2328 3040 
Q 2066 3103 1784 3103 
Q 1356 3103 1142 2972 
Q 928 2841 928 2578 
Q 928 2378 1081 2264 
Q 1234 2150 1697 2047 
L 1894 2003 
Q 2506 1872 2764 1633 
Q 3022 1394 3022 966 
Q 3022 478 2636 193 
Q 2250 -91 1575 -91 
Q 1294 -91 989 -36 
Q 684 19 347 128 
L 347 722 
Q 666 556 975 473 
Q 1284 391 1588 391 
Q 1994 391 2212 530 
Q 2431 669 2431 922 
Q 2431 1156 2273 1281 
Q 2116 1406 1581 1522 
L 1381 1569 
Q 847 1681 609 1914 
Q 372 2147 372 2553 
Q 372 3047 722 3315 
Q 1072 3584 1716 3584 
Q 2034 3584 2315 3537 
Q 2597 3491 2834 3397 
z
" transform="scale(0.015625)"/>
      <path id="DejaVuSans-6b" d="M 581 4863 
L 1159 4863 
L 1159 1991 
L 2875 3500 
L 3609 3500 
L 1753 1863 
L 3688 0 
L 2938 0 
L 1159 1709 
L 1159 0 
L 581 0 
L 581 4863 
z
" transform="scale(0.015625)"/>
      <path id="DejaVuSans-3a" d="M 750 794 
L 1409 794 
L 1409 0 
L 750 0 
L 750 794 
z
M 750 3309 
L 1409 3309 
L 1409 2516 
L 750 2516 
L 750 3309 
z
" transform="scale(0.015625)"/>
      <path id="DejaVuSans-39" d="M 703 97 
L 703 672 
Q 941 559 1184 500 
Q 1428 441 1663 441 
Q 2288 441 2617 861 
Q 2947 1281 2994 2138 
Q 2813 1869 2534 1725 
Q 2256 1581 1919 1581 
Q 1219 1581 811 2004 
Q 403 2428 403 3163 
Q 403 3881 828 4315 
Q 1253 4750 1959 4750 
Q 2769 4750 3195 4129 
Q 3622 3509 3622 2328 
Q 3622 1225 3098 567 
Q 2575 -91 1691 -91 
Q 1453 -91 1209 -44 
Q 966 3 703 97 
z
M 1959 2075 
Q 2384 2075 2632 2365 
Q 2881 2656 2881 3163 
Q 2881 3666 2632 3958 
Q 2384 4250 1959 4250 
Q 1534 4250 1286 3958 
Q 1038 3666 1038 3163 
Q 1038 2656 1286 2365 
Q 1534 2075 1959 2075 
z
" transform="scale(0.015625)"/>
      <path id="DejaVuSans-2d" d="M 313 2009 
L 1997 2009 
L 1997 1497 
L 313 1497 
L 313 2009 
z
" transform="scale(0.015625)"/>
      <path id="DejaVuSans-40" d="M 2381 1678 
Q 2381 1231 2603 976 
Q 2825 722 3213 722 
Q 3597 722 3817 978 
Q 4038 1234 4038 1678 
Q 4038 2116 3813 2373 
Q 3588 2631 3206 2631 
Q 2828 2631 2604 2375 
Q 2381 2119 2381 1678 
z
M 4084 744 
Q 3897 503 3655 389 
Q 3413 275 3091 275 
Q 2553 275 2217 664 
Q 1881 1053 1881 1678 
Q 1881 2303 2218 2693 
Q 2556 3084 3091 3084 
Q 3413 3084 3656 2967 
Q 3900 2850 4084 2613 
L 4084 3022 
L 4531 3022 
L 4531 722 
Q 4988 791 5245 1139 
Q 5503 1488 5503 2041 
Q 5503 2375 5404 2669 
Q 5306 2963 5106 3213 
Q 4781 3622 4314 3839 
Q 3847 4056 3297 4056 
Q 2913 4056 2559 3954 
Q 2206 3853 1906 3653 
Q 1416 3334 1139 2817 
Q 863 2300 863 1697 
Q 863 1200 1042 765 
Q 1222 331 1563 0 
Q 1891 -325 2322 -495 
Q 2753 -666 3244 -666 
Q 3647 -666 4036 -530 
Q 4425 -394 4750 -141 
L 5031 -488 
Q 4641 -791 4180 -952 
Q 3719 -1113 3244 -1113 
Q 2666 -1113 2153 -908 
Q 1641 -703 1241 -313 
Q 841 78 631 592 
Q 422 1106 422 1697 
Q 422 2266 634 2781 
Q 847 3297 1241 3688 
Q 1644 4084 2172 4295 
Q 2700 4506 3291 4506 
Q 3953 4506 4520 4234 
Q 5088 3963 5472 3463 
Q 5706 3156 5829 2797 
Q 5953 2438 5953 2053 
Q 5953 1231 5456 756 
Q 4959 281 4084 263 
L 4084 744 
z
" transform="scale(0.015625)"/>
      <path id="DejaVuSans-43" d="M 4122 4306 
L 4122 3641 
Q 3803 3938 3442 4084 
Q 3081 4231 2675 4231 
Q 1875 4231 1450 3742 
Q 1025 3253 1025 2328 
Q 1025 1406 1450 917 
Q 1875 428 2675 428 
Q 3081 428 3442 575 
Q 3803 722 4122 1019 
L 4122 359 
Q 3791 134 3420 21 
Q 3050 -91 2638 -91 
Q 1578 -91 968 557 
Q 359 1206 359 2328 
Q 359 3453 968 4101 
Q 1578 4750 2638 4750 
Q 3056 4750 3426 4639 
Q 3797 4528 4122 4306 
z
" transform="scale(0.015625)"/>
      <path id="DejaVuSans-2c" d="M 750 794 
L 1409 794 
L 1409 256 
L 897 -744 
L 494 -744 
L 750 256 
L 750 794 
z
" transform="scale(0.015625)"/>
      <path id="DejaVuSans-4f" d="M 2522 4238 
Q 1834 4238 1429 3725 
Q 1025 3213 1025 2328 
Q 1025 1447 1429 934 
Q 1834 422 2522 422 
Q 3209 422 3611 934 
Q 4013 1447 4013 2328 
Q 4013 3213 3611 3725 
Q 3209 4238 2522 4238 
z
M 2522 4750 
Q 3503 4750 4090 4092 
Q 4678 3434 4678 2328 
Q 4678 1225 4090 567 
Q 3503 -91 2522 -91 
Q 1538 -91 948 565 
Q 359 1222 359 2328 
Q 359 3434 948 4092 
Q 1538 4750 2522 4750 
z
" transform="scale(0.015625)"/>
      <path id="DejaVuSans-4e" d="M 628 4666 
L 1478 4666 
L 3547 763 
L 3547 4666 
L 4159 4666 
L 4159 0 
L 3309 0 
L 1241 3903 
L 1241 0 
L 628 0 
L 628 4666 
z
" transform="scale(0.015625)"/>
      <path id="DejaVuSans-46" d="M 628 4666 
L 3309 4666 
L 3309 4134 
L 1259 4134 
L 1259 2759 
L 3109 2759 
L 3109 2228 
L 1259 2228 
L 1259 0 
L 628 0 
L 628 4666 
z
" transform="scale(0.015625)"/>
      <path id="DejaVuSans-72" d="M 2631 2963 
Q 2534 3019 2420 3045 
Q 2306 3072 2169 3072 
Q 1681 3072 1420 2755 
Q 1159 2438 1159 1844 
L 1159 0 
L 581 0 
L 581 3500 
L 1159 3500 
L 1159 2956 
Q 1341 3275 1631 3429 
Q 1922 3584 2338 3584 
Q 2397 3584 2469 3576 
Q 2541 3569 2628 3553 
L 2631 2963 
z
" transform="scale(0.015625)"/>
      <path id="DejaVuSans-75" d="M 544 1381 
L 544 3500 
L 1119 3500 
L 1119 1403 
Q 1119 906 1312 657 
Q 1506 409 1894 409 
Q 2359 409 2629 706 
Q 2900 1003 2900 1516 
L 2900 3500 
L 3475 3500 
L 3475 0 
L 2900 0 
L 2900 538 
Q 2691 219 2414 64 
Q 2138 -91 1772 -91 
Q 1169 -91 856 284 
Q 544 659 544 1381 
z
M 1991 3584 
L 1991 3584 
z
" transform="scale(0.015625)"/>
      <path id="DejaVuSans-52" d="M 2841 2188 
Q 3044 2119 3236 1894 
Q 3428 1669 3622 1275 
L 4263 0 
L 3584 0 
L 2988 1197 
Q 2756 1666 2539 1819 
Q 2322 1972 1947 1972 
L 1259 1972 
L 1259 0 
L 628 0 
L 628 4666 
L 2053 4666 
Q 2853 4666 3247 4331 
Q 3641 3997 3641 3322 
Q 3641 2881 3436 2590 
Q 3231 2300 2841 2188 
z
M 1259 4147 
L 1259 2491 
L 2053 2491 
Q 2509 2491 2742 2702 
Q 2975 2913 2975 3322 
Q 2975 3731 2742 3939 
Q 2509 4147 2053 4147 
L 1259 4147 
z
" transform="scale(0.015625)"/>
      <path id="DejaVuSans-66" d="M 2375 4863 
L 2375 4384 
L 1825 4384 
Q 1516 4384 1395 4259 
Q 1275 4134 1275 3809 
L 1275 3500 
L 2222 3500 
L 2222 3053 
L 1275 3053 
L 1275 0 
L 697 0 
L 697 3053 
L 147 3053 
L 147 3500 
L 697 3500 
L 697 3744 
Q 697 4328 969 4595 
Q 1241 4863 1831 4863 
L 2375 4863 
z
" transform="scale(0.015625)"/>
      <path id="DejaVuSans-6e" d="M 3513 2113 
L 3513 0 
L 2938 0 
L 2938 2094 
Q 2938 2591 2744 2837 
Q 2550 3084 2163 3084 
Q 1697 3084 1428 2787 
Q 1159 2491 1159 1978 
L 1159 0 
L 581 0 
L 581 3500 
L 1159 3500 
L 1159 2956 
Q 1366 3272 1645 3428 
Q 1925 3584 2291 3584 
Q 2894 3584 3203 3211 
Q 3513 2838 3513 2113 
z
" transform="scale(0.015625)"/>
      <path id="DejaVuSans-63" d="M 3122 3366 
L 3122 2828 
Q 2878 2963 2633 3030 
Q 2388 3097 2138 3097 
Q 1578 3097 1268 2742 
Q 959 2388 959 1747 
Q 959 1106 1268 751 
Q 1578 397 2138 397 
Q 2388 397 2633 464 
Q 2878 531 3122 666 
L 3122 134 
Q 2881 22 2623 -34 
Q 2366 -91 2075 -91 
Q 1284 -91 818 406 
Q 353 903 353 1747 
Q 353 2603 823 3093 
Q 1294 3584 2113 3584 
Q 2378 3584 2631 3529 
Q 2884 3475 3122 3366 
z
" transform="scale(0.015625)"/>
      <path id="DejaVuSans-33" d="M 2597 2516 
Q 3050 2419 3304 2112 
Q 3559 1806 3559 1356 
Q 3559 666 3084 287 
Q 2609 -91 1734 -91 
Q 1441 -91 1130 -33 
Q 819 25 488 141 
L 488 750 
Q 750 597 1062 519 
Q 1375 441 1716 441 
Q 2309 441 2620 675 
Q 2931 909 2931 1356 
Q 2931 1769 2642 2001 
Q 2353 2234 1838 2234 
L 1294 2234 
L 1294 2753 
L 1863 2753 
Q 2328 2753 2575 2939 
Q 2822 3125 2822 3475 
Q 2822 3834 2567 4026 
Q 2313 4219 1838 4219 
Q 1578 4219 1281 4162 
Q 984 4106 628 3988 
L 628 4550 
Q 988 4650 1302 4700 
Q 1616 4750 1894 4750 
Q 2613 4750 3031 4423 
Q 3450 4097 3450 3541 
Q 3450 3153 3228 2886 
Q 3006 2619 2597 2516 
z
" transform="scale(0.015625)"/>
      <path id="DejaVuSans-53" d="M 3425 4513 
L 3425 3897 
Q 3066 4069 2747 4153 
Q 2428 4238 2131 4238 
Q 1616 4238 1336 4038 
Q 1056 3838 1056 3469 
Q 1056 3159 1242 3001 
Q 1428 2844 1947 2747 
L 2328 2669 
Q 3034 2534 3370 2195 
Q 3706 1856 3706 1288 
Q 3706 609 3251 259 
Q 2797 -91 1919 -91 
Q 1588 -91 1214 -16 
Q 841 59 441 206 
L 441 856 
Q 825 641 1194 531 
Q 1563 422 1919 422 
Q 2459 422 2753 634 
Q 3047 847 3047 1241 
Q 3047 1584 2836 1778 
Q 2625 1972 2144 2069 
L 1759 2144 
Q 1053 2284 737 2584 
Q 422 2884 422 3419 
Q 422 4038 858 4394 
Q 1294 4750 2059 4750 
Q 2388 4750 2728 4690 
Q 3069 4631 3425 4513 
z
" transform="scale(0.015625)"/>
      <path id="DejaVuSans-74" d="M 1172 4494 
L 1172 3500 
L 2356 3500 
L 2356 3053 
L 1172 3053 
L 1172 1153 
Q 1172 725 1289 603 
Q 1406 481 1766 481 
L 2356 481 
L 2356 0 
L 1766 0 
Q 1100 0 847 248 
Q 594 497 594 1153 
L 594 3053 
L 172 3053 
L 172 3500 
L 594 3500 
L 594 4494 
L 1172 4494 
z
" transform="scale(0.015625)"/>
      <path id="DejaVuSans-6f" d="M 1959 3097 
Q 1497 3097 1228 2736 
Q 959 2375 959 1747 
Q 959 1119 1226 758 
Q 1494 397 1959 397 
Q 2419 397 2687 759 
Q 2956 1122 2956 1747 
Q 2956 2369 2687 2733 
Q 2419 3097 1959 3097 
z
M 1959 3584 
Q 2709 3584 3137 3096 
Q 3566 2609 3566 1747 
Q 3566 888 3137 398 
Q 2709 -91 1959 -91 
Q 1206 -91 779 398 
Q 353 888 353 1747 
Q 353 2609 779 3096 
Q 1206 3584 1959 3584 
z
" transform="scale(0.015625)"/>
     </defs>
     <use xlink:href="#DejaVuSans-41"/>
     <use xlink:href="#DejaVuSans-70" x="68.408203"/>
     <use xlink:href="#DejaVuSans-70" x="131.884766"/>
     <use xlink:href="#DejaVuSans-6c" x="195.361328"/>
     <use xlink:href="#DejaVuSans-69" x="223.144531"/>
     <use xlink:href="#DejaVuSans-65" x="250.927734"/>
     <use xlink:href="#DejaVuSans-64" x="312.451172"/>
     <use xlink:href="#DejaVuSans-20" x="375.927734"/>
     <use xlink:href="#DejaVuSans-6d" x="407.714844"/>
     <use xlink:href="#DejaVuSans-61" x="505.126953"/>
     <use xlink:href="#DejaVuSans-73" x="566.40625"/>
     <use xlink:href="#DejaVuSans-6b" x="618.505859"/>
     <use xlink:href="#DejaVuSans-3a" x="676.416016"/>
     <use xlink:href="#DejaVuSans-20" x="710.107422"/>
     <use xlink:href="#DejaVuSans-3a" x="741.894531"/>
     <use xlink:href="#DejaVuSans-32" x="775.585938"/>
     <use xlink:href="#DejaVuSans-39" x="839.208984"/>
     <use xlink:href="#DejaVuSans-2d" x="902.832031"/>
     <use xlink:href="#DejaVuSans-35" x="938.916016"/>
     <use xlink:href="#DejaVuSans-34" x="1002.539062"/>
     <use xlink:href="#DejaVuSans-40" x="1066.162109"/>
     <use xlink:href="#DejaVuSans-43" x="1166.162109"/>
     <use xlink:href="#DejaVuSans-41" x="1235.986328"/>
     <use xlink:href="#DejaVuSans-2c" x="1304.394531"/>
     <use xlink:href="#DejaVuSans-43" x="1336.181641"/>
     <use xlink:href="#DejaVuSans-2c" x="1406.005859"/>
     <use xlink:href="#DejaVuSans-4f" x="1437.792969"/>
     <use xlink:href="#DejaVuSans-2c" x="1516.503906"/>
     <use xlink:href="#DejaVuSans-4e" x="1548.291016"/>
     <use xlink:href="#DejaVuSans-20" x="1623.095703"/>
     <use xlink:href="#DejaVuSans-20" x="1654.882812"/>
     <use xlink:href="#DejaVuSans-20" x="1686.669922"/>
     <use xlink:href="#DejaVuSans-20" x="1718.457031"/>
     <use xlink:href="#DejaVuSans-46" x="1750.244141"/>
     <use xlink:href="#DejaVuSans-72" x="1800.513672"/>
     <use xlink:href="#DejaVuSans-61" x="1841.626953"/>
     <use xlink:href="#DejaVuSans-6d" x="1902.90625"/>
     <use xlink:href="#DejaVuSans-65" x="2000.318359"/>
     <use xlink:href="#DejaVuSans-73" x="2061.841797"/>
     <use xlink:href="#DejaVuSans-20" x="2113.941406"/>
     <use xlink:href="#DejaVuSans-75" x="2145.728516"/>
     <use xlink:href="#DejaVuSans-73" x="2209.107422"/>
     <use xlink:href="#DejaVuSans-65" x="2261.207031"/>
     <use xlink:href="#DejaVuSans-64" x="2322.730469"/>
     <use xlink:href="#DejaVuSans-3a" x="2386.207031"/>
     <use xlink:href="#DejaVuSans-20" x="2419.898438"/>
     <use xlink:href="#DejaVuSans-30" x="2451.685547"/>
     <use xlink:href="#DejaVuSans-2d" x="2515.308594"/>
     <use xlink:href="#DejaVuSans-32" x="2551.392578"/>
     <use xlink:href="#DejaVuSans-30" x="2615.015625"/>
     <use xlink:href="#DejaVuSans-30" x="2678.638672"/>
     <use xlink:href="#DejaVuSans-30" x="2742.261719"/>
     <use xlink:href="#DejaVuSans-20" x="2805.884766"/>
     <use xlink:href="#DejaVuSans-20" x="2837.671875"/>
     <use xlink:href="#DejaVuSans-20" x="2869.458984"/>
     <use xlink:href="#DejaVuSans-20" x="2901.246094"/>
     <use xlink:href="#DejaVuSans-52" x="2933.033203"/>
     <use xlink:href="#DejaVuSans-65" x="2998.015625"/>
     <use xlink:href="#DejaVuSans-66" x="3059.539062"/>
     <use xlink:href="#DejaVuSans-65" x="3094.744141"/>
     <use xlink:href="#DejaVuSans-72" x="3156.267578"/>
     <use xlink:href="#DejaVuSans-65" x="3195.130859"/>
     <use xlink:href="#DejaVuSans-6e" x="3256.654297"/>
     <use xlink:href="#DejaVuSans-63" x="3320.033203"/>
     <use xlink:href="#DejaVuSans-65" x="3375.013672"/>
     <use xlink:href="#DejaVuSans-20" x="3436.537109"/>
     <use xlink:href="#DejaVuSans-66" x="3468.324219"/>
     <use xlink:href="#DejaVuSans-72" x="3503.529297"/>
     <use xlink:href="#DejaVuSans-61" x="3544.642578"/>
     <use xlink:href="#DejaVuSans-6d" x="3605.921875"/>
     <use xlink:href="#DejaVuSans-65" x="3703.333984"/>
     <use xlink:href="#DejaVuSans-3a" x="3764.857422"/>
     <use xlink:href="#DejaVuSans-20" x="3798.548828"/>
     <use xlink:href="#DejaVuSans-31" x="3830.335938"/>
     <use xlink:href="#DejaVuSans-31" x="3893.958984"/>
     <use xlink:href="#DejaVuSans-33" x="3957.582031"/>
     <use xlink:href="#DejaVuSans-39" x="4021.205078"/>
     <use xlink:href="#DejaVuSans-20" x="4084.828125"/>
     <use xlink:href="#DejaVuSans-20" x="4116.615234"/>
     <use xlink:href="#DejaVuSans-20" x="4148.402344"/>
     <use xlink:href="#DejaVuSans-20" x="4180.189453"/>
     <use xlink:href="#DejaVuSans-53" x="4211.976562"/>
     <use xlink:href="#DejaVuSans-69" x="4275.453125"/>
     <use xlink:href="#DejaVuSans-6d" x="4303.236328"/>
     <use xlink:href="#DejaVuSans-75" x="4400.648438"/>
     <use xlink:href="#DejaVuSans-6c" x="4464.027344"/>
     <use xlink:href="#DejaVuSans-61" x="4491.810547"/>
     <use xlink:href="#DejaVuSans-74" x="4553.089844"/>
     <use xlink:href="#DejaVuSans-69" x="4592.298828"/>
     <use xlink:href="#DejaVuSans-6f" x="4620.082031"/>
     <use xlink:href="#DejaVuSans-6e" x="4681.263672"/>
     <use xlink:href="#DejaVuSans-20" x="4744.642578"/>
     <use xlink:href="#DejaVuSans-74" x="4776.429688"/>
     <use xlink:href="#DejaVuSans-69" x="4815.638672"/>
     <use xlink:href="#DejaVuSans-6d" x="4843.421875"/>
     <use xlink:href="#DejaVuSans-65" x="4940.833984"/>
     <use xlink:href="#DejaVuSans-3a" x="5002.357422"/>
     <use xlink:href="#DejaVuSans-20" x="5036.048828"/>
     <use xlink:href="#DejaVuSans-32" x="5067.835938"/>
     <use xlink:href="#DejaVuSans-20" x="5131.458984"/>
     <use xlink:href="#DejaVuSans-6e" x="5163.246094"/>
     <use xlink:href="#DejaVuSans-73" x="5226.625"/>
    </g>
   </g>
  </g>
  <g id="text_19">
   <!-- Root Mean Square Deviation: MD data test -->
   <g style="fill: #262626" transform="translate(366.0435 28.22175) scale(0.144 -0.144)">
    <defs>
     <path id="DejaVuSans-Bold-6f" d="M 2203 2784 
Q 1831 2784 1636 2517 
Q 1441 2250 1441 1747 
Q 1441 1244 1636 976 
Q 1831 709 2203 709 
Q 2569 709 2762 976 
Q 2956 1244 2956 1747 
Q 2956 2250 2762 2517 
Q 2569 2784 2203 2784 
z
M 2203 3584 
Q 3106 3584 3614 3096 
Q 4122 2609 4122 1747 
Q 4122 884 3614 396 
Q 3106 -91 2203 -91 
Q 1297 -91 786 396 
Q 275 884 275 1747 
Q 275 2609 786 3096 
Q 1297 3584 2203 3584 
z
" transform="scale(0.015625)"/>
     <path id="DejaVuSans-Bold-74" d="M 1759 4494 
L 1759 3500 
L 2913 3500 
L 2913 2700 
L 1759 2700 
L 1759 1216 
Q 1759 972 1856 886 
Q 1953 800 2241 800 
L 2816 800 
L 2816 0 
L 1856 0 
Q 1194 0 917 276 
Q 641 553 641 1216 
L 641 2700 
L 84 2700 
L 84 3500 
L 641 3500 
L 641 4494 
L 1759 4494 
z
" transform="scale(0.015625)"/>
     <path id="DejaVuSans-Bold-6e" d="M 4056 2131 
L 4056 0 
L 2931 0 
L 2931 347 
L 2931 1631 
Q 2931 2084 2911 2256 
Q 2891 2428 2841 2509 
Q 2775 2619 2662 2680 
Q 2550 2741 2406 2741 
Q 2056 2741 1856 2470 
Q 1656 2200 1656 1722 
L 1656 0 
L 538 0 
L 538 3500 
L 1656 3500 
L 1656 2988 
Q 1909 3294 2193 3439 
Q 2478 3584 2822 3584 
Q 3428 3584 3742 3212 
Q 4056 2841 4056 2131 
z
" transform="scale(0.015625)"/>
     <path id="DejaVuSans-Bold-71" d="M 2181 2772 
Q 1825 2772 1636 2509 
Q 1447 2247 1447 1747 
Q 1447 1247 1636 984 
Q 1825 722 2181 722 
Q 2541 722 2730 984 
Q 2919 1247 2919 1747 
Q 2919 2247 2730 2509 
Q 2541 2772 2181 2772 
z
M 2919 506 
Q 2688 197 2409 53 
Q 2131 -91 1766 -91 
Q 1119 -91 703 423 
Q 288 938 288 1747 
Q 288 2556 703 3067 
Q 1119 3578 1766 3578 
Q 2131 3578 2409 3434 
Q 2688 3291 2919 2981 
L 2919 3500 
L 4044 3500 
L 4044 -1331 
L 2919 -1331 
L 2919 506 
z
" transform="scale(0.015625)"/>
     <path id="DejaVuSans-Bold-75" d="M 500 1363 
L 500 3500 
L 1625 3500 
L 1625 3150 
Q 1625 2866 1622 2436 
Q 1619 2006 1619 1863 
Q 1619 1441 1641 1255 
Q 1663 1069 1716 984 
Q 1784 875 1895 815 
Q 2006 756 2150 756 
Q 2500 756 2700 1025 
Q 2900 1294 2900 1772 
L 2900 3500 
L 4019 3500 
L 4019 0 
L 2900 0 
L 2900 506 
Q 2647 200 2364 54 
Q 2081 -91 1741 -91 
Q 1134 -91 817 281 
Q 500 653 500 1363 
z
" transform="scale(0.015625)"/>
     <path id="DejaVuSans-Bold-76" d="M 97 3500 
L 1216 3500 
L 2088 1081 
L 2956 3500 
L 4078 3500 
L 2700 0 
L 1472 0 
L 97 3500 
z
" transform="scale(0.015625)"/>
     <path id="DejaVuSans-Bold-69" d="M 538 3500 
L 1656 3500 
L 1656 0 
L 538 0 
L 538 3500 
z
M 538 4863 
L 1656 4863 
L 1656 3950 
L 538 3950 
L 538 4863 
z
" transform="scale(0.015625)"/>
     <path id="DejaVuSans-Bold-3a" d="M 716 3500 
L 1844 3500 
L 1844 2291 
L 716 2291 
L 716 3500 
z
M 716 1209 
L 1844 1209 
L 1844 0 
L 716 0 
L 716 1209 
z
" transform="scale(0.015625)"/>
     <path id="DejaVuSans-Bold-64" d="M 2919 2988 
L 2919 4863 
L 4044 4863 
L 4044 0 
L 2919 0 
L 2919 506 
Q 2688 197 2409 53 
Q 2131 -91 1766 -91 
Q 1119 -91 703 423 
Q 288 938 288 1747 
Q 288 2556 703 3070 
Q 1119 3584 1766 3584 
Q 2128 3584 2408 3439 
Q 2688 3294 2919 2988 
z
M 2181 722 
Q 2541 722 2730 984 
Q 2919 1247 2919 1747 
Q 2919 2247 2730 2509 
Q 2541 2772 2181 2772 
Q 1825 2772 1636 2509 
Q 1447 2247 1447 1747 
Q 1447 1247 1636 984 
Q 1825 722 2181 722 
z
" transform="scale(0.015625)"/>
    </defs>
    <use xlink:href="#DejaVuSans-Bold-52"/>
    <use xlink:href="#DejaVuSans-Bold-6f" x="77.001953"/>
    <use xlink:href="#DejaVuSans-Bold-6f" x="145.703125"/>
    <use xlink:href="#DejaVuSans-Bold-74" x="214.404297"/>
    <use xlink:href="#DejaVuSans-Bold-20" x="262.207031"/>
    <use xlink:href="#DejaVuSans-Bold-4d" x="297.021484"/>
    <use xlink:href="#DejaVuSans-Bold-65" x="396.533203"/>
    <use xlink:href="#DejaVuSans-Bold-61" x="464.355469"/>
    <use xlink:href="#DejaVuSans-Bold-6e" x="531.835938"/>
    <use xlink:href="#DejaVuSans-Bold-20" x="603.027344"/>
    <use xlink:href="#DejaVuSans-Bold-53" x="637.841797"/>
    <use xlink:href="#DejaVuSans-Bold-71" x="709.863281"/>
    <use xlink:href="#DejaVuSans-Bold-75" x="781.445312"/>
    <use xlink:href="#DejaVuSans-Bold-61" x="852.636719"/>
    <use xlink:href="#DejaVuSans-Bold-72" x="920.117188"/>
    <use xlink:href="#DejaVuSans-Bold-65" x="969.433594"/>
    <use xlink:href="#DejaVuSans-Bold-20" x="1037.255859"/>
    <use xlink:href="#DejaVuSans-Bold-44" x="1072.070312"/>
    <use xlink:href="#DejaVuSans-Bold-65" x="1155.078125"/>
    <use xlink:href="#DejaVuSans-Bold-76" x="1222.900391"/>
    <use xlink:href="#DejaVuSans-Bold-69" x="1288.085938"/>
    <use xlink:href="#DejaVuSans-Bold-61" x="1322.363281"/>
    <use xlink:href="#DejaVuSans-Bold-74" x="1389.84375"/>
    <use xlink:href="#DejaVuSans-Bold-69" x="1437.646484"/>
    <use xlink:href="#DejaVuSans-Bold-6f" x="1471.923828"/>
    <use xlink:href="#DejaVuSans-Bold-6e" x="1540.625"/>
    <use xlink:href="#DejaVuSans-Bold-3a" x="1611.816406"/>
    <use xlink:href="#DejaVuSans-Bold-20" x="1651.806641"/>
    <use xlink:href="#DejaVuSans-Bold-4d" x="1686.621094"/>
    <use xlink:href="#DejaVuSans-Bold-44" x="1786.132812"/>
    <use xlink:href="#DejaVuSans-Bold-20" x="1869.140625"/>
    <use xlink:href="#DejaVuSans-Bold-64" x="1903.955078"/>
    <use xlink:href="#DejaVuSans-Bold-61" x="1975.537109"/>
    <use xlink:href="#DejaVuSans-Bold-74" x="2043.017578"/>
    <use xlink:href="#DejaVuSans-Bold-61" x="2090.820312"/>
    <use xlink:href="#DejaVuSans-Bold-20" x="2158.300781"/>
    <use xlink:href="#DejaVuSans-Bold-74" x="2193.115234"/>
    <use xlink:href="#DejaVuSans-Bold-65" x="2240.917969"/>
    <use xlink:href="#DejaVuSans-Bold-73" x="2308.740234"/>
    <use xlink:href="#DejaVuSans-Bold-74" x="2368.261719"/>
   </g>
  </g>
 </g>
 <defs>
  <clipPath id="pbfe0950d3f">
   <rect x="135" y="103.68" width="837" height="665.28"/>
  </clipPath>
 </defs>
</svg>
