<?xml version="1.0" encoding="utf-8" standalone="no"?>
<!DOCTYPE svg PUBLIC "-//W3C//DTD SVG 1.1//EN"
  "http://www.w3.org/Graphics/SVG/1.1/DTD/svg11.dtd">
<svg xmlns:xlink="http://www.w3.org/1999/xlink" width="1080pt" height="864pt" viewBox="0 0 1080 864" xmlns="http://www.w3.org/2000/svg" version="1.1">
 <metadata>
  <rdf:RDF xmlns:dc="http://purl.org/dc/elements/1.1/" xmlns:cc="http://creativecommons.org/ns#" xmlns:rdf="http://www.w3.org/1999/02/22-rdf-syntax-ns#">
   <cc:Work>
    <dc:type rdf:resource="http://purl.org/dc/dcmitype/StillImage"/>
    <dc:date>2023-04-12T13:02:51.995970</dc:date>
    <dc:format>image/svg+xml</dc:format>
    <dc:creator>
     <cc:Agent>
      <dc:title>Matplotlib v3.6.2, https://matplotlib.org/</dc:title>
     </cc:Agent>
    </dc:creator>
   </cc:Work>
  </rdf:RDF>
 </metadata>
 <defs>
  <style type="text/css">*{stroke-linejoin: round; stroke-linecap: butt}</style>
 </defs>
 <g id="figure_1">
  <g id="patch_1">
   <path d="M 0 864 
L 1080 864 
L 1080 0 
L 0 0 
z
" style="fill: #ffffff"/>
  </g>
  <g id="axes_1">
   <g id="patch_2">
    <path d="M 135 768.96 
L 972 768.96 
L 972 103.68 
L 135 103.68 
z
" style="fill: #eaeaf2"/>
   </g>
   <g id="matplotlib.axis_1">
    <g id="xtick_1">
     <g id="line2d_1">
      <path d="M 173.045455 768.96 
L 173.045455 103.68 
" clip-path="url(#p9b27ee2195)" style="fill: none; stroke: #ffffff; stroke-linecap: round"/>
     </g>
     <g id="text_1">
      <!-- 0 -->
      <g style="fill: #262626" transform="translate(169.54608 786.818281) scale(0.11 -0.11)">
       <defs>
        <path id="DejaVuSans-30" d="M 2034 4250 
Q 1547 4250 1301 3770 
Q 1056 3291 1056 2328 
Q 1056 1369 1301 889 
Q 1547 409 2034 409 
Q 2525 409 2770 889 
Q 3016 1369 3016 2328 
Q 3016 3291 2770 3770 
Q 2525 4250 2034 4250 
z
M 2034 4750 
Q 2819 4750 3233 4129 
Q 3647 3509 3647 2328 
Q 3647 1150 3233 529 
Q 2819 -91 2034 -91 
Q 1250 -91 836 529 
Q 422 1150 422 2328 
Q 422 3509 836 4129 
Q 1250 4750 2034 4750 
z
" transform="scale(0.015625)"/>
       </defs>
       <use xlink:href="#DejaVuSans-30"/>
      </g>
     </g>
    </g>
    <g id="xtick_2">
     <g id="line2d_2">
      <path d="M 268.206672 768.96 
L 268.206672 103.68 
" clip-path="url(#p9b27ee2195)" style="fill: none; stroke: #ffffff; stroke-linecap: round"/>
     </g>
     <g id="text_2">
      <!-- 250 -->
      <g style="fill: #262626" transform="translate(257.708547 786.818281) scale(0.11 -0.11)">
       <defs>
        <path id="DejaVuSans-32" d="M 1228 531 
L 3431 531 
L 3431 0 
L 469 0 
L 469 531 
Q 828 903 1448 1529 
Q 2069 2156 2228 2338 
Q 2531 2678 2651 2914 
Q 2772 3150 2772 3378 
Q 2772 3750 2511 3984 
Q 2250 4219 1831 4219 
Q 1534 4219 1204 4116 
Q 875 4013 500 3803 
L 500 4441 
Q 881 4594 1212 4672 
Q 1544 4750 1819 4750 
Q 2544 4750 2975 4387 
Q 3406 4025 3406 3419 
Q 3406 3131 3298 2873 
Q 3191 2616 2906 2266 
Q 2828 2175 2409 1742 
Q 1991 1309 1228 531 
z
" transform="scale(0.015625)"/>
        <path id="DejaVuSans-35" d="M 691 4666 
L 3169 4666 
L 3169 4134 
L 1269 4134 
L 1269 2991 
Q 1406 3038 1543 3061 
Q 1681 3084 1819 3084 
Q 2600 3084 3056 2656 
Q 3513 2228 3513 1497 
Q 3513 744 3044 326 
Q 2575 -91 1722 -91 
Q 1428 -91 1123 -41 
Q 819 9 494 109 
L 494 744 
Q 775 591 1075 516 
Q 1375 441 1709 441 
Q 2250 441 2565 725 
Q 2881 1009 2881 1497 
Q 2881 1984 2565 2268 
Q 2250 2553 1709 2553 
Q 1456 2553 1204 2497 
Q 953 2441 691 2322 
L 691 4666 
z
" transform="scale(0.015625)"/>
       </defs>
       <use xlink:href="#DejaVuSans-32"/>
       <use xlink:href="#DejaVuSans-35" x="63.623047"/>
       <use xlink:href="#DejaVuSans-30" x="127.246094"/>
      </g>
     </g>
    </g>
    <g id="xtick_3">
     <g id="line2d_3">
      <path d="M 363.367888 768.96 
L 363.367888 103.68 
" clip-path="url(#p9b27ee2195)" style="fill: none; stroke: #ffffff; stroke-linecap: round"/>
     </g>
     <g id="text_3">
      <!-- 500 -->
      <g style="fill: #262626" transform="translate(352.869763 786.818281) scale(0.11 -0.11)">
       <use xlink:href="#DejaVuSans-35"/>
       <use xlink:href="#DejaVuSans-30" x="63.623047"/>
       <use xlink:href="#DejaVuSans-30" x="127.246094"/>
      </g>
     </g>
    </g>
    <g id="xtick_4">
     <g id="line2d_4">
      <path d="M 458.529105 768.96 
L 458.529105 103.68 
" clip-path="url(#p9b27ee2195)" style="fill: none; stroke: #ffffff; stroke-linecap: round"/>
     </g>
     <g id="text_4">
      <!-- 750 -->
      <g style="fill: #262626" transform="translate(448.03098 786.818281) scale(0.11 -0.11)">
       <defs>
        <path id="DejaVuSans-37" d="M 525 4666 
L 3525 4666 
L 3525 4397 
L 1831 0 
L 1172 0 
L 2766 4134 
L 525 4134 
L 525 4666 
z
" transform="scale(0.015625)"/>
       </defs>
       <use xlink:href="#DejaVuSans-37"/>
       <use xlink:href="#DejaVuSans-35" x="63.623047"/>
       <use xlink:href="#DejaVuSans-30" x="127.246094"/>
      </g>
     </g>
    </g>
    <g id="xtick_5">
     <g id="line2d_5">
      <path d="M 553.690322 768.96 
L 553.690322 103.68 
" clip-path="url(#p9b27ee2195)" style="fill: none; stroke: #ffffff; stroke-linecap: round"/>
     </g>
     <g id="text_5">
      <!-- 1000 -->
      <g style="fill: #262626" transform="translate(539.692822 786.818281) scale(0.11 -0.11)">
       <defs>
        <path id="DejaVuSans-31" d="M 794 531 
L 1825 531 
L 1825 4091 
L 703 3866 
L 703 4441 
L 1819 4666 
L 2450 4666 
L 2450 531 
L 3481 531 
L 3481 0 
L 794 0 
L 794 531 
z
" transform="scale(0.015625)"/>
       </defs>
       <use xlink:href="#DejaVuSans-31"/>
       <use xlink:href="#DejaVuSans-30" x="63.623047"/>
       <use xlink:href="#DejaVuSans-30" x="127.246094"/>
       <use xlink:href="#DejaVuSans-30" x="190.869141"/>
      </g>
     </g>
    </g>
    <g id="xtick_6">
     <g id="line2d_6">
      <path d="M 648.851539 768.96 
L 648.851539 103.68 
" clip-path="url(#p9b27ee2195)" style="fill: none; stroke: #ffffff; stroke-linecap: round"/>
     </g>
     <g id="text_6">
      <!-- 1250 -->
      <g style="fill: #262626" transform="translate(634.854039 786.818281) scale(0.11 -0.11)">
       <use xlink:href="#DejaVuSans-31"/>
       <use xlink:href="#DejaVuSans-32" x="63.623047"/>
       <use xlink:href="#DejaVuSans-35" x="127.246094"/>
       <use xlink:href="#DejaVuSans-30" x="190.869141"/>
      </g>
     </g>
    </g>
    <g id="xtick_7">
     <g id="line2d_7">
      <path d="M 744.012756 768.96 
L 744.012756 103.68 
" clip-path="url(#p9b27ee2195)" style="fill: none; stroke: #ffffff; stroke-linecap: round"/>
     </g>
     <g id="text_7">
      <!-- 1500 -->
      <g style="fill: #262626" transform="translate(730.015256 786.818281) scale(0.11 -0.11)">
       <use xlink:href="#DejaVuSans-31"/>
       <use xlink:href="#DejaVuSans-35" x="63.623047"/>
       <use xlink:href="#DejaVuSans-30" x="127.246094"/>
       <use xlink:href="#DejaVuSans-30" x="190.869141"/>
      </g>
     </g>
    </g>
    <g id="xtick_8">
     <g id="line2d_8">
      <path d="M 839.173973 768.96 
L 839.173973 103.68 
" clip-path="url(#p9b27ee2195)" style="fill: none; stroke: #ffffff; stroke-linecap: round"/>
     </g>
     <g id="text_8">
      <!-- 1750 -->
      <g style="fill: #262626" transform="translate(825.176473 786.818281) scale(0.11 -0.11)">
       <use xlink:href="#DejaVuSans-31"/>
       <use xlink:href="#DejaVuSans-37" x="63.623047"/>
       <use xlink:href="#DejaVuSans-35" x="127.246094"/>
       <use xlink:href="#DejaVuSans-30" x="190.869141"/>
      </g>
     </g>
    </g>
    <g id="xtick_9">
     <g id="line2d_9">
      <path d="M 934.33519 768.96 
L 934.33519 103.68 
" clip-path="url(#p9b27ee2195)" style="fill: none; stroke: #ffffff; stroke-linecap: round"/>
     </g>
     <g id="text_9">
      <!-- 2000 -->
      <g style="fill: #262626" transform="translate(920.33769 786.818281) scale(0.11 -0.11)">
       <use xlink:href="#DejaVuSans-32"/>
       <use xlink:href="#DejaVuSans-30" x="63.623047"/>
       <use xlink:href="#DejaVuSans-30" x="127.246094"/>
       <use xlink:href="#DejaVuSans-30" x="190.869141"/>
      </g>
     </g>
    </g>
    <g id="text_10">
     <!-- frames -->
     <g style="fill: #262626" transform="translate(529.989375 802.224063) scale(0.12 -0.12)">
      <defs>
       <path id="DejaVuSans-Bold-66" d="M 2841 4863 
L 2841 4128 
L 2222 4128 
Q 1984 4128 1890 4042 
Q 1797 3956 1797 3744 
L 1797 3500 
L 2753 3500 
L 2753 2700 
L 1797 2700 
L 1797 0 
L 678 0 
L 678 2700 
L 122 2700 
L 122 3500 
L 678 3500 
L 678 3744 
Q 678 4316 997 4589 
Q 1316 4863 1984 4863 
L 2841 4863 
z
" transform="scale(0.015625)"/>
       <path id="DejaVuSans-Bold-72" d="M 3138 2547 
Q 2991 2616 2845 2648 
Q 2700 2681 2553 2681 
Q 2122 2681 1889 2404 
Q 1656 2128 1656 1613 
L 1656 0 
L 538 0 
L 538 3500 
L 1656 3500 
L 1656 2925 
Q 1872 3269 2151 3426 
Q 2431 3584 2822 3584 
Q 2878 3584 2943 3579 
Q 3009 3575 3134 3559 
L 3138 2547 
z
" transform="scale(0.015625)"/>
       <path id="DejaVuSans-Bold-61" d="M 2106 1575 
Q 1756 1575 1579 1456 
Q 1403 1338 1403 1106 
Q 1403 894 1545 773 
Q 1688 653 1941 653 
Q 2256 653 2472 879 
Q 2688 1106 2688 1447 
L 2688 1575 
L 2106 1575 
z
M 3816 1997 
L 3816 0 
L 2688 0 
L 2688 519 
Q 2463 200 2181 54 
Q 1900 -91 1497 -91 
Q 953 -91 614 226 
Q 275 544 275 1050 
Q 275 1666 698 1953 
Q 1122 2241 2028 2241 
L 2688 2241 
L 2688 2328 
Q 2688 2594 2478 2717 
Q 2269 2841 1825 2841 
Q 1466 2841 1156 2769 
Q 847 2697 581 2553 
L 581 3406 
Q 941 3494 1303 3539 
Q 1666 3584 2028 3584 
Q 2975 3584 3395 3211 
Q 3816 2838 3816 1997 
z
" transform="scale(0.015625)"/>
       <path id="DejaVuSans-Bold-6d" d="M 3781 2919 
Q 3994 3244 4286 3414 
Q 4578 3584 4928 3584 
Q 5531 3584 5847 3212 
Q 6163 2841 6163 2131 
L 6163 0 
L 5038 0 
L 5038 1825 
Q 5041 1866 5042 1909 
Q 5044 1953 5044 2034 
Q 5044 2406 4934 2573 
Q 4825 2741 4581 2741 
Q 4263 2741 4089 2478 
Q 3916 2216 3909 1719 
L 3909 0 
L 2784 0 
L 2784 1825 
Q 2784 2406 2684 2573 
Q 2584 2741 2328 2741 
Q 2006 2741 1831 2477 
Q 1656 2213 1656 1722 
L 1656 0 
L 531 0 
L 531 3500 
L 1656 3500 
L 1656 2988 
Q 1863 3284 2130 3434 
Q 2397 3584 2719 3584 
Q 3081 3584 3359 3409 
Q 3638 3234 3781 2919 
z
" transform="scale(0.015625)"/>
       <path id="DejaVuSans-Bold-65" d="M 4031 1759 
L 4031 1441 
L 1416 1441 
Q 1456 1047 1700 850 
Q 1944 653 2381 653 
Q 2734 653 3104 758 
Q 3475 863 3866 1075 
L 3866 213 
Q 3469 63 3072 -14 
Q 2675 -91 2278 -91 
Q 1328 -91 801 392 
Q 275 875 275 1747 
Q 275 2603 792 3093 
Q 1309 3584 2216 3584 
Q 3041 3584 3536 3087 
Q 4031 2591 4031 1759 
z
M 2881 2131 
Q 2881 2450 2695 2645 
Q 2509 2841 2209 2841 
Q 1884 2841 1681 2658 
Q 1478 2475 1428 2131 
L 2881 2131 
z
" transform="scale(0.015625)"/>
       <path id="DejaVuSans-Bold-73" d="M 3272 3391 
L 3272 2541 
Q 2913 2691 2578 2766 
Q 2244 2841 1947 2841 
Q 1628 2841 1473 2761 
Q 1319 2681 1319 2516 
Q 1319 2381 1436 2309 
Q 1553 2238 1856 2203 
L 2053 2175 
Q 2913 2066 3209 1816 
Q 3506 1566 3506 1031 
Q 3506 472 3093 190 
Q 2681 -91 1863 -91 
Q 1516 -91 1145 -36 
Q 775 19 384 128 
L 384 978 
Q 719 816 1070 734 
Q 1422 653 1784 653 
Q 2113 653 2278 743 
Q 2444 834 2444 1013 
Q 2444 1163 2330 1236 
Q 2216 1309 1875 1350 
L 1678 1375 
Q 931 1469 631 1722 
Q 331 1975 331 2491 
Q 331 3047 712 3315 
Q 1094 3584 1881 3584 
Q 2191 3584 2531 3537 
Q 2872 3491 3272 3391 
z
" transform="scale(0.015625)"/>
      </defs>
      <use xlink:href="#DejaVuSans-Bold-66"/>
      <use xlink:href="#DejaVuSans-Bold-72" x="43.505859"/>
      <use xlink:href="#DejaVuSans-Bold-61" x="92.822266"/>
      <use xlink:href="#DejaVuSans-Bold-6d" x="160.302734"/>
      <use xlink:href="#DejaVuSans-Bold-65" x="264.501953"/>
      <use xlink:href="#DejaVuSans-Bold-73" x="332.324219"/>
     </g>
    </g>
   </g>
   <g id="matplotlib.axis_2">
    <g id="ytick_1">
     <g id="line2d_10">
      <path d="M 135 738.720014 
L 972 738.720014 
" clip-path="url(#p9b27ee2195)" style="fill: none; stroke: #ffffff; stroke-linecap: round"/>
     </g>
     <g id="text_11">
      <!-- 0 -->
      <g style="fill: #262626" transform="translate(118.50125 742.899155) scale(0.11 -0.11)">
       <use xlink:href="#DejaVuSans-30"/>
      </g>
     </g>
    </g>
    <g id="ytick_2">
     <g id="line2d_11">
      <path d="M 135 604.753826 
L 972 604.753826 
" clip-path="url(#p9b27ee2195)" style="fill: none; stroke: #ffffff; stroke-linecap: round"/>
     </g>
     <g id="text_12">
      <!-- 2 -->
      <g style="fill: #262626" transform="translate(118.50125 608.932966) scale(0.11 -0.11)">
       <use xlink:href="#DejaVuSans-32"/>
      </g>
     </g>
    </g>
    <g id="ytick_3">
     <g id="line2d_12">
      <path d="M 135 470.787638 
L 972 470.787638 
" clip-path="url(#p9b27ee2195)" style="fill: none; stroke: #ffffff; stroke-linecap: round"/>
     </g>
     <g id="text_13">
      <!-- 4 -->
      <g style="fill: #262626" transform="translate(118.50125 474.966778) scale(0.11 -0.11)">
       <defs>
        <path id="DejaVuSans-34" d="M 2419 4116 
L 825 1625 
L 2419 1625 
L 2419 4116 
z
M 2253 4666 
L 3047 4666 
L 3047 1625 
L 3713 1625 
L 3713 1100 
L 3047 1100 
L 3047 0 
L 2419 0 
L 2419 1100 
L 313 1100 
L 313 1709 
L 2253 4666 
z
" transform="scale(0.015625)"/>
       </defs>
       <use xlink:href="#DejaVuSans-34"/>
      </g>
     </g>
    </g>
    <g id="ytick_4">
     <g id="line2d_13">
      <path d="M 135 336.821449 
L 972 336.821449 
" clip-path="url(#p9b27ee2195)" style="fill: none; stroke: #ffffff; stroke-linecap: round"/>
     </g>
     <g id="text_14">
      <!-- 6 -->
      <g style="fill: #262626" transform="translate(118.50125 341.00059) scale(0.11 -0.11)">
       <defs>
        <path id="DejaVuSans-36" d="M 2113 2584 
Q 1688 2584 1439 2293 
Q 1191 2003 1191 1497 
Q 1191 994 1439 701 
Q 1688 409 2113 409 
Q 2538 409 2786 701 
Q 3034 994 3034 1497 
Q 3034 2003 2786 2293 
Q 2538 2584 2113 2584 
z
M 3366 4563 
L 3366 3988 
Q 3128 4100 2886 4159 
Q 2644 4219 2406 4219 
Q 1781 4219 1451 3797 
Q 1122 3375 1075 2522 
Q 1259 2794 1537 2939 
Q 1816 3084 2150 3084 
Q 2853 3084 3261 2657 
Q 3669 2231 3669 1497 
Q 3669 778 3244 343 
Q 2819 -91 2113 -91 
Q 1303 -91 875 529 
Q 447 1150 447 2328 
Q 447 3434 972 4092 
Q 1497 4750 2381 4750 
Q 2619 4750 2861 4703 
Q 3103 4656 3366 4563 
z
" transform="scale(0.015625)"/>
       </defs>
       <use xlink:href="#DejaVuSans-36"/>
      </g>
     </g>
    </g>
    <g id="ytick_5">
     <g id="line2d_14">
      <path d="M 135 202.855261 
L 972 202.855261 
" clip-path="url(#p9b27ee2195)" style="fill: none; stroke: #ffffff; stroke-linecap: round"/>
     </g>
     <g id="text_15">
      <!-- 8 -->
      <g style="fill: #262626" transform="translate(118.50125 207.034402) scale(0.11 -0.11)">
       <defs>
        <path id="DejaVuSans-38" d="M 2034 2216 
Q 1584 2216 1326 1975 
Q 1069 1734 1069 1313 
Q 1069 891 1326 650 
Q 1584 409 2034 409 
Q 2484 409 2743 651 
Q 3003 894 3003 1313 
Q 3003 1734 2745 1975 
Q 2488 2216 2034 2216 
z
M 1403 2484 
Q 997 2584 770 2862 
Q 544 3141 544 3541 
Q 544 4100 942 4425 
Q 1341 4750 2034 4750 
Q 2731 4750 3128 4425 
Q 3525 4100 3525 3541 
Q 3525 3141 3298 2862 
Q 3072 2584 2669 2484 
Q 3125 2378 3379 2068 
Q 3634 1759 3634 1313 
Q 3634 634 3220 271 
Q 2806 -91 2034 -91 
Q 1263 -91 848 271 
Q 434 634 434 1313 
Q 434 1759 690 2068 
Q 947 2378 1403 2484 
z
M 1172 3481 
Q 1172 3119 1398 2916 
Q 1625 2713 2034 2713 
Q 2441 2713 2670 2916 
Q 2900 3119 2900 3481 
Q 2900 3844 2670 4047 
Q 2441 4250 2034 4250 
Q 1625 4250 1398 4047 
Q 1172 3844 1172 3481 
z
" transform="scale(0.015625)"/>
       </defs>
       <use xlink:href="#DejaVuSans-38"/>
      </g>
     </g>
    </g>
    <g id="text_16">
     <!-- RMSD (Å) -->
     <g style="fill: #262626" transform="translate(112.005625 468.429375) rotate(-90) scale(0.12 -0.12)">
      <defs>
       <path id="DejaVuSans-Bold-52" d="M 2297 2597 
Q 2675 2597 2839 2737 
Q 3003 2878 3003 3200 
Q 3003 3519 2839 3656 
Q 2675 3794 2297 3794 
L 1791 3794 
L 1791 2597 
L 2297 2597 
z
M 1791 1766 
L 1791 0 
L 588 0 
L 588 4666 
L 2425 4666 
Q 3347 4666 3776 4356 
Q 4206 4047 4206 3378 
Q 4206 2916 3982 2619 
Q 3759 2322 3309 2181 
Q 3556 2125 3751 1926 
Q 3947 1728 4147 1325 
L 4800 0 
L 3519 0 
L 2950 1159 
Q 2778 1509 2601 1637 
Q 2425 1766 2131 1766 
L 1791 1766 
z
" transform="scale(0.015625)"/>
       <path id="DejaVuSans-Bold-4d" d="M 588 4666 
L 2119 4666 
L 3181 2169 
L 4250 4666 
L 5778 4666 
L 5778 0 
L 4641 0 
L 4641 3413 
L 3566 897 
L 2803 897 
L 1728 3413 
L 1728 0 
L 588 0 
L 588 4666 
z
" transform="scale(0.015625)"/>
       <path id="DejaVuSans-Bold-53" d="M 3834 4519 
L 3834 3531 
Q 3450 3703 3084 3790 
Q 2719 3878 2394 3878 
Q 1963 3878 1756 3759 
Q 1550 3641 1550 3391 
Q 1550 3203 1689 3098 
Q 1828 2994 2194 2919 
L 2706 2816 
Q 3484 2659 3812 2340 
Q 4141 2022 4141 1434 
Q 4141 663 3683 286 
Q 3225 -91 2284 -91 
Q 1841 -91 1394 -6 
Q 947 78 500 244 
L 500 1259 
Q 947 1022 1364 901 
Q 1781 781 2169 781 
Q 2563 781 2772 912 
Q 2981 1044 2981 1288 
Q 2981 1506 2839 1625 
Q 2697 1744 2272 1838 
L 1806 1941 
Q 1106 2091 782 2419 
Q 459 2747 459 3303 
Q 459 4000 909 4375 
Q 1359 4750 2203 4750 
Q 2588 4750 2994 4692 
Q 3400 4634 3834 4519 
z
" transform="scale(0.015625)"/>
       <path id="DejaVuSans-Bold-44" d="M 1791 3756 
L 1791 909 
L 2222 909 
Q 2959 909 3348 1275 
Q 3738 1641 3738 2338 
Q 3738 3031 3350 3393 
Q 2963 3756 2222 3756 
L 1791 3756 
z
M 588 4666 
L 1856 4666 
Q 2919 4666 3439 4514 
Q 3959 4363 4331 4000 
Q 4659 3684 4818 3271 
Q 4978 2859 4978 2338 
Q 4978 1809 4818 1395 
Q 4659 981 4331 666 
Q 3956 303 3431 151 
Q 2906 0 1856 0 
L 588 0 
L 588 4666 
z
" transform="scale(0.015625)"/>
       <path id="DejaVuSans-Bold-20" transform="scale(0.015625)"/>
       <path id="DejaVuSans-Bold-28" d="M 2413 -844 
L 1484 -844 
Q 1006 -72 778 623 
Q 550 1319 550 2003 
Q 550 2688 779 3389 
Q 1009 4091 1484 4856 
L 2413 4856 
Q 2013 4116 1813 3408 
Q 1613 2700 1613 2009 
Q 1613 1319 1811 609 
Q 2009 -100 2413 -844 
z
" transform="scale(0.015625)"/>
       <path id="DejaVuSans-Bold-212b" d="M 3225 4575 
L 4922 0 
L 3713 0 
L 3419 850 
L 1538 850 
L 1241 0 
L 31 0 
L 1728 4575 
Q 1656 4681 1622 4798 
Q 1588 4916 1588 5050 
Q 1588 5416 1848 5678 
Q 2109 5941 2478 5941 
Q 2841 5941 3103 5678 
Q 3366 5416 3366 5050 
Q 3366 4903 3331 4784 
Q 3297 4666 3225 4575 
z
M 2069 5050 
Q 2069 4881 2189 4761 
Q 2309 4641 2478 4641 
Q 2647 4641 2767 4761 
Q 2888 4881 2888 5050 
Q 2888 5219 2766 5339 
Q 2644 5459 2478 5459 
Q 2309 5459 2189 5339 
Q 2069 5219 2069 5050 
z
M 1838 1716 
L 3116 1716 
L 2478 3572 
L 1838 1716 
z
" transform="scale(0.015625)"/>
       <path id="DejaVuSans-Bold-29" d="M 513 -844 
Q 913 -100 1113 609 
Q 1313 1319 1313 2009 
Q 1313 2700 1113 3408 
Q 913 4116 513 4856 
L 1441 4856 
Q 1916 4091 2145 3389 
Q 2375 2688 2375 2003 
Q 2375 1319 2147 623 
Q 1919 -72 1441 -844 
L 513 -844 
z
" transform="scale(0.015625)"/>
      </defs>
      <use xlink:href="#DejaVuSans-Bold-52"/>
      <use xlink:href="#DejaVuSans-Bold-4d" x="77.001953"/>
      <use xlink:href="#DejaVuSans-Bold-53" x="176.513672"/>
      <use xlink:href="#DejaVuSans-Bold-44" x="248.535156"/>
      <use xlink:href="#DejaVuSans-Bold-20" x="331.542969"/>
      <use xlink:href="#DejaVuSans-Bold-28" x="366.357422"/>
      <use xlink:href="#DejaVuSans-Bold-212b" x="412.060547"/>
      <use xlink:href="#DejaVuSans-Bold-29" x="489.453125"/>
     </g>
    </g>
   </g>
   <g id="PolyCollection_1"/>
   <g id="line2d_15">
    <path d="M 173.045455 738.72 
L 173.426099 692.083649 
L 173.806744 661.336931 
L 174.187389 644.673689 
L 174.948679 606.349877 
L 175.709969 563.381772 
L 176.090613 564.05509 
L 176.471258 578.739149 
L 176.851903 586.616039 
L 177.232548 578.791929 
L 177.613193 556.52528 
L 177.993838 544.471813 
L 178.374483 548.89709 
L 178.755128 548.862531 
L 179.135772 545.879448 
L 179.516417 558.651933 
L 179.897062 543.367285 
L 180.277707 533.88145 
L 180.658352 534.987955 
L 181.038997 559.690186 
L 181.419642 557.529708 
L 181.800287 568.515294 
L 182.180931 584.701522 
L 182.561576 573.801751 
L 183.322866 543.057714 
L 183.703511 518.200686 
L 184.084156 504.498219 
L 184.464801 497.293973 
L 184.845445 484.921375 
L 185.22609 465.952473 
L 185.606735 435.007983 
L 186.368025 412.217396 
L 186.74867 442.533151 
L 187.129315 450.200161 
L 187.50996 468.283076 
L 188.271249 436.368829 
L 189.032539 464.437954 
L 189.413184 497.951432 
L 189.793829 517.43374 
L 190.174474 514.317595 
L 190.555118 502.256121 
L 190.935763 501.134605 
L 191.316408 482.803358 
L 191.697053 477.493234 
L 192.077698 492.931258 
L 192.458343 499.001034 
L 192.838988 500.494588 
L 193.219633 505.302896 
L 193.600277 502.019108 
L 193.980922 499.985648 
L 194.361567 505.033712 
L 194.742212 520.818432 
L 195.122857 509.315653 
L 195.503502 494.187606 
L 195.884147 473.882192 
L 196.264791 466.981992 
L 196.645436 455.712694 
L 197.026081 449.010399 
L 197.406726 448.399627 
L 198.168016 456.438169 
L 198.548661 452.69928 
L 198.929306 456.867364 
L 199.30995 443.214239 
L 199.690595 437.897476 
L 200.07124 441.772688 
L 200.451885 430.277817 
L 200.83253 435.978596 
L 201.213175 419.765091 
L 201.59382 423.32065 
L 201.974465 403.605234 
L 202.735754 399.841517 
L 203.116399 388.846943 
L 203.497044 394.710209 
L 204.258334 456.181301 
L 204.638979 471.291022 
L 205.400268 492.960525 
L 205.780913 498.676624 
L 206.161558 494.097317 
L 206.542203 483.192876 
L 206.922848 468.076937 
L 207.303493 478.756975 
L 208.064782 472.921475 
L 208.445427 477.356914 
L 208.826072 470.486612 
L 209.206717 478.840268 
L 209.587362 505.607348 
L 209.968007 511.70322 
L 210.348652 493.869303 
L 210.729296 512.019993 
L 211.109941 513.892782 
L 211.490586 526.099055 
L 211.871231 523.015124 
L 212.251876 524.125303 
L 212.632521 528.126733 
L 213.013166 519.888069 
L 213.393811 528.062325 
L 213.774455 531.264526 
L 214.1551 521.056168 
L 214.535745 534.374057 
L 215.297035 507.528442 
L 215.67768 512.165543 
L 216.058325 515.137624 
L 216.438969 520.849841 
L 216.819614 519.198692 
L 217.200259 494.261936 
L 217.580904 496.283358 
L 217.961549 499.823996 
L 218.342194 501.145641 
L 218.722839 526.679313 
L 219.103484 535.952839 
L 219.484128 532.542191 
L 220.245418 509.289514 
L 220.626063 501.832858 
L 221.006708 503.738144 
L 221.387353 508.793929 
L 221.767998 518.254114 
L 222.148643 506.043817 
L 222.529287 509.588415 
L 222.909932 518.095364 
L 223.671222 483.990285 
L 224.051867 478.766983 
L 224.432512 469.30257 
L 224.813157 472.60737 
L 225.193801 466.662862 
L 225.574446 477.3213 
L 225.955091 456.044073 
L 226.335736 471.626071 
L 226.716381 474.88813 
L 227.097026 466.007997 
L 227.477671 450.59101 
L 227.858316 462.910189 
L 228.23896 479.142255 
L 229.380895 497.929928 
L 229.76154 490.97051 
L 230.142185 477.166176 
L 230.52283 499.810796 
L 230.903474 474.205431 
L 231.284119 481.963415 
L 231.664764 497.599274 
L 232.045409 508.128818 
L 232.426054 493.210406 
L 233.187344 477.476682 
L 233.567989 497.546466 
L 233.948633 508.105528 
L 234.329278 499.227981 
L 234.709923 494.739993 
L 235.090568 482.857829 
L 235.471213 503.545193 
L 235.851858 493.153651 
L 236.232503 488.593914 
L 236.613147 489.728369 
L 236.993792 453.543605 
L 237.374437 453.927842 
L 237.755082 464.821731 
L 238.135727 468.006203 
L 238.516372 469.913921 
L 238.897017 469.5003 
L 239.658306 480.790654 
L 240.038951 472.628439 
L 240.419596 474.344426 
L 240.800241 478.278781 
L 241.180886 478.976551 
L 241.561531 472.440604 
L 241.942176 468.678914 
L 242.322821 489.96907 
L 242.703465 504.033721 
L 243.464755 486.384925 
L 243.8454 465.687115 
L 244.226045 467.769184 
L 244.60669 482.930414 
L 245.367979 447.72854 
L 245.748624 437.518912 
L 246.129269 439.21783 
L 246.509914 437.541733 
L 246.890559 432.252468 
L 247.271204 441.273561 
L 247.651849 443.659227 
L 248.032494 454.273333 
L 248.413138 459.984689 
L 248.793783 447.684151 
L 249.174428 449.570407 
L 249.555073 432.915708 
L 249.935718 438.210532 
L 250.316363 435.983018 
L 250.697008 436.538698 
L 251.077652 420.54359 
L 251.458297 415.926679 
L 251.838942 409.805659 
L 252.219587 411.288949 
L 252.600232 408.297663 
L 252.980877 403.852228 
L 253.361522 406.851058 
L 253.742167 424.807909 
L 254.122811 421.200522 
L 254.503456 428.394215 
L 254.884101 448.498017 
L 255.645391 442.290186 
L 256.026036 433.484612 
L 256.406681 430.412866 
L 256.787325 430.516166 
L 257.16797 439.853654 
L 257.92926 414.839088 
L 258.309905 427.564715 
L 258.69055 433.754284 
L 259.071195 436.051297 
L 259.45184 457.175152 
L 259.832484 461.568785 
L 260.213129 452.528739 
L 260.593774 430.16649 
L 260.974419 415.83607 
L 261.355064 416.876491 
L 261.735709 411.383227 
L 262.116354 408.857758 
L 262.496998 409.199772 
L 262.877643 390.103456 
L 263.258288 385.936877 
L 263.638933 397.997349 
L 264.019578 395.358163 
L 264.400223 396.413608 
L 264.780868 402.686569 
L 265.161513 444.266271 
L 265.542157 457.930179 
L 265.922802 444.650956 
L 266.303447 438.992646 
L 266.684092 454.744149 
L 267.064737 453.68307 
L 267.445382 453.524101 
L 267.826027 439.935275 
L 268.206672 462.513579 
L 268.587316 462.897433 
L 268.967961 457.809286 
L 269.348606 447.886792 
L 269.729251 449.958223 
L 270.109896 445.247814 
L 270.871186 468.649149 
L 271.25183 477.164087 
L 271.632475 465.964364 
L 272.01312 468.908532 
L 272.393765 455.012898 
L 273.155055 464.302295 
L 273.5357 464.709421 
L 273.916345 470.864038 
L 274.296989 472.927903 
L 274.677634 465.390292 
L 275.058279 455.291044 
L 275.438924 467.527046 
L 275.819569 439.687943 
L 276.200214 441.800724 
L 276.961503 474.223263 
L 277.342148 466.102324 
L 277.722793 460.469596 
L 278.103438 479.310382 
L 278.484083 465.752948 
L 278.864728 478.391836 
L 279.245373 459.071301 
L 279.626018 466.236378 
L 280.006662 443.752661 
L 280.387307 445.862306 
L 280.767952 450.38232 
L 281.148597 439.227267 
L 281.529242 433.778535 
L 281.909887 438.369225 
L 282.290532 421.81841 
L 282.671176 413.89607 
L 283.051821 424.690226 
L 283.432466 430.711053 
L 283.813111 448.301519 
L 284.193756 444.311512 
L 284.574401 414.807113 
L 284.955046 448.52609 
L 285.335691 446.730601 
L 285.716335 450.924448 
L 286.09698 453.409199 
L 286.477625 471.299748 
L 286.85827 472.655571 
L 287.238915 472.552675 
L 287.61956 467.579443 
L 288.000205 466.743965 
L 288.38085 443.699677 
L 288.761494 443.708151 
L 289.142139 440.841972 
L 289.522784 417.397876 
L 290.284074 449.793071 
L 290.664719 449.064543 
L 291.045364 443.140012 
L 291.426008 443.304451 
L 292.187298 482.716141 
L 292.567943 492.36297 
L 292.948588 497.491751 
L 293.329233 515.41184 
L 293.709878 510.297051 
L 294.090523 484.160679 
L 294.851812 463.680107 
L 295.232457 463.331462 
L 295.613102 462.086941 
L 295.993747 449.297397 
L 296.374392 453.939993 
L 296.755037 477.947511 
L 297.516326 450.235201 
L 298.277616 428.995744 
L 298.658261 425.345934 
L 299.419551 443.792786 
L 299.800196 438.762408 
L 300.18084 441.397837 
L 300.561485 430.922871 
L 301.322775 434.047585 
L 301.70342 418.712401 
L 302.084065 408.918905 
L 302.46471 411.816375 
L 302.845354 401.524222 
L 303.225999 404.655451 
L 303.606644 399.094382 
L 303.987289 406.176989 
L 304.367934 399.627259 
L 304.748579 408.262968 
L 305.129224 420.452201 
L 305.509869 449.042278 
L 305.890513 452.23628 
L 306.271158 438.378655 
L 306.651803 436.102702 
L 307.032448 450.879699 
L 307.413093 450.360099 
L 307.793738 456.151279 
L 308.174383 451.782544 
L 308.555028 433.142883 
L 309.316317 403.464183 
L 309.696962 402.90705 
L 310.077607 403.073284 
L 310.458252 389.140433 
L 310.838897 410.625328 
L 311.219542 398.403239 
L 312.361476 434.036588 
L 313.122766 414.591186 
L 313.503411 425.955601 
L 313.884056 420.435807 
L 314.264701 429.925672 
L 314.645345 430.137553 
L 315.02599 419.245904 
L 315.406635 400.901306 
L 315.78728 398.960866 
L 316.167925 401.153258 
L 316.54857 390.88666 
L 316.929215 384.827687 
L 317.309859 387.723245 
L 317.690504 383.747898 
L 318.071149 383.73551 
L 318.451794 376.020642 
L 319.213084 412.629183 
L 319.593729 423.095964 
L 319.974374 428.485593 
L 320.355018 428.603023 
L 320.735663 426.474821 
L 321.116308 439.706896 
L 321.496953 443.679531 
L 321.877598 437.814312 
L 322.638888 385.32783 
L 323.019532 382.962708 
L 323.400177 391.177505 
L 323.780822 405.871658 
L 324.542112 369.0692 
L 324.922757 364.015165 
L 325.684047 392.872725 
L 326.064691 391.993548 
L 326.445336 386.987022 
L 327.206626 397.65939 
L 327.587271 383.776022 
L 327.967916 389.054401 
L 328.348561 399.4843 
L 328.729206 400.553865 
L 329.10985 413.786784 
L 329.490495 409.397152 
L 329.87114 384.105281 
L 330.251785 368.983321 
L 330.63243 370.699543 
L 331.013075 374.896672 
L 331.39372 395.628842 
L 331.774364 378.087056 
L 332.155009 397.132125 
L 332.535654 397.438727 
L 332.916299 399.306116 
L 333.296944 389.133209 
L 333.677589 386.646362 
L 334.058234 381.392454 
L 334.438879 383.654087 
L 334.819523 378.024557 
L 335.200168 365.38127 
L 335.580813 340.560117 
L 335.961458 343.884595 
L 336.722748 358.692672 
L 337.103393 344.099486 
L 337.484037 360.423006 
L 337.864682 360.762221 
L 338.245327 363.346656 
L 338.625972 368.234972 
L 339.006617 371.666247 
L 339.387262 353.393276 
L 339.767907 351.581386 
L 340.148552 348.031316 
L 340.529196 342.199889 
L 340.909841 349.098736 
L 341.290486 340.891887 
L 341.671131 357.498869 
L 342.051776 348.016672 
L 342.432421 348.926018 
L 342.813066 345.712774 
L 343.19371 370.157023 
L 343.574355 372.890948 
L 343.955 361.99791 
L 344.335645 336.006758 
L 345.096935 317.319954 
L 345.47758 322.831294 
L 345.858225 339.459231 
L 346.619514 320.846243 
L 347.761449 348.939708 
L 348.142094 379.666132 
L 348.522739 375.585325 
L 348.903384 362.849873 
L 349.284028 373.183272 
L 349.664673 364.407392 
L 350.045318 362.980341 
L 350.425963 375.880466 
L 350.806608 365.438829 
L 351.187253 385.192412 
L 351.567898 385.691659 
L 351.948542 385.392606 
L 352.329187 386.048823 
L 352.709832 394.580371 
L 353.471122 425.369802 
L 353.851767 419.351269 
L 354.232412 404.857569 
L 354.993701 414.14918 
L 355.374346 400.097089 
L 355.754991 377.034017 
L 356.135636 376.142165 
L 356.516281 385.201439 
L 356.896926 382.787891 
L 357.277571 386.44521 
L 357.658215 387.534988 
L 358.03886 361.29785 
L 358.419505 373.493859 
L 358.80015 371.719552 
L 359.180795 358.007715 
L 359.56144 360.585782 
L 359.942085 329.684045 
L 360.32273 333.517409 
L 360.703374 348.026721 
L 361.084019 369.344293 
L 361.464664 353.830477 
L 361.845309 316.392112 
L 362.225954 323.670396 
L 362.606599 311.952545 
L 362.987244 314.509607 
L 363.367888 316.062637 
L 363.748533 305.807368 
L 364.129178 304.437238 
L 364.509823 298.680493 
L 365.651758 310.230041 
L 366.032403 324.897805 
L 366.413047 315.607268 
L 366.793692 309.234953 
L 367.174337 309.971818 
L 367.554982 322.988426 
L 367.935627 311.52259 
L 368.316272 307.705891 
L 369.077562 280.364636 
L 369.458206 293.613028 
L 369.838851 290.478869 
L 370.219496 308.742806 
L 370.600141 338.523185 
L 370.980786 352.324284 
L 371.361431 353.870859 
L 371.742076 343.544883 
L 372.12272 345.17689 
L 372.88401 350.343166 
L 373.264655 347.2629 
L 373.6453 349.521926 
L 374.025945 355.263344 
L 374.40659 374.366956 
L 375.167879 422.106513 
L 375.548524 439.387772 
L 375.929169 439.568481 
L 376.309814 445.846564 
L 376.690459 443.544675 
L 377.451749 413.309942 
L 377.832393 410.302956 
L 378.213038 385.464955 
L 378.593683 387.248556 
L 379.354973 410.474053 
L 379.735618 403.150979 
L 380.116263 413.253091 
L 380.496908 410.359648 
L 380.877552 420.014281 
L 381.258197 401.609082 
L 381.638842 394.548092 
L 382.019487 409.174116 
L 382.400132 394.191172 
L 382.780777 386.939991 
L 383.161422 399.13104 
L 383.542066 423.643481 
L 383.922711 430.237776 
L 384.303356 400.205122 
L 384.684001 418.927067 
L 385.064646 418.509983 
L 385.445291 412.996459 
L 385.825936 403.354468 
L 386.206581 398.44588 
L 386.587225 416.534853 
L 386.96787 409.890007 
L 388.109805 395.645243 
L 388.49045 421.089444 
L 388.871095 420.117538 
L 389.632384 379.948115 
L 390.013029 392.16811 
L 390.393674 398.455288 
L 390.774319 398.833765 
L 391.154964 397.699287 
L 391.535609 411.795143 
L 391.916254 408.313421 
L 392.296898 393.364254 
L 392.677543 371.571628 
L 393.058188 376.000514 
L 393.438833 384.616985 
L 393.819478 374.849725 
L 394.200123 377.354556 
L 394.580768 368.60286 
L 394.961413 379.322118 
L 395.342057 393.336634 
L 395.722702 394.701967 
L 396.103347 393.73158 
L 396.483992 364.716214 
L 396.864637 361.765454 
L 397.245282 381.200883 
L 397.625927 382.905763 
L 398.006571 376.689414 
L 398.387216 360.043533 
L 398.767861 387.883302 
L 399.148506 391.690702 
L 399.529151 383.035988 
L 399.909796 365.909031 
L 400.290441 362.139987 
L 400.671086 366.852177 
L 401.432375 370.535834 
L 401.81302 376.45194 
L 402.193665 384.498038 
L 402.57431 386.384778 
L 402.954955 389.958891 
L 403.3356 368.962168 
L 404.096889 345.794222 
L 404.477534 341.104896 
L 404.858179 354.167706 
L 405.238824 372.264963 
L 406.000114 338.645707 
L 406.380759 311.522567 
L 406.761403 301.871639 
L 407.142048 311.040599 
L 408.283983 299.302617 
L 408.664628 306.51017 
L 409.425918 312.382531 
L 410.187207 342.79367 
L 410.567852 341.456236 
L 411.329142 400.465256 
L 411.709787 390.480161 
L 412.090432 395.2992 
L 412.471076 397.590008 
L 412.851721 376.637822 
L 413.613011 408.031856 
L 413.993656 393.429567 
L 414.374301 388.442952 
L 414.754946 396.595449 
L 415.135591 394.032283 
L 415.89688 362.763874 
L 416.277525 362.555197 
L 416.65817 355.919176 
L 417.038815 364.786761 
L 417.41946 378.048172 
L 417.800105 387.040706 
L 418.180749 391.045631 
L 418.561394 359.603174 
L 418.942039 358.866482 
L 419.322684 355.079311 
L 419.703329 372.875587 
L 420.464619 354.649465 
L 420.845264 358.613317 
L 421.225908 356.813158 
L 421.606553 352.606807 
L 421.987198 353.643557 
L 422.367843 324.515713 
L 422.748488 351.573136 
L 423.129133 364.003467 
L 423.509778 344.606678 
L 423.890422 335.433056 
L 424.271067 337.337286 
L 424.651712 338.340532 
L 425.032357 329.497518 
L 425.413002 330.949194 
L 425.793647 330.080636 
L 426.174292 355.050291 
L 426.554937 372.329515 
L 426.935581 381.959582 
L 427.316226 368.273634 
L 427.696871 370.931912 
L 428.077516 366.943051 
L 428.458161 353.158848 
L 428.838806 348.146503 
L 429.219451 337.883257 
L 429.600096 341.911751 
L 429.98074 340.102031 
L 430.361385 352.550028 
L 430.74203 373.556419 
L 431.122675 361.55471 
L 431.50332 383.168215 
L 432.26461 390.108391 
L 433.406544 341.397871 
L 433.787189 340.746321 
L 434.167834 335.250273 
L 434.548479 333.830562 
L 434.929124 320.906012 
L 435.309769 343.42797 
L 435.690413 333.576197 
L 436.071058 320.390069 
L 436.832348 312.703356 
L 437.212993 318.896064 
L 437.593638 345.686244 
L 437.974283 345.88658 
L 438.354927 350.295671 
L 439.116217 384.455521 
L 439.496862 370.275998 
L 439.877507 387.633729 
L 440.258152 369.41695 
L 440.638797 378.095263 
L 441.019442 377.683271 
L 441.400086 363.708806 
L 441.780731 358.763365 
L 442.161376 352.07872 
L 442.542021 369.463304 
L 442.922666 402.487786 
L 443.303311 406.201426 
L 443.683956 392.799456 
L 444.0646 373.778313 
L 444.445245 379.482206 
L 444.82589 373.565193 
L 445.206535 371.877658 
L 445.58718 352.007624 
L 445.967825 314.214197 
L 446.34847 331.129822 
L 446.729115 321.018455 
L 447.109759 335.854926 
L 447.490404 336.273937 
L 447.871049 324.156328 
L 448.251694 325.763879 
L 448.632339 335.436022 
L 449.012984 340.046343 
L 449.774274 367.769749 
L 450.154918 371.830654 
L 450.916208 369.176268 
L 451.296853 373.779774 
L 451.677498 377.016308 
L 452.058143 375.080385 
L 452.438788 343.875713 
L 452.819432 341.714541 
L 453.200077 359.674088 
L 453.580722 365.510112 
L 453.961367 362.026161 
L 454.342012 360.149319 
L 454.722657 365.370573 
L 455.103302 383.794936 
L 455.864591 372.361431 
L 456.245236 344.808118 
L 456.625881 350.56591 
L 457.006526 365.939186 
L 457.387171 359.814846 
L 457.767816 361.605925 
L 458.529105 382.29866 
L 458.90975 358.602943 
L 459.290395 355.317846 
L 459.67104 360.824923 
L 460.051685 371.025184 
L 460.43233 374.626943 
L 460.812975 372.51135 
L 461.19362 372.695042 
L 461.574264 374.237234 
L 461.954909 386.587004 
L 462.335554 378.850921 
L 462.716199 358.382399 
L 463.096844 361.392917 
L 463.477489 369.694133 
L 463.858134 374.233352 
L 464.238778 393.599732 
L 464.619423 420.126728 
L 465.380713 390.481146 
L 465.761358 396.16739 
L 466.142003 375.309263 
L 466.522648 367.673464 
L 466.903293 365.679164 
L 467.283937 377.879771 
L 467.664582 355.392049 
L 468.045227 359.967833 
L 468.425872 347.838718 
L 469.187162 383.165307 
L 469.567807 362.287178 
L 469.948451 347.635191 
L 470.329096 355.062154 
L 471.090386 327.184411 
L 471.471031 352.522077 
L 471.851676 363.017026 
L 472.232321 365.166893 
L 472.612966 360.090998 
L 472.99361 320.034492 
L 473.374255 317.272867 
L 473.7549 322.697736 
L 474.135545 335.47388 
L 474.51619 321.232151 
L 474.896835 312.340247 
L 475.658125 326.247172 
L 476.419414 341.904847 
L 476.800059 358.876827 
L 477.180704 348.919909 
L 477.941994 308.966946 
L 478.322639 293.251885 
L 478.703283 288.534141 
L 479.083928 295.741639 
L 479.464573 286.816154 
L 479.845218 296.547831 
L 480.225863 309.269747 
L 480.606508 290.8828 
L 480.987153 296.923062 
L 481.367798 290.681154 
L 481.748442 306.584319 
L 482.129087 293.427899 
L 482.509732 274.411915 
L 482.890377 281.434082 
L 483.271022 249.93302 
L 483.651667 248.31954 
L 484.032312 244.003798 
L 484.412956 244.302604 
L 484.793601 258.356217 
L 485.174246 245.168873 
L 485.554891 245.619005 
L 486.316181 216.568408 
L 486.696826 220.947843 
L 487.077471 233.602404 
L 487.458115 253.81542 
L 487.83876 237.442035 
L 488.219405 229.122771 
L 488.60005 211.883947 
L 489.36134 162.639774 
L 489.741985 179.88868 
L 490.122629 188.174125 
L 490.503274 188.643805 
L 490.883919 180.004822 
L 491.264564 191.408118 
L 491.645209 206.329125 
L 492.025854 203.912676 
L 493.167788 185.076421 
L 493.548433 175.273888 
L 493.929078 169.373715 
L 494.309723 172.549694 
L 494.690368 185.92376 
L 495.071013 195.341726 
L 495.451658 201.966222 
L 495.832303 211.473054 
L 496.212947 224.389475 
L 496.593592 231.239672 
L 496.974237 240.828628 
L 497.354882 244.753429 
L 497.735527 237.947373 
L 498.116172 223.134682 
L 498.496817 237.737035 
L 498.877461 237.112965 
L 499.258106 234.022938 
L 499.638751 216.088787 
L 500.019396 209.881705 
L 500.400041 183.644968 
L 500.780686 185.750022 
L 501.161331 193.647981 
L 501.541976 181.982158 
L 501.92262 164.678545 
L 502.68391 152.093413 
L 503.064555 160.879574 
L 503.4452 161.772187 
L 503.825845 151.979328 
L 504.20649 150.344009 
L 504.587134 155.312796 
L 505.348424 187.332474 
L 505.729069 189.449718 
L 506.490359 145.107185 
L 507.632293 210.483851 
L 508.012938 219.589355 
L 508.393583 253.702796 
L 509.154873 293.02402 
L 509.916163 319.617221 
L 510.296807 324.898778 
L 510.677452 337.518162 
L 511.058097 356.592337 
L 511.819387 314.135701 
L 512.200032 312.613768 
L 512.580677 313.482237 
L 512.961322 301.786843 
L 513.341966 309.199329 
L 513.722611 308.182527 
L 514.103256 324.279437 
L 514.483901 334.48065 
L 514.864546 354.947395 
L 515.245191 353.62359 
L 515.625836 354.333126 
L 516.006481 343.691477 
L 516.387125 345.504626 
L 516.76777 359.324539 
L 517.148415 365.696672 
L 517.52906 352.103144 
L 517.909705 334.280311 
L 518.29035 332.090378 
L 518.670995 316.801337 
L 519.051639 311.251847 
L 519.432284 308.623238 
L 519.812929 281.571449 
L 520.193574 290.145609 
L 520.574219 294.256992 
L 520.954864 300.255062 
L 521.335509 301.435387 
L 521.716154 289.986739 
L 522.096798 294.518435 
L 522.477443 273.530496 
L 522.858088 290.859939 
L 523.238733 295.647665 
L 523.619378 272.37696 
L 524.000023 262.546551 
L 524.380668 255.69473 
L 524.761312 246.350097 
L 525.522602 210.073007 
L 525.903247 197.962788 
L 526.283892 225.935561 
L 526.664537 230.379392 
L 527.425827 294.439705 
L 528.567761 340.31039 
L 528.948406 337.103493 
L 529.329051 351.141903 
L 529.709696 345.962038 
L 530.85163 274.511251 
L 531.993565 243.977697 
L 532.37421 247.709495 
L 532.754855 264.674629 
L 533.1355 262.817748 
L 533.516144 270.106055 
L 533.896789 269.126147 
L 534.277434 261.947646 
L 534.658079 261.608624 
L 535.038724 263.034939 
L 535.419369 280.971473 
L 535.800014 278.050679 
L 536.561303 286.014315 
L 536.941948 262.068272 
L 537.322593 255.463218 
L 537.703238 241.871676 
L 538.083883 218.050778 
L 538.464528 218.082681 
L 538.845173 196.62734 
L 539.225817 225.35709 
L 539.606462 229.797598 
L 539.987107 237.94643 
L 540.367752 222.816806 
L 540.748397 227.51271 
L 541.129042 233.949396 
L 541.890332 190.830677 
L 542.270976 191.596438 
L 542.651621 200.031315 
L 543.032266 224.760727 
L 543.793556 256.626112 
L 544.174201 236.304268 
L 544.554846 200.607983 
L 544.93549 223.960024 
L 545.316135 231.695012 
L 545.69678 242.988649 
L 546.077425 233.582529 
L 546.45807 205.777007 
L 546.838715 215.307336 
L 547.21936 201.464088 
L 547.600005 201.127433 
L 547.980649 204.186434 
L 548.361294 202.759807 
L 548.741939 199.243514 
L 549.122584 232.088173 
L 549.503229 242.552352 
L 549.883874 248.330313 
L 550.264519 233.373366 
L 550.645163 230.222148 
L 551.025808 235.011006 
L 551.406453 237.604803 
L 551.787098 226.45453 
L 552.167743 225.155738 
L 552.548388 231.834949 
L 552.929033 247.999606 
L 553.309678 239.267985 
L 553.690322 250.932344 
L 554.070967 242.667322 
L 554.451612 231.058929 
L 554.832257 226.722726 
L 555.212902 227.515766 
L 555.974192 200.047451 
L 556.354837 215.892081 
L 556.735481 214.423133 
L 557.116126 210.910215 
L 557.877416 240.585721 
L 558.258061 218.390628 
L 558.638706 229.03588 
L 559.399995 224.270136 
L 560.161285 193.263538 
L 560.54193 187.956965 
L 560.922575 175.602817 
L 561.30322 172.84106 
L 561.683865 156.530559 
L 562.06451 152.125368 
L 562.445154 155.034541 
L 562.825799 162.591966 
L 563.206444 158.776671 
L 563.587089 144.665812 
L 564.348379 168.147536 
L 564.729024 176.852258 
L 565.109668 176.637001 
L 565.490313 166.569004 
L 565.870958 188.381228 
L 566.251603 187.876721 
L 566.632248 183.393063 
L 567.012893 186.381249 
L 567.393538 182.185743 
L 567.774183 163.284958 
L 568.154827 158.065391 
L 568.535472 155.789511 
L 568.916117 139.526446 
L 569.296762 133.92 
L 569.677407 149.710934 
L 570.438697 190.60893 
L 570.819341 185.896078 
L 571.199986 198.971892 
L 571.580631 218.826204 
L 571.961276 192.606001 
L 572.341921 175.904625 
L 572.722566 181.447105 
L 573.103211 189.275415 
L 573.483856 212.862653 
L 573.8645 221.708595 
L 574.62579 202.675025 
L 575.006435 202.824295 
L 575.767725 185.001033 
L 576.14837 190.93607 
L 576.529015 218.625038 
L 576.909659 228.9452 
L 577.290304 218.347714 
L 578.051594 189.848937 
L 578.432239 193.960886 
L 579.193529 214.495879 
L 579.574173 229.923893 
L 579.954818 227.622132 
L 580.335463 222.496902 
L 580.716108 224.643575 
L 581.096753 223.702712 
L 581.477398 230.170086 
L 581.858043 257.210916 
L 582.238688 266.574288 
L 582.619332 263.013457 
L 582.999977 265.505821 
L 583.380622 254.060411 
L 583.761267 231.116951 
L 584.522557 203.911394 
L 584.903202 213.322311 
L 585.283846 212.053716 
L 585.664491 227.070885 
L 586.045136 215.062247 
L 586.425781 210.883113 
L 586.806426 219.682957 
L 587.187071 231.97426 
L 587.948361 201.029674 
L 588.329005 203.955852 
L 589.090295 253.601718 
L 589.47094 269.421496 
L 589.851585 304.216543 
L 590.23223 326.098768 
L 590.612875 325.284634 
L 590.993519 321.828554 
L 591.374164 343.10171 
L 591.754809 343.956485 
L 592.135454 314.872014 
L 592.896744 327.274315 
L 593.277389 319.204515 
L 593.658034 326.936734 
L 594.038678 329.091069 
L 594.419323 319.84087 
L 594.799968 340.800716 
L 595.180613 343.638911 
L 595.561258 338.731545 
L 596.322548 318.439399 
L 596.703193 313.077639 
L 597.083837 305.754404 
L 597.464482 301.147313 
L 597.845127 294.785019 
L 598.225772 302.279165 
L 598.606417 307.535157 
L 598.987062 303.500358 
L 599.367707 307.252189 
L 600.128996 271.217912 
L 600.509641 268.198996 
L 600.890286 264.023705 
L 601.270931 234.689033 
L 602.032221 306.215167 
L 602.412866 322.41574 
L 602.79351 328.099131 
L 603.174155 316.290779 
L 603.5548 297.230481 
L 603.935445 287.689138 
L 604.31609 287.101795 
L 604.696735 288.608916 
L 605.07738 273.241406 
L 605.458024 263.235009 
L 605.838669 271.17126 
L 606.219314 251.69167 
L 606.599959 252.46082 
L 606.980604 277.906123 
L 607.361249 286.201779 
L 607.741894 286.12544 
L 608.122539 279.051075 
L 608.503183 288.030443 
L 608.883828 262.729865 
L 609.264473 251.222995 
L 609.645118 266.946021 
L 610.025763 255.395261 
L 610.406408 263.707192 
L 611.548342 299.601259 
L 612.309632 291.011704 
L 612.690277 271.51241 
L 613.070922 260.511703 
L 613.832212 215.180669 
L 614.212856 204.46211 
L 614.593501 208.979476 
L 614.974146 230.785618 
L 615.354791 222.470222 
L 615.735436 201.449516 
L 616.496726 211.918567 
L 616.877371 221.753828 
L 617.258015 240.93861 
L 617.63866 248.886531 
L 618.019305 217.891016 
L 619.16124 176.800582 
L 619.541885 191.058514 
L 619.922529 188.138082 
L 620.303174 183.790067 
L 620.683819 176.857245 
L 621.064464 165.165472 
L 621.445109 178.065674 
L 621.825754 174.023307 
L 622.206399 202.780765 
L 622.587044 188.933783 
L 622.967688 190.10787 
L 623.348333 181.657472 
L 623.728978 168.81953 
L 624.109623 165.073582 
L 624.490268 166.785179 
L 624.870913 162.004205 
L 625.251558 164.608328 
L 625.632202 204.348659 
L 626.012847 202.643488 
L 626.393492 182.856222 
L 626.774137 176.798772 
L 627.154782 162.056339 
L 627.535427 161.731825 
L 627.916072 161.060189 
L 628.296717 169.060611 
L 628.677361 166.738929 
L 629.058006 165.421884 
L 629.438651 176.920856 
L 629.819296 178.118237 
L 630.199941 195.698172 
L 630.580586 221.226021 
L 631.341875 237.79488 
L 631.72252 227.828536 
L 632.103165 226.89042 
L 632.48381 239.870107 
L 632.864455 213.589149 
L 633.2451 207.260074 
L 633.625745 220.95195 
L 634.00639 246.536514 
L 634.387034 256.163962 
L 634.767679 253.523842 
L 635.148324 247.093246 
L 635.528969 249.337645 
L 635.909614 260.316571 
L 637.051549 223.364812 
L 637.432193 229.499737 
L 637.812838 223.181072 
L 638.193483 245.390436 
L 638.954773 274.44921 
L 639.716063 281.695153 
L 640.096707 302.904432 
L 640.477352 305.261103 
L 640.857997 301.397677 
L 641.238642 299.700045 
L 641.619287 314.001246 
L 641.999932 323.927492 
L 642.380577 342.219724 
L 642.761222 329.482528 
L 643.141866 311.393058 
L 643.522511 299.640642 
L 643.903156 296.838695 
L 644.283801 297.159577 
L 644.664446 294.928716 
L 645.045091 271.174048 
L 645.425736 270.495567 
L 645.80638 290.567764 
L 646.187025 300.193199 
L 646.948315 247.394188 
L 647.32896 242.114542 
L 647.709605 231.008943 
L 648.09025 215.511899 
L 648.470895 218.333188 
L 648.851539 195.244109 
L 649.232184 160.459863 
L 649.612829 139.856186 
L 649.993474 150.137607 
L 650.374119 151.444579 
L 650.754764 161.260051 
L 651.516053 197.943615 
L 651.896698 198.527953 
L 652.277343 207.980571 
L 652.657988 214.380757 
L 653.038633 188.112982 
L 653.419278 190.034616 
L 653.799923 204.534001 
L 654.180568 199.584037 
L 654.561212 217.791931 
L 654.941857 222.062926 
L 655.322502 233.939704 
L 655.703147 228.449803 
L 656.083792 249.999002 
L 656.845082 265.348338 
L 657.225726 285.036814 
L 657.606371 289.676018 
L 657.987016 290.930482 
L 658.367661 297.727822 
L 658.748306 286.253921 
L 659.128951 291.133624 
L 659.509596 289.197723 
L 659.890241 292.517087 
L 660.270885 303.761567 
L 660.65153 294.903595 
L 661.032175 294.793946 
L 661.793465 314.309669 
L 662.17411 304.974001 
L 662.554755 306.916859 
L 662.9354 315.094286 
L 663.316044 320.061591 
L 663.696689 319.71008 
L 664.077334 332.051208 
L 665.219269 383.532668 
L 665.599914 367.41217 
L 665.980558 340.200863 
L 666.361203 327.884795 
L 666.741848 338.587666 
L 667.122493 353.02235 
L 667.503138 385.074039 
L 667.883783 401.997805 
L 668.264428 437.814537 
L 668.645073 446.868374 
L 669.025717 450.190689 
L 669.406362 458.096668 
L 669.787007 449.535977 
L 670.167652 446.097965 
L 670.548297 466.384867 
L 671.309587 457.399126 
L 671.690231 448.954178 
L 672.070876 446.800313 
L 672.451521 432.848301 
L 672.832166 431.362913 
L 673.212811 424.000337 
L 673.593456 446.299132 
L 673.974101 446.771277 
L 674.354746 458.071729 
L 674.73539 444.925645 
L 675.116035 438.243053 
L 675.49668 423.251759 
L 675.877325 394.095192 
L 676.25797 384.555591 
L 676.638615 406.786198 
L 677.01926 398.981781 
L 677.399904 378.896612 
L 677.780549 384.796058 
L 678.161194 395.280441 
L 678.541839 392.575836 
L 678.922484 407.245419 
L 679.303129 400.813222 
L 679.683774 427.117744 
L 680.064419 423.055092 
L 680.445063 432.017385 
L 680.825708 450.003469 
L 681.206353 448.578108 
L 681.586998 460.300365 
L 681.967643 487.552924 
L 682.348288 493.929044 
L 682.728933 482.083896 
L 683.109578 464.156331 
L 683.490222 467.920909 
L 683.870867 467.835764 
L 684.251512 465.728668 
L 684.632157 468.13141 
L 685.012802 452.545856 
L 685.393447 451.034252 
L 685.774092 446.058933 
L 686.154736 435.342341 
L 686.535381 428.911846 
L 686.916026 443.091997 
L 687.296671 452.640794 
L 687.677316 449.795359 
L 688.057961 458.393006 
L 688.438606 444.007901 
L 688.819251 441.495606 
L 689.199895 444.926885 
L 689.58054 453.77423 
L 689.961185 449.065044 
L 690.34183 428.854329 
L 690.722475 430.047659 
L 691.483765 423.037968 
L 691.864409 433.386671 
L 692.245054 439.512785 
L 693.006344 362.690011 
L 693.767634 357.248993 
L 694.148279 361.260522 
L 694.909568 378.223419 
L 695.290213 396.989485 
L 696.051503 421.567439 
L 696.432148 422.883824 
L 696.812793 419.692544 
L 697.193438 418.225284 
L 697.954727 432.434736 
L 698.335372 415.714631 
L 698.716017 413.157863 
L 699.477307 415.906184 
L 699.857952 424.728161 
L 700.238597 416.993129 
L 700.999886 436.361999 
L 701.380531 450.704009 
L 701.761176 473.143001 
L 702.141821 467.485864 
L 702.522466 457.14573 
L 703.283756 461.426174 
L 703.6644 452.502335 
L 704.045045 452.170927 
L 704.42569 438.10792 
L 704.806335 434.378273 
L 705.18698 435.053486 
L 705.567625 446.098976 
L 705.94827 469.508335 
L 706.328914 459.856218 
L 706.709559 445.181704 
L 707.090204 446.007685 
L 707.470849 435.728294 
L 707.851494 441.199205 
L 708.232139 442.879143 
L 708.612784 443.630652 
L 708.993429 437.25875 
L 709.374073 440.609689 
L 709.754718 448.154443 
L 710.135363 448.842376 
L 710.516008 461.353034 
L 710.896653 464.54175 
L 712.038587 431.282905 
L 712.419232 426.971383 
L 712.799877 436.52083 
L 713.180522 440.882364 
L 713.561167 421.222587 
L 713.941812 419.636139 
L 714.322457 412.122647 
L 714.703102 409.04056 
L 715.083746 416.507089 
L 715.464391 420.76418 
L 715.845036 442.076241 
L 716.225681 432.671681 
L 716.986971 395.021391 
L 717.367616 404.820346 
L 717.74826 404.716994 
L 718.128905 400.572801 
L 718.50955 394.199856 
L 718.890195 382.478858 
L 719.27084 387.134507 
L 720.03213 366.029624 
L 720.412775 336.936161 
L 720.793419 342.886591 
L 721.174064 367.954238 
L 721.935354 373.254961 
L 722.315999 374.016705 
L 723.077289 370.895944 
L 723.457934 350.199345 
L 723.838578 345.40779 
L 724.219223 336.767293 
L 724.599868 350.27658 
L 724.980513 347.269962 
L 725.361158 347.12825 
L 725.741803 341.461485 
L 726.122448 364.917652 
L 726.503092 355.249932 
L 726.883737 353.839243 
L 727.264382 348.949197 
L 728.025672 381.97326 
L 728.406317 380.313397 
L 729.167607 400.71836 
L 729.548251 399.182493 
L 729.928896 378.551952 
L 730.309541 364.380842 
L 730.690186 328.254072 
L 731.070831 306.884655 
L 731.451476 291.849324 
L 731.832121 299.191494 
L 732.212765 280.276397 
L 732.59341 279.828609 
L 732.974055 268.732976 
L 733.3547 248.934487 
L 733.735345 251.520018 
L 734.11599 246.415621 
L 734.496635 256.374717 
L 735.257924 294.983388 
L 736.019214 317.705714 
L 736.399859 330.352502 
L 736.780504 306.561671 
L 737.161149 300.146645 
L 737.541794 305.680971 
L 737.922438 320.312199 
L 738.303083 326.493074 
L 738.683728 340.458061 
L 739.064373 341.463073 
L 740.206308 386.94009 
L 740.967597 363.356414 
L 741.348242 359.286752 
L 741.728887 359.395231 
L 742.490177 416.211187 
L 743.251467 419.077062 
L 743.632112 433.384684 
L 744.012756 425.278341 
L 744.393401 423.549296 
L 744.774046 414.966849 
L 745.154691 411.672192 
L 745.535336 429.905758 
L 745.915981 418.852908 
L 746.296626 427.1125 
L 746.67727 407.247265 
L 747.43856 419.460296 
L 747.819205 430.611835 
L 748.19985 438.2922 
L 748.580495 457.590595 
L 748.96114 447.655587 
L 749.341785 432.361582 
L 749.722429 443.395328 
L 750.483719 416.829323 
L 750.864364 420.836273 
L 751.245009 404.801619 
L 751.625654 408.717995 
L 752.006299 396.588996 
L 752.386943 407.934794 
L 752.767588 437.531806 
L 753.148233 434.506632 
L 753.528878 436.0709 
L 753.909523 446.172083 
L 754.290168 445.392842 
L 754.670813 430.917852 
L 755.051458 430.619857 
L 755.432102 437.134598 
L 755.812747 424.851437 
L 756.193392 440.3091 
L 756.574037 441.156963 
L 756.954682 419.804093 
L 757.335327 414.761924 
L 757.715972 423.722898 
L 758.096616 419.327297 
L 758.477261 409.398165 
L 758.857906 406.009984 
L 759.238551 399.201618 
L 759.999841 342.085212 
L 760.380486 329.022229 
L 760.761131 327.048341 
L 761.141775 310.511157 
L 761.52242 318.566204 
L 761.903065 299.53752 
L 762.28371 272.891215 
L 762.664355 256.504668 
L 763.045 248.769369 
L 763.425645 250.525195 
L 763.80629 256.140179 
L 764.186934 253.038855 
L 764.948224 220.889327 
L 765.328869 211.371586 
L 765.709514 191.955853 
L 766.090159 189.038546 
L 766.470804 193.779477 
L 766.851448 171.890513 
L 767.232093 167.541707 
L 767.612738 169.357721 
L 767.993383 169.433848 
L 768.374028 150.470611 
L 768.754673 165.68978 
L 769.135318 194.425685 
L 769.515963 191.201875 
L 769.896607 183.24803 
L 770.277252 168.059984 
L 770.657897 164.46879 
L 771.419187 143.284867 
L 771.799832 151.720421 
L 772.561121 201.912277 
L 772.941766 207.23551 
L 773.322411 232.101756 
L 773.703056 220.142038 
L 774.083701 225.347716 
L 774.464346 235.569796 
L 774.844991 233.056828 
L 775.225636 223.799046 
L 775.60628 210.826424 
L 775.986925 216.120813 
L 776.36757 230.566083 
L 776.748215 208.336062 
L 777.12886 205.052824 
L 777.509505 224.420841 
L 777.89015 222.657283 
L 778.651439 182.881832 
L 779.032084 176.888125 
L 779.412729 167.801953 
L 779.793374 140.561857 
L 780.174019 159.669929 
L 780.554664 164.461236 
L 780.935309 194.883111 
L 781.315953 214.273939 
L 781.696598 210.081209 
L 782.077243 179.347544 
L 782.457888 186.261851 
L 782.838533 207.560194 
L 783.599823 185.071315 
L 783.980468 184.30901 
L 784.361112 201.858246 
L 784.741757 203.819353 
L 785.503047 243.601553 
L 785.883692 270.470859 
L 786.264337 267.841832 
L 786.644982 259.182714 
L 787.025626 265.108821 
L 787.406271 277.324441 
L 787.786916 293.415766 
L 788.167561 275.265099 
L 788.548206 274.929595 
L 789.309496 292.305516 
L 789.690141 285.666524 
L 790.070785 275.328989 
L 790.45143 250.565524 
L 790.832075 252.766058 
L 791.21272 277.137575 
L 791.97401 289.359974 
L 792.354655 276.168434 
L 792.735299 253.17553 
L 793.115944 244.521887 
L 793.496589 249.450388 
L 793.877234 247.785642 
L 794.257879 242.229586 
L 794.638524 250.524648 
L 795.399814 214.381852 
L 795.780458 230.460438 
L 796.161103 227.66027 
L 796.541748 228.931471 
L 796.922393 205.688317 
L 797.303038 217.618147 
L 797.683683 224.660667 
L 798.064328 227.055418 
L 798.444972 235.981169 
L 798.825617 256.122796 
L 799.206262 267.772493 
L 799.586907 261.857229 
L 799.967552 241.082386 
L 800.348197 238.828502 
L 800.728842 225.813689 
L 801.109487 240.321336 
L 801.490131 239.219349 
L 801.870776 241.56303 
L 802.251421 230.493315 
L 802.632066 223.287036 
L 803.012711 208.723402 
L 803.393356 178.365152 
L 803.774001 163.17247 
L 804.154646 158.183107 
L 804.53529 165.44494 
L 804.915935 179.469607 
L 805.29658 177.902895 
L 805.677225 173.617453 
L 806.438515 208.855389 
L 806.81916 197.96547 
L 807.199804 194.203019 
L 807.961094 224.841376 
L 808.341739 220.777308 
L 808.722384 215.503172 
L 809.103029 234.046185 
L 809.483674 235.076013 
L 809.864319 234.255099 
L 810.244963 236.719598 
L 810.625608 220.43833 
L 811.006253 229.371281 
L 811.386898 218.407432 
L 811.767543 237.731493 
L 812.148188 239.971099 
L 812.528833 258.484605 
L 813.290122 276.852258 
L 813.670767 294.156664 
L 814.051412 300.693607 
L 814.432057 333.462798 
L 814.812702 332.718367 
L 815.193347 338.284982 
L 815.954636 360.287235 
L 816.335281 348.130495 
L 816.715926 352.783509 
L 817.096571 355.884447 
L 817.477216 357.168907 
L 817.857861 362.483354 
L 818.238506 370.273444 
L 818.61915 391.268268 
L 818.999795 392.46962 
L 819.38044 393.235455 
L 819.761085 397.056398 
L 820.14173 392.4084 
L 820.522375 355.623079 
L 820.90302 358.293192 
L 821.283665 358.04947 
L 821.664309 334.280578 
L 822.425599 366.601387 
L 822.806244 355.945938 
L 823.186889 356.169133 
L 823.567534 364.931839 
L 823.948179 369.803419 
L 824.328824 371.579002 
L 824.709468 390.126213 
L 825.090113 387.854593 
L 825.470758 375.894837 
L 825.851403 393.424108 
L 826.232048 393.209276 
L 826.612693 392.620192 
L 826.993338 411.200116 
L 827.754627 381.829563 
L 828.135272 374.053883 
L 828.515917 359.487686 
L 828.896562 389.106848 
L 829.277207 386.168759 
L 829.657852 386.667176 
L 830.038497 388.813832 
L 830.419141 387.076926 
L 830.799786 391.672427 
L 831.180431 385.557442 
L 831.561076 387.651062 
L 831.941721 380.32176 
L 832.322366 367.524572 
L 832.703011 347.673809 
L 833.083655 361.240079 
L 833.4643 347.620718 
L 833.844945 341.291194 
L 834.22559 343.005005 
L 834.606235 348.491571 
L 834.98688 371.575089 
L 835.367525 377.080656 
L 835.74817 365.122457 
L 836.128814 375.730974 
L 836.509459 398.877798 
L 836.890104 400.6368 
L 837.270749 403.403149 
L 837.651394 419.392002 
L 838.412684 381.375597 
L 838.793328 397.727494 
L 839.554618 373.875792 
L 839.935263 371.044149 
L 840.315908 358.829867 
L 840.696553 356.857774 
L 841.077198 344.337433 
L 841.838487 338.155708 
L 842.219132 343.583966 
L 842.599777 340.69386 
L 842.980422 336.086451 
L 843.361067 326.982953 
L 843.741712 336.607506 
L 844.122357 351.755506 
L 844.503002 338.531598 
L 844.883646 337.1161 
L 845.264291 347.70516 
L 845.644936 346.779813 
L 846.025581 342.932862 
L 846.406226 337.753788 
L 846.786871 347.653921 
L 847.167516 351.264856 
L 847.54816 363.484167 
L 847.928805 401.429277 
L 848.30945 390.786103 
L 848.690095 359.2611 
L 849.07074 342.439651 
L 849.451385 334.969034 
L 849.83203 339.383809 
L 850.212675 335.818744 
L 850.593319 319.274635 
L 851.735254 376.242785 
L 852.115899 377.153322 
L 852.496544 368.616623 
L 852.877189 348.861726 
L 853.257833 316.495973 
L 853.638478 301.112145 
L 854.019123 310.25236 
L 854.399768 303.592014 
L 854.780413 330.996882 
L 855.161058 339.930226 
L 855.541703 341.946182 
L 855.922348 324.368853 
L 856.302992 323.026931 
L 856.683637 323.569011 
L 857.064282 323.731093 
L 857.444927 322.334512 
L 857.825572 317.103573 
L 858.206217 327.352998 
L 858.586862 333.007003 
L 858.967506 335.263839 
L 859.728796 367.597344 
L 860.109441 392.706596 
L 860.490086 381.442022 
L 860.870731 359.514133 
L 861.632021 374.071482 
L 862.012665 370.825367 
L 862.39331 372.761001 
L 862.773955 376.253653 
L 863.1546 365.690097 
L 863.535245 361.051371 
L 864.677179 332.741103 
L 865.057824 343.380735 
L 865.438469 347.350552 
L 865.819114 375.485804 
L 866.199759 375.623764 
L 866.580404 367.472612 
L 866.961049 368.727495 
L 867.341694 377.254423 
L 867.722338 377.909249 
L 868.102983 380.056755 
L 868.483628 387.440507 
L 868.864273 372.977479 
L 869.244918 370.68847 
L 869.625563 366.178246 
L 870.006208 371.982113 
L 870.386853 384.716619 
L 870.767497 391.145261 
L 871.148142 374.87876 
L 871.528787 364.630728 
L 871.909432 382.113654 
L 872.290077 387.972625 
L 872.670722 386.080496 
L 873.051367 379.885771 
L 873.432011 391.847611 
L 873.812656 394.674512 
L 874.573946 388.693599 
L 875.335236 381.228728 
L 875.715881 364.797313 
L 876.096526 361.234413 
L 877.23846 334.537461 
L 877.619105 341.645713 
L 877.99975 338.862793 
L 878.380395 329.709269 
L 879.141684 321.613708 
L 879.522329 315.786481 
L 879.902974 304.850577 
L 880.283619 305.611817 
L 880.664264 315.7173 
L 881.425554 344.064455 
L 881.806199 350.070086 
L 882.186843 366.58527 
L 882.567488 346.703863 
L 882.948133 357.353425 
L 883.709423 392.436437 
L 884.090068 399.023316 
L 884.470713 384.197364 
L 884.851357 376.472689 
L 885.232002 349.73898 
L 885.993292 323.087302 
L 886.373937 318.19905 
L 887.135227 324.230902 
L 888.277161 336.550396 
L 888.657806 337.908879 
L 889.799741 353.242515 
L 890.180386 347.607299 
L 890.561031 351.408732 
L 890.941675 351.588073 
L 891.702965 374.39578 
L 892.08361 373.469772 
L 892.464255 371.803525 
L 892.8449 374.634359 
L 893.225545 378.396629 
L 893.606189 366.712021 
L 893.986834 362.621363 
L 894.367479 375.644707 
L 894.748124 371.423993 
L 895.128769 375.584037 
L 895.509414 372.671744 
L 895.890059 378.226637 
L 896.270704 372.804681 
L 896.651348 355.404732 
L 897.031993 360.122416 
L 897.412638 357.902194 
L 898.173928 406.259858 
L 898.554573 408.496621 
L 898.935218 392.617434 
L 899.315862 396.872601 
L 899.696507 411.757411 
L 900.077152 404.005655 
L 900.457797 381.041729 
L 900.838442 376.091235 
L 901.219087 367.24396 
L 901.599732 371.559202 
L 902.361021 402.898123 
L 902.741666 394.358976 
L 903.122311 373.53 
L 903.502956 360.450848 
L 903.883601 361.638928 
L 904.264246 372.356036 
L 904.644891 374.520474 
L 905.025535 373.886038 
L 905.40618 342.390413 
L 905.786825 333.323738 
L 906.16747 330.381716 
L 907.309405 303.523941 
L 907.69005 302.652903 
L 908.070694 298.859694 
L 908.451339 302.941261 
L 908.831984 308.673219 
L 909.212629 317.541491 
L 909.593274 317.789564 
L 909.973919 313.577814 
L 910.354564 335.510791 
L 910.735209 348.873733 
L 911.115853 348.610492 
L 911.877143 329.203938 
L 912.257788 326.142658 
L 912.638433 324.174235 
L 913.019078 333.610273 
L 913.399723 324.335064 
L 913.780367 328.458046 
L 914.161012 343.330456 
L 914.541657 363.69361 
L 914.922302 368.825611 
L 915.683592 358.564296 
L 916.064237 349.262237 
L 916.444882 370.206456 
L 916.825526 336.176963 
L 917.586816 297.40475 
L 917.967461 312.916985 
L 918.348106 311.734574 
L 918.728751 320.450534 
L 919.109396 325.355134 
L 919.49004 334.626813 
L 919.870685 329.604847 
L 920.25133 323.077577 
L 921.01262 304.221879 
L 921.393265 306.526411 
L 921.77391 295.502617 
L 922.154555 302.815144 
L 922.535199 306.265834 
L 922.915844 315.882409 
L 923.296489 308.840576 
L 923.677134 297.918865 
L 924.057779 293.999821 
L 924.438424 310.246282 
L 924.819069 307.639528 
L 925.199713 297.921304 
L 925.580358 298.652061 
L 925.961003 297.775692 
L 926.341648 294.738035 
L 926.722293 303.641819 
L 927.102938 316.494448 
L 927.483583 321.833026 
L 927.864228 320.613263 
L 928.625517 324.130536 
L 929.006162 309.014993 
L 929.386807 310.863182 
L 929.767452 295.169041 
L 930.148097 298.393224 
L 930.528742 306.753604 
L 930.909387 303.375896 
L 931.290031 308.745218 
L 931.670676 295.10922 
L 932.051321 307.449079 
L 932.431966 301.082503 
L 932.812611 298.786023 
L 933.193256 293.917253 
L 933.573901 304.549054 
L 933.954545 292.295069 
L 933.954545 292.295069 
" clip-path="url(#p9b27ee2195)" style="fill: none; stroke: #4c72b0; stroke-width: 1.5; stroke-linecap: round"/>
   </g>
   <g id="patch_3">
    <path d="M 135 768.96 
L 135 103.68 
" style="fill: none; stroke: #ffffff; stroke-width: 1.25; stroke-linejoin: miter; stroke-linecap: square"/>
   </g>
   <g id="patch_4">
    <path d="M 972 768.96 
L 972 103.68 
" style="fill: none; stroke: #ffffff; stroke-width: 1.25; stroke-linejoin: miter; stroke-linecap: square"/>
   </g>
   <g id="patch_5">
    <path d="M 135 768.96 
L 972 768.96 
" style="fill: none; stroke: #ffffff; stroke-width: 1.25; stroke-linejoin: miter; stroke-linecap: square"/>
   </g>
   <g id="patch_6">
    <path d="M 135 103.68 
L 972 103.68 
" style="fill: none; stroke: #ffffff; stroke-width: 1.25; stroke-linejoin: miter; stroke-linecap: square"/>
   </g>
   <g id="text_17">
    <!-- Applied mask: :29-54@CA,C,O,N  Simulation time: 2 ns -->
    <g style="fill: #262626" transform="translate(388.298437 97.68) scale(0.12 -0.12)">
     <defs>
      <path id="DejaVuSans-41" d="M 2188 4044 
L 1331 1722 
L 3047 1722 
L 2188 4044 
z
M 1831 4666 
L 2547 4666 
L 4325 0 
L 3669 0 
L 3244 1197 
L 1141 1197 
L 716 0 
L 50 0 
L 1831 4666 
z
" transform="scale(0.015625)"/>
      <path id="DejaVuSans-70" d="M 1159 525 
L 1159 -1331 
L 581 -1331 
L 581 3500 
L 1159 3500 
L 1159 2969 
Q 1341 3281 1617 3432 
Q 1894 3584 2278 3584 
Q 2916 3584 3314 3078 
Q 3713 2572 3713 1747 
Q 3713 922 3314 415 
Q 2916 -91 2278 -91 
Q 1894 -91 1617 61 
Q 1341 213 1159 525 
z
M 3116 1747 
Q 3116 2381 2855 2742 
Q 2594 3103 2138 3103 
Q 1681 3103 1420 2742 
Q 1159 2381 1159 1747 
Q 1159 1113 1420 752 
Q 1681 391 2138 391 
Q 2594 391 2855 752 
Q 3116 1113 3116 1747 
z
" transform="scale(0.015625)"/>
      <path id="DejaVuSans-6c" d="M 603 4863 
L 1178 4863 
L 1178 0 
L 603 0 
L 603 4863 
z
" transform="scale(0.015625)"/>
      <path id="DejaVuSans-69" d="M 603 3500 
L 1178 3500 
L 1178 0 
L 603 0 
L 603 3500 
z
M 603 4863 
L 1178 4863 
L 1178 4134 
L 603 4134 
L 603 4863 
z
" transform="scale(0.015625)"/>
      <path id="DejaVuSans-65" d="M 3597 1894 
L 3597 1613 
L 953 1613 
Q 991 1019 1311 708 
Q 1631 397 2203 397 
Q 2534 397 2845 478 
Q 3156 559 3463 722 
L 3463 178 
Q 3153 47 2828 -22 
Q 2503 -91 2169 -91 
Q 1331 -91 842 396 
Q 353 884 353 1716 
Q 353 2575 817 3079 
Q 1281 3584 2069 3584 
Q 2775 3584 3186 3129 
Q 3597 2675 3597 1894 
z
M 3022 2063 
Q 3016 2534 2758 2815 
Q 2500 3097 2075 3097 
Q 1594 3097 1305 2825 
Q 1016 2553 972 2059 
L 3022 2063 
z
" transform="scale(0.015625)"/>
      <path id="DejaVuSans-64" d="M 2906 2969 
L 2906 4863 
L 3481 4863 
L 3481 0 
L 2906 0 
L 2906 525 
Q 2725 213 2448 61 
Q 2172 -91 1784 -91 
Q 1150 -91 751 415 
Q 353 922 353 1747 
Q 353 2572 751 3078 
Q 1150 3584 1784 3584 
Q 2172 3584 2448 3432 
Q 2725 3281 2906 2969 
z
M 947 1747 
Q 947 1113 1208 752 
Q 1469 391 1925 391 
Q 2381 391 2643 752 
Q 2906 1113 2906 1747 
Q 2906 2381 2643 2742 
Q 2381 3103 1925 3103 
Q 1469 3103 1208 2742 
Q 947 2381 947 1747 
z
" transform="scale(0.015625)"/>
      <path id="DejaVuSans-20" transform="scale(0.015625)"/>
      <path id="DejaVuSans-6d" d="M 3328 2828 
Q 3544 3216 3844 3400 
Q 4144 3584 4550 3584 
Q 5097 3584 5394 3201 
Q 5691 2819 5691 2113 
L 5691 0 
L 5113 0 
L 5113 2094 
Q 5113 2597 4934 2840 
Q 4756 3084 4391 3084 
Q 3944 3084 3684 2787 
Q 3425 2491 3425 1978 
L 3425 0 
L 2847 0 
L 2847 2094 
Q 2847 2600 2669 2842 
Q 2491 3084 2119 3084 
Q 1678 3084 1418 2786 
Q 1159 2488 1159 1978 
L 1159 0 
L 581 0 
L 581 3500 
L 1159 3500 
L 1159 2956 
Q 1356 3278 1631 3431 
Q 1906 3584 2284 3584 
Q 2666 3584 2933 3390 
Q 3200 3197 3328 2828 
z
" transform="scale(0.015625)"/>
      <path id="DejaVuSans-61" d="M 2194 1759 
Q 1497 1759 1228 1600 
Q 959 1441 959 1056 
Q 959 750 1161 570 
Q 1363 391 1709 391 
Q 2188 391 2477 730 
Q 2766 1069 2766 1631 
L 2766 1759 
L 2194 1759 
z
M 3341 1997 
L 3341 0 
L 2766 0 
L 2766 531 
Q 2569 213 2275 61 
Q 1981 -91 1556 -91 
Q 1019 -91 701 211 
Q 384 513 384 1019 
Q 384 1609 779 1909 
Q 1175 2209 1959 2209 
L 2766 2209 
L 2766 2266 
Q 2766 2663 2505 2880 
Q 2244 3097 1772 3097 
Q 1472 3097 1187 3025 
Q 903 2953 641 2809 
L 641 3341 
Q 956 3463 1253 3523 
Q 1550 3584 1831 3584 
Q 2591 3584 2966 3190 
Q 3341 2797 3341 1997 
z
" transform="scale(0.015625)"/>
      <path id="DejaVuSans-73" d="M 2834 3397 
L 2834 2853 
Q 2591 2978 2328 3040 
Q 2066 3103 1784 3103 
Q 1356 3103 1142 2972 
Q 928 2841 928 2578 
Q 928 2378 1081 2264 
Q 1234 2150 1697 2047 
L 1894 2003 
Q 2506 1872 2764 1633 
Q 3022 1394 3022 966 
Q 3022 478 2636 193 
Q 2250 -91 1575 -91 
Q 1294 -91 989 -36 
Q 684 19 347 128 
L 347 722 
Q 666 556 975 473 
Q 1284 391 1588 391 
Q 1994 391 2212 530 
Q 2431 669 2431 922 
Q 2431 1156 2273 1281 
Q 2116 1406 1581 1522 
L 1381 1569 
Q 847 1681 609 1914 
Q 372 2147 372 2553 
Q 372 3047 722 3315 
Q 1072 3584 1716 3584 
Q 2034 3584 2315 3537 
Q 2597 3491 2834 3397 
z
" transform="scale(0.015625)"/>
      <path id="DejaVuSans-6b" d="M 581 4863 
L 1159 4863 
L 1159 1991 
L 2875 3500 
L 3609 3500 
L 1753 1863 
L 3688 0 
L 2938 0 
L 1159 1709 
L 1159 0 
L 581 0 
L 581 4863 
z
" transform="scale(0.015625)"/>
      <path id="DejaVuSans-3a" d="M 750 794 
L 1409 794 
L 1409 0 
L 750 0 
L 750 794 
z
M 750 3309 
L 1409 3309 
L 1409 2516 
L 750 2516 
L 750 3309 
z
" transform="scale(0.015625)"/>
      <path id="DejaVuSans-39" d="M 703 97 
L 703 672 
Q 941 559 1184 500 
Q 1428 441 1663 441 
Q 2288 441 2617 861 
Q 2947 1281 2994 2138 
Q 2813 1869 2534 1725 
Q 2256 1581 1919 1581 
Q 1219 1581 811 2004 
Q 403 2428 403 3163 
Q 403 3881 828 4315 
Q 1253 4750 1959 4750 
Q 2769 4750 3195 4129 
Q 3622 3509 3622 2328 
Q 3622 1225 3098 567 
Q 2575 -91 1691 -91 
Q 1453 -91 1209 -44 
Q 966 3 703 97 
z
M 1959 2075 
Q 2384 2075 2632 2365 
Q 2881 2656 2881 3163 
Q 2881 3666 2632 3958 
Q 2384 4250 1959 4250 
Q 1534 4250 1286 3958 
Q 1038 3666 1038 3163 
Q 1038 2656 1286 2365 
Q 1534 2075 1959 2075 
z
" transform="scale(0.015625)"/>
      <path id="DejaVuSans-2d" d="M 313 2009 
L 1997 2009 
L 1997 1497 
L 313 1497 
L 313 2009 
z
" transform="scale(0.015625)"/>
      <path id="DejaVuSans-40" d="M 2381 1678 
Q 2381 1231 2603 976 
Q 2825 722 3213 722 
Q 3597 722 3817 978 
Q 4038 1234 4038 1678 
Q 4038 2116 3813 2373 
Q 3588 2631 3206 2631 
Q 2828 2631 2604 2375 
Q 2381 2119 2381 1678 
z
M 4084 744 
Q 3897 503 3655 389 
Q 3413 275 3091 275 
Q 2553 275 2217 664 
Q 1881 1053 1881 1678 
Q 1881 2303 2218 2693 
Q 2556 3084 3091 3084 
Q 3413 3084 3656 2967 
Q 3900 2850 4084 2613 
L 4084 3022 
L 4531 3022 
L 4531 722 
Q 4988 791 5245 1139 
Q 5503 1488 5503 2041 
Q 5503 2375 5404 2669 
Q 5306 2963 5106 3213 
Q 4781 3622 4314 3839 
Q 3847 4056 3297 4056 
Q 2913 4056 2559 3954 
Q 2206 3853 1906 3653 
Q 1416 3334 1139 2817 
Q 863 2300 863 1697 
Q 863 1200 1042 765 
Q 1222 331 1563 0 
Q 1891 -325 2322 -495 
Q 2753 -666 3244 -666 
Q 3647 -666 4036 -530 
Q 4425 -394 4750 -141 
L 5031 -488 
Q 4641 -791 4180 -952 
Q 3719 -1113 3244 -1113 
Q 2666 -1113 2153 -908 
Q 1641 -703 1241 -313 
Q 841 78 631 592 
Q 422 1106 422 1697 
Q 422 2266 634 2781 
Q 847 3297 1241 3688 
Q 1644 4084 2172 4295 
Q 2700 4506 3291 4506 
Q 3953 4506 4520 4234 
Q 5088 3963 5472 3463 
Q 5706 3156 5829 2797 
Q 5953 2438 5953 2053 
Q 5953 1231 5456 756 
Q 4959 281 4084 263 
L 4084 744 
z
" transform="scale(0.015625)"/>
      <path id="DejaVuSans-43" d="M 4122 4306 
L 4122 3641 
Q 3803 3938 3442 4084 
Q 3081 4231 2675 4231 
Q 1875 4231 1450 3742 
Q 1025 3253 1025 2328 
Q 1025 1406 1450 917 
Q 1875 428 2675 428 
Q 3081 428 3442 575 
Q 3803 722 4122 1019 
L 4122 359 
Q 3791 134 3420 21 
Q 3050 -91 2638 -91 
Q 1578 -91 968 557 
Q 359 1206 359 2328 
Q 359 3453 968 4101 
Q 1578 4750 2638 4750 
Q 3056 4750 3426 4639 
Q 3797 4528 4122 4306 
z
" transform="scale(0.015625)"/>
      <path id="DejaVuSans-2c" d="M 750 794 
L 1409 794 
L 1409 256 
L 897 -744 
L 494 -744 
L 750 256 
L 750 794 
z
" transform="scale(0.015625)"/>
      <path id="DejaVuSans-4f" d="M 2522 4238 
Q 1834 4238 1429 3725 
Q 1025 3213 1025 2328 
Q 1025 1447 1429 934 
Q 1834 422 2522 422 
Q 3209 422 3611 934 
Q 4013 1447 4013 2328 
Q 4013 3213 3611 3725 
Q 3209 4238 2522 4238 
z
M 2522 4750 
Q 3503 4750 4090 4092 
Q 4678 3434 4678 2328 
Q 4678 1225 4090 567 
Q 3503 -91 2522 -91 
Q 1538 -91 948 565 
Q 359 1222 359 2328 
Q 359 3434 948 4092 
Q 1538 4750 2522 4750 
z
" transform="scale(0.015625)"/>
      <path id="DejaVuSans-4e" d="M 628 4666 
L 1478 4666 
L 3547 763 
L 3547 4666 
L 4159 4666 
L 4159 0 
L 3309 0 
L 1241 3903 
L 1241 0 
L 628 0 
L 628 4666 
z
" transform="scale(0.015625)"/>
      <path id="DejaVuSans-53" d="M 3425 4513 
L 3425 3897 
Q 3066 4069 2747 4153 
Q 2428 4238 2131 4238 
Q 1616 4238 1336 4038 
Q 1056 3838 1056 3469 
Q 1056 3159 1242 3001 
Q 1428 2844 1947 2747 
L 2328 2669 
Q 3034 2534 3370 2195 
Q 3706 1856 3706 1288 
Q 3706 609 3251 259 
Q 2797 -91 1919 -91 
Q 1588 -91 1214 -16 
Q 841 59 441 206 
L 441 856 
Q 825 641 1194 531 
Q 1563 422 1919 422 
Q 2459 422 2753 634 
Q 3047 847 3047 1241 
Q 3047 1584 2836 1778 
Q 2625 1972 2144 2069 
L 1759 2144 
Q 1053 2284 737 2584 
Q 422 2884 422 3419 
Q 422 4038 858 4394 
Q 1294 4750 2059 4750 
Q 2388 4750 2728 4690 
Q 3069 4631 3425 4513 
z
" transform="scale(0.015625)"/>
      <path id="DejaVuSans-75" d="M 544 1381 
L 544 3500 
L 1119 3500 
L 1119 1403 
Q 1119 906 1312 657 
Q 1506 409 1894 409 
Q 2359 409 2629 706 
Q 2900 1003 2900 1516 
L 2900 3500 
L 3475 3500 
L 3475 0 
L 2900 0 
L 2900 538 
Q 2691 219 2414 64 
Q 2138 -91 1772 -91 
Q 1169 -91 856 284 
Q 544 659 544 1381 
z
M 1991 3584 
L 1991 3584 
z
" transform="scale(0.015625)"/>
      <path id="DejaVuSans-74" d="M 1172 4494 
L 1172 3500 
L 2356 3500 
L 2356 3053 
L 1172 3053 
L 1172 1153 
Q 1172 725 1289 603 
Q 1406 481 1766 481 
L 2356 481 
L 2356 0 
L 1766 0 
Q 1100 0 847 248 
Q 594 497 594 1153 
L 594 3053 
L 172 3053 
L 172 3500 
L 594 3500 
L 594 4494 
L 1172 4494 
z
" transform="scale(0.015625)"/>
      <path id="DejaVuSans-6f" d="M 1959 3097 
Q 1497 3097 1228 2736 
Q 959 2375 959 1747 
Q 959 1119 1226 758 
Q 1494 397 1959 397 
Q 2419 397 2687 759 
Q 2956 1122 2956 1747 
Q 2956 2369 2687 2733 
Q 2419 3097 1959 3097 
z
M 1959 3584 
Q 2709 3584 3137 3096 
Q 3566 2609 3566 1747 
Q 3566 888 3137 398 
Q 2709 -91 1959 -91 
Q 1206 -91 779 398 
Q 353 888 353 1747 
Q 353 2609 779 3096 
Q 1206 3584 1959 3584 
z
" transform="scale(0.015625)"/>
      <path id="DejaVuSans-6e" d="M 3513 2113 
L 3513 0 
L 2938 0 
L 2938 2094 
Q 2938 2591 2744 2837 
Q 2550 3084 2163 3084 
Q 1697 3084 1428 2787 
Q 1159 2491 1159 1978 
L 1159 0 
L 581 0 
L 581 3500 
L 1159 3500 
L 1159 2956 
Q 1366 3272 1645 3428 
Q 1925 3584 2291 3584 
Q 2894 3584 3203 3211 
Q 3513 2838 3513 2113 
z
" transform="scale(0.015625)"/>
     </defs>
     <use xlink:href="#DejaVuSans-41"/>
     <use xlink:href="#DejaVuSans-70" x="68.408203"/>
     <use xlink:href="#DejaVuSans-70" x="131.884766"/>
     <use xlink:href="#DejaVuSans-6c" x="195.361328"/>
     <use xlink:href="#DejaVuSans-69" x="223.144531"/>
     <use xlink:href="#DejaVuSans-65" x="250.927734"/>
     <use xlink:href="#DejaVuSans-64" x="312.451172"/>
     <use xlink:href="#DejaVuSans-20" x="375.927734"/>
     <use xlink:href="#DejaVuSans-6d" x="407.714844"/>
     <use xlink:href="#DejaVuSans-61" x="505.126953"/>
     <use xlink:href="#DejaVuSans-73" x="566.40625"/>
     <use xlink:href="#DejaVuSans-6b" x="618.505859"/>
     <use xlink:href="#DejaVuSans-3a" x="676.416016"/>
     <use xlink:href="#DejaVuSans-20" x="710.107422"/>
     <use xlink:href="#DejaVuSans-3a" x="741.894531"/>
     <use xlink:href="#DejaVuSans-32" x="775.585938"/>
     <use xlink:href="#DejaVuSans-39" x="839.208984"/>
     <use xlink:href="#DejaVuSans-2d" x="902.832031"/>
     <use xlink:href="#DejaVuSans-35" x="938.916016"/>
     <use xlink:href="#DejaVuSans-34" x="1002.539062"/>
     <use xlink:href="#DejaVuSans-40" x="1066.162109"/>
     <use xlink:href="#DejaVuSans-43" x="1166.162109"/>
     <use xlink:href="#DejaVuSans-41" x="1235.986328"/>
     <use xlink:href="#DejaVuSans-2c" x="1304.394531"/>
     <use xlink:href="#DejaVuSans-43" x="1336.181641"/>
     <use xlink:href="#DejaVuSans-2c" x="1406.005859"/>
     <use xlink:href="#DejaVuSans-4f" x="1437.792969"/>
     <use xlink:href="#DejaVuSans-2c" x="1516.503906"/>
     <use xlink:href="#DejaVuSans-4e" x="1548.291016"/>
     <use xlink:href="#DejaVuSans-20" x="1623.095703"/>
     <use xlink:href="#DejaVuSans-20" x="1654.882812"/>
     <use xlink:href="#DejaVuSans-53" x="1686.669922"/>
     <use xlink:href="#DejaVuSans-69" x="1750.146484"/>
     <use xlink:href="#DejaVuSans-6d" x="1777.929688"/>
     <use xlink:href="#DejaVuSans-75" x="1875.341797"/>
     <use xlink:href="#DejaVuSans-6c" x="1938.720703"/>
     <use xlink:href="#DejaVuSans-61" x="1966.503906"/>
     <use xlink:href="#DejaVuSans-74" x="2027.783203"/>
     <use xlink:href="#DejaVuSans-69" x="2066.992188"/>
     <use xlink:href="#DejaVuSans-6f" x="2094.775391"/>
     <use xlink:href="#DejaVuSans-6e" x="2155.957031"/>
     <use xlink:href="#DejaVuSans-20" x="2219.335938"/>
     <use xlink:href="#DejaVuSans-74" x="2251.123047"/>
     <use xlink:href="#DejaVuSans-69" x="2290.332031"/>
     <use xlink:href="#DejaVuSans-6d" x="2318.115234"/>
     <use xlink:href="#DejaVuSans-65" x="2415.527344"/>
     <use xlink:href="#DejaVuSans-3a" x="2477.050781"/>
     <use xlink:href="#DejaVuSans-20" x="2510.742188"/>
     <use xlink:href="#DejaVuSans-32" x="2542.529297"/>
     <use xlink:href="#DejaVuSans-20" x="2606.152344"/>
     <use xlink:href="#DejaVuSans-6e" x="2637.939453"/>
     <use xlink:href="#DejaVuSans-73" x="2701.318359"/>
    </g>
   </g>
  </g>
  <g id="text_18">
   <!-- Root Mean Square Deviation: MD data test -->
   <g style="fill: #262626" transform="translate(366.0435 28.22175) scale(0.144 -0.144)">
    <defs>
     <path id="DejaVuSans-Bold-6f" d="M 2203 2784 
Q 1831 2784 1636 2517 
Q 1441 2250 1441 1747 
Q 1441 1244 1636 976 
Q 1831 709 2203 709 
Q 2569 709 2762 976 
Q 2956 1244 2956 1747 
Q 2956 2250 2762 2517 
Q 2569 2784 2203 2784 
z
M 2203 3584 
Q 3106 3584 3614 3096 
Q 4122 2609 4122 1747 
Q 4122 884 3614 396 
Q 3106 -91 2203 -91 
Q 1297 -91 786 396 
Q 275 884 275 1747 
Q 275 2609 786 3096 
Q 1297 3584 2203 3584 
z
" transform="scale(0.015625)"/>
     <path id="DejaVuSans-Bold-74" d="M 1759 4494 
L 1759 3500 
L 2913 3500 
L 2913 2700 
L 1759 2700 
L 1759 1216 
Q 1759 972 1856 886 
Q 1953 800 2241 800 
L 2816 800 
L 2816 0 
L 1856 0 
Q 1194 0 917 276 
Q 641 553 641 1216 
L 641 2700 
L 84 2700 
L 84 3500 
L 641 3500 
L 641 4494 
L 1759 4494 
z
" transform="scale(0.015625)"/>
     <path id="DejaVuSans-Bold-6e" d="M 4056 2131 
L 4056 0 
L 2931 0 
L 2931 347 
L 2931 1631 
Q 2931 2084 2911 2256 
Q 2891 2428 2841 2509 
Q 2775 2619 2662 2680 
Q 2550 2741 2406 2741 
Q 2056 2741 1856 2470 
Q 1656 2200 1656 1722 
L 1656 0 
L 538 0 
L 538 3500 
L 1656 3500 
L 1656 2988 
Q 1909 3294 2193 3439 
Q 2478 3584 2822 3584 
Q 3428 3584 3742 3212 
Q 4056 2841 4056 2131 
z
" transform="scale(0.015625)"/>
     <path id="DejaVuSans-Bold-71" d="M 2181 2772 
Q 1825 2772 1636 2509 
Q 1447 2247 1447 1747 
Q 1447 1247 1636 984 
Q 1825 722 2181 722 
Q 2541 722 2730 984 
Q 2919 1247 2919 1747 
Q 2919 2247 2730 2509 
Q 2541 2772 2181 2772 
z
M 2919 506 
Q 2688 197 2409 53 
Q 2131 -91 1766 -91 
Q 1119 -91 703 423 
Q 288 938 288 1747 
Q 288 2556 703 3067 
Q 1119 3578 1766 3578 
Q 2131 3578 2409 3434 
Q 2688 3291 2919 2981 
L 2919 3500 
L 4044 3500 
L 4044 -1331 
L 2919 -1331 
L 2919 506 
z
" transform="scale(0.015625)"/>
     <path id="DejaVuSans-Bold-75" d="M 500 1363 
L 500 3500 
L 1625 3500 
L 1625 3150 
Q 1625 2866 1622 2436 
Q 1619 2006 1619 1863 
Q 1619 1441 1641 1255 
Q 1663 1069 1716 984 
Q 1784 875 1895 815 
Q 2006 756 2150 756 
Q 2500 756 2700 1025 
Q 2900 1294 2900 1772 
L 2900 3500 
L 4019 3500 
L 4019 0 
L 2900 0 
L 2900 506 
Q 2647 200 2364 54 
Q 2081 -91 1741 -91 
Q 1134 -91 817 281 
Q 500 653 500 1363 
z
" transform="scale(0.015625)"/>
     <path id="DejaVuSans-Bold-76" d="M 97 3500 
L 1216 3500 
L 2088 1081 
L 2956 3500 
L 4078 3500 
L 2700 0 
L 1472 0 
L 97 3500 
z
" transform="scale(0.015625)"/>
     <path id="DejaVuSans-Bold-69" d="M 538 3500 
L 1656 3500 
L 1656 0 
L 538 0 
L 538 3500 
z
M 538 4863 
L 1656 4863 
L 1656 3950 
L 538 3950 
L 538 4863 
z
" transform="scale(0.015625)"/>
     <path id="DejaVuSans-Bold-3a" d="M 716 3500 
L 1844 3500 
L 1844 2291 
L 716 2291 
L 716 3500 
z
M 716 1209 
L 1844 1209 
L 1844 0 
L 716 0 
L 716 1209 
z
" transform="scale(0.015625)"/>
     <path id="DejaVuSans-Bold-64" d="M 2919 2988 
L 2919 4863 
L 4044 4863 
L 4044 0 
L 2919 0 
L 2919 506 
Q 2688 197 2409 53 
Q 2131 -91 1766 -91 
Q 1119 -91 703 423 
Q 288 938 288 1747 
Q 288 2556 703 3070 
Q 1119 3584 1766 3584 
Q 2128 3584 2408 3439 
Q 2688 3294 2919 2988 
z
M 2181 722 
Q 2541 722 2730 984 
Q 2919 1247 2919 1747 
Q 2919 2247 2730 2509 
Q 2541 2772 2181 2772 
Q 1825 2772 1636 2509 
Q 1447 2247 1447 1747 
Q 1447 1247 1636 984 
Q 1825 722 2181 722 
z
" transform="scale(0.015625)"/>
    </defs>
    <use xlink:href="#DejaVuSans-Bold-52"/>
    <use xlink:href="#DejaVuSans-Bold-6f" x="77.001953"/>
    <use xlink:href="#DejaVuSans-Bold-6f" x="145.703125"/>
    <use xlink:href="#DejaVuSans-Bold-74" x="214.404297"/>
    <use xlink:href="#DejaVuSans-Bold-20" x="262.207031"/>
    <use xlink:href="#DejaVuSans-Bold-4d" x="297.021484"/>
    <use xlink:href="#DejaVuSans-Bold-65" x="396.533203"/>
    <use xlink:href="#DejaVuSans-Bold-61" x="464.355469"/>
    <use xlink:href="#DejaVuSans-Bold-6e" x="531.835938"/>
    <use xlink:href="#DejaVuSans-Bold-20" x="603.027344"/>
    <use xlink:href="#DejaVuSans-Bold-53" x="637.841797"/>
    <use xlink:href="#DejaVuSans-Bold-71" x="709.863281"/>
    <use xlink:href="#DejaVuSans-Bold-75" x="781.445312"/>
    <use xlink:href="#DejaVuSans-Bold-61" x="852.636719"/>
    <use xlink:href="#DejaVuSans-Bold-72" x="920.117188"/>
    <use xlink:href="#DejaVuSans-Bold-65" x="969.433594"/>
    <use xlink:href="#DejaVuSans-Bold-20" x="1037.255859"/>
    <use xlink:href="#DejaVuSans-Bold-44" x="1072.070312"/>
    <use xlink:href="#DejaVuSans-Bold-65" x="1155.078125"/>
    <use xlink:href="#DejaVuSans-Bold-76" x="1222.900391"/>
    <use xlink:href="#DejaVuSans-Bold-69" x="1288.085938"/>
    <use xlink:href="#DejaVuSans-Bold-61" x="1322.363281"/>
    <use xlink:href="#DejaVuSans-Bold-74" x="1389.84375"/>
    <use xlink:href="#DejaVuSans-Bold-69" x="1437.646484"/>
    <use xlink:href="#DejaVuSans-Bold-6f" x="1471.923828"/>
    <use xlink:href="#DejaVuSans-Bold-6e" x="1540.625"/>
    <use xlink:href="#DejaVuSans-Bold-3a" x="1611.816406"/>
    <use xlink:href="#DejaVuSans-Bold-20" x="1651.806641"/>
    <use xlink:href="#DejaVuSans-Bold-4d" x="1686.621094"/>
    <use xlink:href="#DejaVuSans-Bold-44" x="1786.132812"/>
    <use xlink:href="#DejaVuSans-Bold-20" x="1869.140625"/>
    <use xlink:href="#DejaVuSans-Bold-64" x="1903.955078"/>
    <use xlink:href="#DejaVuSans-Bold-61" x="1975.537109"/>
    <use xlink:href="#DejaVuSans-Bold-74" x="2043.017578"/>
    <use xlink:href="#DejaVuSans-Bold-61" x="2090.820312"/>
    <use xlink:href="#DejaVuSans-Bold-20" x="2158.300781"/>
    <use xlink:href="#DejaVuSans-Bold-74" x="2193.115234"/>
    <use xlink:href="#DejaVuSans-Bold-65" x="2240.917969"/>
    <use xlink:href="#DejaVuSans-Bold-73" x="2308.740234"/>
    <use xlink:href="#DejaVuSans-Bold-74" x="2368.261719"/>
   </g>
  </g>
 </g>
 <defs>
  <clipPath id="p9b27ee2195">
   <rect x="135" y="103.68" width="837" height="665.28"/>
  </clipPath>
 </defs>
</svg>
