<?xml version="1.0" encoding="utf-8" standalone="no"?>
<!DOCTYPE svg PUBLIC "-//W3C//DTD SVG 1.1//EN"
  "http://www.w3.org/Graphics/SVG/1.1/DTD/svg11.dtd">
<svg xmlns:xlink="http://www.w3.org/1999/xlink" width="1080pt" height="864pt" viewBox="0 0 1080 864" xmlns="http://www.w3.org/2000/svg" version="1.1">
 <metadata>
  <rdf:RDF xmlns:dc="http://purl.org/dc/elements/1.1/" xmlns:cc="http://creativecommons.org/ns#" xmlns:rdf="http://www.w3.org/1999/02/22-rdf-syntax-ns#">
   <cc:Work>
    <dc:type rdf:resource="http://purl.org/dc/dcmitype/StillImage"/>
    <dc:date>2023-04-12T12:48:13.971484</dc:date>
    <dc:format>image/svg+xml</dc:format>
    <dc:creator>
     <cc:Agent>
      <dc:title>Matplotlib v3.6.2, https://matplotlib.org/</dc:title>
     </cc:Agent>
    </dc:creator>
   </cc:Work>
  </rdf:RDF>
 </metadata>
 <defs>
  <style type="text/css">*{stroke-linejoin: round; stroke-linecap: butt}</style>
 </defs>
 <g id="figure_1">
  <g id="patch_1">
   <path d="M 0 864 
L 1080 864 
L 1080 0 
L 0 0 
z
" style="fill: #ffffff"/>
  </g>
  <g id="axes_1">
   <g id="patch_2">
    <path d="M 135 768.96 
L 972 768.96 
L 972 103.68 
L 135 103.68 
z
" style="fill: #eaeaf2"/>
   </g>
   <g id="matplotlib.axis_1">
    <g id="xtick_1">
     <g id="line2d_1">
      <path d="M 173.045455 768.96 
L 173.045455 103.68 
" clip-path="url(#p4a2fbbea8a)" style="fill: none; stroke: #ffffff; stroke-linecap: round"/>
     </g>
     <g id="text_1">
      <!-- 0 -->
      <g style="fill: #262626" transform="translate(169.54608 786.818281) scale(0.11 -0.11)">
       <defs>
        <path id="DejaVuSans-30" d="M 2034 4250 
Q 1547 4250 1301 3770 
Q 1056 3291 1056 2328 
Q 1056 1369 1301 889 
Q 1547 409 2034 409 
Q 2525 409 2770 889 
Q 3016 1369 3016 2328 
Q 3016 3291 2770 3770 
Q 2525 4250 2034 4250 
z
M 2034 4750 
Q 2819 4750 3233 4129 
Q 3647 3509 3647 2328 
Q 3647 1150 3233 529 
Q 2819 -91 2034 -91 
Q 1250 -91 836 529 
Q 422 1150 422 2328 
Q 422 3509 836 4129 
Q 1250 4750 2034 4750 
z
" transform="scale(0.015625)"/>
       </defs>
       <use xlink:href="#DejaVuSans-30"/>
      </g>
     </g>
    </g>
    <g id="xtick_2">
     <g id="line2d_2">
      <path d="M 268.206672 768.96 
L 268.206672 103.68 
" clip-path="url(#p4a2fbbea8a)" style="fill: none; stroke: #ffffff; stroke-linecap: round"/>
     </g>
     <g id="text_2">
      <!-- 250 -->
      <g style="fill: #262626" transform="translate(257.708547 786.818281) scale(0.11 -0.11)">
       <defs>
        <path id="DejaVuSans-32" d="M 1228 531 
L 3431 531 
L 3431 0 
L 469 0 
L 469 531 
Q 828 903 1448 1529 
Q 2069 2156 2228 2338 
Q 2531 2678 2651 2914 
Q 2772 3150 2772 3378 
Q 2772 3750 2511 3984 
Q 2250 4219 1831 4219 
Q 1534 4219 1204 4116 
Q 875 4013 500 3803 
L 500 4441 
Q 881 4594 1212 4672 
Q 1544 4750 1819 4750 
Q 2544 4750 2975 4387 
Q 3406 4025 3406 3419 
Q 3406 3131 3298 2873 
Q 3191 2616 2906 2266 
Q 2828 2175 2409 1742 
Q 1991 1309 1228 531 
z
" transform="scale(0.015625)"/>
        <path id="DejaVuSans-35" d="M 691 4666 
L 3169 4666 
L 3169 4134 
L 1269 4134 
L 1269 2991 
Q 1406 3038 1543 3061 
Q 1681 3084 1819 3084 
Q 2600 3084 3056 2656 
Q 3513 2228 3513 1497 
Q 3513 744 3044 326 
Q 2575 -91 1722 -91 
Q 1428 -91 1123 -41 
Q 819 9 494 109 
L 494 744 
Q 775 591 1075 516 
Q 1375 441 1709 441 
Q 2250 441 2565 725 
Q 2881 1009 2881 1497 
Q 2881 1984 2565 2268 
Q 2250 2553 1709 2553 
Q 1456 2553 1204 2497 
Q 953 2441 691 2322 
L 691 4666 
z
" transform="scale(0.015625)"/>
       </defs>
       <use xlink:href="#DejaVuSans-32"/>
       <use xlink:href="#DejaVuSans-35" x="63.623047"/>
       <use xlink:href="#DejaVuSans-30" x="127.246094"/>
      </g>
     </g>
    </g>
    <g id="xtick_3">
     <g id="line2d_3">
      <path d="M 363.367888 768.96 
L 363.367888 103.68 
" clip-path="url(#p4a2fbbea8a)" style="fill: none; stroke: #ffffff; stroke-linecap: round"/>
     </g>
     <g id="text_3">
      <!-- 500 -->
      <g style="fill: #262626" transform="translate(352.869763 786.818281) scale(0.11 -0.11)">
       <use xlink:href="#DejaVuSans-35"/>
       <use xlink:href="#DejaVuSans-30" x="63.623047"/>
       <use xlink:href="#DejaVuSans-30" x="127.246094"/>
      </g>
     </g>
    </g>
    <g id="xtick_4">
     <g id="line2d_4">
      <path d="M 458.529105 768.96 
L 458.529105 103.68 
" clip-path="url(#p4a2fbbea8a)" style="fill: none; stroke: #ffffff; stroke-linecap: round"/>
     </g>
     <g id="text_4">
      <!-- 750 -->
      <g style="fill: #262626" transform="translate(448.03098 786.818281) scale(0.11 -0.11)">
       <defs>
        <path id="DejaVuSans-37" d="M 525 4666 
L 3525 4666 
L 3525 4397 
L 1831 0 
L 1172 0 
L 2766 4134 
L 525 4134 
L 525 4666 
z
" transform="scale(0.015625)"/>
       </defs>
       <use xlink:href="#DejaVuSans-37"/>
       <use xlink:href="#DejaVuSans-35" x="63.623047"/>
       <use xlink:href="#DejaVuSans-30" x="127.246094"/>
      </g>
     </g>
    </g>
    <g id="xtick_5">
     <g id="line2d_5">
      <path d="M 553.690322 768.96 
L 553.690322 103.68 
" clip-path="url(#p4a2fbbea8a)" style="fill: none; stroke: #ffffff; stroke-linecap: round"/>
     </g>
     <g id="text_5">
      <!-- 1000 -->
      <g style="fill: #262626" transform="translate(539.692822 786.818281) scale(0.11 -0.11)">
       <defs>
        <path id="DejaVuSans-31" d="M 794 531 
L 1825 531 
L 1825 4091 
L 703 3866 
L 703 4441 
L 1819 4666 
L 2450 4666 
L 2450 531 
L 3481 531 
L 3481 0 
L 794 0 
L 794 531 
z
" transform="scale(0.015625)"/>
       </defs>
       <use xlink:href="#DejaVuSans-31"/>
       <use xlink:href="#DejaVuSans-30" x="63.623047"/>
       <use xlink:href="#DejaVuSans-30" x="127.246094"/>
       <use xlink:href="#DejaVuSans-30" x="190.869141"/>
      </g>
     </g>
    </g>
    <g id="xtick_6">
     <g id="line2d_6">
      <path d="M 648.851539 768.96 
L 648.851539 103.68 
" clip-path="url(#p4a2fbbea8a)" style="fill: none; stroke: #ffffff; stroke-linecap: round"/>
     </g>
     <g id="text_6">
      <!-- 1250 -->
      <g style="fill: #262626" transform="translate(634.854039 786.818281) scale(0.11 -0.11)">
       <use xlink:href="#DejaVuSans-31"/>
       <use xlink:href="#DejaVuSans-32" x="63.623047"/>
       <use xlink:href="#DejaVuSans-35" x="127.246094"/>
       <use xlink:href="#DejaVuSans-30" x="190.869141"/>
      </g>
     </g>
    </g>
    <g id="xtick_7">
     <g id="line2d_7">
      <path d="M 744.012756 768.96 
L 744.012756 103.68 
" clip-path="url(#p4a2fbbea8a)" style="fill: none; stroke: #ffffff; stroke-linecap: round"/>
     </g>
     <g id="text_7">
      <!-- 1500 -->
      <g style="fill: #262626" transform="translate(730.015256 786.818281) scale(0.11 -0.11)">
       <use xlink:href="#DejaVuSans-31"/>
       <use xlink:href="#DejaVuSans-35" x="63.623047"/>
       <use xlink:href="#DejaVuSans-30" x="127.246094"/>
       <use xlink:href="#DejaVuSans-30" x="190.869141"/>
      </g>
     </g>
    </g>
    <g id="xtick_8">
     <g id="line2d_8">
      <path d="M 839.173973 768.96 
L 839.173973 103.68 
" clip-path="url(#p4a2fbbea8a)" style="fill: none; stroke: #ffffff; stroke-linecap: round"/>
     </g>
     <g id="text_8">
      <!-- 1750 -->
      <g style="fill: #262626" transform="translate(825.176473 786.818281) scale(0.11 -0.11)">
       <use xlink:href="#DejaVuSans-31"/>
       <use xlink:href="#DejaVuSans-37" x="63.623047"/>
       <use xlink:href="#DejaVuSans-35" x="127.246094"/>
       <use xlink:href="#DejaVuSans-30" x="190.869141"/>
      </g>
     </g>
    </g>
    <g id="xtick_9">
     <g id="line2d_9">
      <path d="M 934.33519 768.96 
L 934.33519 103.68 
" clip-path="url(#p4a2fbbea8a)" style="fill: none; stroke: #ffffff; stroke-linecap: round"/>
     </g>
     <g id="text_9">
      <!-- 2000 -->
      <g style="fill: #262626" transform="translate(920.33769 786.818281) scale(0.11 -0.11)">
       <use xlink:href="#DejaVuSans-32"/>
       <use xlink:href="#DejaVuSans-30" x="63.623047"/>
       <use xlink:href="#DejaVuSans-30" x="127.246094"/>
       <use xlink:href="#DejaVuSans-30" x="190.869141"/>
      </g>
     </g>
    </g>
    <g id="text_10">
     <!-- frames -->
     <g style="fill: #262626" transform="translate(529.989375 802.224063) scale(0.12 -0.12)">
      <defs>
       <path id="DejaVuSans-Bold-66" d="M 2841 4863 
L 2841 4128 
L 2222 4128 
Q 1984 4128 1890 4042 
Q 1797 3956 1797 3744 
L 1797 3500 
L 2753 3500 
L 2753 2700 
L 1797 2700 
L 1797 0 
L 678 0 
L 678 2700 
L 122 2700 
L 122 3500 
L 678 3500 
L 678 3744 
Q 678 4316 997 4589 
Q 1316 4863 1984 4863 
L 2841 4863 
z
" transform="scale(0.015625)"/>
       <path id="DejaVuSans-Bold-72" d="M 3138 2547 
Q 2991 2616 2845 2648 
Q 2700 2681 2553 2681 
Q 2122 2681 1889 2404 
Q 1656 2128 1656 1613 
L 1656 0 
L 538 0 
L 538 3500 
L 1656 3500 
L 1656 2925 
Q 1872 3269 2151 3426 
Q 2431 3584 2822 3584 
Q 2878 3584 2943 3579 
Q 3009 3575 3134 3559 
L 3138 2547 
z
" transform="scale(0.015625)"/>
       <path id="DejaVuSans-Bold-61" d="M 2106 1575 
Q 1756 1575 1579 1456 
Q 1403 1338 1403 1106 
Q 1403 894 1545 773 
Q 1688 653 1941 653 
Q 2256 653 2472 879 
Q 2688 1106 2688 1447 
L 2688 1575 
L 2106 1575 
z
M 3816 1997 
L 3816 0 
L 2688 0 
L 2688 519 
Q 2463 200 2181 54 
Q 1900 -91 1497 -91 
Q 953 -91 614 226 
Q 275 544 275 1050 
Q 275 1666 698 1953 
Q 1122 2241 2028 2241 
L 2688 2241 
L 2688 2328 
Q 2688 2594 2478 2717 
Q 2269 2841 1825 2841 
Q 1466 2841 1156 2769 
Q 847 2697 581 2553 
L 581 3406 
Q 941 3494 1303 3539 
Q 1666 3584 2028 3584 
Q 2975 3584 3395 3211 
Q 3816 2838 3816 1997 
z
" transform="scale(0.015625)"/>
       <path id="DejaVuSans-Bold-6d" d="M 3781 2919 
Q 3994 3244 4286 3414 
Q 4578 3584 4928 3584 
Q 5531 3584 5847 3212 
Q 6163 2841 6163 2131 
L 6163 0 
L 5038 0 
L 5038 1825 
Q 5041 1866 5042 1909 
Q 5044 1953 5044 2034 
Q 5044 2406 4934 2573 
Q 4825 2741 4581 2741 
Q 4263 2741 4089 2478 
Q 3916 2216 3909 1719 
L 3909 0 
L 2784 0 
L 2784 1825 
Q 2784 2406 2684 2573 
Q 2584 2741 2328 2741 
Q 2006 2741 1831 2477 
Q 1656 2213 1656 1722 
L 1656 0 
L 531 0 
L 531 3500 
L 1656 3500 
L 1656 2988 
Q 1863 3284 2130 3434 
Q 2397 3584 2719 3584 
Q 3081 3584 3359 3409 
Q 3638 3234 3781 2919 
z
" transform="scale(0.015625)"/>
       <path id="DejaVuSans-Bold-65" d="M 4031 1759 
L 4031 1441 
L 1416 1441 
Q 1456 1047 1700 850 
Q 1944 653 2381 653 
Q 2734 653 3104 758 
Q 3475 863 3866 1075 
L 3866 213 
Q 3469 63 3072 -14 
Q 2675 -91 2278 -91 
Q 1328 -91 801 392 
Q 275 875 275 1747 
Q 275 2603 792 3093 
Q 1309 3584 2216 3584 
Q 3041 3584 3536 3087 
Q 4031 2591 4031 1759 
z
M 2881 2131 
Q 2881 2450 2695 2645 
Q 2509 2841 2209 2841 
Q 1884 2841 1681 2658 
Q 1478 2475 1428 2131 
L 2881 2131 
z
" transform="scale(0.015625)"/>
       <path id="DejaVuSans-Bold-73" d="M 3272 3391 
L 3272 2541 
Q 2913 2691 2578 2766 
Q 2244 2841 1947 2841 
Q 1628 2841 1473 2761 
Q 1319 2681 1319 2516 
Q 1319 2381 1436 2309 
Q 1553 2238 1856 2203 
L 2053 2175 
Q 2913 2066 3209 1816 
Q 3506 1566 3506 1031 
Q 3506 472 3093 190 
Q 2681 -91 1863 -91 
Q 1516 -91 1145 -36 
Q 775 19 384 128 
L 384 978 
Q 719 816 1070 734 
Q 1422 653 1784 653 
Q 2113 653 2278 743 
Q 2444 834 2444 1013 
Q 2444 1163 2330 1236 
Q 2216 1309 1875 1350 
L 1678 1375 
Q 931 1469 631 1722 
Q 331 1975 331 2491 
Q 331 3047 712 3315 
Q 1094 3584 1881 3584 
Q 2191 3584 2531 3537 
Q 2872 3491 3272 3391 
z
" transform="scale(0.015625)"/>
      </defs>
      <use xlink:href="#DejaVuSans-Bold-66"/>
      <use xlink:href="#DejaVuSans-Bold-72" x="43.505859"/>
      <use xlink:href="#DejaVuSans-Bold-61" x="92.822266"/>
      <use xlink:href="#DejaVuSans-Bold-6d" x="160.302734"/>
      <use xlink:href="#DejaVuSans-Bold-65" x="264.501953"/>
      <use xlink:href="#DejaVuSans-Bold-73" x="332.324219"/>
     </g>
    </g>
   </g>
   <g id="matplotlib.axis_2">
    <g id="ytick_1">
     <g id="line2d_10">
      <path d="M 135 738.72001 
L 972 738.72001 
" clip-path="url(#p4a2fbbea8a)" style="fill: none; stroke: #ffffff; stroke-linecap: round"/>
     </g>
     <g id="text_11">
      <!-- 0 -->
      <g style="fill: #262626" transform="translate(118.50125 742.89915) scale(0.11 -0.11)">
       <use xlink:href="#DejaVuSans-30"/>
      </g>
     </g>
    </g>
    <g id="ytick_2">
     <g id="line2d_11">
      <path d="M 135 651.047974 
L 972 651.047974 
" clip-path="url(#p4a2fbbea8a)" style="fill: none; stroke: #ffffff; stroke-linecap: round"/>
     </g>
     <g id="text_12">
      <!-- 2 -->
      <g style="fill: #262626" transform="translate(118.50125 655.227115) scale(0.11 -0.11)">
       <use xlink:href="#DejaVuSans-32"/>
      </g>
     </g>
    </g>
    <g id="ytick_3">
     <g id="line2d_12">
      <path d="M 135 563.375938 
L 972 563.375938 
" clip-path="url(#p4a2fbbea8a)" style="fill: none; stroke: #ffffff; stroke-linecap: round"/>
     </g>
     <g id="text_13">
      <!-- 4 -->
      <g style="fill: #262626" transform="translate(118.50125 567.555079) scale(0.11 -0.11)">
       <defs>
        <path id="DejaVuSans-34" d="M 2419 4116 
L 825 1625 
L 2419 1625 
L 2419 4116 
z
M 2253 4666 
L 3047 4666 
L 3047 1625 
L 3713 1625 
L 3713 1100 
L 3047 1100 
L 3047 0 
L 2419 0 
L 2419 1100 
L 313 1100 
L 313 1709 
L 2253 4666 
z
" transform="scale(0.015625)"/>
       </defs>
       <use xlink:href="#DejaVuSans-34"/>
      </g>
     </g>
    </g>
    <g id="ytick_4">
     <g id="line2d_13">
      <path d="M 135 475.703903 
L 972 475.703903 
" clip-path="url(#p4a2fbbea8a)" style="fill: none; stroke: #ffffff; stroke-linecap: round"/>
     </g>
     <g id="text_14">
      <!-- 6 -->
      <g style="fill: #262626" transform="translate(118.50125 479.883043) scale(0.11 -0.11)">
       <defs>
        <path id="DejaVuSans-36" d="M 2113 2584 
Q 1688 2584 1439 2293 
Q 1191 2003 1191 1497 
Q 1191 994 1439 701 
Q 1688 409 2113 409 
Q 2538 409 2786 701 
Q 3034 994 3034 1497 
Q 3034 2003 2786 2293 
Q 2538 2584 2113 2584 
z
M 3366 4563 
L 3366 3988 
Q 3128 4100 2886 4159 
Q 2644 4219 2406 4219 
Q 1781 4219 1451 3797 
Q 1122 3375 1075 2522 
Q 1259 2794 1537 2939 
Q 1816 3084 2150 3084 
Q 2853 3084 3261 2657 
Q 3669 2231 3669 1497 
Q 3669 778 3244 343 
Q 2819 -91 2113 -91 
Q 1303 -91 875 529 
Q 447 1150 447 2328 
Q 447 3434 972 4092 
Q 1497 4750 2381 4750 
Q 2619 4750 2861 4703 
Q 3103 4656 3366 4563 
z
" transform="scale(0.015625)"/>
       </defs>
       <use xlink:href="#DejaVuSans-36"/>
      </g>
     </g>
    </g>
    <g id="ytick_5">
     <g id="line2d_14">
      <path d="M 135 388.031867 
L 972 388.031867 
" clip-path="url(#p4a2fbbea8a)" style="fill: none; stroke: #ffffff; stroke-linecap: round"/>
     </g>
     <g id="text_15">
      <!-- 8 -->
      <g style="fill: #262626" transform="translate(118.50125 392.211008) scale(0.11 -0.11)">
       <defs>
        <path id="DejaVuSans-38" d="M 2034 2216 
Q 1584 2216 1326 1975 
Q 1069 1734 1069 1313 
Q 1069 891 1326 650 
Q 1584 409 2034 409 
Q 2484 409 2743 651 
Q 3003 894 3003 1313 
Q 3003 1734 2745 1975 
Q 2488 2216 2034 2216 
z
M 1403 2484 
Q 997 2584 770 2862 
Q 544 3141 544 3541 
Q 544 4100 942 4425 
Q 1341 4750 2034 4750 
Q 2731 4750 3128 4425 
Q 3525 4100 3525 3541 
Q 3525 3141 3298 2862 
Q 3072 2584 2669 2484 
Q 3125 2378 3379 2068 
Q 3634 1759 3634 1313 
Q 3634 634 3220 271 
Q 2806 -91 2034 -91 
Q 1263 -91 848 271 
Q 434 634 434 1313 
Q 434 1759 690 2068 
Q 947 2378 1403 2484 
z
M 1172 3481 
Q 1172 3119 1398 2916 
Q 1625 2713 2034 2713 
Q 2441 2713 2670 2916 
Q 2900 3119 2900 3481 
Q 2900 3844 2670 4047 
Q 2441 4250 2034 4250 
Q 1625 4250 1398 4047 
Q 1172 3844 1172 3481 
z
" transform="scale(0.015625)"/>
       </defs>
       <use xlink:href="#DejaVuSans-38"/>
      </g>
     </g>
    </g>
    <g id="ytick_6">
     <g id="line2d_15">
      <path d="M 135 300.359831 
L 972 300.359831 
" clip-path="url(#p4a2fbbea8a)" style="fill: none; stroke: #ffffff; stroke-linecap: round"/>
     </g>
     <g id="text_16">
      <!-- 10 -->
      <g style="fill: #262626" transform="translate(111.5025 304.538972) scale(0.11 -0.11)">
       <use xlink:href="#DejaVuSans-31"/>
       <use xlink:href="#DejaVuSans-30" x="63.623047"/>
      </g>
     </g>
    </g>
    <g id="ytick_7">
     <g id="line2d_16">
      <path d="M 135 212.687796 
L 972 212.687796 
" clip-path="url(#p4a2fbbea8a)" style="fill: none; stroke: #ffffff; stroke-linecap: round"/>
     </g>
     <g id="text_17">
      <!-- 12 -->
      <g style="fill: #262626" transform="translate(111.5025 216.866936) scale(0.11 -0.11)">
       <use xlink:href="#DejaVuSans-31"/>
       <use xlink:href="#DejaVuSans-32" x="63.623047"/>
      </g>
     </g>
    </g>
    <g id="ytick_8">
     <g id="line2d_17">
      <path d="M 135 125.01576 
L 972 125.01576 
" clip-path="url(#p4a2fbbea8a)" style="fill: none; stroke: #ffffff; stroke-linecap: round"/>
     </g>
     <g id="text_18">
      <!-- 14 -->
      <g style="fill: #262626" transform="translate(111.5025 129.194901) scale(0.11 -0.11)">
       <use xlink:href="#DejaVuSans-31"/>
       <use xlink:href="#DejaVuSans-34" x="63.623047"/>
      </g>
     </g>
    </g>
    <g id="text_19">
     <!-- RMSD (Å) -->
     <g style="fill: #262626" transform="translate(105.006875 468.429375) rotate(-90) scale(0.12 -0.12)">
      <defs>
       <path id="DejaVuSans-Bold-52" d="M 2297 2597 
Q 2675 2597 2839 2737 
Q 3003 2878 3003 3200 
Q 3003 3519 2839 3656 
Q 2675 3794 2297 3794 
L 1791 3794 
L 1791 2597 
L 2297 2597 
z
M 1791 1766 
L 1791 0 
L 588 0 
L 588 4666 
L 2425 4666 
Q 3347 4666 3776 4356 
Q 4206 4047 4206 3378 
Q 4206 2916 3982 2619 
Q 3759 2322 3309 2181 
Q 3556 2125 3751 1926 
Q 3947 1728 4147 1325 
L 4800 0 
L 3519 0 
L 2950 1159 
Q 2778 1509 2601 1637 
Q 2425 1766 2131 1766 
L 1791 1766 
z
" transform="scale(0.015625)"/>
       <path id="DejaVuSans-Bold-4d" d="M 588 4666 
L 2119 4666 
L 3181 2169 
L 4250 4666 
L 5778 4666 
L 5778 0 
L 4641 0 
L 4641 3413 
L 3566 897 
L 2803 897 
L 1728 3413 
L 1728 0 
L 588 0 
L 588 4666 
z
" transform="scale(0.015625)"/>
       <path id="DejaVuSans-Bold-53" d="M 3834 4519 
L 3834 3531 
Q 3450 3703 3084 3790 
Q 2719 3878 2394 3878 
Q 1963 3878 1756 3759 
Q 1550 3641 1550 3391 
Q 1550 3203 1689 3098 
Q 1828 2994 2194 2919 
L 2706 2816 
Q 3484 2659 3812 2340 
Q 4141 2022 4141 1434 
Q 4141 663 3683 286 
Q 3225 -91 2284 -91 
Q 1841 -91 1394 -6 
Q 947 78 500 244 
L 500 1259 
Q 947 1022 1364 901 
Q 1781 781 2169 781 
Q 2563 781 2772 912 
Q 2981 1044 2981 1288 
Q 2981 1506 2839 1625 
Q 2697 1744 2272 1838 
L 1806 1941 
Q 1106 2091 782 2419 
Q 459 2747 459 3303 
Q 459 4000 909 4375 
Q 1359 4750 2203 4750 
Q 2588 4750 2994 4692 
Q 3400 4634 3834 4519 
z
" transform="scale(0.015625)"/>
       <path id="DejaVuSans-Bold-44" d="M 1791 3756 
L 1791 909 
L 2222 909 
Q 2959 909 3348 1275 
Q 3738 1641 3738 2338 
Q 3738 3031 3350 3393 
Q 2963 3756 2222 3756 
L 1791 3756 
z
M 588 4666 
L 1856 4666 
Q 2919 4666 3439 4514 
Q 3959 4363 4331 4000 
Q 4659 3684 4818 3271 
Q 4978 2859 4978 2338 
Q 4978 1809 4818 1395 
Q 4659 981 4331 666 
Q 3956 303 3431 151 
Q 2906 0 1856 0 
L 588 0 
L 588 4666 
z
" transform="scale(0.015625)"/>
       <path id="DejaVuSans-Bold-20" transform="scale(0.015625)"/>
       <path id="DejaVuSans-Bold-28" d="M 2413 -844 
L 1484 -844 
Q 1006 -72 778 623 
Q 550 1319 550 2003 
Q 550 2688 779 3389 
Q 1009 4091 1484 4856 
L 2413 4856 
Q 2013 4116 1813 3408 
Q 1613 2700 1613 2009 
Q 1613 1319 1811 609 
Q 2009 -100 2413 -844 
z
" transform="scale(0.015625)"/>
       <path id="DejaVuSans-Bold-212b" d="M 3225 4575 
L 4922 0 
L 3713 0 
L 3419 850 
L 1538 850 
L 1241 0 
L 31 0 
L 1728 4575 
Q 1656 4681 1622 4798 
Q 1588 4916 1588 5050 
Q 1588 5416 1848 5678 
Q 2109 5941 2478 5941 
Q 2841 5941 3103 5678 
Q 3366 5416 3366 5050 
Q 3366 4903 3331 4784 
Q 3297 4666 3225 4575 
z
M 2069 5050 
Q 2069 4881 2189 4761 
Q 2309 4641 2478 4641 
Q 2647 4641 2767 4761 
Q 2888 4881 2888 5050 
Q 2888 5219 2766 5339 
Q 2644 5459 2478 5459 
Q 2309 5459 2189 5339 
Q 2069 5219 2069 5050 
z
M 1838 1716 
L 3116 1716 
L 2478 3572 
L 1838 1716 
z
" transform="scale(0.015625)"/>
       <path id="DejaVuSans-Bold-29" d="M 513 -844 
Q 913 -100 1113 609 
Q 1313 1319 1313 2009 
Q 1313 2700 1113 3408 
Q 913 4116 513 4856 
L 1441 4856 
Q 1916 4091 2145 3389 
Q 2375 2688 2375 2003 
Q 2375 1319 2147 623 
Q 1919 -72 1441 -844 
L 513 -844 
z
" transform="scale(0.015625)"/>
      </defs>
      <use xlink:href="#DejaVuSans-Bold-52"/>
      <use xlink:href="#DejaVuSans-Bold-4d" x="77.001953"/>
      <use xlink:href="#DejaVuSans-Bold-53" x="176.513672"/>
      <use xlink:href="#DejaVuSans-Bold-44" x="248.535156"/>
      <use xlink:href="#DejaVuSans-Bold-20" x="331.542969"/>
      <use xlink:href="#DejaVuSans-Bold-28" x="366.357422"/>
      <use xlink:href="#DejaVuSans-Bold-212b" x="412.060547"/>
      <use xlink:href="#DejaVuSans-Bold-29" x="489.453125"/>
     </g>
    </g>
   </g>
   <g id="PolyCollection_1"/>
   <g id="line2d_18">
    <path d="M 173.045455 738.72 
L 173.426099 689.21564 
L 173.806744 664.836767 
L 174.187389 652.09656 
L 174.568034 644.140934 
L 174.948679 639.015865 
L 175.329324 629.783491 
L 175.709969 610.508621 
L 176.090613 599.03707 
L 176.471258 593.498245 
L 177.613193 561.621802 
L 177.993838 563.526259 
L 178.374483 558.803575 
L 178.755128 562.705757 
L 179.135772 558.640782 
L 179.516417 548.059664 
L 179.897062 528.948281 
L 180.277707 516.265727 
L 181.419642 497.028936 
L 181.800287 496.243614 
L 182.180931 488.030052 
L 182.561576 476.797416 
L 182.942221 472.032964 
L 183.322866 464.355597 
L 184.084156 438.393303 
L 184.464801 439.79083 
L 184.845445 448.851019 
L 185.22609 449.260236 
L 185.606735 447.586947 
L 185.98738 447.689361 
L 186.368025 445.999492 
L 186.74867 446.956168 
L 187.129315 438.931324 
L 187.50996 436.650644 
L 187.890604 438.143743 
L 188.271249 440.865146 
L 188.651894 447.307188 
L 189.032539 456.713672 
L 189.413184 462.567967 
L 189.793829 464.034349 
L 190.174474 465.03081 
L 191.316408 450.87256 
L 191.697053 450.87892 
L 192.077698 452.110858 
L 192.458343 449.220712 
L 192.838988 440.189368 
L 193.600277 428.513576 
L 193.980922 427.798465 
L 194.742212 414.886663 
L 195.122857 420.532886 
L 195.503502 419.482045 
L 195.884147 416.402289 
L 196.264791 419.297486 
L 196.645436 420.429687 
L 197.026081 418.135171 
L 197.406726 417.084379 
L 197.787371 414.000625 
L 198.168016 417.884166 
L 198.548661 418.238115 
L 199.30995 405.865557 
L 199.690595 413.081494 
L 200.07124 404.355231 
L 200.451885 402.891366 
L 200.83253 400.984387 
L 201.59382 394.44357 
L 201.974465 392.298022 
L 202.355109 395.841969 
L 202.735754 389.635192 
L 203.116399 380.495221 
L 203.497044 384.967314 
L 203.877689 403.078926 
L 204.258334 411.471809 
L 205.019623 420.277443 
L 205.400268 418.866963 
L 205.780913 413.147602 
L 206.161558 405.446128 
L 207.684138 433.087616 
L 208.064782 431.550223 
L 208.445427 434.060506 
L 208.826072 433.610492 
L 209.206717 427.755482 
L 209.587362 424.452513 
L 209.968007 429.384721 
L 210.348652 439.958596 
L 210.729296 456.674624 
L 211.109941 465.294014 
L 211.490586 469.501286 
L 211.871231 471.736947 
L 212.251876 475.366841 
L 212.632521 490.206129 
L 213.013166 483.864458 
L 213.393811 472.869002 
L 213.774455 476.008632 
L 214.1551 469.755798 
L 214.535745 469.974594 
L 215.67768 454.625671 
L 216.058325 454.786019 
L 216.438969 450.454365 
L 216.819614 444.332809 
L 217.200259 444.495311 
L 217.580904 448.430208 
L 217.961549 447.56593 
L 218.342194 442.645936 
L 219.103484 436.670521 
L 219.864773 443.554308 
L 220.245418 455.284008 
L 220.626063 449.08586 
L 221.006708 449.176175 
L 221.387353 455.492663 
L 221.767998 457.565429 
L 222.148643 457.087036 
L 222.529287 457.735022 
L 222.909932 452.504996 
L 223.290577 449.975288 
L 223.671222 450.579126 
L 224.051867 452.076036 
L 224.813157 469.126797 
L 225.193801 465.016805 
L 225.574446 459.259327 
L 225.955091 451.730844 
L 226.335736 450.321416 
L 226.716381 455.670652 
L 227.097026 456.280069 
L 227.477671 449.139556 
L 227.858316 453.223405 
L 228.23896 459.686346 
L 228.619605 463.560448 
L 229.00025 463.69396 
L 229.380895 466.467781 
L 229.76154 475.052284 
L 230.142185 478.801932 
L 230.52283 488.291161 
L 230.903474 480.712537 
L 231.284119 479.009545 
L 231.664764 478.325072 
L 232.045409 475.12026 
L 233.187344 451.99828 
L 233.948633 458.201809 
L 234.329278 457.52786 
L 234.709923 454.567998 
L 235.090568 447.162484 
L 235.471213 449.890148 
L 235.851858 456.267843 
L 236.232503 474.421969 
L 236.613147 486.942888 
L 236.993792 489.996055 
L 237.374437 486.561525 
L 237.755082 486.274875 
L 238.135727 492.331791 
L 238.516372 492.252625 
L 239.277662 499.260293 
L 240.038951 481.917526 
L 240.419596 477.82916 
L 240.800241 479.449572 
L 241.180886 479.984346 
L 241.561531 475.027129 
L 242.322821 459.152513 
L 242.703465 461.560698 
L 243.08411 465.307679 
L 243.464755 473.549687 
L 244.60669 484.405334 
L 244.987335 478.991842 
L 245.367979 466.276921 
L 245.748624 461.445873 
L 246.129269 461.4592 
L 246.509914 461.758959 
L 246.890559 465.721963 
L 247.271204 465.425085 
L 247.651849 461.76507 
L 248.032494 455.661007 
L 248.413138 451.774085 
L 248.793783 443.596697 
L 249.174428 443.563262 
L 249.555073 447.038897 
L 249.935718 448.256095 
L 250.316363 441.051604 
L 250.697008 439.81062 
L 251.077652 441.610094 
L 251.458297 440.307321 
L 251.838942 436.527322 
L 252.219587 435.448429 
L 252.600232 433.94839 
L 252.980877 433.347264 
L 253.361522 425.899653 
L 253.742167 415.080841 
L 254.122811 409.486787 
L 254.503456 406.459109 
L 254.884101 410.382365 
L 255.264746 412.810724 
L 255.645391 420.812234 
L 256.026036 418.828748 
L 256.406681 408.896092 
L 256.787325 403.671263 
L 257.16797 410.248746 
L 257.548615 410.335517 
L 257.92926 408.466731 
L 258.309905 403.925736 
L 258.69055 397.452317 
L 259.071195 398.729963 
L 260.593774 363.948773 
L 260.974419 362.679584 
L 261.355064 351.322247 
L 261.735709 334.131499 
L 262.116354 334.231943 
L 262.496998 326.776536 
L 262.877643 326.993242 
L 263.258288 331.211049 
L 263.638933 330.857038 
L 264.019578 333.072962 
L 264.400223 339.981401 
L 264.780868 333.372176 
L 265.161513 332.74899 
L 265.542157 324.439709 
L 265.922802 327.651487 
L 266.303447 326.479038 
L 266.684092 320.618109 
L 267.064737 320.121289 
L 267.445382 315.974496 
L 267.826027 322.175379 
L 268.206672 332.954755 
L 268.587316 324.40758 
L 268.967961 324.350468 
L 269.348606 320.550256 
L 269.729251 325.275271 
L 270.109896 327.825242 
L 270.490541 334.838541 
L 270.871186 335.137071 
L 271.25183 333.63795 
L 271.632475 336.006296 
L 272.01312 336.189455 
L 272.393765 331.843519 
L 272.77441 333.204853 
L 273.5357 318.112872 
L 273.916345 302.039274 
L 274.296989 301.694242 
L 274.677634 303.119472 
L 275.438924 327.02809 
L 276.200214 306.298851 
L 276.580859 299.443936 
L 276.961503 290.009794 
L 277.342148 283.775454 
L 277.722793 271.951906 
L 278.103438 265.802627 
L 278.484083 263.805234 
L 278.864728 265.719735 
L 279.245373 256.245529 
L 279.626018 250.67097 
L 280.006662 249.983131 
L 280.387307 250.683972 
L 280.767952 248.297442 
L 281.148597 246.690876 
L 281.529242 237.7854 
L 281.909887 244.554125 
L 283.051821 279.95563 
L 283.813111 289.219407 
L 284.193756 292.647102 
L 284.574401 286.235763 
L 284.955046 286.253837 
L 285.335691 282.998113 
L 286.09698 270.352457 
L 286.477625 273.775761 
L 287.61956 291.027642 
L 288.000205 288.938674 
L 288.38085 291.060792 
L 288.761494 286.495746 
L 289.142139 291.944236 
L 289.522784 299.502296 
L 289.903429 315.057801 
L 290.284074 336.363581 
L 291.045364 339.087984 
L 291.426008 345.227698 
L 291.806653 348.721114 
L 292.567943 368.452225 
L 292.948588 368.613637 
L 293.709878 363.223747 
L 294.090523 352.950048 
L 294.471167 352.788315 
L 294.851812 363.35857 
L 295.232457 364.156745 
L 295.613102 361.95549 
L 295.993747 354.118068 
L 296.374392 349.508065 
L 296.755037 359.307749 
L 297.135681 364.105777 
L 297.516326 364.634784 
L 297.896971 361.431671 
L 298.277616 356.26962 
L 298.658261 354.539263 
L 299.038906 364.71841 
L 299.800196 376.928191 
L 300.18084 375.498966 
L 300.94213 366.022501 
L 301.322775 353.127421 
L 301.70342 345.318083 
L 302.084065 342.385671 
L 302.845354 353.463265 
L 303.225999 351.346276 
L 303.606644 350.710026 
L 303.987289 351.061816 
L 304.367934 354.538297 
L 304.748579 353.967662 
L 305.129224 352.668564 
L 305.509869 359.871752 
L 305.890513 363.032291 
L 306.271158 360.539275 
L 306.651803 356.267719 
L 307.032448 345.110609 
L 307.413093 341.484344 
L 308.174383 327.666342 
L 308.555028 321.965073 
L 308.935672 319.160432 
L 309.316317 313.872589 
L 309.696962 315.74735 
L 310.077607 321.232159 
L 310.458252 317.380932 
L 310.838897 322.086493 
L 311.219542 309.575592 
L 311.600186 305.638597 
L 311.980831 302.993887 
L 312.361476 308.571579 
L 312.742121 315.968603 
L 313.122766 310.566612 
L 313.884056 312.135479 
L 314.645345 305.707236 
L 315.02599 297.938793 
L 315.406635 298.37004 
L 315.78728 292.663669 
L 316.167925 294.656579 
L 316.54857 290.661636 
L 316.929215 276.001799 
L 317.309859 269.715919 
L 317.690504 268.702198 
L 318.071149 269.34923 
L 318.451794 264.089673 
L 318.832439 262.219379 
L 319.974374 235.815294 
L 321.116308 224.991781 
L 321.496953 224.095125 
L 321.877598 222.71619 
L 322.258243 215.873211 
L 322.638888 200.616474 
L 323.019532 191.614917 
L 323.400177 186.874925 
L 323.780822 190.817764 
L 324.161467 175.038519 
L 325.303402 146.576688 
L 325.684047 150.954458 
L 326.445336 133.92 
L 326.825981 134.327488 
L 327.206626 142.214653 
L 327.587271 152.484469 
L 327.967916 166.692519 
L 328.348561 176.011826 
L 328.729206 182.032001 
L 329.10985 181.76042 
L 329.490495 189.735361 
L 329.87114 192.015948 
L 330.251785 187.134528 
L 330.63243 186.455357 
L 331.013075 189.790963 
L 331.39372 194.254812 
L 331.774364 193.561132 
L 332.155009 193.431312 
L 332.535654 185.666954 
L 332.916299 185.165185 
L 333.677589 166.754696 
L 334.438879 154.350355 
L 334.819523 152.454683 
L 335.200168 139.09182 
L 335.580813 136.784564 
L 335.961458 151.774574 
L 336.342103 155.129769 
L 336.722748 161.224857 
L 337.103393 160.236655 
L 337.484037 172.443087 
L 337.864682 176.171166 
L 338.245327 176.332694 
L 338.625972 185.295918 
L 339.006617 181.385891 
L 339.387262 180.995717 
L 339.767907 170.451039 
L 340.148552 165.716533 
L 340.529196 164.423879 
L 340.909841 159.631116 
L 341.290486 159.652625 
L 341.671131 161.054252 
L 342.051776 154.485261 
L 342.432421 152.285746 
L 342.813066 156.417188 
L 343.574355 194.767492 
L 343.955 196.206243 
L 344.335645 200.133437 
L 345.096935 215.790411 
L 345.858225 238.441568 
L 346.238869 238.300373 
L 346.619514 231.403819 
L 347.000159 230.397449 
L 347.380804 220.222959 
L 348.142094 212.166282 
L 348.522739 213.167358 
L 348.903384 201.205224 
L 349.284028 199.640267 
L 349.664673 199.160662 
L 350.045318 200.720923 
L 350.425963 205.875288 
L 351.187253 228.696154 
L 351.948542 236.078134 
L 352.329187 235.694024 
L 353.090477 246.10274 
L 353.471122 237.95621 
L 353.851767 221.615381 
L 354.232412 215.988717 
L 354.613057 226.836351 
L 354.993701 231.327984 
L 355.374346 230.509799 
L 356.135636 212.142199 
L 356.516281 218.700086 
L 356.896926 231.750913 
L 357.277571 236.834591 
L 357.658215 235.236146 
L 358.03886 231.484554 
L 359.56144 251.932296 
L 359.942085 251.311876 
L 360.32273 255.337772 
L 360.703374 263.465129 
L 361.084019 276.126984 
L 361.464664 269.382305 
L 361.845309 264.789974 
L 362.225954 266.961779 
L 362.987244 278.54135 
L 363.367888 275.165262 
L 363.748533 285.138259 
L 364.129178 289.937692 
L 364.509823 288.289002 
L 364.890468 287.917874 
L 365.271113 286.15132 
L 365.651758 293.210523 
L 366.032403 292.315893 
L 367.174337 305.111047 
L 367.554982 312.413778 
L 367.935627 316.733343 
L 368.316272 310.623055 
L 369.077562 314.199937 
L 369.458206 328.700534 
L 369.838851 331.088877 
L 370.219496 329.271534 
L 370.600141 335.556985 
L 371.361431 355.216748 
L 371.742076 359.883583 
L 372.12272 368.437922 
L 372.503365 380.665693 
L 372.88401 384.777212 
L 373.264655 382.51787 
L 373.6453 381.069789 
L 374.025945 377.619909 
L 374.787235 379.015748 
L 375.167879 384.00548 
L 375.548524 382.674419 
L 375.929169 387.593935 
L 376.690459 369.26861 
L 377.071104 358.429394 
L 377.451749 354.054373 
L 378.213038 339.696927 
L 378.593683 340.707508 
L 378.974328 347.260084 
L 379.354973 361.245286 
L 379.735618 370.529045 
L 380.116263 367.789872 
L 380.496908 366.177172 
L 380.877552 367.186536 
L 381.258197 366.268636 
L 381.638842 366.383336 
L 382.400132 374.148925 
L 382.780777 367.474565 
L 383.161422 356.449764 
L 383.542066 354.799725 
L 383.922711 360.888077 
L 384.303356 348.031033 
L 384.684001 346.53006 
L 385.064646 340.943649 
L 385.445291 339.008812 
L 385.825936 345.626557 
L 386.206581 345.099685 
L 386.587225 352.944298 
L 386.96787 350.270813 
L 387.348515 332.141634 
L 387.72916 323.694309 
L 388.49045 323.984035 
L 388.871095 320.972122 
L 389.25174 313.421065 
L 389.632384 308.611469 
L 391.154964 333.136208 
L 391.916254 350.200112 
L 392.296898 344.383203 
L 392.677543 341.604994 
L 393.058188 334.337543 
L 393.438833 338.161067 
L 393.819478 340.829154 
L 394.200123 345.695737 
L 394.580768 346.27882 
L 394.961413 345.47245 
L 395.342057 353.572997 
L 395.722702 357.740576 
L 396.483992 343.227281 
L 396.864637 345.145582 
L 397.625927 370.110685 
L 398.006571 375.359211 
L 398.387216 370.873439 
L 399.148506 387.310759 
L 399.529151 387.888155 
L 399.909796 378.290629 
L 400.290441 381.492848 
L 400.671086 381.026848 
L 401.432375 361.828317 
L 401.81302 365.836285 
L 402.193665 355.824343 
L 402.57431 353.28454 
L 402.954955 355.115486 
L 403.3356 352.420294 
L 404.096889 338.037411 
L 404.477534 330.974003 
L 405.238824 341.257357 
L 405.619469 344.481968 
L 406.000114 353.443132 
L 406.380759 351.133264 
L 406.761403 354.426401 
L 407.142048 350.651808 
L 407.522693 338.51387 
L 407.903338 332.349304 
L 408.283983 330.092072 
L 408.664628 329.974934 
L 409.425918 327.126631 
L 409.806562 325.383895 
L 410.187207 327.768115 
L 410.567852 325.244713 
L 410.948497 333.315205 
L 411.329142 338.507635 
L 411.709787 341.701688 
L 412.851721 365.76231 
L 413.232366 381.250456 
L 413.613011 389.576097 
L 413.993656 383.553184 
L 414.374301 381.907684 
L 414.754946 382.700938 
L 415.89688 376.411777 
L 416.277525 381.213618 
L 416.65817 376.246796 
L 417.038815 378.11553 
L 417.41946 376.160589 
L 417.800105 375.987327 
L 418.180749 369.252753 
L 418.561394 346.835903 
L 419.322684 317.785199 
L 419.703329 322.885368 
L 420.083974 321.439496 
L 420.464619 316.532685 
L 420.845264 317.439512 
L 421.225908 317.64208 
L 421.606553 319.989622 
L 421.987198 315.221159 
L 422.367843 299.380061 
L 422.748488 299.009861 
L 423.129133 301.89324 
L 423.509778 293.16204 
L 423.890422 287.97075 
L 424.271067 291.501991 
L 424.651712 300.805743 
L 425.032357 305.318318 
L 425.413002 296.502473 
L 425.793647 297.351324 
L 426.174292 296.912008 
L 426.554937 303.724999 
L 426.935581 306.421531 
L 427.316226 307.725943 
L 428.077516 289.475202 
L 428.458161 285.476788 
L 429.600096 254.367691 
L 429.98074 251.625744 
L 430.74203 249.104181 
L 431.122675 258.710855 
L 431.50332 252.864523 
L 432.26461 245.031982 
L 432.645254 243.768668 
L 433.025899 248.744064 
L 433.406544 245.538628 
L 434.167834 224.657841 
L 434.548479 224.413218 
L 434.929124 219.460376 
L 435.309769 221.047712 
L 435.690413 216.91139 
L 436.071058 216.320321 
L 436.451703 212.548881 
L 436.832348 204.142805 
L 437.212993 205.670254 
L 437.974283 212.233031 
L 438.354927 224.651509 
L 438.735572 228.641541 
L 439.116217 226.383314 
L 439.496862 226.859428 
L 439.877507 228.202032 
L 440.258152 231.729679 
L 440.638797 240.734129 
L 441.019442 246.643911 
L 441.780731 251.836401 
L 442.161376 239.277582 
L 442.542021 232.532203 
L 442.922666 230.858837 
L 443.303311 233.24935 
L 444.0646 250.782532 
L 444.445245 256.482441 
L 444.82589 245.872174 
L 445.58718 237.493438 
L 445.967825 234.996809 
L 446.34847 235.729906 
L 447.109759 227.318529 
L 447.871049 202.513207 
L 448.251694 200.512191 
L 449.012984 229.053914 
L 449.393629 233.781414 
L 449.774274 234.125918 
L 450.154918 239.568591 
L 450.535563 237.725593 
L 450.916208 245.659313 
L 451.296853 241.657965 
L 451.677498 241.549347 
L 452.058143 250.882149 
L 452.438788 253.754954 
L 452.819432 262.778159 
L 453.200077 269.032179 
L 453.580722 267.150389 
L 453.961367 252.169898 
L 454.342012 244.883463 
L 454.722657 248.517632 
L 455.103302 257.233686 
L 455.483947 262.358909 
L 455.864591 265.121455 
L 456.245236 263.381295 
L 456.625881 263.68711 
L 457.387171 283.52362 
L 457.767816 294.578795 
L 458.148461 313.697806 
L 458.90975 328.840854 
L 459.290395 338.032059 
L 460.051685 352.200177 
L 460.43233 350.595886 
L 461.19362 335.657563 
L 461.574264 335.468365 
L 461.954909 337.512813 
L 462.335554 336.622007 
L 462.716199 331.28597 
L 463.096844 329.463269 
L 463.477489 323.515442 
L 463.858134 326.9925 
L 464.238778 326.482746 
L 464.619423 322.507607 
L 465.000068 312.550922 
L 465.380713 318.198453 
L 465.761358 326.297832 
L 466.522648 332.874782 
L 466.903293 340.014114 
L 467.283937 351.328007 
L 467.664582 351.286779 
L 468.045227 353.249112 
L 468.425872 352.747028 
L 469.187162 343.502689 
L 469.567807 335.649174 
L 469.948451 316.59812 
L 470.709741 298.438436 
L 471.090386 295.969035 
L 471.471031 303.350089 
L 471.851676 298.699028 
L 472.232321 289.539026 
L 472.612966 294.997741 
L 472.99361 292.648204 
L 473.374255 294.954632 
L 473.7549 299.53041 
L 474.135545 309.722463 
L 474.51619 316.70591 
L 475.27748 307.671365 
L 475.658125 288.124939 
L 476.038769 276.753106 
L 476.419414 272.87631 
L 476.800059 264.159829 
L 477.180704 264.637732 
L 477.561349 263.087365 
L 477.941994 270.06366 
L 478.322639 269.439565 
L 478.703283 255.374153 
L 479.464573 261.43459 
L 479.845218 267.069971 
L 480.225863 268.189023 
L 480.606508 271.698451 
L 480.987153 277.492389 
L 481.748442 275.875571 
L 482.509732 256.268702 
L 482.890377 254.773649 
L 483.271022 244.080928 
L 483.651667 240.739235 
L 484.032312 238.481129 
L 484.412956 245.096814 
L 484.793601 245.387451 
L 485.554891 227.241689 
L 486.316181 214.09477 
L 486.696826 208.639647 
L 487.458115 224.381169 
L 488.60005 204.014449 
L 488.980695 204.887539 
L 489.36134 202.824665 
L 490.122629 212.111299 
L 490.883919 225.951791 
L 491.264564 229.077765 
L 491.645209 233.526427 
L 492.025854 241.863866 
L 492.406499 242.428836 
L 493.167788 231.489985 
L 493.548433 240.963109 
L 493.929078 240.200197 
L 494.309723 235.653327 
L 494.690368 232.86212 
L 495.071013 228.30872 
L 495.451658 232.256246 
L 495.832303 239.455966 
L 496.212947 248.821228 
L 496.593592 248.618174 
L 496.974237 249.545114 
L 497.354882 248.472094 
L 497.735527 236.605744 
L 498.116172 234.215564 
L 498.877461 243.161411 
L 499.258106 235.501693 
L 499.638751 225.094059 
L 500.019396 226.624136 
L 500.400041 228.887102 
L 500.780686 234.277476 
L 501.161331 242.463308 
L 501.541976 240.717581 
L 501.92262 241.039147 
L 502.68391 260.966646 
L 503.064555 260.119794 
L 503.4452 254.787057 
L 503.825845 256.261954 
L 504.20649 259.287532 
L 504.587134 258.440438 
L 504.967779 257.935319 
L 505.729069 271.678083 
L 506.109714 269.286034 
L 506.490359 269.80209 
L 506.871004 278.051813 
L 507.632293 307.832075 
L 508.012938 317.906306 
L 508.393583 322.970855 
L 508.774228 320.578692 
L 509.154873 329.452856 
L 509.916163 355.607997 
L 510.677452 374.904736 
L 511.058097 377.398577 
L 511.438742 372.188747 
L 511.819387 354.169751 
L 512.200032 346.479226 
L 512.580677 350.898347 
L 512.961322 345.743254 
L 513.341966 347.487563 
L 513.722611 348.677377 
L 514.103256 351.106548 
L 514.864546 335.218473 
L 515.245191 329.523325 
L 515.625836 326.333925 
L 516.387125 310.597974 
L 516.76777 313.56812 
L 517.148415 314.079819 
L 517.52906 305.856167 
L 517.909705 294.251595 
L 518.29035 294.039188 
L 518.670995 298.998361 
L 519.051639 300.447449 
L 519.812929 279.924101 
L 520.574219 268.540361 
L 520.954864 257.911459 
L 521.335509 251.008737 
L 521.716154 257.261412 
L 522.096798 258.934993 
L 522.477443 255.551189 
L 522.858088 260.297361 
L 523.238733 267.3917 
L 523.619378 265.778605 
L 524.000023 266.510134 
L 524.380668 264.371699 
L 524.761312 271.406411 
L 525.141957 274.822708 
L 525.522602 275.992499 
L 525.903247 270.970133 
L 526.283892 277.848555 
L 526.664537 280.816305 
L 527.425827 304.260803 
L 527.806471 305.035489 
L 528.187116 310.480236 
L 528.567761 302.52319 
L 528.948406 296.923631 
L 529.329051 300.304058 
L 529.709696 305.977914 
L 530.090341 313.594579 
L 530.470985 318.579057 
L 530.85163 325.089076 
L 531.993565 354.615346 
L 532.37421 353.830616 
L 532.754855 355.429729 
L 533.1355 352.207706 
L 533.516144 352.742408 
L 533.896789 349.978721 
L 534.277434 352.377763 
L 534.658079 352.483263 
L 535.038724 359.624212 
L 535.419369 373.021191 
L 536.561303 350.04148 
L 536.941948 346.498845 
L 537.322593 347.859629 
L 537.703238 339.791491 
L 538.083883 337.211516 
L 538.464528 329.90192 
L 538.845173 328.018487 
L 539.225817 334.695497 
L 539.606462 338.649143 
L 540.748397 314.136711 
L 541.509687 312.658746 
L 541.890332 318.449684 
L 542.270976 328.618423 
L 542.651621 329.156787 
L 543.032266 334.658661 
L 543.412911 345.648975 
L 543.793556 344.402929 
L 544.174201 344.001123 
L 544.554846 328.758741 
L 545.316135 330.313912 
L 545.69678 341.961403 
L 546.077425 347.891948 
L 546.45807 341.650094 
L 547.21936 332.880093 
L 547.600005 331.684701 
L 547.980649 331.7958 
L 548.741939 317.881783 
L 549.122584 316.300926 
L 549.503229 303.455516 
L 549.883874 296.235926 
L 550.264519 303.394282 
L 550.645163 306.260306 
L 551.025808 302.094435 
L 551.406453 307.120335 
L 551.787098 318.859924 
L 552.167743 316.132852 
L 552.548388 310.687972 
L 552.929033 310.916257 
L 553.309678 307.916045 
L 553.690322 306.179488 
L 554.070967 301.149688 
L 554.451612 294.566255 
L 554.832257 294.342486 
L 555.593547 292.90095 
L 556.354837 290.736957 
L 556.735481 289.783653 
L 557.116126 295.700677 
L 557.496771 298.174812 
L 557.877416 310.445902 
L 558.258061 309.395514 
L 558.638706 306.98076 
L 559.019351 299.013387 
L 559.399995 302.934444 
L 559.78064 302.976858 
L 560.161285 303.450241 
L 560.54193 299.759221 
L 560.922575 303.920254 
L 561.30322 300.529655 
L 561.683865 295.054454 
L 562.06451 298.262214 
L 562.445154 304.113843 
L 562.825799 306.821328 
L 563.206444 301.642119 
L 563.587089 301.015181 
L 563.967734 303.84869 
L 564.348379 307.63048 
L 564.729024 307.105969 
L 565.109668 307.865275 
L 565.870958 300.773054 
L 566.251603 286.633432 
L 566.632248 283.882674 
L 567.012893 286.914838 
L 567.393538 286.87097 
L 567.774183 274.456198 
L 568.154827 274.049645 
L 568.535472 270.295263 
L 568.916117 259.853035 
L 569.296762 257.958897 
L 569.677407 263.206553 
L 570.058052 270.847955 
L 570.438697 269.49681 
L 570.819341 260.51564 
L 571.199986 261.235191 
L 571.580631 266.40302 
L 571.961276 264.364045 
L 572.341921 267.911455 
L 572.722566 273.35318 
L 573.103211 270.952691 
L 573.483856 269.263251 
L 573.8645 272.219213 
L 574.245145 272.901615 
L 574.62579 273.841263 
L 575.006435 272.069302 
L 575.38708 271.820368 
L 575.767725 268.133176 
L 576.14837 269.167362 
L 576.909659 298.433858 
L 577.290304 306.064665 
L 577.670949 307.913876 
L 578.051594 308.181975 
L 578.432239 318.400962 
L 578.812884 325.066466 
L 579.574173 329.557393 
L 580.335463 303.473207 
L 580.716108 289.869912 
L 581.096753 280.920301 
L 581.477398 276.736095 
L 581.858043 276.349692 
L 582.238688 277.739311 
L 582.619332 282.256583 
L 583.380622 270.154626 
L 583.761267 268.815525 
L 584.141912 270.228086 
L 584.522557 272.304267 
L 585.283846 283.271941 
L 585.664491 281.068082 
L 586.425781 255.727429 
L 586.806426 259.10644 
L 587.187071 261.397618 
L 587.567716 253.278541 
L 587.948361 257.18636 
L 588.329005 267.909806 
L 588.70965 259.281747 
L 589.090295 257.947553 
L 589.47094 260.243873 
L 589.851585 266.396181 
L 590.23223 275.780908 
L 590.612875 279.223943 
L 590.993519 276.659549 
L 591.754809 286.871125 
L 592.135454 283.931988 
L 592.516099 292.258491 
L 592.896744 293.776812 
L 593.277389 291.736378 
L 593.658034 298.487564 
L 594.038678 298.809657 
L 594.419323 289.113825 
L 594.799968 286.657854 
L 595.180613 288.415312 
L 595.561258 285.412619 
L 595.941903 294.345437 
L 596.322548 299.949877 
L 596.703193 298.202057 
L 597.083837 298.94358 
L 597.464482 297.667411 
L 597.845127 294.389445 
L 598.225772 284.680588 
L 598.606417 282.713876 
L 598.987062 272.59454 
L 599.748351 243.271144 
L 600.128996 237.274054 
L 600.890286 232.348843 
L 601.270931 230.879165 
L 602.412866 266.466453 
L 602.79351 269.487562 
L 603.174155 265.567781 
L 603.5548 265.239557 
L 603.935445 261.505228 
L 604.31609 253.719193 
L 604.696735 248.49407 
L 605.07738 240.66989 
L 605.458024 238.588034 
L 605.838669 253.02949 
L 606.219314 261.976844 
L 607.361249 299.695063 
L 607.741894 297.953392 
L 608.122539 300.629231 
L 608.503183 295.693662 
L 608.883828 287.767269 
L 609.264473 292.363761 
L 609.645118 292.30073 
L 610.025763 289.15132 
L 610.406408 289.797051 
L 610.787053 287.914964 
L 611.167697 292.227486 
L 611.548342 304.890451 
L 611.928987 304.909245 
L 612.309632 305.451161 
L 613.070922 316.228414 
L 613.451567 316.211442 
L 613.832212 313.398251 
L 614.212856 311.444679 
L 614.593501 314.032438 
L 614.974146 318.709482 
L 615.354791 327.761368 
L 615.735436 325.42563 
L 616.116081 322.078676 
L 616.496726 310.318923 
L 616.877371 313.202339 
L 617.258015 318.419502 
L 618.019305 321.675427 
L 618.39995 319.737014 
L 618.780595 313.680498 
L 619.16124 304.055604 
L 619.541885 303.309721 
L 620.303174 288.641331 
L 620.683819 296.27354 
L 621.064464 301.141651 
L 621.445109 308.612356 
L 621.825754 310.43519 
L 622.206399 312.971089 
L 622.587044 303.533947 
L 623.348333 296.154217 
L 623.728978 299.025264 
L 624.109623 299.424146 
L 624.490268 303.246815 
L 624.870913 304.188846 
L 625.251558 308.569474 
L 625.632202 324.190426 
L 626.012847 330.843846 
L 626.393492 332.143824 
L 626.774137 330.852528 
L 627.154782 334.058517 
L 627.535427 328.015149 
L 627.916072 330.267095 
L 628.296717 335.762267 
L 628.677361 337.990236 
L 629.058006 331.519004 
L 629.819296 336.6215 
L 630.199941 346.485948 
L 630.580586 360.478667 
L 630.961231 360.497983 
L 631.72252 345.686179 
L 632.103165 357.983951 
L 632.48381 359.608098 
L 632.864455 353.596865 
L 633.2451 342.160759 
L 633.625745 340.369678 
L 634.00639 348.535459 
L 634.387034 350.620374 
L 634.767679 355.288497 
L 635.148324 351.451905 
L 635.909614 358.403052 
L 636.290259 360.041714 
L 636.670904 359.622479 
L 637.051549 350.705653 
L 637.432193 349.90032 
L 637.812838 349.632025 
L 638.574128 355.21256 
L 638.954773 354.813822 
L 639.335418 362.528158 
L 639.716063 361.627076 
L 640.096707 364.600328 
L 640.477352 365.565554 
L 640.857997 365.268269 
L 641.238642 364.082153 
L 641.619287 366.577967 
L 641.999932 367.710892 
L 643.141866 351.647749 
L 643.522511 335.100505 
L 643.903156 333.393831 
L 644.283801 341.328555 
L 644.664446 346.456512 
L 645.045091 340.754993 
L 645.425736 347.210511 
L 645.80638 343.439004 
L 646.187025 347.722116 
L 646.948315 338.19928 
L 647.32896 335.245757 
L 648.09025 333.056437 
L 649.232184 311.043065 
L 649.612829 318.518669 
L 650.374119 341.780302 
L 651.135409 356.626494 
L 651.516053 355.766467 
L 651.896698 351.130606 
L 652.277343 350.00945 
L 652.657988 357.798914 
L 653.038633 361.859586 
L 653.419278 359.07496 
L 654.180568 371.221378 
L 654.561212 374.273235 
L 654.941857 379.709185 
L 655.322502 389.059368 
L 656.083792 397.096969 
L 656.464437 394.725313 
L 656.845082 394.792051 
L 657.225726 396.862411 
L 657.606371 388.613937 
L 657.987016 386.683087 
L 658.748306 397.951949 
L 659.128951 410.687411 
L 659.509596 414.265684 
L 659.890241 413.944224 
L 660.270885 411.414417 
L 660.65153 396.686222 
L 661.032175 394.490316 
L 662.17411 372.515505 
L 662.554755 377.579824 
L 662.9354 376.242888 
L 663.316044 380.336432 
L 663.696689 386.373231 
L 664.077334 394.462734 
L 664.457979 397.531284 
L 665.599914 383.254604 
L 665.980558 380.433174 
L 666.361203 385.189276 
L 666.741848 394.155157 
L 667.122493 400.49303 
L 667.503138 401.346104 
L 667.883783 397.148029 
L 668.264428 394.758752 
L 669.406362 358.40829 
L 670.548297 344.0661 
L 671.309587 358.199819 
L 671.690231 362.92352 
L 672.070876 369.592213 
L 672.451521 360.902169 
L 672.832166 361.223424 
L 673.212811 368.065598 
L 673.593456 372.105472 
L 673.974101 369.691778 
L 674.73539 377.443947 
L 675.116035 371.779314 
L 675.49668 380.370249 
L 675.877325 377.460427 
L 676.25797 371.428922 
L 676.638615 373.995193 
L 677.01926 372.291646 
L 677.399904 361.835077 
L 677.780549 358.313332 
L 678.161194 349.962927 
L 678.541839 349.696415 
L 678.922484 353.938667 
L 679.683774 340.965064 
L 680.064419 338.581659 
L 680.445063 341.11983 
L 680.825708 356.802238 
L 681.206353 357.144916 
L 681.586998 359.401286 
L 681.967643 363.769523 
L 682.348288 359.604496 
L 682.728933 349.428872 
L 683.109578 347.295324 
L 683.490222 347.679248 
L 684.251512 350.186598 
L 684.632157 366.145194 
L 685.012802 370.214518 
L 685.393447 366.042899 
L 685.774092 358.328173 
L 686.535381 361.285254 
L 686.916026 368.394218 
L 687.296671 370.795211 
L 687.677316 376.446777 
L 688.057961 385.032506 
L 688.438606 387.598467 
L 688.819251 389.096345 
L 689.199895 392.645138 
L 689.58054 391.255455 
L 689.961185 391.60801 
L 690.34183 388.221395 
L 690.722475 390.952331 
L 691.864409 367.423437 
L 692.245054 363.468362 
L 692.625699 363.066554 
L 693.006344 364.528174 
L 693.386989 364.660487 
L 693.767634 361.057778 
L 694.148279 349.762211 
L 694.909568 359.511595 
L 695.290213 366.38047 
L 695.670858 370.199169 
L 696.051503 370.450116 
L 696.432148 380.88696 
L 696.812793 383.003601 
L 697.193438 380.871785 
L 697.574082 387.71168 
L 697.954727 392.51228 
L 698.716017 410.228388 
L 699.096662 407.157933 
L 699.477307 411.53635 
L 700.238597 416.797928 
L 700.619241 422.09971 
L 700.999886 420.442173 
L 701.380531 416.089458 
L 702.522466 393.716566 
L 702.903111 389.333046 
L 703.283756 387.708265 
L 703.6644 391.077159 
L 704.045045 390.195227 
L 704.806335 362.144756 
L 705.18698 360.150781 
L 705.567625 365.192718 
L 705.94827 374.075226 
L 706.328914 372.021803 
L 706.709559 375.410344 
L 707.470849 366.96797 
L 707.851494 364.706662 
L 708.232139 360.057901 
L 708.612784 352.883612 
L 708.993429 356.465476 
L 709.754718 331.172774 
L 710.135363 310.159672 
L 710.516008 306.111238 
L 710.896653 299.898647 
L 711.277298 296.511226 
L 711.657943 298.002175 
L 712.038587 305.843605 
L 712.419232 319.684625 
L 712.799877 328.785699 
L 713.561167 325.171772 
L 713.941812 317.708985 
L 714.322457 300.162174 
L 715.083746 276.747617 
L 715.464391 281.130113 
L 716.606326 313.035345 
L 716.986971 313.591258 
L 717.367616 315.407959 
L 717.74826 311.570726 
L 718.128905 302.687849 
L 718.890195 272.01751 
L 719.27084 272.617828 
L 719.651485 261.5351 
L 720.412775 250.949624 
L 720.793419 247.638297 
L 721.554709 268.971978 
L 721.935354 266.551021 
L 722.315999 275.358239 
L 723.077289 303.824478 
L 723.457934 308.760483 
L 724.219223 302.024677 
L 724.599868 307.720805 
L 724.980513 297.329406 
L 725.361158 292.004455 
L 725.741803 289.500933 
L 726.503092 275.555327 
L 727.264382 290.659405 
L 727.645027 288.987721 
L 728.025672 288.811927 
L 728.786962 284.452789 
L 729.167607 279.468866 
L 729.548251 285.991156 
L 729.928896 286.596809 
L 730.309541 285.428457 
L 730.690186 271.910881 
L 731.070831 270.535782 
L 731.451476 277.214863 
L 731.832121 291.543243 
L 732.212765 299.771639 
L 732.59341 311.590717 
L 732.974055 304.978461 
L 733.3547 303.622504 
L 733.735345 300.19374 
L 734.11599 303.946127 
L 734.87728 295.479684 
L 735.257924 302.40303 
L 735.638569 301.489444 
L 736.019214 301.643984 
L 736.399859 305.820266 
L 736.780504 296.505872 
L 737.541794 286.367842 
L 738.303083 296.572198 
L 738.683728 288.286816 
L 739.064373 289.257053 
L 739.445018 292.342813 
L 739.825663 292.719357 
L 740.206308 286.236052 
L 740.967597 271.071302 
L 741.348242 267.521401 
L 741.728887 254.867186 
L 742.109532 263.964057 
L 742.490177 265.411705 
L 743.251467 244.257996 
L 743.632112 243.680367 
L 744.012756 241.544198 
L 744.393401 238.338003 
L 745.535336 249.474904 
L 745.915981 251.854245 
L 746.296626 256.885402 
L 746.67727 265.483304 
L 747.057915 279.262737 
L 747.43856 280.019482 
L 747.819205 271.199638 
L 748.19985 277.323655 
L 748.580495 271.651495 
L 748.96114 269.595383 
L 749.341785 274.85773 
L 750.103074 304.302607 
L 750.483719 303.569814 
L 750.864364 304.658077 
L 751.245009 301.654682 
L 751.625654 285.102763 
L 752.006299 282.713354 
L 752.767588 284.519707 
L 753.148233 290.938286 
L 753.528878 291.782163 
L 753.909523 295.316133 
L 754.670813 280.828164 
L 755.051458 270.798888 
L 755.432102 269.47654 
L 755.812747 271.448319 
L 756.193392 271.659016 
L 756.574037 271.466663 
L 756.954682 268.345909 
L 757.335327 262.897613 
L 757.715972 261.093387 
L 758.096616 265.722578 
L 758.477261 264.960039 
L 758.857906 256.176955 
L 759.238551 252.440547 
L 759.619196 252.241737 
L 760.380486 240.070341 
L 760.761131 243.646861 
L 761.52242 234.254963 
L 761.903065 227.054281 
L 763.045 255.959384 
L 763.80629 281.432375 
L 764.186934 280.101685 
L 764.567579 275.71215 
L 764.948224 273.588388 
L 765.328869 275.931338 
L 765.709514 266.984316 
L 766.090159 265.684967 
L 766.851448 259.950285 
L 767.232093 252.206877 
L 767.612738 250.834473 
L 767.993383 250.441135 
L 768.374028 244.102977 
L 769.135318 249.291218 
L 769.515963 245.717472 
L 770.277252 235.304609 
L 770.657897 239.90135 
L 771.038542 246.77346 
L 771.799832 256.955477 
L 772.180477 265.20215 
L 772.561121 279.061535 
L 772.941766 277.785502 
L 773.322411 283.710349 
L 773.703056 280.246185 
L 774.083701 279.320861 
L 774.464346 282.985494 
L 775.225636 293.714896 
L 775.60628 287.798068 
L 775.986925 276.666524 
L 776.36757 271.743216 
L 776.748215 261.957122 
L 777.12886 256.977331 
L 777.509505 264.397655 
L 777.89015 266.438368 
L 778.651439 260.266666 
L 779.032084 254.975915 
L 779.793374 225.813428 
L 780.174019 222.936697 
L 780.554664 227.99353 
L 780.935309 230.32794 
L 781.315953 231.11565 
L 781.696598 236.229495 
L 782.077243 232.276746 
L 782.457888 239.442985 
L 782.838533 243.201576 
L 783.219178 236.894316 
L 783.599823 226.672034 
L 783.980468 222.224798 
L 784.361112 224.353625 
L 784.741757 224.299864 
L 785.122402 226.652826 
L 785.503047 235.542131 
L 785.883692 248.820584 
L 786.264337 253.087846 
L 787.025626 241.558544 
L 787.406271 241.100805 
L 787.786916 238.168882 
L 788.167561 233.470467 
L 788.548206 233.517453 
L 788.928851 242.414308 
L 789.309496 239.435369 
L 789.690141 240.007342 
L 790.070785 247.795198 
L 790.45143 253.136571 
L 791.21272 272.448208 
L 791.97401 265.93254 
L 792.735299 266.376826 
L 793.115944 262.558272 
L 793.496589 263.183731 
L 794.638524 291.68978 
L 795.399814 280.669934 
L 795.780458 295.841225 
L 796.541748 305.359223 
L 796.922393 304.389351 
L 797.303038 304.843878 
L 797.683683 303.084513 
L 798.444972 312.64479 
L 798.825617 313.091414 
L 799.206262 316.572223 
L 799.586907 324.505781 
L 799.967552 324.773332 
L 800.348197 329.824797 
L 800.728842 333.320272 
L 801.109487 334.099938 
L 801.490131 335.558373 
L 801.870776 337.966257 
L 802.632066 316.56709 
L 803.393356 304.225081 
L 803.774001 301.57705 
L 804.154646 301.061056 
L 804.53529 299.127282 
L 804.915935 299.810327 
L 805.29658 304.307317 
L 805.677225 306.6996 
L 806.05787 306.815304 
L 806.438515 305.564227 
L 806.81916 305.096406 
L 807.199804 307.537448 
L 807.580449 305.999673 
L 807.961094 306.623481 
L 808.341739 304.384175 
L 808.722384 306.52301 
L 809.483674 301.08524 
L 809.864319 300.694399 
L 810.244963 300.476361 
L 810.625608 298.932335 
L 811.006253 299.281126 
L 811.386898 293.522577 
L 811.767543 301.736569 
L 812.148188 313.654513 
L 812.909477 327.323712 
L 813.290122 326.567799 
L 813.670767 331.269397 
L 814.432057 337.191016 
L 814.812702 340.032908 
L 815.193347 340.423993 
L 815.573992 344.320327 
L 816.335281 333.153209 
L 817.096571 328.530375 
L 817.477216 325.978471 
L 817.857861 334.789614 
L 818.61915 360.378951 
L 818.999795 357.184045 
L 819.38044 364.895615 
L 819.761085 366.486886 
L 820.522375 355.073388 
L 820.90302 353.258441 
L 822.425599 321.016534 
L 822.806244 319.946582 
L 823.567534 323.616887 
L 823.948179 321.731242 
L 824.328824 322.249143 
L 824.709468 325.132553 
L 825.090113 324.772673 
L 825.470758 332.271636 
L 825.851403 354.873964 
L 826.232048 360.552501 
L 826.612693 367.919364 
L 826.993338 377.62879 
L 827.373982 372.301515 
L 827.754627 369.797162 
L 828.135272 357.039854 
L 828.515917 352.980831 
L 828.896562 364.086622 
L 829.277207 361.392298 
L 830.038497 373.528401 
L 830.419141 384.651188 
L 830.799786 382.552452 
L 831.180431 385.980249 
L 831.561076 380.516444 
L 832.322366 354.467553 
L 832.703011 348.763572 
L 833.083655 359.801326 
L 833.4643 365.490798 
L 833.844945 363.413401 
L 834.22559 362.998442 
L 834.606235 364.180388 
L 836.128814 356.037206 
L 837.270749 340.129345 
L 837.651394 337.112613 
L 838.032039 336.446495 
L 838.412684 336.514546 
L 838.793328 349.855811 
L 839.173973 349.174546 
L 839.554618 341.592135 
L 840.315908 335.852 
L 840.696553 323.329702 
L 841.077198 320.783559 
L 841.457843 322.994403 
L 841.838487 318.771421 
L 842.219132 327.41362 
L 842.980422 331.613783 
L 843.361067 330.808526 
L 843.741712 328.273231 
L 844.122357 330.514992 
L 844.503002 328.826927 
L 845.264291 334.873757 
L 845.644936 330.150024 
L 846.025581 320.10546 
L 846.406226 315.7934 
L 846.786871 309.074624 
L 847.167516 299.799888 
L 847.54816 293.717237 
L 847.928805 300.987517 
L 848.30945 302.032084 
L 848.690095 293.362949 
L 849.07074 278.773551 
L 849.451385 276.948997 
L 849.83203 282.550611 
L 850.212675 290.237389 
L 850.593319 283.015429 
L 850.973964 281.786629 
L 851.354609 282.345278 
L 851.735254 290.376099 
L 852.496544 283.028971 
L 852.877189 275.44294 
L 853.257833 270.84688 
L 853.638478 264.099177 
L 854.019123 264.619478 
L 854.399768 262.705913 
L 854.780413 265.838707 
L 855.161058 266.222324 
L 855.541703 263.972516 
L 855.922348 257.200104 
L 856.302992 256.594958 
L 856.683637 255.710821 
L 857.064282 262.270322 
L 857.444927 264.539422 
L 857.825572 264.403929 
L 858.206217 264.39949 
L 858.586862 263.612321 
L 858.967506 259.26387 
L 859.348151 260.550514 
L 859.728796 254.887138 
L 860.109441 259.292743 
L 860.490086 246.614756 
L 861.251376 218.06785 
L 861.632021 211.495368 
L 862.012665 217.859354 
L 863.1546 246.871278 
L 863.535245 245.518947 
L 863.91589 235.866134 
L 864.296535 231.966743 
L 864.677179 238.182314 
L 865.057824 248.519868 
L 865.438469 252.652614 
L 865.819114 253.923622 
L 866.580404 252.493482 
L 867.341694 246.52094 
L 867.722338 248.09076 
L 868.102983 243.92809 
L 868.483628 234.374146 
L 868.864273 233.581832 
L 869.244918 228.977332 
L 869.625563 231.956224 
L 870.006208 237.52674 
L 870.386853 255.658579 
L 870.767497 266.658512 
L 871.148142 270.066949 
L 871.528787 260.279412 
L 871.909432 256.491452 
L 872.290077 262.085355 
L 872.670722 273.561567 
L 873.051367 272.843866 
L 873.432011 271.49239 
L 873.812656 268.434899 
L 874.193301 273.809022 
L 874.573946 267.491462 
L 874.954591 247.252763 
L 875.335236 235.231675 
L 875.715881 237.15935 
L 876.096526 236.54477 
L 876.47717 233.915136 
L 876.857815 246.311115 
L 877.23846 248.536654 
L 877.619105 246.766874 
L 877.99975 248.016698 
L 878.380395 240.962635 
L 878.76104 237.184083 
L 879.141684 248.923826 
L 879.522329 249.620919 
L 880.283619 234.973537 
L 880.664264 233.41046 
L 881.044909 238.225588 
L 881.806199 228.81757 
L 882.186843 230.770677 
L 882.567488 231.71149 
L 882.948133 237.47406 
L 883.328778 236.690199 
L 883.709423 226.839421 
L 884.470713 220.263405 
L 884.851357 212.391287 
L 885.232002 211.28285 
L 885.993292 217.91386 
L 886.373937 223.695038 
L 886.754582 226.057334 
L 887.135227 227.227495 
L 887.515872 226.983125 
L 887.896516 218.456437 
L 888.277161 214.752798 
L 888.657806 219.61006 
L 889.038451 226.030329 
L 889.419096 228.450423 
L 889.799741 226.968476 
L 890.180386 221.818613 
L 890.941675 238.342275 
L 891.32232 234.525998 
L 891.702965 221.40939 
L 892.08361 217.723068 
L 892.464255 215.443593 
L 892.8449 208.414233 
L 893.225545 204.570825 
L 894.748124 216.501454 
L 895.128769 206.533871 
L 895.890059 209.133591 
L 896.270704 204.051167 
L 897.031993 221.552735 
L 897.412638 232.444602 
L 898.173928 230.945683 
L 898.554573 230.786992 
L 898.935218 235.299538 
L 899.315862 232.122507 
L 899.696507 230.654369 
L 900.077152 224.478644 
L 900.457797 221.01123 
L 900.838442 215.356642 
L 901.219087 212.706365 
L 901.599732 228.214226 
L 902.741666 239.542052 
L 903.122311 232.854695 
L 903.502956 224.007289 
L 903.883601 221.905308 
L 904.644891 223.377137 
L 905.025535 223.540365 
L 905.40618 214.933774 
L 906.16747 204.000012 
L 906.548115 201.281311 
L 906.92876 203.588886 
L 907.309405 209.80069 
L 907.69005 206.680551 
L 908.070694 197.59312 
L 908.451339 193.922284 
L 908.831984 186.91992 
L 909.212629 190.482806 
L 909.593274 189.720305 
L 909.973919 189.90978 
L 910.354564 186.294478 
L 910.735209 192.466783 
L 911.115853 191.264075 
L 911.496498 204.322162 
L 911.877143 208.922432 
L 912.257788 192.952961 
L 912.638433 197.292193 
L 913.019078 199.303185 
L 913.399723 195.725232 
L 913.780367 183.808412 
L 914.541657 179.661915 
L 914.922302 190.396944 
L 915.683592 192.971026 
L 916.064237 191.070969 
L 916.444882 188.229196 
L 916.825526 195.387914 
L 917.206171 196.577032 
L 917.586816 191.101643 
L 917.967461 197.020626 
L 918.728751 199.270538 
L 919.109396 209.265816 
L 919.49004 212.737173 
L 919.870685 219.873126 
L 920.25133 214.066903 
L 920.631975 213.839857 
L 921.393265 206.35025 
L 921.77391 192.524106 
L 922.154555 192.366732 
L 922.535199 190.460494 
L 922.915844 191.50358 
L 923.296489 190.014272 
L 923.677134 199.903529 
L 924.057779 197.799635 
L 924.438424 199.253137 
L 924.819069 194.548838 
L 925.199713 194.430624 
L 925.580358 194.462108 
L 926.341648 188.051244 
L 926.722293 185.990506 
L 927.102938 187.672802 
L 927.483583 182.660864 
L 927.864228 163.30664 
L 928.244872 159.231122 
L 928.625517 159.674574 
L 929.006162 163.123758 
L 929.386807 173.328392 
L 929.767452 175.063935 
L 930.148097 173.979191 
L 930.528742 176.96385 
L 930.909387 182.751594 
L 931.290031 193.405909 
L 931.670676 198.774128 
L 932.431966 186.028809 
L 932.812611 183.896007 
L 933.193256 190.558663 
L 933.573901 189.753354 
L 933.954545 183.544388 
L 933.954545 183.544388 
" clip-path="url(#p4a2fbbea8a)" style="fill: none; stroke: #4c72b0; stroke-width: 1.5; stroke-linecap: round"/>
   </g>
   <g id="patch_3">
    <path d="M 135 768.96 
L 135 103.68 
" style="fill: none; stroke: #ffffff; stroke-width: 1.25; stroke-linejoin: miter; stroke-linecap: square"/>
   </g>
   <g id="patch_4">
    <path d="M 972 768.96 
L 972 103.68 
" style="fill: none; stroke: #ffffff; stroke-width: 1.25; stroke-linejoin: miter; stroke-linecap: square"/>
   </g>
   <g id="patch_5">
    <path d="M 135 768.96 
L 972 768.96 
" style="fill: none; stroke: #ffffff; stroke-width: 1.25; stroke-linejoin: miter; stroke-linecap: square"/>
   </g>
   <g id="patch_6">
    <path d="M 135 103.68 
L 972 103.68 
" style="fill: none; stroke: #ffffff; stroke-width: 1.25; stroke-linejoin: miter; stroke-linecap: square"/>
   </g>
   <g id="text_20">
    <!-- Applied mask: @CA,C,O,N  Simulation time: 2 ns -->
    <g style="fill: #262626" transform="translate(407.754375 97.68) scale(0.12 -0.12)">
     <defs>
      <path id="DejaVuSans-41" d="M 2188 4044 
L 1331 1722 
L 3047 1722 
L 2188 4044 
z
M 1831 4666 
L 2547 4666 
L 4325 0 
L 3669 0 
L 3244 1197 
L 1141 1197 
L 716 0 
L 50 0 
L 1831 4666 
z
" transform="scale(0.015625)"/>
      <path id="DejaVuSans-70" d="M 1159 525 
L 1159 -1331 
L 581 -1331 
L 581 3500 
L 1159 3500 
L 1159 2969 
Q 1341 3281 1617 3432 
Q 1894 3584 2278 3584 
Q 2916 3584 3314 3078 
Q 3713 2572 3713 1747 
Q 3713 922 3314 415 
Q 2916 -91 2278 -91 
Q 1894 -91 1617 61 
Q 1341 213 1159 525 
z
M 3116 1747 
Q 3116 2381 2855 2742 
Q 2594 3103 2138 3103 
Q 1681 3103 1420 2742 
Q 1159 2381 1159 1747 
Q 1159 1113 1420 752 
Q 1681 391 2138 391 
Q 2594 391 2855 752 
Q 3116 1113 3116 1747 
z
" transform="scale(0.015625)"/>
      <path id="DejaVuSans-6c" d="M 603 4863 
L 1178 4863 
L 1178 0 
L 603 0 
L 603 4863 
z
" transform="scale(0.015625)"/>
      <path id="DejaVuSans-69" d="M 603 3500 
L 1178 3500 
L 1178 0 
L 603 0 
L 603 3500 
z
M 603 4863 
L 1178 4863 
L 1178 4134 
L 603 4134 
L 603 4863 
z
" transform="scale(0.015625)"/>
      <path id="DejaVuSans-65" d="M 3597 1894 
L 3597 1613 
L 953 1613 
Q 991 1019 1311 708 
Q 1631 397 2203 397 
Q 2534 397 2845 478 
Q 3156 559 3463 722 
L 3463 178 
Q 3153 47 2828 -22 
Q 2503 -91 2169 -91 
Q 1331 -91 842 396 
Q 353 884 353 1716 
Q 353 2575 817 3079 
Q 1281 3584 2069 3584 
Q 2775 3584 3186 3129 
Q 3597 2675 3597 1894 
z
M 3022 2063 
Q 3016 2534 2758 2815 
Q 2500 3097 2075 3097 
Q 1594 3097 1305 2825 
Q 1016 2553 972 2059 
L 3022 2063 
z
" transform="scale(0.015625)"/>
      <path id="DejaVuSans-64" d="M 2906 2969 
L 2906 4863 
L 3481 4863 
L 3481 0 
L 2906 0 
L 2906 525 
Q 2725 213 2448 61 
Q 2172 -91 1784 -91 
Q 1150 -91 751 415 
Q 353 922 353 1747 
Q 353 2572 751 3078 
Q 1150 3584 1784 3584 
Q 2172 3584 2448 3432 
Q 2725 3281 2906 2969 
z
M 947 1747 
Q 947 1113 1208 752 
Q 1469 391 1925 391 
Q 2381 391 2643 752 
Q 2906 1113 2906 1747 
Q 2906 2381 2643 2742 
Q 2381 3103 1925 3103 
Q 1469 3103 1208 2742 
Q 947 2381 947 1747 
z
" transform="scale(0.015625)"/>
      <path id="DejaVuSans-20" transform="scale(0.015625)"/>
      <path id="DejaVuSans-6d" d="M 3328 2828 
Q 3544 3216 3844 3400 
Q 4144 3584 4550 3584 
Q 5097 3584 5394 3201 
Q 5691 2819 5691 2113 
L 5691 0 
L 5113 0 
L 5113 2094 
Q 5113 2597 4934 2840 
Q 4756 3084 4391 3084 
Q 3944 3084 3684 2787 
Q 3425 2491 3425 1978 
L 3425 0 
L 2847 0 
L 2847 2094 
Q 2847 2600 2669 2842 
Q 2491 3084 2119 3084 
Q 1678 3084 1418 2786 
Q 1159 2488 1159 1978 
L 1159 0 
L 581 0 
L 581 3500 
L 1159 3500 
L 1159 2956 
Q 1356 3278 1631 3431 
Q 1906 3584 2284 3584 
Q 2666 3584 2933 3390 
Q 3200 3197 3328 2828 
z
" transform="scale(0.015625)"/>
      <path id="DejaVuSans-61" d="M 2194 1759 
Q 1497 1759 1228 1600 
Q 959 1441 959 1056 
Q 959 750 1161 570 
Q 1363 391 1709 391 
Q 2188 391 2477 730 
Q 2766 1069 2766 1631 
L 2766 1759 
L 2194 1759 
z
M 3341 1997 
L 3341 0 
L 2766 0 
L 2766 531 
Q 2569 213 2275 61 
Q 1981 -91 1556 -91 
Q 1019 -91 701 211 
Q 384 513 384 1019 
Q 384 1609 779 1909 
Q 1175 2209 1959 2209 
L 2766 2209 
L 2766 2266 
Q 2766 2663 2505 2880 
Q 2244 3097 1772 3097 
Q 1472 3097 1187 3025 
Q 903 2953 641 2809 
L 641 3341 
Q 956 3463 1253 3523 
Q 1550 3584 1831 3584 
Q 2591 3584 2966 3190 
Q 3341 2797 3341 1997 
z
" transform="scale(0.015625)"/>
      <path id="DejaVuSans-73" d="M 2834 3397 
L 2834 2853 
Q 2591 2978 2328 3040 
Q 2066 3103 1784 3103 
Q 1356 3103 1142 2972 
Q 928 2841 928 2578 
Q 928 2378 1081 2264 
Q 1234 2150 1697 2047 
L 1894 2003 
Q 2506 1872 2764 1633 
Q 3022 1394 3022 966 
Q 3022 478 2636 193 
Q 2250 -91 1575 -91 
Q 1294 -91 989 -36 
Q 684 19 347 128 
L 347 722 
Q 666 556 975 473 
Q 1284 391 1588 391 
Q 1994 391 2212 530 
Q 2431 669 2431 922 
Q 2431 1156 2273 1281 
Q 2116 1406 1581 1522 
L 1381 1569 
Q 847 1681 609 1914 
Q 372 2147 372 2553 
Q 372 3047 722 3315 
Q 1072 3584 1716 3584 
Q 2034 3584 2315 3537 
Q 2597 3491 2834 3397 
z
" transform="scale(0.015625)"/>
      <path id="DejaVuSans-6b" d="M 581 4863 
L 1159 4863 
L 1159 1991 
L 2875 3500 
L 3609 3500 
L 1753 1863 
L 3688 0 
L 2938 0 
L 1159 1709 
L 1159 0 
L 581 0 
L 581 4863 
z
" transform="scale(0.015625)"/>
      <path id="DejaVuSans-3a" d="M 750 794 
L 1409 794 
L 1409 0 
L 750 0 
L 750 794 
z
M 750 3309 
L 1409 3309 
L 1409 2516 
L 750 2516 
L 750 3309 
z
" transform="scale(0.015625)"/>
      <path id="DejaVuSans-40" d="M 2381 1678 
Q 2381 1231 2603 976 
Q 2825 722 3213 722 
Q 3597 722 3817 978 
Q 4038 1234 4038 1678 
Q 4038 2116 3813 2373 
Q 3588 2631 3206 2631 
Q 2828 2631 2604 2375 
Q 2381 2119 2381 1678 
z
M 4084 744 
Q 3897 503 3655 389 
Q 3413 275 3091 275 
Q 2553 275 2217 664 
Q 1881 1053 1881 1678 
Q 1881 2303 2218 2693 
Q 2556 3084 3091 3084 
Q 3413 3084 3656 2967 
Q 3900 2850 4084 2613 
L 4084 3022 
L 4531 3022 
L 4531 722 
Q 4988 791 5245 1139 
Q 5503 1488 5503 2041 
Q 5503 2375 5404 2669 
Q 5306 2963 5106 3213 
Q 4781 3622 4314 3839 
Q 3847 4056 3297 4056 
Q 2913 4056 2559 3954 
Q 2206 3853 1906 3653 
Q 1416 3334 1139 2817 
Q 863 2300 863 1697 
Q 863 1200 1042 765 
Q 1222 331 1563 0 
Q 1891 -325 2322 -495 
Q 2753 -666 3244 -666 
Q 3647 -666 4036 -530 
Q 4425 -394 4750 -141 
L 5031 -488 
Q 4641 -791 4180 -952 
Q 3719 -1113 3244 -1113 
Q 2666 -1113 2153 -908 
Q 1641 -703 1241 -313 
Q 841 78 631 592 
Q 422 1106 422 1697 
Q 422 2266 634 2781 
Q 847 3297 1241 3688 
Q 1644 4084 2172 4295 
Q 2700 4506 3291 4506 
Q 3953 4506 4520 4234 
Q 5088 3963 5472 3463 
Q 5706 3156 5829 2797 
Q 5953 2438 5953 2053 
Q 5953 1231 5456 756 
Q 4959 281 4084 263 
L 4084 744 
z
" transform="scale(0.015625)"/>
      <path id="DejaVuSans-43" d="M 4122 4306 
L 4122 3641 
Q 3803 3938 3442 4084 
Q 3081 4231 2675 4231 
Q 1875 4231 1450 3742 
Q 1025 3253 1025 2328 
Q 1025 1406 1450 917 
Q 1875 428 2675 428 
Q 3081 428 3442 575 
Q 3803 722 4122 1019 
L 4122 359 
Q 3791 134 3420 21 
Q 3050 -91 2638 -91 
Q 1578 -91 968 557 
Q 359 1206 359 2328 
Q 359 3453 968 4101 
Q 1578 4750 2638 4750 
Q 3056 4750 3426 4639 
Q 3797 4528 4122 4306 
z
" transform="scale(0.015625)"/>
      <path id="DejaVuSans-2c" d="M 750 794 
L 1409 794 
L 1409 256 
L 897 -744 
L 494 -744 
L 750 256 
L 750 794 
z
" transform="scale(0.015625)"/>
      <path id="DejaVuSans-4f" d="M 2522 4238 
Q 1834 4238 1429 3725 
Q 1025 3213 1025 2328 
Q 1025 1447 1429 934 
Q 1834 422 2522 422 
Q 3209 422 3611 934 
Q 4013 1447 4013 2328 
Q 4013 3213 3611 3725 
Q 3209 4238 2522 4238 
z
M 2522 4750 
Q 3503 4750 4090 4092 
Q 4678 3434 4678 2328 
Q 4678 1225 4090 567 
Q 3503 -91 2522 -91 
Q 1538 -91 948 565 
Q 359 1222 359 2328 
Q 359 3434 948 4092 
Q 1538 4750 2522 4750 
z
" transform="scale(0.015625)"/>
      <path id="DejaVuSans-4e" d="M 628 4666 
L 1478 4666 
L 3547 763 
L 3547 4666 
L 4159 4666 
L 4159 0 
L 3309 0 
L 1241 3903 
L 1241 0 
L 628 0 
L 628 4666 
z
" transform="scale(0.015625)"/>
      <path id="DejaVuSans-53" d="M 3425 4513 
L 3425 3897 
Q 3066 4069 2747 4153 
Q 2428 4238 2131 4238 
Q 1616 4238 1336 4038 
Q 1056 3838 1056 3469 
Q 1056 3159 1242 3001 
Q 1428 2844 1947 2747 
L 2328 2669 
Q 3034 2534 3370 2195 
Q 3706 1856 3706 1288 
Q 3706 609 3251 259 
Q 2797 -91 1919 -91 
Q 1588 -91 1214 -16 
Q 841 59 441 206 
L 441 856 
Q 825 641 1194 531 
Q 1563 422 1919 422 
Q 2459 422 2753 634 
Q 3047 847 3047 1241 
Q 3047 1584 2836 1778 
Q 2625 1972 2144 2069 
L 1759 2144 
Q 1053 2284 737 2584 
Q 422 2884 422 3419 
Q 422 4038 858 4394 
Q 1294 4750 2059 4750 
Q 2388 4750 2728 4690 
Q 3069 4631 3425 4513 
z
" transform="scale(0.015625)"/>
      <path id="DejaVuSans-75" d="M 544 1381 
L 544 3500 
L 1119 3500 
L 1119 1403 
Q 1119 906 1312 657 
Q 1506 409 1894 409 
Q 2359 409 2629 706 
Q 2900 1003 2900 1516 
L 2900 3500 
L 3475 3500 
L 3475 0 
L 2900 0 
L 2900 538 
Q 2691 219 2414 64 
Q 2138 -91 1772 -91 
Q 1169 -91 856 284 
Q 544 659 544 1381 
z
M 1991 3584 
L 1991 3584 
z
" transform="scale(0.015625)"/>
      <path id="DejaVuSans-74" d="M 1172 4494 
L 1172 3500 
L 2356 3500 
L 2356 3053 
L 1172 3053 
L 1172 1153 
Q 1172 725 1289 603 
Q 1406 481 1766 481 
L 2356 481 
L 2356 0 
L 1766 0 
Q 1100 0 847 248 
Q 594 497 594 1153 
L 594 3053 
L 172 3053 
L 172 3500 
L 594 3500 
L 594 4494 
L 1172 4494 
z
" transform="scale(0.015625)"/>
      <path id="DejaVuSans-6f" d="M 1959 3097 
Q 1497 3097 1228 2736 
Q 959 2375 959 1747 
Q 959 1119 1226 758 
Q 1494 397 1959 397 
Q 2419 397 2687 759 
Q 2956 1122 2956 1747 
Q 2956 2369 2687 2733 
Q 2419 3097 1959 3097 
z
M 1959 3584 
Q 2709 3584 3137 3096 
Q 3566 2609 3566 1747 
Q 3566 888 3137 398 
Q 2709 -91 1959 -91 
Q 1206 -91 779 398 
Q 353 888 353 1747 
Q 353 2609 779 3096 
Q 1206 3584 1959 3584 
z
" transform="scale(0.015625)"/>
      <path id="DejaVuSans-6e" d="M 3513 2113 
L 3513 0 
L 2938 0 
L 2938 2094 
Q 2938 2591 2744 2837 
Q 2550 3084 2163 3084 
Q 1697 3084 1428 2787 
Q 1159 2491 1159 1978 
L 1159 0 
L 581 0 
L 581 3500 
L 1159 3500 
L 1159 2956 
Q 1366 3272 1645 3428 
Q 1925 3584 2291 3584 
Q 2894 3584 3203 3211 
Q 3513 2838 3513 2113 
z
" transform="scale(0.015625)"/>
     </defs>
     <use xlink:href="#DejaVuSans-41"/>
     <use xlink:href="#DejaVuSans-70" x="68.408203"/>
     <use xlink:href="#DejaVuSans-70" x="131.884766"/>
     <use xlink:href="#DejaVuSans-6c" x="195.361328"/>
     <use xlink:href="#DejaVuSans-69" x="223.144531"/>
     <use xlink:href="#DejaVuSans-65" x="250.927734"/>
     <use xlink:href="#DejaVuSans-64" x="312.451172"/>
     <use xlink:href="#DejaVuSans-20" x="375.927734"/>
     <use xlink:href="#DejaVuSans-6d" x="407.714844"/>
     <use xlink:href="#DejaVuSans-61" x="505.126953"/>
     <use xlink:href="#DejaVuSans-73" x="566.40625"/>
     <use xlink:href="#DejaVuSans-6b" x="618.505859"/>
     <use xlink:href="#DejaVuSans-3a" x="676.416016"/>
     <use xlink:href="#DejaVuSans-20" x="710.107422"/>
     <use xlink:href="#DejaVuSans-40" x="741.894531"/>
     <use xlink:href="#DejaVuSans-43" x="841.894531"/>
     <use xlink:href="#DejaVuSans-41" x="911.71875"/>
     <use xlink:href="#DejaVuSans-2c" x="980.126953"/>
     <use xlink:href="#DejaVuSans-43" x="1011.914062"/>
     <use xlink:href="#DejaVuSans-2c" x="1081.738281"/>
     <use xlink:href="#DejaVuSans-4f" x="1113.525391"/>
     <use xlink:href="#DejaVuSans-2c" x="1192.236328"/>
     <use xlink:href="#DejaVuSans-4e" x="1224.023438"/>
     <use xlink:href="#DejaVuSans-20" x="1298.828125"/>
     <use xlink:href="#DejaVuSans-20" x="1330.615234"/>
     <use xlink:href="#DejaVuSans-53" x="1362.402344"/>
     <use xlink:href="#DejaVuSans-69" x="1425.878906"/>
     <use xlink:href="#DejaVuSans-6d" x="1453.662109"/>
     <use xlink:href="#DejaVuSans-75" x="1551.074219"/>
     <use xlink:href="#DejaVuSans-6c" x="1614.453125"/>
     <use xlink:href="#DejaVuSans-61" x="1642.236328"/>
     <use xlink:href="#DejaVuSans-74" x="1703.515625"/>
     <use xlink:href="#DejaVuSans-69" x="1742.724609"/>
     <use xlink:href="#DejaVuSans-6f" x="1770.507812"/>
     <use xlink:href="#DejaVuSans-6e" x="1831.689453"/>
     <use xlink:href="#DejaVuSans-20" x="1895.068359"/>
     <use xlink:href="#DejaVuSans-74" x="1926.855469"/>
     <use xlink:href="#DejaVuSans-69" x="1966.064453"/>
     <use xlink:href="#DejaVuSans-6d" x="1993.847656"/>
     <use xlink:href="#DejaVuSans-65" x="2091.259766"/>
     <use xlink:href="#DejaVuSans-3a" x="2152.783203"/>
     <use xlink:href="#DejaVuSans-20" x="2186.474609"/>
     <use xlink:href="#DejaVuSans-32" x="2218.261719"/>
     <use xlink:href="#DejaVuSans-20" x="2281.884766"/>
     <use xlink:href="#DejaVuSans-6e" x="2313.671875"/>
     <use xlink:href="#DejaVuSans-73" x="2377.050781"/>
    </g>
   </g>
  </g>
  <g id="text_21">
   <!-- Root Mean Square Deviation: MD data test -->
   <g style="fill: #262626" transform="translate(366.0435 28.22175) scale(0.144 -0.144)">
    <defs>
     <path id="DejaVuSans-Bold-6f" d="M 2203 2784 
Q 1831 2784 1636 2517 
Q 1441 2250 1441 1747 
Q 1441 1244 1636 976 
Q 1831 709 2203 709 
Q 2569 709 2762 976 
Q 2956 1244 2956 1747 
Q 2956 2250 2762 2517 
Q 2569 2784 2203 2784 
z
M 2203 3584 
Q 3106 3584 3614 3096 
Q 4122 2609 4122 1747 
Q 4122 884 3614 396 
Q 3106 -91 2203 -91 
Q 1297 -91 786 396 
Q 275 884 275 1747 
Q 275 2609 786 3096 
Q 1297 3584 2203 3584 
z
" transform="scale(0.015625)"/>
     <path id="DejaVuSans-Bold-74" d="M 1759 4494 
L 1759 3500 
L 2913 3500 
L 2913 2700 
L 1759 2700 
L 1759 1216 
Q 1759 972 1856 886 
Q 1953 800 2241 800 
L 2816 800 
L 2816 0 
L 1856 0 
Q 1194 0 917 276 
Q 641 553 641 1216 
L 641 2700 
L 84 2700 
L 84 3500 
L 641 3500 
L 641 4494 
L 1759 4494 
z
" transform="scale(0.015625)"/>
     <path id="DejaVuSans-Bold-6e" d="M 4056 2131 
L 4056 0 
L 2931 0 
L 2931 347 
L 2931 1631 
Q 2931 2084 2911 2256 
Q 2891 2428 2841 2509 
Q 2775 2619 2662 2680 
Q 2550 2741 2406 2741 
Q 2056 2741 1856 2470 
Q 1656 2200 1656 1722 
L 1656 0 
L 538 0 
L 538 3500 
L 1656 3500 
L 1656 2988 
Q 1909 3294 2193 3439 
Q 2478 3584 2822 3584 
Q 3428 3584 3742 3212 
Q 4056 2841 4056 2131 
z
" transform="scale(0.015625)"/>
     <path id="DejaVuSans-Bold-71" d="M 2181 2772 
Q 1825 2772 1636 2509 
Q 1447 2247 1447 1747 
Q 1447 1247 1636 984 
Q 1825 722 2181 722 
Q 2541 722 2730 984 
Q 2919 1247 2919 1747 
Q 2919 2247 2730 2509 
Q 2541 2772 2181 2772 
z
M 2919 506 
Q 2688 197 2409 53 
Q 2131 -91 1766 -91 
Q 1119 -91 703 423 
Q 288 938 288 1747 
Q 288 2556 703 3067 
Q 1119 3578 1766 3578 
Q 2131 3578 2409 3434 
Q 2688 3291 2919 2981 
L 2919 3500 
L 4044 3500 
L 4044 -1331 
L 2919 -1331 
L 2919 506 
z
" transform="scale(0.015625)"/>
     <path id="DejaVuSans-Bold-75" d="M 500 1363 
L 500 3500 
L 1625 3500 
L 1625 3150 
Q 1625 2866 1622 2436 
Q 1619 2006 1619 1863 
Q 1619 1441 1641 1255 
Q 1663 1069 1716 984 
Q 1784 875 1895 815 
Q 2006 756 2150 756 
Q 2500 756 2700 1025 
Q 2900 1294 2900 1772 
L 2900 3500 
L 4019 3500 
L 4019 0 
L 2900 0 
L 2900 506 
Q 2647 200 2364 54 
Q 2081 -91 1741 -91 
Q 1134 -91 817 281 
Q 500 653 500 1363 
z
" transform="scale(0.015625)"/>
     <path id="DejaVuSans-Bold-76" d="M 97 3500 
L 1216 3500 
L 2088 1081 
L 2956 3500 
L 4078 3500 
L 2700 0 
L 1472 0 
L 97 3500 
z
" transform="scale(0.015625)"/>
     <path id="DejaVuSans-Bold-69" d="M 538 3500 
L 1656 3500 
L 1656 0 
L 538 0 
L 538 3500 
z
M 538 4863 
L 1656 4863 
L 1656 3950 
L 538 3950 
L 538 4863 
z
" transform="scale(0.015625)"/>
     <path id="DejaVuSans-Bold-3a" d="M 716 3500 
L 1844 3500 
L 1844 2291 
L 716 2291 
L 716 3500 
z
M 716 1209 
L 1844 1209 
L 1844 0 
L 716 0 
L 716 1209 
z
" transform="scale(0.015625)"/>
     <path id="DejaVuSans-Bold-64" d="M 2919 2988 
L 2919 4863 
L 4044 4863 
L 4044 0 
L 2919 0 
L 2919 506 
Q 2688 197 2409 53 
Q 2131 -91 1766 -91 
Q 1119 -91 703 423 
Q 288 938 288 1747 
Q 288 2556 703 3070 
Q 1119 3584 1766 3584 
Q 2128 3584 2408 3439 
Q 2688 3294 2919 2988 
z
M 2181 722 
Q 2541 722 2730 984 
Q 2919 1247 2919 1747 
Q 2919 2247 2730 2509 
Q 2541 2772 2181 2772 
Q 1825 2772 1636 2509 
Q 1447 2247 1447 1747 
Q 1447 1247 1636 984 
Q 1825 722 2181 722 
z
" transform="scale(0.015625)"/>
    </defs>
    <use xlink:href="#DejaVuSans-Bold-52"/>
    <use xlink:href="#DejaVuSans-Bold-6f" x="77.001953"/>
    <use xlink:href="#DejaVuSans-Bold-6f" x="145.703125"/>
    <use xlink:href="#DejaVuSans-Bold-74" x="214.404297"/>
    <use xlink:href="#DejaVuSans-Bold-20" x="262.207031"/>
    <use xlink:href="#DejaVuSans-Bold-4d" x="297.021484"/>
    <use xlink:href="#DejaVuSans-Bold-65" x="396.533203"/>
    <use xlink:href="#DejaVuSans-Bold-61" x="464.355469"/>
    <use xlink:href="#DejaVuSans-Bold-6e" x="531.835938"/>
    <use xlink:href="#DejaVuSans-Bold-20" x="603.027344"/>
    <use xlink:href="#DejaVuSans-Bold-53" x="637.841797"/>
    <use xlink:href="#DejaVuSans-Bold-71" x="709.863281"/>
    <use xlink:href="#DejaVuSans-Bold-75" x="781.445312"/>
    <use xlink:href="#DejaVuSans-Bold-61" x="852.636719"/>
    <use xlink:href="#DejaVuSans-Bold-72" x="920.117188"/>
    <use xlink:href="#DejaVuSans-Bold-65" x="969.433594"/>
    <use xlink:href="#DejaVuSans-Bold-20" x="1037.255859"/>
    <use xlink:href="#DejaVuSans-Bold-44" x="1072.070312"/>
    <use xlink:href="#DejaVuSans-Bold-65" x="1155.078125"/>
    <use xlink:href="#DejaVuSans-Bold-76" x="1222.900391"/>
    <use xlink:href="#DejaVuSans-Bold-69" x="1288.085938"/>
    <use xlink:href="#DejaVuSans-Bold-61" x="1322.363281"/>
    <use xlink:href="#DejaVuSans-Bold-74" x="1389.84375"/>
    <use xlink:href="#DejaVuSans-Bold-69" x="1437.646484"/>
    <use xlink:href="#DejaVuSans-Bold-6f" x="1471.923828"/>
    <use xlink:href="#DejaVuSans-Bold-6e" x="1540.625"/>
    <use xlink:href="#DejaVuSans-Bold-3a" x="1611.816406"/>
    <use xlink:href="#DejaVuSans-Bold-20" x="1651.806641"/>
    <use xlink:href="#DejaVuSans-Bold-4d" x="1686.621094"/>
    <use xlink:href="#DejaVuSans-Bold-44" x="1786.132812"/>
    <use xlink:href="#DejaVuSans-Bold-20" x="1869.140625"/>
    <use xlink:href="#DejaVuSans-Bold-64" x="1903.955078"/>
    <use xlink:href="#DejaVuSans-Bold-61" x="1975.537109"/>
    <use xlink:href="#DejaVuSans-Bold-74" x="2043.017578"/>
    <use xlink:href="#DejaVuSans-Bold-61" x="2090.820312"/>
    <use xlink:href="#DejaVuSans-Bold-20" x="2158.300781"/>
    <use xlink:href="#DejaVuSans-Bold-74" x="2193.115234"/>
    <use xlink:href="#DejaVuSans-Bold-65" x="2240.917969"/>
    <use xlink:href="#DejaVuSans-Bold-73" x="2308.740234"/>
    <use xlink:href="#DejaVuSans-Bold-74" x="2368.261719"/>
   </g>
  </g>
 </g>
 <defs>
  <clipPath id="p4a2fbbea8a">
   <rect x="135" y="103.68" width="837" height="665.28"/>
  </clipPath>
 </defs>
</svg>
